<?xml version="1.0" encoding="utf-8"?>
<!-- Generator: Adobe Illustrator 16.0.0, SVG Export Plug-In . SVG Version: 6.00 Build 0)  -->
<!DOCTYPE svg PUBLIC "-//W3C//DTD SVG 1.1//EN" "http://www.w3.org/Graphics/SVG/1.1/DTD/svg11.dtd">
<svg version="1.1" id="Layer_1" xmlns="http://www.w3.org/2000/svg" xmlns:xlink="http://www.w3.org/1999/xlink" x="0px" y="0px"
	 width="277.676px" height="263.646px" viewBox="0 0 277.676 263.646" enable-background="new 0 0 277.676 263.646"
	 xml:space="preserve">
<g>
	<g>
		<g>
			<path fill="#00A4C4" d="M230.086,45.772c-0.128,25.153-20.619,45.443-45.778,45.319c-25.154-0.125-45.438-20.615-45.316-45.772
				C139.114,20.167,159.609-0.125,184.76,0C209.919,0.125,230.213,20.618,230.086,45.772z"/>
			<path fill="#00A4C4" d="M277.676,85.78c-0.105,21.609-16.708,39.048-37.076,38.947l-112.906-0.56
				c-20.373-0.103-36.795-17.701-36.688-39.312l0,0c0.11-21.609,16.709-39.048,37.08-38.947l112.898,0.561
				C261.357,46.568,277.783,64.167,277.676,85.78L277.676,85.78z"/>
			<rect x="144.825" y="187.306" fill="#00A4C4" width="79.038" height="16.494"/>
			<rect x="175.41" y="119.953" fill="#00A4C4" width="17.867" height="72.161"/>
		</g>
		<g>
			<ellipse fill="#FFFFFF" cx="185.967" cy="46.474" rx="22.366" ry="26.652"/>
			<polygon fill="#FFFFFF" points="182.802,86.47 179.32,80.442 182.802,74.414 189.764,74.414 193.244,80.442 189.764,86.47 			"/>
			<path fill="#FFFFFF" d="M233,94.03c-9.406-17.977-31.146-18.813-31.146-18.813L190.148,96.33h-7.943l-9.197-20.904
				c-21.32-0.419-33.654,17.768-33.654,17.768v21.321H233V94.03z"/>
		</g>
	</g>
	<g>
		<path fill="#010101" d="M129.789,135.624c0,27.697-18.842,50.148-42.085,50.148c-23.239,0-42.079-22.451-42.079-50.148
			c0-27.694,18.84-50.143,42.079-50.143C110.947,85.481,129.789,107.93,129.789,135.624z"/>
		<polygon fill="#010101" points="81.75,210.88 75.201,199.538 81.75,188.194 94.848,188.194 101.397,199.538 94.848,210.88 		"/>
		<path fill="#010101" d="M176.199,225.103c-17.697-33.822-58.601-35.396-58.601-35.396L95.572,229.43H80.626l-17.304-39.332
			C23.206,189.31,0,223.53,0,223.53v40.116h176.199V225.103z"/>
	</g>
</g>
</svg>
