<?xml version="1.0" encoding="utf-8"?>
<!-- Generator: Adobe Illustrator 16.0.0, SVG Export Plug-In . SVG Version: 6.00 Build 0)  -->
<!DOCTYPE svg PUBLIC "-//W3C//DTD SVG 1.1//EN" "http://www.w3.org/Graphics/SVG/1.1/DTD/svg11.dtd">
<svg version="1.1" id="Layer_1" xmlns="http://www.w3.org/2000/svg" xmlns:xlink="http://www.w3.org/1999/xlink" x="0px" y="0px"
	 width="268.364px" height="338.141px" viewBox="0 0 268.364 338.141" enable-background="new 0 0 268.364 338.141"
	 xml:space="preserve">
<g>
	<path fill="#010101" d="M16.572,88.453c1.24-14.975,11.107-26.62,23.021-26.551c12.136,0.07,21.977,12.266,22.74,27.644
		c1.812,0.39,3.221,2.883,3.207,6.018c-0.021,3.386-1.686,6.126-3.72,6.113c-0.273,0-0.516-0.165-0.767-0.26
		c-3.196,11.562-11.758,19.84-21.804,19.779c-10.263-0.061-18.895-8.784-21.777-20.776c-0.299,0.126-0.59,0.299-0.911,0.299
		c-2.032-0.013-3.668-2.77-3.65-6.161C12.934,91.198,14.569,88.505,16.572,88.453z"/>
	<g>
		<polyline fill="#010101" points="39.227,156.135 55.961,119.435 69.661,121.221 62.117,207.086 16.336,207.086 8.792,121.221 
			22.492,119.435 39.227,156.135 		"/>
		<polyline fill="#010101" points="63.999,200.341 63.687,328.932 39.785,328.798 37.734,232.788 36.309,329.227 14.578,329.097 
			14.453,200.054 		"/>
	</g>
	<g>
		<path fill="#010101" d="M62.326,212.603c-0.025,4.447,3.455,8.064,7.778,8.09l0,0c4.322,0.025,7.842-3.555,7.868-8.004
			l0.481-83.159c0.026-4.449-3.455-8.069-7.777-8.095l0,0c-4.318-0.022-7.844,3.559-7.865,8.003L62.326,212.603z"/>
		<path fill="#010101" d="M15.76,212.638c0.009,4.452-3.485,8.051-7.805,8.059l0,0c-4.321,0.01-7.833-3.589-7.833-8.037L0,129.499
			c0-4.448,3.489-8.056,7.816-8.064l0,0c4.319,0,7.826,3.599,7.831,8.038L15.76,212.638z"/>
	</g>
	<g>
		<path fill="#010101" d="M60.434,219.483c-0.03,4.795,3.352,8.705,7.553,8.728c4.206,0.021,7.631-3.846,7.657-8.642
			c0.029-4.795-3.353-8.705-7.553-8.727C63.886,210.812,60.46,214.684,60.434,219.483z"/>
		<path fill="#010101" d="M18.021,219.518c0,4.8-3.392,8.688-7.592,8.693c-4.202,0.009-7.613-3.876-7.618-8.671
			c-0.009-4.8,3.39-8.689,7.592-8.697C14.603,210.834,18.011,214.718,18.021,219.518z"/>
	</g>
	<path fill="#00A4C4" d="M146.853,328.983c0,5.055-2.982,9.157-6.659,9.157l0,0c-3.677,0-6.659-4.103-6.659-9.157V43.94
		c0-5.056,2.982-9.157,6.659-9.157l0,0c3.677,0,6.659,4.101,6.659,9.157V328.983z"/>
	<path fill="#00A4C4" d="M172.753,152.663c0,3.269-2.649,5.917-5.917,5.917h-19.241c-3.27,0-5.919-2.648-5.919-5.917l0,0
		c0-3.269,2.649-5.922,5.919-5.922h19.241C170.104,146.741,172.753,149.394,172.753,152.663L172.753,152.663z"/>
	<path fill="#00A4C4" d="M172.753,237.985c0,3.27-2.649,5.918-5.917,5.918h-19.241c-3.27,0-5.919-2.648-5.919-5.918l0,0
		c0-3.269,2.649-5.922,5.919-5.922h19.241C170.104,232.063,172.753,234.717,172.753,237.985L172.753,237.985z"/>
	<path fill="#00A4C4" d="M137.676,237.985c0,3.27-2.649,5.918-5.917,5.918h-28.241c-3.27,0-5.919-2.648-5.919-5.918l0,0
		c0-3.269,2.649-5.922,5.919-5.922h28.241C135.026,232.063,137.676,234.717,137.676,237.985L137.676,237.985z"/>
	<path fill="#00A4C4" d="M172.021,67.339c0,3.269-2.649,5.918-5.917,5.918h-19.242c-3.269,0-5.918-2.649-5.918-5.918l0,0
		c0-3.269,2.649-5.918,5.918-5.918h19.242C169.371,61.421,172.021,64.07,172.021,67.339L172.021,67.339z"/>
	<path fill="#00A4C4" d="M172.753,323.305c0,3.269-2.649,5.922-5.917,5.922h-19.241c-3.27,0-5.919-2.653-5.919-5.922l0,0
		c0-3.27,2.649-5.919,5.919-5.919h19.241C170.104,317.386,172.753,320.035,172.753,323.305L172.753,323.305z"/>
	<path fill="#051F27" d="M213.04,27.905c0.191,0,0.376-0.042,0.562-0.107c2.25,8.074,8.243,13.849,15.269,13.816
		c7.188-0.039,13.233-6.136,15.274-14.52c0.21,0.093,0.431,0.158,0.657,0.155c1.424-0.005,2.575-1.942,2.562-4.321
		c-0.012-2.361-1.161-4.266-2.567-4.292C243.931,8.127,237.013-0.042,228.65,0c-8.502,0.045-15.407,8.575-15.966,19.343
		c-1.277,0.266-2.266,2.065-2.254,4.265C210.443,25.989,211.611,27.915,213.04,27.905z"/>
	<path fill="#051F27" d="M262.029,50.94c-4.229-6.625-15.09-10.246-23.951-9.449l-9.512,18.525l-9.73-18.415
		c-8.87-0.692-19.684,3.056-23.835,9.727c-3.904,6.916-2.594,21.928-2.594,21.928l36.194-0.188l0.041-0.036l0.043,0.036
		l36.197-0.236C264.883,72.833,266.017,57.805,262.029,50.94z"/>
	<path fill="#051F27" d="M216.373,113.229c0.191,0,0.376-0.042,0.562-0.107c2.25,8.074,8.243,13.849,15.269,13.816
		c7.188-0.039,13.233-6.136,15.274-14.52c0.21,0.093,0.431,0.158,0.657,0.155c1.424-0.005,2.575-1.942,2.562-4.321
		c-0.012-2.361-1.161-4.266-2.567-4.292c-0.865-10.509-7.783-18.678-16.146-18.636c-8.502,0.044-15.407,8.575-15.966,19.343
		c-1.277,0.266-2.266,2.065-2.254,4.265C213.776,111.312,214.944,113.238,216.373,113.229z"/>
	<path fill="#051F27" d="M265.362,136.264c-4.229-6.625-15.09-10.246-23.951-9.449l-9.512,18.525l-9.73-18.415
		c-8.87-0.692-19.684,3.056-23.835,9.727c-3.904,6.916-2.594,21.928-2.594,21.928l36.194-0.188l0.041-0.036l0.043,0.036
		l36.197-0.236C268.216,158.156,269.35,143.128,265.362,136.264z"/>
	<path fill="#051F27" d="M213.04,198.552c0.191,0,0.376-0.041,0.562-0.107c2.25,8.074,8.243,13.85,15.269,13.816
		c7.188-0.039,13.233-6.137,15.274-14.521c0.21,0.093,0.431,0.158,0.657,0.155c1.424-0.006,2.575-1.943,2.562-4.321
		c-0.012-2.361-1.161-4.266-2.567-4.292c-0.865-10.509-7.783-18.678-16.146-18.636c-8.502,0.044-15.407,8.575-15.966,19.343
		c-1.277,0.266-2.266,2.064-2.254,4.266C210.443,196.636,211.611,198.562,213.04,198.552z"/>
	<path fill="#051F27" d="M262.029,221.587c-4.229-6.625-15.09-10.246-23.951-9.449l-9.512,18.525l-9.73-18.414
		c-8.87-0.693-19.684,3.056-23.835,9.727c-3.904,6.915-2.594,21.928-2.594,21.928l36.194-0.188l0.041-0.036l0.043,0.036
		l36.197-0.236C264.883,243.479,266.017,228.452,262.029,221.587z"/>
	<path fill="#051F27" d="M213.04,283.875c0.191,0,0.376-0.042,0.562-0.107c2.25,8.073,8.243,13.849,15.269,13.815
		c7.188-0.038,13.233-6.136,15.274-14.52c0.21,0.093,0.431,0.158,0.657,0.154c1.424-0.005,2.575-1.941,2.562-4.32
		c-0.012-2.361-1.161-4.266-2.567-4.292c-0.865-10.509-7.783-18.678-16.146-18.636c-8.502,0.045-15.407,8.575-15.966,19.343
		c-1.277,0.266-2.266,2.065-2.254,4.265C210.443,281.959,211.611,283.884,213.04,283.875z"/>
	<path fill="#051F27" d="M262.029,306.91c-4.229-6.625-15.09-10.246-23.951-9.448l-9.512,18.524l-9.73-18.415
		c-8.87-0.691-19.684,3.057-23.835,9.727c-3.904,6.916-2.594,21.929-2.594,21.929l36.194-0.188l0.041-0.035l0.043,0.035
		l36.197-0.235C264.883,328.803,266.017,313.774,262.029,306.91z"/>
</g>
</svg>
