<?xml version="1.0" encoding="utf-8"?>
<!-- Generator: Adobe Illustrator 16.0.0, SVG Export Plug-In . SVG Version: 6.00 Build 0)  -->
<!DOCTYPE svg PUBLIC "-//W3C//DTD SVG 1.1//EN" "http://www.w3.org/Graphics/SVG/1.1/DTD/svg11.dtd">
<svg version="1.1" id="Layer_1" xmlns="http://www.w3.org/2000/svg" xmlns:xlink="http://www.w3.org/1999/xlink" x="0px" y="0px"
	 width="301.232px" height="325.914px" viewBox="0 0 301.232 325.914" enable-background="new 0 0 301.232 325.914"
	 xml:space="preserve">
<g>
	<g>
		<g>
			<g>
				<path fill="#00A4C4" d="M265.741,152.497c9.365-3.19-2.114-12.431-7.396-14.474c-7.831-3.033-18.668,2.646-14.761-10.766
					c4.828-0.909,10.704,1.008,16.512,3.604c25.06,20.081,41.136,50.913,41.136,85.528c0,60.489-49.037,109.524-109.524,109.524
					c-27.467,0-52.537-10.129-71.761-26.818c-1.707-7.918-3.134-14.549,1.8-23.6c5.847,3.316,13.09,7.661,19.343,10.041
					c4.803-5.314,8.624-12.605,14.254-15.621c6.534-3.485,23.218,3.609,23.35-6.556c6.73-2.054,11.871,2.728,16.939,5.961
					c-12.997,16.38,7.26,23.839,22.331,16.347c11.962-5.936,9.108-22.135,7.204-33.324c-1.988-11.713,2.886-17.832,2.183-28.69
					c15.334-1.715,3.979,27.846,18.438,31.114c13.478,3.037,21.804-10.238,18.892-20.883c-2.011-7.356-6.318-15.399-8.954-22.871
					c-1.573-4.469-3.551-11.723-6.089-15.6c-4.588-7.023-13.404-9.377-13.36-18.861C236.276,176.553,233.33,143.142,265.741,152.497
					z"/>
			</g>
			<g>
				<path fill="#00A4C4" d="M130.137,237.756c10.667,2.935,30.33-0.926,35.955-11.049c5.588-10.051-6.578-15.827-10.645-25.76
					c-5.211-12.709-0.893-28.027,10.666-36.793c4.672-3.54,13.189-4.585,17.327-10.494c8.06-11.543-11.021-18.224-17.283-31.059
					c5.129-3.06,7.297-9.397,10.813-14.718c-53.521,7.197-94.789,53.015-94.789,108.506c0,14.913,2.99,29.12,8.386,42.08
					c5.097-3.899,9.016-9.235,10.791-16.526c1.919-7.869-1.257-16.831-0.923-24.759c0.391-9.519,5.521-26.197,17.794-14.708
					C129.032,212.584,112.567,232.921,130.137,237.756z"/>
			</g>
		</g>
	</g>
	<path fill="#00A4C4" d="M75.692,290.95c8.762,7.107-50.184-13.939-68.564-65.929c-11.523-23.126-12.429-83.018,23.021-86.475
		c47.46-4.629,13.902,63.555,12.967,84.355C43.115,222.902,41.305,263.072,75.692,290.95z"/>
	<g>
		<path fill="#051F27" d="M106.357,31.205c-18.782-1.922-32.347-8.467-51.423,0.19C46.756,35.11,7.813,52.844,8.879,63.164
			c11.821,3.773,28.119-0.17,40.17-1.291c7.079-0.66,9.621-1.737,15.643,2.613c4.944,3.578,8.501,8.281,13.092,12.023"/>
		<path fill="#051F27" d="M154.647,73.814c5.564,18.045,14.636,30.062,9.889,50.461c-2.043,8.75-11.806,50.415-22.129,51.385
			c-6.017-10.853-5.348-27.607-6.604-39.641c-0.742-7.068-0.181-9.773-5.633-14.826c-4.475-4.15-9.783-6.715-14.351-10.478"/>
		<g>
			<path fill="#051F27" d="M192.786,1.235c-25.092-4.879-66.214,6.273-66.214,6.273l-87.819,94.79
				c5.576,39.03,50.184,49.485,50.184,49.485l86.424-89.911C194.875,38.872,192.786,1.235,192.786,1.235z M130.754,81.387
				c-14.245,0-25.79-11.544-25.79-25.787c0-14.245,11.545-25.788,25.79-25.788c14.237,0,25.787,11.543,25.787,25.788
				C156.542,69.843,144.992,81.387,130.754,81.387z"/>
		</g>
	</g>
</g>
</svg>
