<?xml version="1.0" encoding="utf-8"?>
<!-- Generator: Adobe Illustrator 16.0.0, SVG Export Plug-In . SVG Version: 6.00 Build 0)  -->
<!DOCTYPE svg PUBLIC "-//W3C//DTD SVG 1.1//EN" "http://www.w3.org/Graphics/SVG/1.1/DTD/svg11.dtd">
<svg version="1.1" id="Layer_1" xmlns="http://www.w3.org/2000/svg" xmlns:xlink="http://www.w3.org/1999/xlink" x="0px" y="0px"
	 width="290.33px" height="259.056px" viewBox="0 0 290.33 259.056" enable-background="new 0 0 290.33 259.056"
	 xml:space="preserve">
<g>
	<g>
		<path fill="#00A4C4" d="M113.927,248.999v-12.791c0-2.455-3.539-4.453-7.904-4.453H75.33c-4.352,0-7.896,1.998-7.896,4.453v12.791
			c0,2.451,3.544,4.454,7.896,4.454h3.215v3.736c0,1.028,1.494,1.866,3.325,1.866h17.623c1.839,0,3.328-0.838,3.328-1.866v-3.736
			h3.201C110.388,253.453,113.927,251.45,113.927,248.999z"/>
		<path fill="#00A4C4" d="M69.038,146.006l10.21,5.27c0.167-0.289,3.952-7.236,11.404-7.236c7.391,0,11.022,6.881,11.176,7.171
			l10.277-5.129c-0.277-0.558-6.843-13.525-21.453-13.525C76.095,132.556,69.327,145.461,69.038,146.006z"/>
		<path fill="#00A4C4" d="M131.537,114.173c-10.764-9.016-25.054-13.978-40.229-13.978c-31.404,0-56.954,21.399-56.954,47.713
			c0,16.45,9.938,31.539,26.587,40.365c0,0,0.72,0.383,1.172,0.629c0,0.794,0,32.271,0,32.271c0,4.761,4.625,8.643,10.307,8.643
			h36.621c5.686,0,10.307-3.882,10.307-8.643c0,0,0-30.893,0-31.71c0.465-0.246,1.229-0.619,1.229-0.619
			c17.323-8.734,27.666-24.038,27.666-40.937C148.242,135.182,142.305,123.193,131.537,114.173z M114.076,179.777l-1.646,0.83
			c-3.518,1.778-5.691,5.007-5.691,8.432c0,0,0,28.794,0,30.208H74.729c0-1.414,0-30.757,0-30.757c0-3.386-2.051-6.495-5.45-8.305
			l-1.611-0.843c-12.959-6.873-20.706-18.629-20.706-31.434c0-9.903,4.606-19.217,13.003-26.248
			c8.384-7.044,19.516-10.904,31.343-10.904c11.812,0,22.94,3.86,31.328,10.89c8.388,7.031,12.99,16.354,12.99,26.262
			C135.626,161.065,127.576,172.983,114.076,179.777z M154.341,144.207l0.018,7.76l30.21-0.07l-0.022-7.765L154.341,144.207z
			 M30.213,144.504L0,144.584l0.021,7.764l30.21-0.074L30.213,144.504z M160.405,91.435l-6.037-5.472l-21.316,19.481l6.047,5.476
			L160.405,91.435z M24.166,205.042l6.029,5.48l21.316-19.49l-6.043-5.477L24.166,205.042z M51.301,105.645L29.896,86.27
			l-6.012,5.498l21.396,19.384L51.301,105.645z M133.264,190.826l21.412,19.393l6.016-5.516l-21.408-19.384L133.264,190.826z
			 M96.33,64.243l-8.522,0.026l0.065,27.491l8.528-0.018L96.33,64.243z"/>
	</g>
	<g>
		<path fill="#051F27" d="M217.659,52.79c12.771,0,23.126-11.813,23.126-26.397C240.785,11.813,230.43,0,217.659,0
			c-12.762,0-23.116,11.813-23.116,26.393C194.543,40.977,204.897,52.79,217.659,52.79z"/>
		<path fill="#051F27" d="M200.317,61.384c0,5.278-4.276,9.556-9.556,9.556h-72.511c-5.279,0-9.557-4.277-9.557-9.556l0,0
			c0-5.279,4.277-9.556,9.557-9.556h72.511C196.041,51.828,200.317,56.105,200.317,61.384L200.317,61.384z"/>
		<path fill="#051F27" d="M264.024,152.26c0,5.278-4.277,9.556-9.557,9.556l0,0c-5.277,0-9.555-4.277-9.555-9.556V61.195
			c0-5.279,4.277-9.556,9.555-9.556l0,0c5.279,0,9.557,4.277,9.557,9.556V152.26z"/>
		<g>
			<polygon fill="#051F27" points="234.29,51.639 221.304,95.861 205.72,51.639 190.389,51.639 190.389,259.055 251.658,259.055 
				251.658,51.639 			"/>
		</g>
		<polygon fill="#051F27" points="217.365,66.109 213.988,60.259 217.365,54.41 224.12,54.41 227.497,60.259 224.12,66.109 		"/>
		<polygon fill="#051F27" points="217.937,67.382 224.309,67.382 226.367,87.991 222.249,98.482 216.438,88.18 		"/>
	</g>
	<g>
		<g>
			<g>
				<g>
					<path fill="#00A4C4" d="M287.343,88.972c0,1.26-2.683,2.302-2.878,3.508c-0.198,1.239,2.02,3.032,1.63,4.2
						c-0.397,1.19-3.281,1.373-3.858,2.468c-0.581,1.11,0.956,3.486,0.209,4.484c-0.75,1.004-3.552,0.313-4.453,1.19
						c-0.899,0.876-0.188,3.597-1.22,4.329c-1.029,0.726-3.473-0.769-4.611-0.203c-1.132,0.56-1.317,3.364-2.539,3.751
						c-1.2,0.378-3.043-1.78-4.319-1.586c-1.241,0.192-2.312,2.799-3.608,2.799c-1.295,0-2.366-2.607-3.608-2.799
						c-1.275-0.195-3.118,1.964-4.318,1.586c-1.224-0.387-1.409-3.191-2.538-3.751c-1.142-0.566-3.586,0.928-4.612,0.203
						c-1.033-0.732-0.32-3.453-1.223-4.329c-0.899-0.877-3.7-0.186-4.452-1.19c-0.746-0.999,0.791-3.374,0.209-4.484
						c-0.577-1.096-3.46-1.278-3.856-2.468c-0.389-1.168,1.829-2.961,1.628-4.2c-0.194-1.206-2.875-2.248-2.875-3.508
						c0-1.263,2.681-2.303,2.875-3.51c0.201-1.239-2.017-3.032-1.628-4.2c0.396-1.189,3.279-1.372,3.856-2.47
						c0.582-1.108-0.955-3.484-0.209-4.483c0.753-1.005,3.553-0.313,4.452-1.19c0.902-0.874,0.189-3.598,1.223-4.328
						c1.026-0.727,3.471,0.768,4.612,0.203c1.129-0.561,1.314-3.365,2.537-3.75c1.201-0.378,3.044,1.78,4.318,1.583
						c1.243-0.188,2.314-2.797,3.609-2.797c1.297,0,2.367,2.609,3.608,2.797c1.276,0.197,3.119-1.961,4.319-1.583
						c1.222,0.385,1.407,3.189,2.539,3.75c1.139,0.565,3.582-0.93,4.611-0.203c1.031,0.73,0.32,3.454,1.22,4.328
						c0.903,0.877,3.703,0.187,4.453,1.19c0.749,0.999-0.79,3.375-0.209,4.484c0.577,1.097,3.461,1.28,3.858,2.469
						c0.39,1.168-1.828,2.96-1.63,4.2C284.66,86.668,287.343,87.709,287.343,88.972z"/>
				</g>
			</g>
			<path fill="#ECECEC" d="M280.057,89.135c-0.093,9.861-8.39,17.783-18.53,17.692c-10.142-0.089-18.288-8.158-18.194-18.019
				c0.093-9.863,8.389-17.785,18.529-17.692C272.003,71.205,280.148,79.272,280.057,89.135z"/>
			<path fill="#00A4C4" d="M277.209,89.109c-0.078,8.332-7.089,15.024-15.657,14.948c-8.567-0.076-15.449-6.892-15.371-15.224
				c0.078-8.331,7.087-15.024,15.655-14.948C270.404,73.962,277.286,80.777,277.209,89.109z"/>
			<path fill="#00A4C4" d="M274.609,89.086c-0.065,6.937-5.9,12.507-13.034,12.444c-7.133-0.063-12.861-5.737-12.796-12.673
				c0.065-6.936,5.899-12.507,13.033-12.444C268.944,76.477,274.673,82.15,274.609,89.086z"/>
		</g>
		<path fill="#051F27" d="M277.995,83.904l-12.67,11.552c0,0-2.574,2.118-4.158,0l-5.346-10.011c0,0,1.98-3.465,4.157-1.541
			l2.97,6.545l12.868-10.973C275.816,79.477,278.984,81.21,277.995,83.904z"/>
	</g>
	<path fill="#00A4C4" d="M245.726,110.507l-10.457,14.405l8.716-0.847l2.962,8.474l8.541-17.118
		C255.487,115.422,248.516,113.726,245.726,110.507z"/>
	<path fill="#00A4C4" d="M269.621,115.848l8.396,15.629l3.209-7.925l9.104,1.312l-11.752-15.212
		C278.578,109.652,273.841,114.908,269.621,115.848z"/>
</g>
</svg>
