<?xml version="1.0" encoding="utf-8"?>
<!-- Generator: Adobe Illustrator 16.0.0, SVG Export Plug-In . SVG Version: 6.00 Build 0)  -->
<!DOCTYPE svg PUBLIC "-//W3C//DTD SVG 1.1//EN" "http://www.w3.org/Graphics/SVG/1.1/DTD/svg11.dtd">
<svg version="1.1" id="Layer_1" xmlns="http://www.w3.org/2000/svg" xmlns:xlink="http://www.w3.org/1999/xlink" x="0px" y="0px"
	 width="319.948px" height="309.813px" viewBox="0 0 319.948 309.813" enable-background="new 0 0 319.948 309.813"
	 xml:space="preserve">
<g>
	<g>
		<path fill="#00A4C4" d="M224.141,218.716v-44.831H198.52c-0.903-3.503-2.041-6.919-3.355-10.248l20.752-15.077l-26.355-36.263
			l-20.752,15.068c-2.761-2.283-5.685-4.375-8.724-6.31l7.932-24.411l-42.64-13.857l-7.925,24.402
			c-1.777-0.104-3.568-0.169-5.377-0.169c-1.816,0-3.609,0.064-5.385,0.178l-7.94-24.411L56.115,96.645l7.936,24.411
			c-3.027,1.935-5.957,4.026-8.727,6.31l-20.75-15.068L8.229,148.56l20.749,15.077c-1.304,3.329-2.445,6.745-3.347,10.248H0v44.831
			h25.631c0.901,3.507,2.043,6.924,3.347,10.248L8.229,244.041l26.346,36.264l20.75-15.068c2.77,2.282,5.699,4.38,8.727,6.322
			l-7.936,24.41l42.635,13.845l7.94-24.403c1.775,0.114,3.568,0.184,5.385,0.184c1.809,0,3.6-0.069,5.377-0.184l7.925,24.403
			l42.64-13.845l-7.932-24.41c3.039-1.942,5.963-4.04,8.735-6.322l20.74,15.068l26.355-36.264l-20.752-15.077
			c1.314-3.324,2.452-6.741,3.355-10.248H224.141z"/>
	</g>
	<g>
		<circle fill="#FFFFFF" cx="112.07" cy="196.3" r="38.609"/>
		<path fill="#051F27" d="M138.324,184.395l-7.219-7.221c-0.725-0.726-1.514-0.594-2.365,0.258l-21.711,21.713l-10.24-10.243
			c-0.854-0.852-1.637-0.983-2.365-0.266l-7.221,7.222c-0.715,0.722-0.59,1.514,0.275,2.363l19.408,19.416l31.17-30.884
			C138.918,185.904,139.045,185.115,138.324,184.395z"/>
	</g>
	<g>
		<path fill="#051F27" d="M319.948,77.807V52.145h-14.665c-0.519-2.006-1.169-3.961-1.921-5.867l11.88-8.63l-15.087-20.757
			l-11.879,8.624c-1.58-1.306-3.254-2.503-4.992-3.611l4.538-13.973L263.416,0l-4.538,13.968c-1.015-0.06-2.041-0.096-3.075-0.096
			c-1.04,0-2.065,0.036-3.081,0.101L248.175,0l-24.404,7.932l4.541,13.973c-1.732,1.108-3.41,2.305-4.994,3.611l-11.877-8.624
			l-15.081,20.757l11.876,8.63c-0.745,1.905-1.398,3.861-1.914,5.867h-14.672v25.662h14.672c0.516,2.007,1.169,3.963,1.914,5.866
			l-11.876,8.629l15.081,20.758l11.877-8.625c1.584,1.307,3.262,2.508,4.994,3.619l-4.541,13.972l24.404,7.925l4.547-13.969
			c1.016,0.066,2.041,0.105,3.081,0.105c1.034,0,2.061-0.039,3.075-0.105l4.538,13.969l24.406-7.925l-4.538-13.972
			c1.738-1.111,3.412-2.312,4.999-3.619l11.872,8.625l15.087-20.758l-11.88-8.629c0.752-1.903,1.402-3.859,1.921-5.866H319.948z"/>
	</g>
	<g>
		<circle fill="#FFFFFF" cx="255.799" cy="64.976" r="22.1"/>
		<path fill="#00A4C4" d="M270.827,58.161l-4.131-4.133c-0.416-0.416-0.867-0.34-1.355,0.147l-12.426,12.429l-5.862-5.862
			c-0.488-0.489-0.938-0.564-1.354-0.153l-4.133,4.134c-0.409,0.413-0.337,0.867,0.156,1.353l11.11,11.114l17.842-17.678
			C271.168,59.025,271.238,58.573,270.827,58.161z"/>
	</g>
</g>
</svg>
