<?xml version="1.0" encoding="utf-8"?>
<!-- Generator: Adobe Illustrator 16.0.0, SVG Export Plug-In . SVG Version: 6.00 Build 0)  -->
<!DOCTYPE svg PUBLIC "-//W3C//DTD SVG 1.1//EN" "http://www.w3.org/Graphics/SVG/1.1/DTD/svg11.dtd">
<svg version="1.1" id="Layer_1" xmlns="http://www.w3.org/2000/svg" xmlns:xlink="http://www.w3.org/1999/xlink" x="0px" y="0px"
	 width="245.34px" height="347.458px" viewBox="0 0 245.34 347.458" enable-background="new 0 0 245.34 347.458"
	 xml:space="preserve">
<g>
	<g>
		<path fill-rule="evenodd" clip-rule="evenodd" fill="#00A4C4" d="M36.608,226.344v70.586c0,2.717-0.893,5.039-3.27,6.844
			c-2.951,2.266-7.14,2.615-10.538,0.943c-3.088-1.514-5.123-4.623-5.123-7.787V174.915h-3.024v45.436
			c0,1.934-1.137,3.871-2.832,5.064c-1.496,1.053-3.417,1.705-5.336,1.43C2.646,226.282,0,223.215,0,219.784v-50.322
			c0-4.592,2.059-9.197,5.485-12.606c3.265-3.249,9.031-6.539,14.038-6.539h39.027c3.209,0,4.542,1.015,7.396,2.263
			c3.812,1.688,7.252,4.234,9.343,7.588c2.061,3.272,3.252,7.178,3.252,10.926v48.691c0,2.084-2.244,4.668-4.307,5.527
			c-2.13,0.902-4.784,0.826-6.819-0.258c-2.298-1.23-3.531-3.443-3.531-5.822v-44.316h-2.88v123.127
			c0,2.434-2.075,4.787-4.209,6.092c-2.979,1.846-7.147,2.176-10.365,0.602c-2.626-1.297-4.95-3.898-4.95-6.693v-71.697H36.608
			L36.608,226.344z"/>
		<path fill-rule="evenodd" clip-rule="evenodd" fill="#00A4C4" d="M39.948,148.278c-3.839,0.084-8.116-1.542-11.225-3.66
			c-8.104-5.558-11.595-16.128-7.733-25.264c3.178-7.557,10.716-12.805,18.958-12.861c6.941-0.053,13.7,3.535,17.605,9.276
			c4.793,7.085,4.73,15.875-0.046,22.967C53.563,144.596,46.997,148.099,39.948,148.278L39.948,148.278z"/>
	</g>
	<g>
		<path fill-rule="evenodd" clip-rule="evenodd" fill="#00A4C4" d="M203.407,226.344v70.586c0,2.717-0.893,5.039-3.27,6.844
			c-2.951,2.266-7.14,2.615-10.538,0.943c-3.088-1.514-5.123-4.623-5.123-7.787V174.915h-3.024v45.436
			c0,1.934-1.137,3.871-2.832,5.064c-1.496,1.053-3.417,1.705-5.336,1.43c-3.84-0.562-6.485-3.629-6.485-7.061v-50.322
			c0-4.592,2.059-9.197,5.485-12.606c3.265-3.249,9.031-6.539,14.038-6.539h39.027c3.209,0,4.542,1.015,7.396,2.263
			c3.812,1.688,7.252,4.234,9.343,7.588c2.061,3.272,3.252,7.178,3.252,10.926v48.691c0,2.084-2.244,4.668-4.307,5.527
			c-2.13,0.902-4.784,0.826-6.819-0.258c-2.298-1.23-3.531-3.443-3.531-5.822v-44.316h-2.88v123.127
			c0,2.434-2.075,4.787-4.209,6.092c-2.979,1.846-7.147,2.176-10.365,0.602c-2.626-1.297-4.95-3.898-4.95-6.693v-71.697H203.407
			L203.407,226.344z"/>
		<path fill-rule="evenodd" clip-rule="evenodd" fill="#00A4C4" d="M206.747,148.278c-3.839,0.084-8.116-1.542-11.225-3.66
			c-8.104-5.558-11.595-16.128-7.733-25.264c3.178-7.557,10.716-12.805,18.958-12.861c6.941-0.053,13.7,3.535,17.605,9.276
			c4.793,7.085,4.73,15.875-0.046,22.967C220.362,144.596,213.796,148.099,206.747,148.278L206.747,148.278z"/>
	</g>
	<g>
		<g>
			<path fill-rule="evenodd" clip-rule="evenodd" fill="#010101" d="M57.682,38.323c-1.172,1.393-1.362,3.165-0.421,3.958
				l27.406,23.211c0.945,0.789,2.665,0.315,3.842-1.066l0,0c1.172-1.388,1.361-3.159,0.421-3.958L61.523,37.262
				C60.577,36.467,58.858,36.94,57.682,38.323L57.682,38.323z"/>
			<path fill-rule="evenodd" clip-rule="evenodd" fill="#010101" d="M124.199,0c-1.819-0.006-3.301,0.994-3.301,2.223l-0.159,35.905
				c-0.005,1.236,1.467,2.25,3.286,2.261l0,0c1.813,0,3.29-0.988,3.3-2.229l0.158-35.9C127.488,1.024,126.022,0.01,124.199,0
				L124.199,0z"/>
			<path fill-rule="evenodd" clip-rule="evenodd" fill="#010101" d="M42.002,95.569c0.026,1.818,1.052,3.279,2.292,3.258
				l35.92-0.482c1.236-0.021,2.225-1.504,2.197-3.322l0,0c-0.026-1.818-1.05-3.28-2.287-3.26l-35.92,0.484
				C42.969,92.262,41.98,93.75,42.002,95.569L42.002,95.569z"/>
			<path fill-rule="evenodd" clip-rule="evenodd" fill="#010101" d="M189.58,38.323c1.172,1.393,1.362,3.165,0.421,3.958
				l-27.406,23.211c-0.945,0.789-2.665,0.315-3.842-1.066l0,0c-1.172-1.388-1.361-3.159-0.421-3.958l27.406-23.206
				C186.685,36.467,188.403,36.94,189.58,38.323L189.58,38.323z"/>
			<path fill-rule="evenodd" clip-rule="evenodd" fill="#010101" d="M205.26,95.569c-0.026,1.818-1.052,3.279-2.292,3.258
				l-35.92-0.482c-1.236-0.021-2.225-1.504-2.197-3.322l0,0c0.026-1.818,1.05-3.28,2.287-3.26l35.92,0.484
				C204.293,92.262,205.281,93.75,205.26,95.569L205.26,95.569z"/>
		</g>
		<g>
			<path fill-rule="evenodd" clip-rule="evenodd" fill="#010101" d="M118.611,228.077v106.107c0,4.084-1.341,7.574-4.915,10.285
				c-4.437,3.406-10.732,3.932-15.842,1.42c-4.642-2.275-7.7-6.949-7.7-11.705V150.768h-4.547v68.299
				c0,2.906-1.708,5.818-4.258,7.611c-2.249,1.582-5.135,2.564-8.02,2.15c-5.772-0.848-9.751-5.457-9.751-10.613v-75.646
				c0-6.902,3.096-13.824,8.246-18.949c4.909-4.883,13.577-9.829,21.104-9.829h58.666c4.824,0,6.828,1.524,11.117,3.401
				c5.73,2.538,10.901,6.364,14.045,11.405c3.096,4.919,4.888,10.791,4.888,16.425v75.193c0,3.133-3.374,7.018-6.475,8.311
				c-3.201,1.355-7.191,1.24-10.25-0.389c-3.453-1.852-5.309-5.178-5.309-8.752v-68.617h-4.328v185.086
				c0,3.658-3.121,7.197-6.328,9.156c-4.479,2.775-10.743,3.27-15.58,0.904c-3.947-1.949-7.441-5.859-7.441-10.061V228.077H118.611
				L118.611,228.077z"/>
			<path fill-rule="evenodd" clip-rule="evenodd" fill="#010101" d="M123.631,110.725c-5.771,0.127-12.2-2.316-16.872-5.502
				c-12.184-8.353-17.43-24.242-11.626-37.977c4.776-11.359,16.109-19.249,28.498-19.332c10.434-0.08,20.594,5.314,26.465,13.944
				c7.206,10.649,7.112,23.863-0.068,34.523C144.098,105.192,134.227,110.458,123.631,110.725L123.631,110.725z"/>
		</g>
	</g>
</g>
</svg>
