<?xml version="1.0" encoding="utf-8"?>
<!-- Generator: Adobe Illustrator 16.0.0, SVG Export Plug-In . SVG Version: 6.00 Build 0)  -->
<!DOCTYPE svg PUBLIC "-//W3C//DTD SVG 1.1//EN" "http://www.w3.org/Graphics/SVG/1.1/DTD/svg11.dtd">
<svg version="1.1" id="coworker_gris" xmlns="http://www.w3.org/2000/svg" xmlns:xlink="http://www.w3.org/1999/xlink" x="0px"
	 y="0px" width="500px" height="794.5px" viewBox="0 0 500 794.5" enable-background="new 0 0 500 794.5" xml:space="preserve">
<g>
	<g>
		<path fill="#A8A8A8" d="M119.54,674.226l0.052,0.154c0.068,3.776-1.159,6.827-3.682,9.153s-5.931,3.489-10.222,3.489
			c-4.36,0-7.896-1.472-10.608-4.416c-2.712-2.944-4.068-6.708-4.068-11.291v-7.132c0-4.566,1.339-8.33,4.017-11.291
			c2.678-2.961,6.171-4.441,10.48-4.441c4.411,0,7.883,1.124,10.415,3.373c2.532,2.249,3.763,5.329,3.695,9.243l-0.051,0.154h-6.051
			c0-2.506-0.679-4.424-2.034-5.755c-1.356-1.33-3.348-1.995-5.974-1.995c-2.541,0-4.554,1.009-6.038,3.025
			c-1.485,2.018-2.228,4.563-2.228,7.635v7.184c0,3.107,0.755,5.669,2.266,7.687c1.51,2.017,3.57,3.025,6.18,3.025
			c2.558,0,4.501-0.67,5.832-2.009c1.33-1.339,1.996-3.271,1.996-5.793H119.54z"/>
		<path fill="#A8A8A8" d="M160.346,671.109c0,4.583-1.438,8.381-4.313,11.394c-2.875,3.013-6.613,4.52-11.213,4.52
			c-4.48,0-8.128-1.507-10.943-4.52c-2.815-3.013-4.223-6.811-4.223-11.394v-6.746c0-4.565,1.403-8.359,4.21-11.381
			c2.807-3.021,6.458-4.531,10.956-4.531c4.583,0,8.317,1.511,11.201,4.531c2.884,3.021,4.326,6.815,4.326,11.381V671.109z
			 M154.089,664.312c0-3.124-0.833-5.69-2.498-7.698c-1.666-2.009-3.923-3.013-6.772-3.013c-2.764,0-4.94,1.004-6.527,3.013
			c-1.588,2.008-2.382,4.574-2.382,7.698v6.798c0,3.159,0.798,5.746,2.395,7.764c1.597,2.017,3.768,3.025,6.515,3.025
			c2.866,0,5.128-1.005,6.785-3.013c1.656-2.009,2.485-4.601,2.485-7.776V664.312z"/>
		<path fill="#A8A8A8" d="M201.178,676.027h0.155l5.51-27.036h6.591l-8.909,37.49h-5.69l-7.493-26.676h-0.154l-7.519,26.676h-5.716
			l-8.883-37.49h6.566l5.562,27.011h0.154l7.132-27.011h5.51L201.178,676.027z"/>
		<path fill="#A8A8A8" d="M252.85,671.109c0,4.583-1.438,8.381-4.312,11.394c-2.875,3.013-6.613,4.52-11.213,4.52
			c-4.48,0-8.128-1.507-10.943-4.52c-2.815-3.013-4.223-6.811-4.223-11.394v-6.746c0-4.565,1.403-8.359,4.21-11.381
			c2.807-3.021,6.458-4.531,10.956-4.531c4.583,0,8.317,1.511,11.201,4.531c2.883,3.021,4.325,6.815,4.325,11.381V671.109z
			 M246.594,664.312c0-3.124-0.833-5.69-2.498-7.698c-1.666-2.009-3.923-3.013-6.772-3.013c-2.764,0-4.94,1.004-6.527,3.013
			c-1.588,2.008-2.382,4.574-2.382,7.698v6.798c0,3.159,0.798,5.746,2.395,7.764c1.597,2.017,3.768,3.025,6.515,3.025
			c2.866,0,5.128-1.005,6.785-3.013c1.656-2.009,2.485-4.601,2.485-7.776V664.312z"/>
		<path fill="#A8A8A8" d="M271.023,670.93v15.552h-6.257v-37.49h12.9c4.171,0,7.398,0.944,9.682,2.833
			c2.282,1.888,3.424,4.583,3.424,8.085c0,1.939-0.502,3.609-1.506,5.008c-1.004,1.399-2.468,2.52-4.391,3.36
			c2.111,0.669,3.635,1.76,4.57,3.27c0.936,1.511,1.403,3.382,1.403,5.613v3.116c0,1.099,0.138,2.172,0.412,3.218
			c0.274,1.048,0.729,1.846,1.365,2.396v0.592h-6.438c-0.687-0.566-1.124-1.45-1.313-2.652c-0.188-1.201-0.283-2.402-0.283-3.604
			v-3.013c0-1.922-0.554-3.45-1.66-4.583c-1.107-1.133-2.614-1.699-4.52-1.699H271.023z M271.023,665.908h6.309
			c2.506,0,4.334-0.48,5.484-1.441c1.149-0.962,1.726-2.43,1.726-4.403c0-1.888-0.566-3.369-1.7-4.441
			c-1.133-1.073-2.857-1.609-5.175-1.609h-6.644V665.908z"/>
		<path fill="#A8A8A8" d="M312.912,670.26h-3.064v16.222h-6.257v-37.49h6.257v15.887h2.446l12.179-15.887h7.339l0.077,0.129
			l-14.059,17.612l15.217,19.749h-7.904L312.912,670.26z"/>
		<path fill="#A8A8A8" d="M363.374,669.616h-14.677v11.87H366v4.995h-23.56v-37.49h23.38v5.021h-17.123v10.582h14.677V669.616z"/>
		<path fill="#A8A8A8" d="M383.17,670.93v15.552h-6.257v-37.49h12.9c4.171,0,7.398,0.944,9.682,2.833
			c2.282,1.888,3.424,4.583,3.424,8.085c0,1.939-0.502,3.609-1.506,5.008c-1.004,1.399-2.468,2.52-4.391,3.36
			c2.111,0.669,3.635,1.76,4.57,3.27c0.936,1.511,1.403,3.382,1.403,5.613v3.116c0,1.099,0.138,2.172,0.412,3.218
			c0.274,1.048,0.729,1.846,1.365,2.396v0.592h-6.438c-0.687-0.566-1.124-1.45-1.313-2.652c-0.188-1.201-0.283-2.402-0.283-3.604
			v-3.013c0-1.922-0.554-3.45-1.66-4.583c-1.107-1.133-2.614-1.699-4.52-1.699H383.17z M383.17,665.908h6.309
			c2.506,0,4.334-0.48,5.484-1.441c1.149-0.962,1.726-2.43,1.726-4.403c0-1.888-0.566-3.369-1.7-4.441
			c-1.133-1.073-2.857-1.609-5.175-1.609h-6.644V665.908z"/>
	</g>
</g>
<g>
	<path fill="#E4E4E4" d="M0,25.03c166.67,0,333.33,0,500,0V66.18c-7.77,0.041-15.54-0.09-23.311,0.07
		c-42.22,0.34-84.439,0.04-126.66,0.15C241.31,66.32,132.59,66.48,23.87,66.32C15.92,66.03,7.96,66.25,0,66.18V25.03z"/>
	<g>
		<path fill="#E4E4E4" d="M23.55,66.7c129.48-0.23,258.96-0.01,388.44-0.1c21.35,0.12,42.71-0.17,64.05,0.17
			c-0.04,15.08,0.07,30.16-0.021,45.24c0.721,6.66-0.27,13.31,0.021,19.98c0.7,19.67,0.38,39.34,0.46,59.01
			c-0.061,119,0.09,238-0.08,356.99c-0.03,8.68-0.859,17.37-0.101,26.04c-75.409-29.05-150.88-57.95-226.31-86.961
			c-75.51,28.991-151,58.011-226.51,86.98C23.53,404.931,23.43,235.82,23.55,66.7z M225.86,176.04c-5.01,7.93-4.65,18.78,0.66,26.49
			c3.65,5.63,9.78,9.35,16.29,10.74c0.12,11.17,0.22,22.35-0.04,33.52c-4.33,1.02-8.69,2.19-12.56,4.47
			c-4.24,2.21-7.14,6.11-10.48,9.4c-0.92-0.1-1.83-0.19-2.74-0.28c-1.13,1.82-2.32,3.64-2.95,5.71c-0.29,1.68,1.42,3.07,1.02,4.8
			c-0.29,3.7-1.23,7.38-0.83,11.12c0.39,4.02,1.52,7.92,2.39,11.86c-6.47,4.55-13.36,8.47-19.91,12.91
			c-7.52,4.489-14.65,9.63-22.31,13.89c-3.34-3.68-7.91-5.93-12.61-7.33c-7.22-1.939-15.02,0.16-20.97,4.46
			c-5.86,4.57-9.37,11.82-9.66,19.21c-0.11,7.76,3.54,15.48,9.68,20.24c6.02,4.34,13.82,6.33,21.11,4.52
			c12.8-2.709,22-17.1,18.36-29.819c-0.25-1.7-1.87-4.101,0.45-5.061c13.52-8.45,26.87-17.2,40.46-25.529
			c2.51,0.989,4.24,3.409,6.52,4.86c4.28,3.489,9.65,5.099,14.97,6.18c0.22,1.449,0.44,2.91,0.66,4.369
			c2.51,0.141,5.03,0.11,7.54-0.01c0.29-1.38,0.54-2.77,0.75-4.16c6.869-1.39,13.55-4.3,18.56-9.31c0.9-0.68,1.57-1.859,2.761-2.04
			c5.81,2.98,10.979,7.03,16.63,10.311c8.31,5.31,16.659,10.59,24.95,15.939c0.459,4.03-1.38,8.311-0.7,12.5
			c0.51,10.62,8.77,19.91,19.209,21.84c13.9,3.49,29.25-7.479,30.131-21.84c1.77-13.47-9.69-26.9-23.25-27.27
			c-7.61-0.711-14.9,2.819-20.3,7.979c-14-9.12-28.22-17.899-42.28-26.93c3.42-7.75,3.89-16.51,1.569-24.64
			c0.641-0.71,1.291-1.42,1.94-2.12c-0.92-2.28-1.979-4.49-3.199-6.62c-1.051,0.05-2.101,0.1-3.151,0.15
			c-3.489-4.54-7.979-8.39-13.169-10.86c-2.91-1.45-6.23-1.67-9.19-2.95c-1.09-5.45-0.16-11.18-0.41-16.73
			c0.171-5.6-0.479-11.23,0.301-16.79c9.009-2.11,17.069-8.97,19.319-18.12c3.25-11.22-2.93-24.26-13.63-28.92
			C246.73,160.62,231.86,165.31,225.86,176.04z M132.29,224.25c-3.79,8.87,2.31,20.05,11.72,21.95c5.9,1.74,11.86-0.89,16.23-4.8
			c1.21,0.23,2.41,0.93,3.67,0.61c1.44-1.82,2.28-4.01,3.24-6.09c-1.32-1.75-2.99-3.51-2.75-5.87c0.19-7.08-4.73-13.91-11.59-15.77
			C144.76,211.35,134.98,216.13,132.29,224.25z M336.64,216.78c-4.909,3.38-6.29,9.66-6.579,15.25c0.09,1.77-1.94,2.32-3.031,3.28
			c0.811,2.55,2.271,4.81,3.761,7.01c1.87-0.71,4-1.34,5.56,0.36c5.03,4.09,12.53,5.5,18.25,1.98c8.22-4.11,11.41-15.77,6.11-23.36
			C356.17,212.97,343.95,211.06,336.64,216.78z M174.4,239.06c-1.23,2.45-2.79,4.79-3.28,7.53c2.21,1.08,4.44,2.15,6.69,3.17
			c1.45-2.25,2.89-4.55,3.81-7.08C179.8,240.78,176.94,239.82,174.4,239.06z M312.96,242.14c0.79,2.68,1.89,5.36,3.89,7.37
			c2.271-0.96,4.511-2.01,6.54-3.4c-0.87-2.52-2.1-4.88-3.529-7.12C317.39,239.64,315.12,240.81,312.96,242.14z M188.44,246.11
			c-1.14,2.28-2.24,4.57-3.29,6.89c1.99,1.51,4.16,3.17,6.65,3.58c2.05-1.84,2.87-4.77,4-7.25
			C193.41,248.12,191.11,246.6,188.44,246.11z M298.87,249.13c0.59,2.77,2.17,5.16,3.449,7.65c2.491-0.94,4.861-2.15,7.021-3.69
			c-1.061-2.32-1.83-4.9-3.6-6.8C303.27,246.15,301.13,248.22,298.87,249.13z M203.04,253.07c-1.46,2.22-2.63,4.61-3.57,7.09
			c1.81,1.82,4.29,2.58,6.65,3.42c1.77-2.11,3.09-4.56,3.77-7.24C207.67,255.11,205.4,253.99,203.04,253.07z M284.72,257
			c0.82,2.36,2.04,4.6,3.57,6.57c2.3-0.59,5.07-1.73,6.641-3.52c-0.73-2.45-2.07-4.65-3.181-6.92
			C289.25,253.87,286.08,254.71,284.72,257z M243.28,325.26c-0.17,2.57-0.2,5.15-0.1,7.721c2.6,0.55,5.28,0.609,7.9,0.13
			c0.48-2.63,0.42-5.311-0.05-7.921C248.44,325.08,245.86,325.1,243.28,325.26z M243.28,342.04c-0.13,2.59-0.16,5.18-0.06,7.771
			c2.59,0.14,5.18,0.129,7.77-0.011c0.55-2.619,0.399-5.31,0.05-7.939C248.45,341.58,245.84,341.51,243.28,342.04z M243.29,358.25
			c-0.2,1.49-0.4,2.98-0.59,4.47c-6.3,2.04-11.4,7.62-12.01,14.341c-1.29,9.649,7.41,19.3,17.29,18.329
			c10.29,0.16,18.22-11.029,15.459-20.729c-1.09-4.93-4.97-8.67-9.359-10.841c-2.35-0.869-2.59-3.56-3.311-5.609
			C248.28,358.12,245.78,358.14,243.29,358.25z"/>
	</g>
	<path fill="#E4E4E4" d="M245.33,172.42c9.08-1.42,18.17,6.33,18.33,15.49c0.779,9.09-7.46,17.71-16.63,17.2
		c-8.89,0.07-16.95-8.16-16.18-17.12C231.03,180.15,237.51,173.17,245.33,172.42z"/>
	<path fill="#E4E4E4" d="M145.23,222.38c4.59-1.7,10.35,1.61,10.67,6.6c0.68,4.24-2.59,8.69-6.92,9.04
		c-5.08,1.15-10.15-3.96-9.13-9.03C139.91,225.84,142.52,223.5,145.23,222.38z"/>
	<path fill="#E4E4E4" d="M343.34,222.53c5.841-2.69,12.729,2.87,11.229,9.11c-0.689,6.21-9.319,8.6-13.56,4.36
		C336.74,232.24,338.23,224.78,343.34,222.53z"/>
	<path fill="#E4E4E4" d="M242.33,255.5c7.54-1.59,15.67,0.57,21.359,5.76c5.11,4.36,8.041,11.05,8.23,17.72
		c0.63,12.64-10.189,24.8-22.93,25.241c-8.02,0.76-15.93-3.11-21.1-9.111c-4.2-5.71-6.48-13.13-4.88-20.17
		C224.72,265.34,232.86,257.43,242.33,255.5z"/>
	<path fill="#E4E4E4" d="M152.44,321.51c8.6-2.25,18,3.87,19.69,12.5c2.65,9.43-5.51,19.641-15.13,19.891
		c-8.88,0.88-17.31-7.04-17.25-15.91C139.18,330.33,145.12,323.2,152.44,321.51z"/>
	<path fill="#E4E4E4" d="M335.3,321.45c9.131-2.14,18.78,5.26,19.44,14.53c1.14,8.689-6.04,17.1-14.671,17.839
		c-9.029,1.23-18.319-6.55-18.05-15.81C321.46,330.14,327.59,322.77,335.3,321.45z"/>
	<path fill="#E4E4E4" d="M244.28,371.37c5.08-2.28,11.41,2.11,10.99,7.66c0.4,6.12-7.279,9.939-12.27,6.85
		C237.21,382.96,238.07,373.26,244.28,371.37z"/>
</g>
<g>
	<rect x="23.563" y="66.25" fill="#C7C7C7" width="452.469" height="0.496"/>
</g>
<g>
	<g>
		<path fill="#FFFFFF" d="M225.86,176.04c6-10.73,20.87-15.42,31.89-9.86c10.7,4.66,16.88,17.7,13.63,28.92
			c-2.25,9.15-10.311,16.01-19.319,18.12c-0.78,5.56-0.13,11.19-0.301,16.79c0.25,5.55-0.68,11.28,0.41,16.73
			c2.96,1.28,6.28,1.5,9.19,2.95c5.189,2.47,9.68,6.32,13.169,10.86c1.051-0.05,2.101-0.1,3.151-0.15
			c1.22,2.13,2.279,4.34,3.199,6.62c-0.649,0.7-1.3,1.41-1.94,2.12c2.32,8.13,1.851,16.89-1.569,24.64
			c14.061,9.031,28.28,17.81,42.28,26.93c5.399-5.16,12.689-8.69,20.3-7.979c13.56,0.369,25.02,13.8,23.25,27.27
			c-0.881,14.36-16.23,25.33-30.131,21.84c-10.439-1.93-18.699-11.22-19.209-21.84c-0.68-4.189,1.159-8.47,0.7-12.5
			c-8.291-5.35-16.641-10.63-24.95-15.939c-5.65-3.28-10.82-7.33-16.63-10.311c-1.19,0.181-1.86,1.36-2.761,2.04
			c-5.01,5.01-11.69,7.92-18.56,9.31c-0.21,1.391-0.46,2.78-0.75,4.16c-2.51,0.12-5.03,0.15-7.54,0.01
			c-0.22-1.459-0.44-2.92-0.66-4.369c-5.32-1.081-10.69-2.69-14.97-6.18c-2.28-1.451-4.01-3.871-6.52-4.86
			c-13.59,8.329-26.94,17.079-40.46,25.529c-2.32,0.96-0.7,3.36-0.45,5.061c3.64,12.72-5.56,27.11-18.36,29.819
			c-7.29,1.811-15.09-0.18-21.11-4.52c-6.14-4.76-9.79-12.48-9.68-20.24c0.29-7.39,3.8-14.64,9.66-19.21
			c5.95-4.3,13.75-6.399,20.97-4.46c4.7,1.4,9.27,3.65,12.61,7.33c7.66-4.26,14.79-9.4,22.31-13.89
			c6.55-4.44,13.44-8.36,19.91-12.91c-0.87-3.94-2-7.84-2.39-11.86c-0.4-3.74,0.54-7.42,0.83-11.12c0.4-1.73-1.31-3.12-1.02-4.8
			c0.63-2.07,1.82-3.89,2.95-5.71c0.91,0.09,1.82,0.18,2.74,0.28c3.34-3.29,6.24-7.19,10.48-9.4c3.87-2.28,8.23-3.45,12.56-4.47
			c0.26-11.17,0.16-22.35,0.04-33.52c-6.51-1.39-12.64-5.11-16.29-10.74C221.21,194.82,220.85,183.97,225.86,176.04z M245.33,172.42
			c-7.82,0.75-14.3,7.73-14.48,15.57c-0.77,8.96,7.29,17.19,16.18,17.12c9.17,0.51,17.41-8.11,16.63-17.2
			C263.5,178.75,254.41,171,245.33,172.42z M242.33,255.5c-9.47,1.93-17.61,9.84-19.32,19.44c-1.6,7.04,0.68,14.46,4.88,20.17
			c5.17,6,13.08,9.871,21.1,9.111c12.74-0.44,23.56-12.601,22.93-25.241c-0.189-6.67-3.12-13.36-8.23-17.72
			C258,256.07,249.87,253.91,242.33,255.5z M152.44,321.51c-7.32,1.69-13.26,8.82-12.69,16.48c-0.06,8.87,8.37,16.79,17.25,15.91
			c9.62-0.25,17.78-10.461,15.13-19.891C170.44,325.38,161.04,319.26,152.44,321.51z M335.3,321.45
			c-7.71,1.319-13.84,8.689-13.28,16.56c-0.27,9.26,9.021,17.04,18.05,15.81c8.631-0.739,15.811-9.149,14.671-17.839
			C354.08,326.71,344.431,319.311,335.3,321.45z"/>
	</g>
	<g>
		<path fill="#FFFFFF" d="M132.29,224.25c2.69-8.12,12.47-12.9,20.52-9.97c6.86,1.86,11.78,8.69,11.59,15.77
			c-0.24,2.36,1.43,4.12,2.75,5.87c-0.96,2.08-1.8,4.27-3.24,6.09c-1.26,0.32-2.46-0.38-3.67-0.61c-4.37,3.91-10.33,6.54-16.23,4.8
			C134.6,244.3,128.5,233.12,132.29,224.25z M145.23,222.38c-2.71,1.12-5.32,3.46-5.38,6.61c-1.02,5.07,4.05,10.18,9.13,9.03
			c4.33-0.35,7.6-4.8,6.92-9.04C155.58,223.99,149.82,220.68,145.23,222.38z"/>
	</g>
	<g>
		<path fill="#FFFFFF" d="M336.64,216.78c7.311-5.72,19.53-3.81,24.07,4.52c5.3,7.59,2.109,19.25-6.11,23.36
			c-5.72,3.52-13.22,2.11-18.25-1.98c-1.56-1.7-3.689-1.07-5.56-0.36c-1.49-2.2-2.95-4.46-3.761-7.01
			c1.091-0.96,3.121-1.51,3.031-3.28C330.35,226.44,331.73,220.16,336.64,216.78z M343.34,222.53c-5.109,2.25-6.6,9.71-2.33,13.47
			c4.24,4.24,12.87,1.85,13.56-4.36C356.069,225.4,349.181,219.84,343.34,222.53z"/>
	</g>
	<path fill="#FFFFFF" d="M174.4,239.06c2.54,0.76,5.4,1.72,7.22,3.62c-0.92,2.53-2.36,4.83-3.81,7.08
		c-2.25-1.02-4.48-2.09-6.69-3.17C171.61,243.85,173.17,241.51,174.4,239.06z"/>
	<path fill="#FFFFFF" d="M312.96,242.14c2.16-1.33,4.43-2.5,6.9-3.15c1.43,2.24,2.659,4.6,3.529,7.12
		c-2.029,1.39-4.27,2.44-6.54,3.4C314.85,247.5,313.75,244.82,312.96,242.14z"/>
	<path fill="#FFFFFF" d="M188.44,246.11c2.67,0.49,4.97,2.01,7.36,3.22c-1.13,2.48-1.95,5.41-4,7.25c-2.49-0.41-4.66-2.07-6.65-3.58
		C186.2,250.68,187.3,248.39,188.44,246.11z"/>
	<path fill="#FFFFFF" d="M298.87,249.13c2.26-0.91,4.399-2.98,6.87-2.84c1.77,1.9,2.539,4.48,3.6,6.8
		c-2.159,1.54-4.529,2.75-7.021,3.69C301.04,254.29,299.46,251.9,298.87,249.13z"/>
	<path fill="#FFFFFF" d="M203.04,253.07c2.36,0.92,4.63,2.04,6.85,3.27c-0.68,2.68-2,5.13-3.77,7.24c-2.36-0.84-4.84-1.6-6.65-3.42
		C200.41,257.68,201.58,255.29,203.04,253.07z"/>
	<path fill="#FFFFFF" d="M284.72,257c1.36-2.29,4.53-3.13,7.03-3.87c1.11,2.27,2.45,4.47,3.181,6.92
		c-1.57,1.79-4.341,2.93-6.641,3.52C286.76,261.6,285.54,259.36,284.72,257z"/>
	<path fill="#FFFFFF" d="M243.28,325.26c2.58-0.16,5.16-0.18,7.75-0.07c0.47,2.61,0.53,5.291,0.05,7.921
		c-2.62,0.479-5.3,0.42-7.9-0.13C243.08,330.41,243.11,327.83,243.28,325.26z"/>
	<path fill="#FFFFFF" d="M243.28,342.04c2.56-0.53,5.17-0.46,7.76-0.18c0.35,2.63,0.5,5.32-0.05,7.939
		c-2.59,0.14-5.18,0.15-7.77,0.011C243.12,347.22,243.15,344.63,243.28,342.04z"/>
	<g>
		<path fill="#FFFFFF" d="M243.29,358.25c2.49-0.11,4.99-0.13,7.479-0.04c0.721,2.05,0.961,4.74,3.311,5.609
			c4.39,2.171,8.27,5.911,9.359,10.841c2.761,9.7-5.17,20.89-15.459,20.729c-9.88,0.971-18.58-8.68-17.29-18.329
			c0.61-6.721,5.71-12.301,12.01-14.341C242.89,361.23,243.09,359.74,243.29,358.25z M244.28,371.37
			c-6.21,1.89-7.07,11.59-1.28,14.51c4.99,3.09,12.67-0.729,12.27-6.85C255.689,373.48,249.36,369.09,244.28,371.37z"/>
	</g>
</g>
<g>
	<path fill="#DBDBDB" d="M46.12,73.3c6.3-0.35,12.6-0.05,18.9-0.15c130.29,0.07,260.58-0.1,390.86,0.07
		c0.51,4.23,0.38,8.5,0.33,12.75c0,143,0,286.01-0.01,429.02c0.02,4.64,0.17,9.29-0.24,13.92c-12.021-4.021-23.69-9.06-35.6-13.42
		c-55.12-21.18-110.261-42.32-165.36-63.56c-2.33-1.011-4.91-1.4-7.28-0.25c-60.44,23.229-120.88,46.459-181.34,69.67
		c-6.82,2.419-13.4,5.479-20.32,7.609c-0.65-14.3-0.1-28.641-0.26-42.96c-0.02-134,0-268-0.02-402
		C45.71,80.43,45.74,76.85,46.12,73.3z M64.2,91.36c-0.34,3.89-0.31,7.79-0.25,11.69C63.93,204.7,63.97,306.35,63.93,408
		c0.14,31.561-0.24,63.14,0.21,94.689c61.74-23.779,123.53-47.459,185.29-71.189c1.05-0.41,2.11-0.41,3.16,0.02
		c61.76,23.721,123.53,47.411,185.28,71.161c0.46-13.211,0.03-26.44,0.199-39.661c-0.029-119-0.02-237.99-0.02-356.979
		c-0.021-4.9,0.2-9.81-0.239-14.69c-21.94-0.22-43.881-0.03-65.82-0.09C269.4,91.33,166.79,91.14,64.2,91.36z"/>
</g>
</svg>
