<?xml version="1.0" encoding="utf-8"?>
<!-- Generator: Adobe Illustrator 16.0.0, SVG Export Plug-In . SVG Version: 6.00 Build 0)  -->
<!DOCTYPE svg PUBLIC "-//W3C//DTD SVG 1.1//EN" "http://www.w3.org/Graphics/SVG/1.1/DTD/svg11.dtd">
<svg version="1.1" id="corporativo_gris" xmlns="http://www.w3.org/2000/svg" xmlns:xlink="http://www.w3.org/1999/xlink" x="0px"
	 y="0px" width="500px" height="794.5px" viewBox="0 0 500 794.5" enable-background="new 0 0 500 794.5" xml:space="preserve">
<path fill="#DBDBDB" d="M0,25c166.67,0,333.33,0,500,0v41.19c-7.79,0-15.58-0.01-23.38,0c-44.54,0.35-89.101,0.03-133.65,0.16
	c-106.65-0.11-213.31,0.12-319.96-0.1C15.34,66.1,7.67,66.23,0,66.19V25z"/>
<g>
	<path fill="#DBDBDB" d="M45.12,87.3c6.3-0.35,12.6-0.05,18.9-0.15c130.29,0.07,260.58-0.1,390.86,0.07
		c0.51,4.23,0.38,8.5,0.33,12.75c0,143,0,286.01-0.01,429.02c0.02,4.64,0.17,9.29-0.24,13.92c-12.021-4.021-23.69-9.06-35.6-13.42
		c-55.12-21.18-110.261-42.32-165.36-63.56c-2.33-1.011-4.91-1.4-7.28-0.25c-60.44,23.229-120.88,46.459-181.34,69.67
		c-6.82,2.419-13.4,5.479-20.32,7.609c-0.65-14.3-0.1-28.641-0.26-42.96c-0.02-134,0-268-0.02-402
		C44.71,94.43,44.74,90.85,45.12,87.3z M63.2,105.36c-0.34,3.89-0.31,7.79-0.25,11.69C62.93,218.7,62.97,320.35,62.93,422
		c0.14,31.561-0.24,63.14,0.21,94.689c61.74-23.779,123.53-47.459,185.29-71.189c1.05-0.41,2.11-0.41,3.16,0.02
		c61.76,23.721,123.53,47.411,185.28,71.161c0.46-13.211,0.03-26.44,0.199-39.661c-0.029-119-0.02-237.99-0.02-356.979
		c-0.021-4.9,0.2-9.81-0.239-14.69c-21.94-0.22-43.881-0.03-65.82-0.09C268.4,105.33,165.79,105.14,63.2,105.36z"/>
</g>
<g>
	<path fill="#9E9E9E" d="M23.01,66.25c106.65,0.22,213.31-0.01,319.96,0.1c44.55-0.13,89.11,0.19,133.65-0.16
		c-0.07,68.59-0.01,137.19-0.03,205.79c0.11,100.73-0.189,201.459,0.141,302.19c-0.181-0.09-0.551-0.25-0.74-0.33
		c0.67-23.609,0.13-47.25,0.32-70.87c-0.041-109.31,0.009-218.63-0.011-327.95c-0.08-36.16,0.15-72.33-0.12-108.5
		c-148.39,0.27-296.78,0.01-445.16,0.14c-2.49,0.01-4.97-0.15-7.45-0.37L23.01,66.25z"/>
</g>
<g>
	<path fill="#E7E7E7" d="M23.57,66.29c2.479,0.22,4.959,0.38,7.45,0.37c148.38-0.13,296.77,0.13,445.16-0.14
		c0.271,36.17,0.04,72.34,0.12,108.5c0.02,109.32-0.03,218.64,0.011,327.95c-0.19,23.62,0.35,47.261-0.32,70.87
		C400.64,544.95,325.33,515.99,250,487.069c-75.5,28.991-151,57.991-226.5,86.98C23.55,404.8,23.41,235.54,23.57,66.29z M45.12,87.3
		c-0.38,3.55-0.41,7.13-0.34,10.7c0.02,134,0,268,0.02,402c0.16,14.319-0.39,28.66,0.26,42.96c6.92-2.13,13.5-5.19,20.32-7.609
		c60.46-23.211,120.9-46.44,181.34-69.67c2.37-1.15,4.95-0.761,7.28,0.25c55.1,21.239,110.24,42.38,165.36,63.56
		c11.909,4.36,23.579,9.399,35.6,13.42c0.41-4.63,0.26-9.28,0.24-13.92c0.01-143.01,0.01-286.02,0.01-429.02
		c0.05-4.25,0.18-8.52-0.33-12.75c-130.28-0.17-260.57,0-390.86-0.07C57.72,87.25,51.42,86.95,45.12,87.3z"/>
</g>
<g>
	<path fill="#E7E7E7" d="M63.2,105.36c102.59-0.22,205.2-0.03,307.79-0.1c21.939,0.06,43.88-0.13,65.82,0.09
		c0.439,4.88,0.219,9.79,0.239,14.69c0,118.99-0.01,237.979,0.02,356.979c-0.169,13.221,0.261,26.45-0.199,39.661
		c-61.75-23.75-123.521-47.44-185.28-71.161c-1.05-0.43-2.11-0.43-3.16-0.02c-61.76,23.73-123.55,47.41-185.29,71.189
		c-0.45-31.55-0.07-63.129-0.21-94.689c0.04-101.65,0-203.3,0.02-304.95C62.89,113.15,62.86,109.25,63.2,105.36z M240.34,164.42
		c-12.38,2.3-23.59,10.38-29.49,21.53c-5.77,10.5-6.62,23.51-2.4,34.7c3.77,10.23,11.63,18.86,21.5,23.52
		c10.35,4.98,22.75,5.4,33.45,1.26c18.02-6.55,29.83-26.47,26.72-45.44c-1.89-14.11-11.521-26.85-24.54-32.59
		C257.74,163.81,248.8,162.85,240.34,164.42z M214.89,259.67c-15.5,3.21-31.04,7.97-44.3,16.85c-4.51,2.92-7.05,8.18-7.08,13.49
		c-0.84,11.211,2.12,23.48-3.83,33.721c-3.11,0.99-6.46,0.459-9.67,0.55c-9.41,0-18.81-0.181-28.21,0.09
		c9.6,8.22,20.56,14.72,30.37,22.67c-3.12,12.271-7.96,24.061-11.24,36.3c6.98-4.31,13.37-9.521,20.1-14.21
		c3.66-2.43,6.81-5.8,10.98-7.37c4.08,1.73,7.29,4.93,10.93,7.38c6.72,4.68,13.03,9.971,20.08,14.15
		c-3.3-12.229-8.31-23.971-11.23-36.29c3.63-3.17,7.79-5.65,11.59-8.6c2.16-1.581,4.22-3.391,6.7-4.44
		c2.32,0.761,4.14,2.45,6.08,3.851c4.06,3.17,8.51,5.81,12.41,9.199c-2.93,12.341-8,24.101-11.28,36.37
		c10.7-6.819,20.57-14.87,31.04-22.04c10.55,6.979,20.34,15.061,30.949,21.93c-2.89-12.25-8.02-23.869-11.129-36.05
		c3.119-2.979,6.84-5.18,10.27-7.76c2.75-2.01,5.35-4.279,8.5-5.66c6.149,4.311,12.35,8.601,18.17,13.36
		c-3.021,12.24-8.12,23.9-11.2,36.14c10.761-6.649,20.261-15.21,31.08-21.76c10.66,6.76,20.19,15.21,30.96,21.811
		c-3.08-11.051-7.05-21.82-10.52-32.74c-0.43-1.561-1.24-3.671,0.56-4.68c9.58-7.391,19.91-13.841,29.19-21.62
		c-11.05-0.141-22.1-0.07-33.16,0.009c-1.6-0.039-3.23-0.039-4.78-0.489c-5.88-9.91-4.17-21.88-4.25-32.87
		c0.15-6.19-3.229-12.19-8.45-15.45c-12.45-7.57-26.43-12.32-40.63-15.33c-3.409-0.68-7.01-1.74-10.45-0.62
		c-3.479,1.08-6.8,2.64-10.34,3.57c-11.35,3.2-23.72,2.61-34.72-1.67C224.12,259.74,219.46,258.65,214.89,259.67z"/>
</g>
<path fill="#E7E7E7" d="M244.41,172.44c17.859-2.52,35.68,11.76,37.34,29.66c2.37,16.5-9.61,33.17-25.79,36.67
	c-15.56,4.1-33.02-4.91-38.97-19.8c-5.97-13.59-1.42-30.71,10.43-39.61C232.32,175.58,238.25,173.15,244.41,172.44z"/>
<path fill="#E7E7E7" d="M188.64,276.68c8.72-4.06,18.17-6.09,27.46-8.38c3.44-1.14,6.82,0.43,10.03,1.54
	c14.27,5.1,30.32,5.07,44.551-0.18c2.689-0.91,5.47-2.22,8.389-1.61c14.611,2.54,29.051,7.25,41.62,15.27
	c1.53,1.14,3.721,2.45,3.431,4.69c-0.521,4.35-2.341,8.39-3.57,12.56c-2.649,7.771-4.86,15.69-7.771,23.361
	c-4.89,0.699-9.84,0.27-14.76,0.35c-12.56-0.28-25.149,0.42-37.68-0.35c-3.97-12.041-7.76-24.131-11.87-36.111
	c-4.06,10.78-7.22,21.89-10.86,32.81c-0.45,1.17-0.86,2.39-1.7,3.36c-6.6,0.74-13.28,0.05-19.91,0.26
	c-10.62-0.24-21.27,0.49-31.86-0.29c-4.02-10.08-6.72-20.641-10.34-30.88c-0.62-2.6-2.59-6.08-0.02-8.25
	C178.32,281.46,183.61,279.24,188.64,276.68z"/>
<path fill="#E7E7E7" d="M248.31,315.78c2.69,5.35,3.69,11.35,6.02,16.859c6.01,0.28,12.03-0.209,18.03,0.3
	c-3.9,3.7-8.75,6.16-12.87,9.561c-1.82,1.35-1.101,3.77-0.48,5.55c1.53,4.311,3.21,8.59,4.21,13.07
	c-5.319-2.9-9.57-7.73-15.11-10.06c-5.09,2.93-9.39,7.04-14.43,10.05c1.01-5.171,3.41-9.94,4.37-15.11
	c0.48-1.45-0.26-2.74-1.35-3.64c-3.78-3.45-8.44-5.8-12.09-9.421c5.43-0.5,10.88,0.091,16.31-0.229c1.73,0.13,2.17-1.8,2.71-3.029
	C245.28,325.08,246.39,320.29,248.31,315.78z"/>
<path fill="#E7E7E7" d="M324.681,315.78c2.759,4.93,3.409,10.67,5.779,15.75c0.28,0.239,0.83,0.72,1.101,0.96
	c5.539,0.77,11.199-0.07,16.77,0.74c-4.16,4.05-9.551,6.56-13.58,10.76c0.939,5.76,3.59,11.06,4.73,16.79
	c-5.211-2.771-9.521-6.88-14.57-9.9c-5.25,3.01-9.721,7.189-14.94,10.26c1.24-5.17,3.49-10.039,4.6-15.229
	c0.671-1.83-0.919-3.2-2.149-4.25c-3.72-2.979-7.78-5.521-11.55-8.43c5.99-0.57,12.01-0.061,18-0.37
	C321.08,327.26,322.561,321.41,324.681,315.78z"/>
<path fill="#E7E7E7" d="M167.05,330.05c1.7-4.489,2.54-9.39,5.35-13.39c1.67,4.21,2.8,8.59,4.17,12.9
	c0.49,1.22,0.92,3.06,2.51,3.189c5.43,0.39,10.9-0.25,16.32,0.439c-3.96,4.2-9.81,6.32-13.23,11c0.27,5.75,3.42,10.921,4.4,16.561
	c-5.25-2.74-9.54-6.91-14.62-9.91c-5.16,3.13-9.65,7.25-14.89,10.28c1.37-5.82,3.98-11.27,5.14-17.14
	c-4.12-4.141-9.57-6.67-13.49-11.03c5.33-0.53,10.7,0.16,16.03-0.311C166.12,332.63,166.58,331.061,167.05,330.05z"/>
<g>
	<g>
		<path fill="#FFFFFF" d="M240.34,164.42c8.46-1.57,17.4-0.61,25.24,2.98c13.02,5.74,22.65,18.48,24.54,32.59
			c3.11,18.97-8.7,38.89-26.72,45.44c-10.7,4.14-23.101,3.72-33.45-1.26c-9.87-4.66-17.73-13.29-21.5-23.52
			c-4.22-11.19-3.37-24.2,2.4-34.7C216.75,174.8,227.96,166.72,240.34,164.42z M244.41,172.44c-6.16,0.71-12.09,3.14-16.99,6.92
			c-11.85,8.9-16.4,26.02-10.43,39.61c5.95,14.89,23.41,23.9,38.97,19.8c16.18-3.5,28.16-20.17,25.79-36.67
			C280.09,184.2,262.27,169.92,244.41,172.44z"/>
	</g>
	<g>
		<path fill="#FFFFFF" d="M214.89,259.67c4.57-1.02,9.23,0.07,13.49,1.79c11,4.28,23.37,4.87,34.72,1.67
			c3.54-0.93,6.86-2.49,10.34-3.57c3.44-1.12,7.041-0.06,10.45,0.62c14.2,3.01,28.18,7.76,40.63,15.33
			c5.221,3.26,8.601,9.26,8.45,15.45c0.08,10.99-1.63,22.96,4.25,32.87c1.55,0.45,3.181,0.45,4.78,0.489
			c11.061-0.079,22.11-0.149,33.16-0.009c-9.28,7.779-19.61,14.229-29.19,21.62c-1.8,1.009-0.989,3.119-0.56,4.68
			c3.47,10.92,7.439,21.689,10.52,32.74c-10.77-6.601-20.3-15.051-30.96-21.811c-10.819,6.55-20.319,15.11-31.08,21.76
			c3.08-12.239,8.18-23.899,11.2-36.14c-5.82-4.76-12.021-9.05-18.17-13.36c-3.15,1.381-5.75,3.65-8.5,5.66
			c-3.43,2.58-7.15,4.78-10.27,7.76c3.109,12.181,8.239,23.8,11.129,36.05c-10.609-6.869-20.399-14.95-30.949-21.93
			c-10.47,7.17-20.34,15.221-31.04,22.04c3.28-12.27,8.35-24.029,11.28-36.37c-3.9-3.39-8.35-6.029-12.41-9.199
			c-1.94-1.4-3.76-3.09-6.08-3.851c-2.48,1.05-4.54,2.859-6.7,4.44c-3.8,2.949-7.96,5.43-11.59,8.6
			c2.92,12.319,7.93,24.061,11.23,36.29c-7.05-4.18-13.36-9.471-20.08-14.15c-3.64-2.45-6.85-5.649-10.93-7.38
			c-4.17,1.57-7.32,4.94-10.98,7.37c-6.73,4.689-13.12,9.9-20.1,14.21c3.28-12.239,8.12-24.029,11.24-36.3
			c-9.81-7.95-20.77-14.45-30.37-22.67c9.4-0.271,18.8-0.09,28.21-0.09c3.21-0.091,6.56,0.44,9.67-0.55
			c5.95-10.24,2.99-22.51,3.83-33.721c0.03-5.31,2.57-10.57,7.08-13.49C183.85,267.64,199.39,262.88,214.89,259.67z M188.64,276.68
			c-5.03,2.56-10.32,4.78-14.86,8.15c-2.57,2.17-0.6,5.65,0.02,8.25c3.62,10.239,6.32,20.8,10.34,30.88
			c10.59,0.78,21.24,0.05,31.86,0.29c6.63-0.21,13.31,0.48,19.91-0.26c0.84-0.971,1.25-2.19,1.7-3.36
			c3.64-10.92,6.8-22.03,10.86-32.81c4.11,11.98,7.9,24.07,11.87,36.111c12.53,0.77,25.12,0.069,37.68,0.35
			c4.92-0.08,9.87,0.35,14.76-0.35c2.91-7.671,5.121-15.591,7.771-23.361c1.229-4.169,3.05-8.209,3.57-12.56
			c0.29-2.24-1.9-3.55-3.431-4.69c-12.569-8.02-27.009-12.73-41.62-15.27c-2.919-0.61-5.699,0.7-8.389,1.61
			c-14.23,5.25-30.281,5.28-44.551,0.18c-3.21-1.11-6.59-2.68-10.03-1.54C206.81,270.59,197.36,272.62,188.64,276.68z
			 M248.31,315.78c-1.92,4.51-3.03,9.3-4.68,13.9c-0.54,1.229-0.98,3.159-2.71,3.029c-5.43,0.32-10.88-0.271-16.31,0.229
			c3.65,3.621,8.31,5.971,12.09,9.421c1.09,0.899,1.83,2.189,1.35,3.64c-0.96,5.17-3.36,9.939-4.37,15.11
			c5.04-3.01,9.34-7.12,14.43-10.05c5.54,2.329,9.791,7.159,15.11,10.06c-1-4.48-2.68-8.76-4.21-13.07
			c-0.62-1.78-1.34-4.2,0.48-5.55c4.12-3.4,8.97-5.86,12.87-9.561c-6-0.509-12.021-0.02-18.03-0.3
			C252,327.13,251,321.13,248.31,315.78z M324.681,315.78c-2.12,5.63-3.601,11.479-5.811,17.08c-5.99,0.31-12.01-0.2-18,0.37
			c3.77,2.909,7.83,5.45,11.55,8.43c1.23,1.05,2.82,2.42,2.149,4.25c-1.109,5.19-3.359,10.06-4.6,15.229
			c5.22-3.07,9.69-7.25,14.94-10.26c5.05,3.021,9.359,7.13,14.57,9.9c-1.141-5.73-3.791-11.03-4.73-16.79
			c4.029-4.2,9.42-6.71,13.58-10.76c-5.57-0.811-11.23,0.029-16.77-0.74c-0.271-0.24-0.82-0.721-1.101-0.96
			C328.09,326.45,327.439,320.71,324.681,315.78z M167.05,330.05c-0.47,1.011-0.93,2.58-2.31,2.59
			c-5.33,0.471-10.7-0.22-16.03,0.311c3.92,4.36,9.37,6.89,13.49,11.03c-1.16,5.87-3.77,11.319-5.14,17.14
			c5.24-3.03,9.73-7.15,14.89-10.28c5.08,3,9.37,7.17,14.62,9.91c-0.98-5.64-4.13-10.811-4.4-16.561c3.42-4.68,9.27-6.8,13.23-11
			c-5.42-0.689-10.89-0.05-16.32-0.439c-1.59-0.13-2.02-1.97-2.51-3.189c-1.37-4.311-2.5-8.69-4.17-12.9
			C169.59,320.66,168.75,325.561,167.05,330.05z"/>
	</g>
</g>
<g>
	<g>
		<path fill="#A8A8A8" d="M184.29,676.852c0-1.562-0.553-2.841-1.661-3.837c-1.107-0.995-3.068-1.888-5.883-2.678
			c-4.034-1.115-7.146-2.579-9.334-4.39c-2.188-1.812-3.283-4.176-3.283-7.094c0-3.021,1.202-5.511,3.605-7.468
			c2.403-1.956,5.493-2.935,9.27-2.935c4.051,0,7.291,1.086,9.72,3.257c2.429,2.172,3.6,4.854,3.515,8.047l-0.052,0.154h-6.025
			c0-1.974-0.657-3.545-1.97-4.712c-1.313-1.168-3.06-1.751-5.24-1.751c-2.112,0-3.738,0.498-4.879,1.493
			c-1.142,0.996-1.712,2.283-1.712,3.862c0,1.441,0.626,2.631,1.879,3.566s3.33,1.824,6.231,2.665
			c3.931,1.099,6.926,2.597,8.986,4.493c2.06,1.896,3.09,4.321,3.09,7.273c0,3.107-1.219,5.588-3.657,7.441
			c-2.438,1.854-5.639,2.781-9.604,2.781c-3.811,0-7.132-1.013-9.965-3.039c-2.832-2.024-4.206-4.883-4.12-8.574l0.052-0.154h6.025
			c0,2.249,0.776,3.944,2.33,5.086s3.446,1.712,5.678,1.712c2.214,0,3.935-0.468,5.163-1.403
			C183.676,679.714,184.29,678.448,184.29,676.852z"/>
		<path fill="#A8A8A8" d="M228.418,654.013h-11.587v32.469h-6.257v-32.469h-11.407v-5.021h29.25V654.013z"/>
		<path fill="#A8A8A8" d="M255.165,677.727h-13.286l-2.884,8.755h-6.463l13.081-37.49h5.948l12.926,37.49h-6.463L255.165,677.727z
			 M243.604,672.5h9.862l-4.815-14.779h-0.154L243.604,672.5z"/>
		<path fill="#A8A8A8" d="M295.766,670.491h-15.114v15.99h-6.257v-37.49h23.998v5.021h-17.741v11.458h15.114V670.491z"/>
		<path fill="#A8A8A8" d="M330.237,670.491h-15.114v15.99h-6.257v-37.49h23.998v5.021h-17.741v11.458h15.114V670.491z"/>
		<path fill="#A8A8A8" d="M75.891,737.505l0.052,0.154c0.068,3.776-1.159,6.827-3.682,9.153s-5.931,3.489-10.222,3.489
			c-4.36,0-7.896-1.472-10.608-4.416c-2.712-2.944-4.068-6.708-4.068-11.291v-7.132c0-4.566,1.339-8.33,4.017-11.291
			c2.678-2.961,6.171-4.441,10.48-4.441c4.411,0,7.883,1.124,10.415,3.373c2.532,2.249,3.763,5.329,3.695,9.243l-0.051,0.154h-6.051
			c0-2.506-0.679-4.424-2.034-5.755c-1.356-1.33-3.348-1.995-5.974-1.995c-2.541,0-4.554,1.009-6.038,3.025
			c-1.485,2.018-2.228,4.563-2.228,7.635v7.184c0,3.107,0.755,5.669,2.266,7.687c1.51,2.017,3.57,3.025,6.18,3.025
			c2.558,0,4.501-0.67,5.832-2.009c1.33-1.339,1.996-3.271,1.996-5.793H75.891z"/>
		<path fill="#A8A8A8" d="M116.697,734.389c0,4.583-1.438,8.381-4.313,11.394c-2.875,3.013-6.613,4.52-11.213,4.52
			c-4.48,0-8.128-1.507-10.943-4.52c-2.815-3.013-4.223-6.811-4.223-11.394v-6.746c0-4.565,1.403-8.359,4.21-11.381
			c2.807-3.021,6.458-4.531,10.956-4.531c4.583,0,8.317,1.511,11.201,4.531c2.884,3.021,4.326,6.815,4.326,11.381V734.389z
			 M110.44,727.591c0-3.124-0.833-5.69-2.498-7.698c-1.666-2.009-3.923-3.013-6.772-3.013c-2.764,0-4.94,1.004-6.527,3.013
			c-1.588,2.008-2.382,4.574-2.382,7.698v6.798c0,3.159,0.798,5.746,2.395,7.764c1.597,2.017,3.768,3.025,6.515,3.025
			c2.866,0,5.128-1.005,6.785-3.013c1.656-2.009,2.485-4.601,2.485-7.776V727.591z"/>
		<path fill="#A8A8A8" d="M134.87,734.209v15.552h-6.257v-37.49h12.9c4.171,0,7.398,0.944,9.682,2.833
			c2.283,1.888,3.425,4.583,3.425,8.085c0,1.939-0.502,3.609-1.506,5.008c-1.004,1.399-2.468,2.52-4.39,3.36
			c2.111,0.669,3.634,1.76,4.57,3.27c0.936,1.511,1.403,3.382,1.403,5.613v3.116c0,1.099,0.137,2.172,0.412,3.218
			c0.274,1.048,0.729,1.846,1.364,2.396v0.592h-6.437c-0.687-0.566-1.125-1.45-1.313-2.652c-0.189-1.201-0.283-2.402-0.283-3.604
			v-3.013c0-1.922-0.554-3.45-1.661-4.583c-1.107-1.133-2.613-1.699-4.519-1.699H134.87z M134.87,729.188h6.309
			c2.506,0,4.334-0.48,5.484-1.441c1.15-0.962,1.725-2.43,1.725-4.403c0-1.888-0.566-3.369-1.699-4.441
			c-1.133-1.073-2.858-1.609-5.176-1.609h-6.643V729.188z"/>
		<path fill="#A8A8A8" d="M173.694,735.548v14.213h-6.257v-37.49h14.368c4.137,0,7.377,1.069,9.72,3.206s3.515,4.948,3.515,8.433
			c0,3.52-1.171,6.339-3.515,8.458c-2.343,2.121-5.583,3.181-9.72,3.181H173.694z M173.694,730.526h8.111
			c2.317,0,4.06-0.618,5.227-1.854c1.167-1.236,1.751-2.807,1.751-4.712s-0.584-3.493-1.751-4.764
			c-1.167-1.271-2.91-1.905-5.227-1.905h-8.111V730.526z"/>
		<path fill="#A8A8A8" d="M235.743,734.389c0,4.583-1.438,8.381-4.313,11.394c-2.875,3.013-6.613,4.52-11.213,4.52
			c-4.48,0-8.128-1.507-10.943-4.52c-2.815-3.013-4.223-6.811-4.223-11.394v-6.746c0-4.565,1.403-8.359,4.21-11.381
			c2.807-3.021,6.458-4.531,10.956-4.531c4.583,0,8.317,1.511,11.201,4.531c2.884,3.021,4.326,6.815,4.326,11.381V734.389z
			 M229.486,727.591c0-3.124-0.833-5.69-2.498-7.698c-1.666-2.009-3.923-3.013-6.772-3.013c-2.764,0-4.94,1.004-6.527,3.013
			c-1.588,2.008-2.382,4.574-2.382,7.698v6.798c0,3.159,0.798,5.746,2.395,7.764c1.597,2.017,3.768,3.025,6.515,3.025
			c2.866,0,5.128-1.005,6.785-3.013c1.656-2.009,2.485-4.601,2.485-7.776V727.591z"/>
		<path fill="#A8A8A8" d="M253.916,734.209v15.552h-6.256v-37.49h12.901c4.17,0,7.398,0.944,9.682,2.833
			c2.281,1.888,3.424,4.583,3.424,8.085c0,1.939-0.502,3.609-1.506,5.008c-1.004,1.399-2.469,2.52-4.391,3.36
			c2.111,0.669,3.635,1.76,4.57,3.27c0.936,1.511,1.402,3.382,1.402,5.613v3.116c0,1.099,0.139,2.172,0.412,3.218
			c0.275,1.048,0.73,1.846,1.365,2.396v0.592h-6.438c-0.686-0.566-1.123-1.45-1.313-2.652c-0.189-1.201-0.283-2.402-0.283-3.604
			v-3.013c0-1.922-0.555-3.45-1.66-4.583c-1.107-1.133-2.615-1.699-4.52-1.699H253.916z M253.916,729.188h6.309
			c2.506,0,4.334-0.48,5.484-1.441c1.15-0.962,1.727-2.43,1.727-4.403c0-1.888-0.566-3.369-1.701-4.441
			c-1.133-1.073-2.857-1.609-5.174-1.609h-6.645V729.188z"/>
		<path fill="#A8A8A8" d="M306.001,741.006h-13.286l-2.884,8.755h-6.463l13.08-37.49h5.948l12.926,37.49h-6.463L306.001,741.006z
			 M294.439,735.779h9.862L299.486,721h-0.154L294.439,735.779z"/>
		<path fill="#A8A8A8" d="M349.125,717.292h-11.587v32.469h-6.257v-32.469h-11.407v-5.021h29.251V717.292z"/>
		<path fill="#A8A8A8" d="M365.934,749.761h-6.257v-37.49h6.257V749.761z"/>
		<path fill="#A8A8A8" d="M391.652,739.59l0.669,2.729h0.154l0.645-2.678l8.96-27.371h6.669l-13.39,37.49h-5.947l-13.364-37.49
			h6.669L391.652,739.59z"/>
		<path fill="#A8A8A8" d="M447.471,734.389c0,4.583-1.438,8.381-4.313,11.394s-6.613,4.52-11.214,4.52
			c-4.479,0-8.128-1.507-10.942-4.52c-2.815-3.013-4.224-6.811-4.224-11.394v-6.746c0-4.565,1.403-8.359,4.21-11.381
			c2.807-3.021,6.459-4.531,10.956-4.531c4.584,0,8.317,1.511,11.201,4.531c2.884,3.021,4.325,6.815,4.325,11.381V734.389z
			 M441.214,727.591c0-3.124-0.832-5.69-2.497-7.698c-1.665-2.009-3.923-3.013-6.772-3.013c-2.764,0-4.939,1.004-6.527,3.013
			c-1.588,2.008-2.381,4.574-2.381,7.698v6.798c0,3.159,0.798,5.746,2.395,7.764c1.596,2.017,3.768,3.025,6.514,3.025
			c2.867,0,5.128-1.005,6.785-3.013c1.656-2.009,2.484-4.601,2.484-7.776V727.591z"/>
	</g>
</g>
</svg>
