<?xml version="1.0" encoding="utf-8"?>
<!-- Generator: Adobe Illustrator 16.0.0, SVG Export Plug-In . SVG Version: 6.00 Build 0)  -->
<!DOCTYPE svg PUBLIC "-//W3C//DTD SVG 1.1//EN" "http://www.w3.org/Graphics/SVG/1.1/DTD/svg11.dtd">
<svg version="1.1" id="project_gris" xmlns="http://www.w3.org/2000/svg" xmlns:xlink="http://www.w3.org/1999/xlink" x="0px"
	 y="0px" width="500px" height="794.5px" viewBox="0 0 500 794.5" enable-background="new 0 0 500 794.5" xml:space="preserve">
<g>
	<g>
		<path fill="#A8A8A8" d="M129.141,672.269v14.213h-6.257v-37.49h14.368c4.137,0,7.377,1.069,9.72,3.206s3.515,4.948,3.515,8.433
			c0,3.52-1.171,6.339-3.515,8.458c-2.343,2.121-5.583,3.181-9.72,3.181H129.141z M129.141,667.247h8.111
			c2.317,0,4.06-0.618,5.227-1.854c1.167-1.236,1.751-2.807,1.751-4.712s-0.584-3.493-1.751-4.764
			c-1.167-1.271-2.91-1.905-5.227-1.905h-8.111V667.247z"/>
		<path fill="#A8A8A8" d="M167.991,670.93v15.552h-6.257v-37.49h12.9c4.171,0,7.398,0.944,9.682,2.833
			c2.283,1.888,3.425,4.583,3.425,8.085c0,1.939-0.502,3.609-1.506,5.008c-1.004,1.399-2.468,2.52-4.39,3.36
			c2.111,0.669,3.634,1.76,4.57,3.27c0.936,1.511,1.403,3.382,1.403,5.613v3.116c0,1.099,0.137,2.172,0.412,3.218
			c0.274,1.048,0.729,1.846,1.364,2.396v0.592h-6.437c-0.687-0.566-1.125-1.45-1.313-2.652c-0.189-1.201-0.283-2.402-0.283-3.604
			v-3.013c0-1.922-0.554-3.45-1.661-4.583c-1.107-1.133-2.613-1.699-4.519-1.699H167.991z M167.991,665.908h6.309
			c2.506,0,4.334-0.48,5.484-1.441c1.15-0.962,1.725-2.43,1.725-4.403c0-1.888-0.566-3.369-1.699-4.441
			c-1.133-1.073-2.858-1.609-5.176-1.609h-6.643V665.908z"/>
		<path fill="#A8A8A8" d="M230.014,671.109c0,4.583-1.438,8.381-4.313,11.394c-2.875,3.013-6.613,4.52-11.213,4.52
			c-4.48,0-8.128-1.507-10.943-4.52c-2.815-3.013-4.223-6.811-4.223-11.394v-6.746c0-4.565,1.403-8.359,4.21-11.381
			c2.807-3.021,6.458-4.531,10.956-4.531c4.583,0,8.317,1.511,11.201,4.531c2.884,3.021,4.326,6.815,4.326,11.381V671.109z
			 M223.757,664.312c0-3.124-0.833-5.69-2.498-7.698c-1.666-2.009-3.923-3.013-6.772-3.013c-2.764,0-4.94,1.004-6.527,3.013
			c-1.588,2.008-2.382,4.574-2.382,7.698v6.798c0,3.159,0.798,5.746,2.395,7.764c1.597,2.017,3.768,3.025,6.515,3.025
			c2.866,0,5.128-1.005,6.785-3.013c1.656-2.009,2.485-4.601,2.485-7.776V664.312z"/>
		<path fill="#A8A8A8" d="M256.967,648.991h6.232v26.238c0,3.604-1.096,6.472-3.283,8.6c-2.189,2.129-5.025,3.193-8.51,3.193
			c-3.691,0-6.618-0.944-8.781-2.833c-2.163-1.888-3.202-4.643-3.116-8.265l0.052-0.154h6.051c0,2.128,0.511,3.703,1.532,4.725
			c1.021,1.021,2.441,1.532,4.262,1.532c1.631,0,2.965-0.618,4.004-1.854c1.037-1.235,1.557-2.884,1.557-4.943V648.991z"/>
		<path fill="#A8A8A8" d="M297.232,669.616h-14.677v11.87h17.303v4.995h-23.56v-37.49h23.38v5.021h-17.123v10.582h14.677V669.616z"
			/>
		<path fill="#A8A8A8" d="M338.168,674.226l0.052,0.154c0.068,3.776-1.159,6.827-3.683,9.153s-5.931,3.489-10.222,3.489
			c-4.36,0-7.896-1.472-10.608-4.416c-2.713-2.944-4.068-6.708-4.068-11.291v-7.132c0-4.566,1.339-8.33,4.017-11.291
			s6.171-4.441,10.479-4.441c4.412,0,7.884,1.124,10.416,3.373c2.531,2.249,3.763,5.329,3.694,9.243l-0.052,0.154h-6.051
			c0-2.506-0.678-4.424-2.034-5.755c-1.355-1.33-3.347-1.995-5.974-1.995c-2.54,0-4.553,1.009-6.038,3.025
			c-1.484,2.018-2.227,4.563-2.227,7.635v7.184c0,3.107,0.755,5.669,2.266,7.687c1.51,2.017,3.57,3.025,6.18,3.025
			c2.558,0,4.502-0.67,5.832-2.009s1.995-3.271,1.995-5.793H338.168z"/>
		<path fill="#A8A8A8" d="M374.958,654.013h-11.587v32.469h-6.257v-32.469h-11.407v-5.021h29.251V654.013z"/>
		<path fill="#A8A8A8" d="M130.068,741.109h0.155l10.84-28.839h7.982v37.49h-6.257v-26.933l-0.155-0.026l-10.325,26.959h-4.3
			l-10.505-27.474l-0.155,0.052v27.422h-6.257v-37.49h8.214L130.068,741.109z"/>
		<path fill="#A8A8A8" d="M182.204,741.006h-13.286l-2.884,8.755h-6.463l13.081-37.49h5.948l12.926,37.49h-6.463L182.204,741.006z
			 M170.643,735.779h9.861L175.689,721h-0.154L170.643,735.779z"/>
		<path fill="#A8A8A8" d="M230.709,749.761h-6.257l-16.608-27.011l-0.155,0.052v26.959h-6.257v-37.49h6.257l16.608,27.011
			l0.155-0.052v-26.959h6.257V749.761z"/>
		<path fill="#A8A8A8" d="M263.842,741.006h-13.285l-2.885,8.755h-6.463l13.08-37.49h5.949l12.926,37.49h-6.463L263.842,741.006z
			 M252.281,735.779h9.861L257.328,721h-0.154L252.281,735.779z"/>
		<path fill="#A8A8A8" d="M310.571,744.688c-1.03,1.459-2.674,2.76-4.932,3.9c-2.257,1.143-5.171,1.713-8.741,1.713
			c-4.429,0-8.072-1.43-10.931-4.287c-2.857-2.858-4.287-6.554-4.287-11.085v-7.828c0-4.531,1.382-8.227,4.146-11.084
			c2.764-2.858,6.317-4.287,10.66-4.287c4.36,0,7.759,1.099,10.196,3.296s3.622,5.063,3.554,8.6l-0.077,0.154h-5.948
			c0-2.111-0.656-3.811-1.97-5.098c-1.313-1.288-3.197-1.932-5.651-1.932c-2.593,0-4.683,0.97-6.271,2.91
			c-1.588,1.939-2.382,4.402-2.382,7.39v7.879c0,3.021,0.828,5.506,2.485,7.454c1.656,1.948,3.814,2.923,6.476,2.923
			c2.009,0,3.596-0.228,4.764-0.683c1.167-0.455,2.051-1.009,2.652-1.661v-7.75h-7.854v-4.687h14.11V744.688z"/>
		<path fill="#A8A8A8" d="M344.425,732.896h-14.677v11.87h17.303v4.995h-23.56v-37.49h23.38v5.021h-17.123v10.582h14.677V732.896z"
			/>
		<path fill="#A8A8A8" d="M364.221,734.209v15.552h-6.257v-37.49h12.9c4.171,0,7.398,0.944,9.682,2.833
			c2.282,1.888,3.424,4.583,3.424,8.085c0,1.939-0.502,3.609-1.506,5.008c-1.004,1.399-2.468,2.52-4.391,3.36
			c2.111,0.669,3.635,1.76,4.57,3.27c0.936,1.511,1.403,3.382,1.403,5.613v3.116c0,1.099,0.138,2.172,0.412,3.218
			c0.274,1.048,0.729,1.846,1.365,2.396v0.592h-6.438c-0.687-0.566-1.124-1.45-1.313-2.652c-0.188-1.201-0.283-2.402-0.283-3.604
			v-3.013c0-1.922-0.554-3.45-1.66-4.583c-1.107-1.133-2.614-1.699-4.52-1.699H364.221z M364.221,729.188h6.309
			c2.506,0,4.334-0.48,5.484-1.441c1.149-0.962,1.726-2.43,1.726-4.403c0-1.888-0.566-3.369-1.7-4.441
			c-1.133-1.073-2.857-1.609-5.175-1.609h-6.644V729.188z"/>
	</g>
</g>
<g>
	<path fill="#D7D7D7" d="M0,25c166.67,0,333.33,0,500,0v41.19c-7.82,0.04-15.65-0.08-23.46,0.07
		c-45.19,0.39-90.38,0.061-135.56,0.18c-58.99-0.01-117.98-0.01-176.971,0c-46.83-0.14-93.67,0.26-140.49-0.17
		C15.68,66.1,7.84,66.23,0,66.19V25z"/>
	<g>
		<path fill="#D7D7D7" d="M45.3,87.34c136.49,0.02,272.97,0.1,409.46-0.06c0.17,117.26,0.02,234.52,0.07,351.78
			c-0.08,34.6,0.15,69.209-0.13,103.81c-56.521-21.74-113.09-43.33-169.58-65.14c-11.78-4.141-23.189-9.391-35.07-13.2
			c-7.34,1.989-14.22,5.53-21.44,7.95c-61.1,23.489-122.21,46.979-183.36,70.37c-0.18-74.301-0.02-148.61-0.09-222.911
			C45.28,242.41,44.98,164.87,45.3,87.34z M62.92,105.07c-0.54,7.97-0.15,15.96-0.23,23.93c-0.03,125.33,0.04,250.66-0.02,375.98
			c-0.03,3.979-0.02,7.959,0.33,11.93c53.93-20.721,107.83-41.51,161.78-62.15c8.43-3.029,16.64-6.779,25.17-9.47
			c6.689,1.96,13.09,4.94,19.66,7.35c55.84,21.341,111.63,42.851,167.45,64.271c0.609-21.95,0.06-43.92,0.25-65.88
			c0-112.67,0-225.35,0.009-338.021c-0.159-2.58,0.53-5.41-0.529-7.83c-2.91-0.65-5.91-0.31-8.851-0.35
			c-117.649,0.05-235.299,0.01-352.949,0.02C70.96,104.77,66.94,104.79,62.92,105.07z"/>
	</g>
</g>
<path fill="#C7C7C7" d="M23.52,66.27c46.82,0.43,93.66,0.03,140.49,0.17c58.99-0.01,117.98-0.01,176.971,0
	c45.18-0.12,90.369,0.21,135.56-0.18c0.04,169.23-0.101,338.46,0.06,507.69c-0.119-0.04-0.38-0.11-0.5-0.15
	c0.61-10.26,0.17-20.54,0.271-30.81c0.02-110.99-0.021-221.971,0.01-332.96c-0.11-47.76,0.17-95.53-0.12-143.29
	c-150.92,0.04-301.83-0.08-452.75,0.07L23.52,66.27z"/>
<g>
	<g>
		<path fill="#E4E4E4" d="M23.51,66.81c150.92-0.15,301.83-0.03,452.75-0.07c0.29,47.76,0.01,95.53,0.12,143.29
			c-0.03,110.99,0.01,221.97-0.01,332.96c-0.101,10.27,0.34,20.55-0.271,30.81c-75.43-28.73-150.729-57.84-226.1-86.73
			c-75.5,29-151,58-226.5,86.991C23.5,404.97,23.48,235.89,23.51,66.81z M45.3,87.34c-0.32,77.53-0.02,155.07-0.14,232.6
			c0.07,74.301-0.09,148.61,0.09,222.911c61.15-23.391,122.26-46.881,183.36-70.37c7.22-2.42,14.1-5.961,21.44-7.95
			c11.881,3.81,23.29,9.06,35.07,13.2c56.49,21.81,113.06,43.399,169.58,65.14c0.28-34.601,0.05-69.21,0.13-103.81
			c-0.051-117.261,0.1-234.521-0.07-351.78C318.27,87.44,181.79,87.36,45.3,87.34z"/>
	</g>
	<g>
		<path fill="#E4E4E4" d="M62.92,105.07c4.02-0.28,8.04-0.3,12.07-0.22c117.65-0.01,235.3,0.03,352.949-0.02
			c2.94,0.04,5.94-0.3,8.851,0.35c1.06,2.42,0.37,5.25,0.529,7.83c-0.009,112.67-0.009,225.351-0.009,338.021
			c-0.19,21.96,0.359,43.93-0.25,65.88c-55.82-21.42-111.61-42.93-167.45-64.271c-6.57-2.409-12.971-5.39-19.66-7.35
			c-8.53,2.69-16.74,6.44-25.17,9.47C170.83,475.4,116.93,496.189,63,516.91c-0.35-3.971-0.36-7.95-0.33-11.93
			c0.06-125.32-0.01-250.65,0.02-375.98C62.77,121.03,62.38,113.04,62.92,105.07z M245.28,166.37c-9.77,0.91-17.4,10.9-15.39,20.57
			c1.28,10.1,12.52,17.17,22.2,14.13c9.75-2.19,15.6-13.88,11.91-23.07C261.55,170.33,253.189,165.33,245.28,166.37z M216.81,214.88
			c-6.89,6.01-10.61,15.02-10.79,24.1c6.99,0.46,14,0.08,21.01,0.2c20.43-0.1,40.86,0.2,61.29-0.12
			c0.62-8.13-2.669-16.25-8.409-21.97C263.89,199.94,234.09,199.26,216.81,214.88z M242.95,246.88c-0.3,5.58-0.05,11.17-0.2,16.76
			c-23.98,0.15-47.98-0.26-71.96,0.19c-0.3,13.77-0.31,27.56,0.01,41.33c2.78,0.09,5.56,0.061,8.34-0.1
			c0.43-10.88,0.16-21.771,0.19-32.65c21.12-0.08,42.25,0.08,63.38-0.04c0.39,10.9-0.16,21.81,0.22,32.72
			c2.98,0.131,5.97,0.091,8.95-0.119c0.16-10.691-0.11-21.381,0.11-32.061c21.039-0.3,42.109-0.31,63.149,0
			c0.61,10.8-0.209,21.64,0.45,32.439c2.83,0.051,5.67-0.069,8.51-0.289c0.59-8.011,0.101-16.051,0.211-24.07
			c-0.25-5.64,0.579-11.37-0.38-16.95c-1.551-0.64-3.271-0.43-4.901-0.49c-22.299,0.2-44.599-0.12-66.899,0.16
			c-0.55-5.57-0.18-11.17-0.3-16.75C248.88,246.68,245.91,246.64,242.95,246.88z M173.3,318.4c-6.54,0.479-11.88,6.16-12.46,12.59
			c-0.75,7.55,5.47,15.029,13.13,15.279c7.84,0.67,15.18-6.369,14.89-14.22C189.05,324.061,181.12,317.33,173.3,318.4z
			 M245.33,318.439c-4.63,0.761-9.09,3.66-10.76,8.19c-3.34,6.83,0.26,15.81,7.37,18.5c8.09,3.92,18.6-2.27,19.32-11.17
			C262.67,325.14,254.05,316.92,245.33,318.439z M318.279,318.37c-5.34,0.44-9.96,4.311-11.699,9.319
			c-2.95,7.561,2.41,16.841,10.359,18.28c8,1.87,16.61-4.689,16.9-12.92C334.7,324.71,326.47,317.25,318.279,318.37z M152.86,354.77
			c-6.48,4.8-10.76,12.74-10.55,20.87c21.56,0.41,43.14,0.101,64.71,0.2c0.83-5.97-1.65-11.93-5.3-16.54
			c-5.41-5.86-12.87-9.68-20.66-11.22C171.22,346.27,161.03,349.27,152.86,354.77z M222.37,357.39
			c-4.88,4.78-7.87,11.561-7.38,18.44c21.61-0.05,43.21,0.101,64.82-0.09c0.289-7.25-3.041-14.41-8.48-19.13
			C258.061,344.29,235.31,344.87,222.37,357.39z M294.16,358.181c-4.62,4.619-6.82,11.079-7,17.529
			c21.6,0.32,43.22-0.021,64.82,0.141c0.989-5.49-1.44-10.931-4.53-15.341C335.069,344.34,308.029,343.4,294.16,358.181z"/>
	</g>
	<path fill="#E4E4E4" d="M245.34,175.46c5.56-1.67,11.57,3.86,10.689,9.51c-0.34,3.52-3.079,6.49-6.359,7.58
		c-4.26,1.09-9.41-1.3-10.61-5.69C237.06,182.18,240.43,176.44,245.34,175.46z"/>
	<path fill="#E4E4E4" d="M227.8,217.84c9.31-5.38,20.83-6.51,31.11-3.51c7.97,2.45,15.771,7.51,18.96,15.54
		c-15.271,0.47-30.56,0.08-45.84,0.19c-5.04-0.02-10.09,0.16-15.12-0.2C218.73,224.57,223.22,220.77,227.8,217.84z"/>
	<path fill="#E4E4E4" d="M173.35,327.45c3.63-1.41,7.79,2.68,6.31,6.319c-0.91,3.541-5.97,4.61-8.35,1.951
		C168.68,333.319,169.85,328.319,173.35,327.45z"/>
	<path fill="#E4E4E4" d="M245.32,327.45c3.87-1.57,8.45,2.47,6.71,6.489c-1.19,3.891-6.92,4.25-9.04,1.041
		C241.31,332.37,242.84,328.9,245.32,327.45z"/>
	<path fill="#E4E4E4" d="M318.34,327.46c3.95-1.61,8.03,3.271,6.05,6.95c-1.47,3.99-8.27,3.55-9.32-0.51
		C314.2,331.319,315.66,328.181,318.34,327.46z"/>
	<path fill="#E4E4E4" d="M166.96,357.851c9.97-2.95,22.24-0.351,28.49,8.419c-2.45,0.44-4.94,0.521-7.42,0.431
		c-11.29-0.061-22.59,0.1-33.88-0.09C156.6,361.7,162,359.38,166.96,357.851z"/>
	<path fill="#E4E4E4" d="M239.71,357.601c9.98-2.341,22.65-0.29,28.39,9.039c-14,0.13-28,0.11-42,0.041
		C229.68,362.45,234.15,358.76,239.71,357.601z"/>
	<path fill="#E4E4E4" d="M299.04,366.64c4.739-8.05,15.149-10.6,23.92-9.739c7.13,0.21,13.68,4.149,17.93,9.77
		C326.939,366.78,312.99,366.79,299.04,366.64z"/>
</g>
<g>
	<g>
		<path fill="#FFFFFF" d="M245.28,166.37c7.91-1.04,16.27,3.96,18.72,11.63c3.689,9.19-2.16,20.88-11.91,23.07
			c-9.68,3.04-20.92-4.03-22.2-14.13C227.88,177.27,235.51,167.28,245.28,166.37z M245.34,175.46c-4.91,0.98-8.28,6.72-6.28,11.4
			c1.2,4.39,6.35,6.78,10.61,5.69c3.28-1.09,6.02-4.06,6.359-7.58C256.91,179.32,250.899,173.79,245.34,175.46z"/>
	</g>
	<g>
		<path fill="#FFFFFF" d="M216.81,214.88c17.28-15.62,47.08-14.94,63.1,2.21c5.74,5.72,9.029,13.84,8.409,21.97
			c-20.43,0.32-40.859,0.02-61.29,0.12c-7.01-0.12-14.02,0.26-21.01-0.2C206.2,229.9,209.92,220.89,216.81,214.88z M227.8,217.84
			c-4.58,2.93-9.07,6.73-10.89,12.02c5.03,0.36,10.08,0.18,15.12,0.2c15.28-0.11,30.57,0.28,45.84-0.19
			c-3.189-8.03-10.99-13.09-18.96-15.54C248.63,211.33,237.11,212.46,227.8,217.84z"/>
	</g>
	<path fill="#FFFFFF" d="M242.95,246.88c2.96-0.24,5.93-0.2,8.88,0.08c0.12,5.58-0.25,11.18,0.3,16.75
		c22.301-0.28,44.601,0.04,66.899-0.16c1.631,0.06,3.351-0.15,4.901,0.49c0.959,5.58,0.13,11.31,0.38,16.95
		c-0.11,8.02,0.379,16.06-0.211,24.07c-2.84,0.22-5.68,0.34-8.51,0.289c-0.659-10.8,0.16-21.64-0.45-32.439
		c-21.04-0.31-42.11-0.3-63.149,0c-0.221,10.68,0.05,21.37-0.11,32.061c-2.98,0.21-5.97,0.25-8.95,0.119
		c-0.38-10.91,0.17-21.82-0.22-32.72c-21.13,0.12-42.26-0.04-63.38,0.04c-0.03,10.88,0.24,21.77-0.19,32.65
		c-2.78,0.16-5.56,0.189-8.34,0.1c-0.32-13.77-0.31-27.56-0.01-41.33c23.98-0.45,47.98-0.04,71.96-0.19
		C242.9,258.05,242.65,252.46,242.95,246.88z"/>
	<g>
		<path fill="#FFFFFF" d="M173.3,318.4c7.82-1.07,15.75,5.66,15.56,13.649c0.29,7.851-7.05,14.89-14.89,14.22
			c-7.66-0.25-13.88-7.729-13.13-15.279C161.42,324.561,166.76,318.88,173.3,318.4z M173.35,327.45
			c-3.5,0.869-4.67,5.869-2.04,8.271c2.38,2.659,7.44,1.59,8.35-1.951C181.14,330.13,176.98,326.04,173.35,327.45z"/>
	</g>
	<g>
		<path fill="#FFFFFF" d="M245.33,318.439c8.72-1.52,17.34,6.7,15.93,15.521c-0.72,8.9-11.23,15.09-19.32,11.17
			c-7.11-2.69-10.71-11.67-7.37-18.5C236.24,322.1,240.7,319.2,245.33,318.439z M245.32,327.45c-2.48,1.45-4.01,4.92-2.33,7.53
			c2.12,3.209,7.85,2.85,9.04-1.041C253.77,329.92,249.19,325.88,245.32,327.45z"/>
	</g>
	<g>
		<path fill="#FFFFFF" d="M318.279,318.37c8.19-1.12,16.421,6.34,15.561,14.68c-0.29,8.23-8.9,14.79-16.9,12.92
			c-7.949-1.439-13.31-10.72-10.359-18.28C308.319,322.681,312.939,318.811,318.279,318.37z M318.34,327.46
			c-2.68,0.721-4.14,3.859-3.271,6.44c1.051,4.06,7.851,4.5,9.32,0.51C326.37,330.73,322.29,325.85,318.34,327.46z"/>
	</g>
	<g>
		<path fill="#FFFFFF" d="M152.86,354.77c8.17-5.5,18.36-8.5,28.2-6.689c7.79,1.54,15.25,5.359,20.66,11.22
			c3.65,4.61,6.13,10.57,5.3,16.54c-21.57-0.1-43.15,0.21-64.71-0.2C142.1,367.51,146.38,359.569,152.86,354.77z M166.96,357.851
			c-4.96,1.529-10.36,3.85-12.81,8.76c11.29,0.189,22.59,0.029,33.88,0.09c2.48,0.09,4.97,0.01,7.42-0.431
			C189.2,357.5,176.93,354.9,166.96,357.851z"/>
	</g>
	<g>
		<path fill="#FFFFFF" d="M222.37,357.39c12.94-12.52,35.69-13.1,48.96-0.779c5.439,4.72,8.77,11.88,8.48,19.13
			c-21.61,0.19-43.21,0.04-64.82,0.09C214.5,368.95,217.49,362.17,222.37,357.39z M239.71,357.601
			c-5.56,1.159-10.03,4.85-13.61,9.08c14,0.069,28,0.089,42-0.041C262.36,357.311,249.69,355.26,239.71,357.601z"/>
	</g>
	<g>
		<path fill="#FFFFFF" d="M294.16,358.181c13.869-14.78,40.909-13.841,53.29,2.329c3.09,4.41,5.52,9.851,4.53,15.341
			c-21.601-0.161-43.221,0.18-64.82-0.141C287.34,369.26,289.54,362.8,294.16,358.181z M299.04,366.64
			c13.95,0.15,27.899,0.141,41.85,0.03c-4.25-5.62-10.8-9.56-17.93-9.77C314.189,356.04,303.779,358.59,299.04,366.64z"/>
	</g>
</g>
</svg>
