<?xml version="1.0" encoding="utf-8"?>
<!-- Generator: Adobe Illustrator 16.0.0, SVG Export Plug-In . SVG Version: 6.00 Build 0)  -->
<!DOCTYPE svg PUBLIC "-//W3C//DTD SVG 1.1//EN" "http://www.w3.org/Graphics/SVG/1.1/DTD/svg11.dtd">
<svg version="1.1" id="representante_gris" xmlns="http://www.w3.org/2000/svg" xmlns:xlink="http://www.w3.org/1999/xlink" x="0px"
	 y="0px" width="500px" height="794.5px" viewBox="0 0 500 794.5" enable-background="new 0 0 500 794.5" xml:space="preserve">
<g>
	<g>
		<path fill="#DBDBDB" d="M0,25c166.67,0,333.33,0,500,0v41.19c-7.83,0.02-15.66-0.05-23.49,0.03
			c-28.18,0.48-56.37,0.05-84.56,0.209C288.29,66.39,184.62,66.45,80.96,66.4c-19.15-0.09-38.3,0.26-57.44-0.16
			C15.68,66.12,7.84,66.22,0,66.19V25z"/>
		<g>
			<path fill="#DBDBDB" d="M45.3,87.27c86.87-0.25,173.76,0,260.64-0.14c49.601,0.17,99.211-0.17,148.801,0.18
				c0.71,15.21,0.07,30.5,0.3,45.74c-0.03,121.31,0,242.61,0.01,363.91c-0.2,15.3,0.351,30.63-0.271,45.91
				c-66.319-25.101-132.449-50.77-198.669-76.14c-2.78-1.05-5.791-2.92-8.771-1.36c-58.71,22.66-117.49,45.14-176.22,67.74
				c-8.67,3.1-17.11,6.829-25.85,9.709c-0.71-5.919-0.24-11.899-0.3-17.85c-0.02-142.67,0.02-285.34-0.02-428.02
				C44.98,93.73,44.66,90.46,45.3,87.27z M63.36,105.33c-0.95,2.04-0.31,4.45-0.47,6.64c0.01,118.02,0.02,236.04,0,354.06
				c0.18,16.89-0.31,33.789,0.23,50.659c31.47-11.959,62.84-24.189,94.31-36.18c30.02-11.75,60.29-22.899,90.25-34.81
				c1.04-0.53,2.12-0.65,3.23-0.37c60.68,23.26,121.369,46.53,182,69.91c1.27,0.37,2.619,1.14,3.97,0.63
				c0.54-15.95,0.05-31.939,0.23-47.9c-0.011-118.67-0.021-237.34-0.011-356c0-2.23,0.101-4.49-0.369-6.68
				c-15.881-0.55-31.811-0.05-47.701-0.24C282.35,105.07,175.68,105.09,69,105.04C67.12,105.06,65.22,104.97,63.36,105.33z"/>
		</g>
	</g>
	<g>
		<path fill="#CACACA" d="M23.52,66.24c19.14,0.42,38.29,0.07,57.44,0.16c103.66,0.05,207.33-0.01,310.99,0.03
			c28.189-0.16,56.38,0.271,84.56-0.209c0.06,169.28-0.06,338.549,0.06,507.83c-0.109-0.04-0.319-0.11-0.419-0.14
			c0.59-22.95,0.069-45.92,0.26-68.88c0-114.66-0.021-229.33,0-344c-0.12-31.39,0.21-62.8-0.15-94.19
			c-150.91,0-301.83-0.01-452.74,0V66.24z"/>
	</g>
	<g>
		<g>
			<path fill="#E4E4E4" d="M23.52,66.84c150.91-0.01,301.83,0,452.74,0c0.36,31.39,0.03,62.8,0.15,94.19
				c-0.021,114.67,0,229.34,0,344c-0.19,22.96,0.33,45.93-0.26,68.88c-75.4-28.91-150.761-57.92-226.16-86.81
				c-75.51,28.939-150.97,58-226.49,86.939C23.5,404.97,23.47,235.91,23.52,66.84z M45.3,87.27c-0.64,3.19-0.32,6.46-0.35,9.68
				c0.04,142.68,0,285.35,0.02,428.02c0.06,5.95-0.41,11.931,0.3,17.85c8.74-2.88,17.18-6.609,25.85-9.709
				c58.73-22.601,117.51-45.08,176.22-67.74c2.98-1.56,5.99,0.311,8.771,1.36c66.22,25.37,132.35,51.039,198.669,76.14
				c0.621-15.28,0.07-30.61,0.271-45.91c-0.01-121.3-0.04-242.6-0.01-363.91c-0.229-15.24,0.41-30.53-0.3-45.74
				c-49.59-0.35-99.2-0.01-148.801-0.18C219.06,87.27,132.17,87.02,45.3,87.27z"/>
		</g>
		<g>
			<path fill="#E4E4E4" d="M63.36,105.33c1.86-0.36,3.76-0.27,5.64-0.29c106.68,0.05,213.35,0.03,320.029,0.01
				c15.891,0.19,31.82-0.31,47.701,0.24c0.47,2.19,0.369,4.45,0.369,6.68c-0.01,118.66,0,237.33,0.011,356
				c-0.181,15.961,0.31,31.95-0.23,47.9c-1.351,0.51-2.7-0.26-3.97-0.63c-60.631-23.38-121.32-46.65-182-69.91
				c-1.11-0.28-2.19-0.16-3.23,0.37c-29.96,11.91-60.23,23.06-90.25,34.81c-31.47,11.99-62.84,24.221-94.31,36.18
				c-0.54-16.87-0.05-33.77-0.23-50.659c0.02-118.021,0.01-236.04,0-354.06C63.05,109.78,62.41,107.37,63.36,105.33z M246.36,171.45
				c-13.17,1.03-25.26,7.11-36.72,13.28c-18.24,10.41-34.83,23.46-50.34,37.55c-14.56,14.13-28.18,30.65-33.37,50.68
				c-2.86,9.67,0.88,19.56,4.82,28.33C139.86,319.77,154.3,335,170,348.08c17.26,14.351,35.76,27.689,56.57,36.39
				c8.65,3.271,18.09,6.431,27.42,4.32c7.19-1.45,14.07-4.15,20.729-7.18c19.72-9.49,37.36-22.7,53.961-36.841
				c14.069-12.819,27.669-26.88,35.72-44.39c3.72-8.16,6.91-17.37,4.649-26.4c-2.95-12.95-10.04-24.54-18.149-34.9
				c-12.461-15.5-27.891-28.29-43.84-40.05c-13.98-10.03-28.761-19.36-45.2-24.79C256.84,172.71,251.649,171.38,246.36,171.45z"/>
		</g>
		<g>
			<path fill="#E4E4E4" d="M244.37,184.45c6.11-1.05,12.03,1.54,17.71,3.45c17.189,6.91,32.71,17.36,47.23,28.76
				c9.859,8.07,19.8,16.22,28,26.05c7.939,9.23,15.12,19.53,18.6,31.34c1.13,3.4,1.38,7.1,0.619,10.62
				c-2.77,11.37-9.31,21.33-16.489,30.399c-12.03,14.641-26.89,26.62-42.14,37.741c-11.141,8.029-23.051,15.1-35.801,20.27
				c-6.1,2.07-12.6,4.88-19.129,3.17c-17.12-4.21-32.26-13.77-46.57-23.73c-16.84-12.459-33.44-25.85-45.85-42.909
				c-5.17-7.32-9.73-15.271-12.04-23.98c-2.32-7.53,1.26-15.08,4.37-21.79c11.81-22.83,32.16-39.49,52.38-54.6
				C210.28,198.72,226.18,188.36,244.37,184.45z M240.35,241.43c-10.4,1.98-20.25,7.95-26.07,16.91
				c-7.37,10.49-8.99,24.7-4.32,36.63c5.95,16.379,23.56,27.44,40.91,25.66c14.479-1.13,27.899-10.84,33.42-24.29
				c7.141-16.17,1.729-36.7-12.5-47.18C263.029,242.28,251.3,239.41,240.35,241.43z"/>
		</g>
		<path fill="#E4E4E4" d="M247.24,253.55c8.6-0.13,17.039,4.12,22.12,11.04c4.64,6.33,6.52,14.7,4.609,22.37
			c-1.62,7.72-7.159,14.32-14.02,18.05c-11.96,6.4-28.39,2.23-35.49-9.44c-5.64-8.42-5.75-19.99-0.65-28.68
			C228.68,258.84,237.77,253.47,247.24,253.55z"/>
	</g>
	<g>
		<g>
			<path fill="#FFFFFF" d="M246.36,171.45c5.29-0.07,10.48,1.26,15.5,2.79c16.439,5.43,31.22,14.76,45.2,24.79
				c15.949,11.76,31.379,24.55,43.84,40.05c8.109,10.36,15.199,21.95,18.149,34.9c2.261,9.03-0.93,18.24-4.649,26.4
				c-8.051,17.51-21.65,31.57-35.72,44.39c-16.601,14.141-34.241,27.351-53.961,36.841c-6.659,3.029-13.539,5.729-20.729,7.18
				c-9.33,2.11-18.77-1.05-27.42-4.32c-20.81-8.7-39.31-22.039-56.57-36.39c-15.7-13.08-30.14-28.311-39.25-46.79
				c-3.94-8.77-7.68-18.66-4.82-28.33c5.19-20.03,18.81-36.55,33.37-50.68c15.51-14.09,32.1-27.14,50.34-37.55
				C221.1,178.56,233.19,172.48,246.36,171.45z M244.37,184.45c-18.19,3.91-34.09,14.27-49.11,24.79
				c-20.22,15.11-40.57,31.77-52.38,54.6c-3.11,6.71-6.69,14.26-4.37,21.79c2.31,8.71,6.87,16.66,12.04,23.98
				c12.41,17.06,29.01,30.45,45.85,42.909c14.31,9.961,29.45,19.521,46.57,23.73c6.53,1.71,13.03-1.1,19.129-3.17
				c12.75-5.17,24.66-12.24,35.801-20.27c15.25-11.121,30.109-23.101,42.14-37.741c7.18-9.069,13.72-19.029,16.489-30.399
				c0.761-3.52,0.511-7.22-0.619-10.62c-3.479-11.81-10.66-22.11-18.6-31.34c-8.2-9.83-18.141-17.98-28-26.05
				c-14.521-11.4-30.041-21.85-47.23-28.76C256.4,185.99,250.48,183.4,244.37,184.45z"/>
		</g>
		<g>
			<path fill="#FFFFFF" d="M240.35,241.43c10.95-2.02,22.679,0.85,31.44,7.73c14.229,10.48,19.641,31.01,12.5,47.18
				c-5.521,13.45-18.94,23.16-33.42,24.29c-17.35,1.78-34.96-9.28-40.91-25.66c-4.67-11.93-3.05-26.14,4.32-36.63
				C220.1,249.38,229.95,243.41,240.35,241.43z M247.24,253.55c-9.47-0.08-18.56,5.29-23.43,13.34c-5.1,8.69-4.99,20.26,0.65,28.68
				c7.1,11.67,23.53,15.84,35.49,9.44c6.86-3.729,12.399-10.33,14.02-18.05c1.91-7.67,0.03-16.04-4.609-22.37
				C264.279,257.67,255.84,253.42,247.24,253.55z"/>
		</g>
	</g>
</g>
<g>
	<g>
		<path fill="#A8A8A8" d="M18.283,670.93v15.552h-6.257v-37.49h12.9c4.171,0,7.398,0.944,9.682,2.833
			c2.283,1.888,3.425,4.583,3.425,8.085c0,1.939-0.502,3.609-1.506,5.008c-1.004,1.399-2.468,2.52-4.39,3.36
			c2.111,0.669,3.634,1.76,4.57,3.27c0.936,1.511,1.403,3.382,1.403,5.613v3.116c0,1.099,0.137,2.172,0.412,3.218
			c0.274,1.048,0.729,1.846,1.364,2.396v0.592h-6.437c-0.687-0.566-1.125-1.45-1.313-2.652c-0.189-1.201-0.283-2.402-0.283-3.604
			v-3.013c0-1.922-0.554-3.45-1.661-4.583c-1.107-1.133-2.613-1.699-4.519-1.699H18.283z M18.283,665.908h6.309
			c2.506,0,4.334-0.48,5.484-1.441c1.15-0.962,1.725-2.43,1.725-4.403c0-1.888-0.566-3.369-1.699-4.441
			c-1.133-1.073-2.858-1.609-5.176-1.609h-6.643V665.908z"/>
		<path fill="#A8A8A8" d="M71.784,669.616H57.107v11.87H74.41v4.995H50.85v-37.49h23.38v5.021H57.107v10.582h14.677V669.616z"/>
		<path fill="#A8A8A8" d="M91.579,672.269v14.213h-6.257v-37.49h14.368c4.137,0,7.377,1.069,9.72,3.206s3.515,4.948,3.515,8.433
			c0,3.52-1.171,6.339-3.515,8.458c-2.343,2.121-5.583,3.181-9.72,3.181H91.579z M91.579,667.247h8.111
			c2.317,0,4.06-0.618,5.227-1.854c1.167-1.236,1.751-2.807,1.751-4.712s-0.584-3.493-1.751-4.764
			c-1.167-1.271-2.91-1.905-5.227-1.905h-8.111V667.247z"/>
		<path fill="#A8A8A8" d="M130.428,670.93v15.552h-6.257v-37.49h12.9c4.171,0,7.398,0.944,9.682,2.833
			c2.283,1.888,3.425,4.583,3.425,8.085c0,1.939-0.502,3.609-1.506,5.008c-1.004,1.399-2.468,2.52-4.39,3.36
			c2.111,0.669,3.634,1.76,4.57,3.27c0.936,1.511,1.403,3.382,1.403,5.613v3.116c0,1.099,0.137,2.172,0.412,3.218
			c0.274,1.048,0.729,1.846,1.364,2.396v0.592h-6.437c-0.687-0.566-1.125-1.45-1.313-2.652c-0.189-1.201-0.283-2.402-0.283-3.604
			v-3.013c0-1.922-0.554-3.45-1.661-4.583c-1.107-1.133-2.613-1.699-4.519-1.699H130.428z M130.428,665.908h6.309
			c2.506,0,4.334-0.48,5.484-1.441c1.15-0.962,1.725-2.43,1.725-4.403c0-1.888-0.566-3.369-1.699-4.441
			c-1.133-1.073-2.858-1.609-5.176-1.609h-6.643V665.908z"/>
		<path fill="#A8A8A8" d="M183.929,669.616h-14.677v11.87h17.303v4.995h-23.56v-37.49h23.38v5.021h-17.123v10.582h14.677V669.616z"
			/>
		<path fill="#A8A8A8" d="M217.216,676.852c0-1.562-0.553-2.841-1.661-3.837c-1.107-0.995-3.068-1.888-5.883-2.678
			c-4.034-1.115-7.146-2.579-9.334-4.39c-2.188-1.812-3.283-4.176-3.283-7.094c0-3.021,1.202-5.511,3.605-7.468
			c2.403-1.956,5.493-2.935,9.27-2.935c4.051,0,7.291,1.086,9.72,3.257c2.429,2.172,3.6,4.854,3.515,8.047l-0.052,0.154h-6.025
			c0-1.974-0.657-3.545-1.97-4.712c-1.313-1.168-3.06-1.751-5.24-1.751c-2.112,0-3.738,0.498-4.879,1.493
			c-1.142,0.996-1.712,2.283-1.712,3.862c0,1.441,0.626,2.631,1.879,3.566s3.33,1.824,6.231,2.665
			c3.931,1.099,6.926,2.597,8.986,4.493c2.06,1.896,3.09,4.321,3.09,7.273c0,3.107-1.219,5.588-3.657,7.441
			c-2.438,1.854-5.639,2.781-9.604,2.781c-3.811,0-7.132-1.013-9.965-3.039c-2.832-2.024-4.206-4.883-4.12-8.574l0.052-0.154h6.025
			c0,2.249,0.776,3.944,2.33,5.086s3.446,1.712,5.678,1.712c2.214,0,3.935-0.468,5.163-1.403
			C216.603,679.714,217.216,678.448,217.216,676.852z"/>
		<path fill="#A8A8A8" d="M256.092,669.616h-14.677v11.87h17.302v4.995h-23.559v-37.49h23.379v5.021h-17.123v10.582h14.677V669.616z
			"/>
		<path fill="#A8A8A8" d="M298.906,686.481h-6.257l-16.608-27.011l-0.154,0.052v26.959h-6.257v-37.49h6.257l16.608,27.011
			l0.154-0.052v-26.959h6.257V686.481z"/>
		<path fill="#A8A8A8" d="M337.498,654.013h-11.587v32.469h-6.257v-32.469h-11.407v-5.021h29.251V654.013z"/>
		<path fill="#A8A8A8" d="M364.246,677.727H350.96l-2.884,8.755h-6.463l13.08-37.49h5.948l12.926,37.49h-6.463L364.246,677.727z
			 M352.685,672.5h9.862l-4.815-14.779h-0.154L352.685,672.5z"/>
		<path fill="#A8A8A8" d="M412.752,686.481h-6.257l-16.608-27.011l-0.154,0.052v26.959h-6.257v-37.49h6.257l16.608,27.011
			l0.154-0.052v-26.959h6.257V686.481z"/>
		<path fill="#A8A8A8" d="M451.345,654.013h-11.587v32.469h-6.257v-32.469h-11.407v-5.021h29.251V654.013z"/>
		<path fill="#A8A8A8" d="M482.314,669.616h-14.677v11.87h17.303v4.995h-23.56v-37.49h23.38v5.021h-17.123v10.582h14.677V669.616z"
			/>
	</g>
</g>
</svg>
