<?xml version="1.0" encoding="utf-8"?>
<!-- Generator: Adobe Illustrator 16.0.0, SVG Export Plug-In . SVG Version: 6.00 Build 0)  -->
<!DOCTYPE svg PUBLIC "-//W3C//DTD SVG 1.1//EN" "http://www.w3.org/Graphics/SVG/1.1/DTD/svg11.dtd">
<svg version="1.1" id="corporativo" xmlns="http://www.w3.org/2000/svg" xmlns:xlink="http://www.w3.org/1999/xlink" x="0px"
	 y="0px" width="432.746px" height="432.746px" viewBox="0 0 432.746 432.746" enable-background="new 0 0 432.746 432.746"
	 xml:space="preserve">
<g>
	<g>
		<g>
			<path fill-rule="evenodd" clip-rule="evenodd" fill="#FFFFFF" d="M288.097,391.796c1.518-4.774,2.744-8.75,4.035-12.688
				c4.592-14.14,9.151-28.266,13.854-42.355c0.817-2.478,0.596-3.93-1.699-5.539c-8.297-5.786-16.45-11.74-24.505-17.825
				c-2.122-1.575-3.464-1.4-5.462,0.104c-7.984,5.967-16.015,11.844-24.2,17.525c-2.393,1.674-2.827,3.094-1.913,5.825
				c5.616,16.748,11.021,33.553,16.455,50.352c0.39,1.161,0.643,2.354,1.259,4.592c-17.001-12.317-33.157-24.058-49.652-36.038
				c-16.267,11.805-32.548,23.61-49.762,36.083c0.772-2.685,1.181-4.281,1.699-5.844c5.3-16.391,10.56-32.8,16.027-49.146
				c0.921-2.75,0.486-4.184-1.913-5.851c-8.166-5.682-16.209-11.571-24.193-17.538c-2.056-1.544-3.444-1.505-5.481,0.012
				c-8.094,6.059-16.273,11.987-24.523,17.812c-2.05,1.473-2.497,2.711-1.667,5.202c5.559,16.754,10.936,33.566,16.377,50.372
				c0.415,1.303,0.844,2.614,1.512,4.715c-1.654-1.057-2.665-1.621-3.613-2.315c-14.191-10.3-28.429-20.542-42.517-30.984
				c-2.64-1.979-4.378-2.18-7.187-0.098c-13.926,10.411-28.104,20.529-42.173,30.738c-1.103,0.798-2.231,1.538-4.146,2.86
				c4.301-13.271,8.276-25.627,12.305-37.996c1.849-5.714,3.555-11.494,5.662-17.149c0.967-2.633,0.306-3.963-1.854-5.513
				c-14.606-10.456-29.117-21.048-43.639-31.601c-0.766-0.571-1.467-1.2-2.822-2.31c2.167-0.097,3.626-0.227,5.072-0.227
				c17.272-0.02,34.545-0.104,51.792,0.071c3.198,0.026,4.495-0.895,5.669-3.911c3.509-9.062,4.774-18.311,4.301-27.988
				c-0.363-7.55-0.201-15.151-0.026-22.734c0.215-9.47,4.132-17.039,12.201-22.253c21.054-13.635,44.481-20.912,68.779-26.069
				c7.018-1.472,13.089-0.823,19.821,1.895c23.746,9.599,47.674,8.86,71.199-1.219c3.911-1.681,7.434-2.303,11.649-1.518
				c21.78,4.021,42.828,10.105,62.54,20.373c1.498,0.771,2.918,1.699,4.417,2.426c13.672,6.551,20.256,17.124,18.933,32.463
				c-0.37,4.184,0.208,8.439-0.104,12.622c-0.85,11.124,1.018,21.709,5.046,32.062c1.077,2.75,2.16,3.892,5.273,3.853
				c17.402-0.156,34.799-0.071,52.22-0.071c1.356,0,2.758,0,5.241,0c-1.894,1.511-2.983,2.445-4.145,3.302
				c-14.062,10.222-28.104,20.509-42.251,30.614c-2.49,1.771-3.009,3.321-2.018,6.227c5.345,15.93,10.476,31.944,15.665,47.945
				c0.59,1.843,1.135,3.71,2.075,6.734c-2.114-1.454-3.405-2.329-4.664-3.231c-13.945-10.145-27.968-20.205-41.803-30.543
				c-2.659-1.978-4.274-1.745-6.811,0.137c-13.984,10.357-28.104,20.502-42.192,30.725
				C291.119,389.693,289.978,390.485,288.097,391.796z M235.274,296.682c0.591,0.13,0.869,0.259,1.129,0.259
				c26.521,0.013,53.05-0.019,79.572,0.091c2.62,0.013,3.256-1.232,3.918-3.282c4.91-15.353,9.917-30.66,14.892-45.987
				c3.652-11.293,3.36-12.104-6.784-18.285c-0.966-0.59-1.939-1.135-2.899-1.693c-19.251-10.961-40.104-17.188-61.794-20.898
				c-2.023-0.35-4.423,0.259-6.401,1.058c-27.481,11.04-54.887,10.91-82.375-0.084c-2.289-0.928-5.26-1.336-7.614-0.759
				c-12.369,3.075-24.868,5.792-36.816,10.112c-10.176,3.697-19.789,9.146-29.375,14.367c-5.838,3.178-6.402,5.876-4.379,12.122
				c5.364,16.508,10.78,33.021,16.047,49.568c0.831,2.581,1.765,3.813,4.865,3.788c25.535-0.156,51.072-0.117,76.621-0.026
				c2.549,0.013,3.612-0.844,4.339-3.204c3.58-11.364,7.291-22.676,10.981-34.001c2.225-6.856,4.495-13.692,7.069-21.482
				C222.84,258.53,229.079,277.677,235.274,296.682z M225.584,310.354c-3.043-9.242-6.007-18.278-9.341-28.357
				c-2.867,8.795-5.559,16.449-7.848,24.246c-0.921,3.178-2.167,4.475-5.715,4.306c-8.166-0.324-16.352-0.097-25.764-0.097
				c5.941,4.326,10.787,7.868,15.651,11.396c8.698,6.33,8.698,6.312,5.357,16.5c-1.855,5.747-3.742,11.474-5.993,18.363
				c8.803-6.402,16.507-11.993,24.285-17.649c7.867,5.694,15.599,11.292,24.31,17.577c-1.991-6.161-3.639-11.052-5.169-15.982
				c-1.278-4.125-4.236-8.892-3.133-12.272c1.128-3.398,6.337-5.461,9.807-8.055c4.189-3.107,8.419-6.136,12.642-9.204
				c-0.143-0.253-0.26-0.499-0.402-0.772C244.743,310.354,235.236,310.354,225.584,310.354z M70.733,355.369
				c0.239,0.156,0.467,0.318,0.7,0.467c7.653-5.539,15.34-11.091,23.149-16.741c7.803,5.65,15.495,11.189,24.252,17.519
				c-2.368-7.296-4.34-13.374-6.318-19.458c-2.898-9.016-2.893-9.016,4.639-14.503c5.24-3.814,10.462-7.628,15.696-11.436
				c-6.104-0.765-11.812-0.72-17.552-0.785c-3.755-0.026-8.49,1.142-10.975-0.707c-2.511-1.862-2.802-6.739-4.002-10.313
				c-1.797-5.338-3.542-10.688-5.325-16.021c-3.334,7.504-5.98,14.84-8.063,22.345c-1.051,3.801-2.75,4.994-6.674,4.813
				c-7.882-0.363-15.788-0.097-23.675-0.097c6.259,5.545,12.557,10.423,19.192,14.813c3.158,2.109,3.646,3.977,2.348,7.486
				C75.37,340.191,73.171,347.819,70.733,355.369z M313.692,356.569c8.75-6.305,16.442-11.85,24.22-17.468
				c7.848,5.669,15.548,11.234,24.265,17.512c-2.503-7.763-4.586-14.392-6.752-21.008c-2.458-7.498-2.472-7.479,4.021-12.175
				c5.591-4.047,11.162-8.121,16.74-12.181c-8.198-0.797-16.021-1.064-23.83-0.681c-4.138,0.201-5.798-1.232-6.882-5.125
				c-2.063-7.485-4.715-14.795-7.135-22.163c-0.298,0.013-0.564,0.026-0.85,0.052c-2.965,8.977-5.89,17.967-8.978,27.366
				c-9.593,0-19.12,0-29.628,0c5.98,4.339,11.071,8.049,16.189,11.753c7.842,5.688,7.822,5.688,4.852,14.762
				C317.927,343.266,316.021,349.349,313.692,356.569z"/>
			<path fill-rule="evenodd" clip-rule="evenodd" fill="#FFFFFF" d="M215.601,175.675c-37.185-0.117-67.229-30.459-67.112-67.774
				c0.13-37.153,30.537-67.164,67.878-66.989c36.965,0.175,66.957,30.465,66.905,67.56
				C283.213,145.651,252.877,175.779,215.601,175.675z M161.974,107.986c-0.188,29.628,23.927,54.036,53.484,54.205
				c29.72,0.163,54.153-23.863,54.329-53.388c0.188-29.732-23.779-54.224-53.291-54.418
				C186.524,54.183,162.149,78.149,161.974,107.986z"/>
		</g>
	</g>
</g>
</svg>
