<?xml version="1.0" encoding="utf-8"?>
<!-- Generator: Adobe Illustrator 16.0.0, SVG Export Plug-In . SVG Version: 6.00 Build 0)  -->
<!DOCTYPE svg PUBLIC "-//W3C//DTD SVG 1.1//EN" "http://www.w3.org/Graphics/SVG/1.1/DTD/svg11.dtd">
<svg version="1.1" id="manager" xmlns="http://www.w3.org/2000/svg" xmlns:xlink="http://www.w3.org/1999/xlink" x="0px" y="0px"
	 width="432.746px" height="432.746px" viewBox="0 0 432.746 432.746" enable-background="new 0 0 432.746 432.746"
	 xml:space="preserve">
<g>
	<path fill-rule="evenodd" clip-rule="evenodd" fill="#FFFFFF" d="M284.45,394.213c-0.256-15.113,6.478-26.728,18.243-35.577
		c22.435-16.854,56.511-15.396,77.113,3.194c7.141,6.471,11.96,14.338,13.771,23.913c0.084,0.533,0.415,1.01,0.636,1.522
		c0,2.316,0,4.631,0,6.948C357.635,394.213,321.05,394.213,284.45,394.213z M375.637,379.294
		c-10.183-13.371-23.414-18.003-38.687-17.45c-14.893,0.532-30.108,8.85-33.013,17.45
		C327.521,379.294,351.054,379.294,375.637,379.294z"/>
	<path fill-rule="evenodd" clip-rule="evenodd" fill="#FFFFFF" d="M38.532,387.266c0.554-1.971,1.071-3.962,1.701-5.904
		c3.81-11.982,11.607-20.893,22.573-26.541c23.131-11.932,45.987-11.048,67.412,4.12c11.925,8.407,18.307,20.313,18.071,35.273
		c-36.571,0-73.171,0-109.758,0C38.532,391.883,38.532,389.574,38.532,387.266z M128.85,379.225
		c-4.252-10.169-22.517-18.515-37.81-17.45c-15.182,1.064-30.675,9.285-32.894,17.45C81.694,379.225,105.22,379.225,128.85,379.225z
		"/>
	<path fill-rule="evenodd" clip-rule="evenodd" fill="#FFFFFF" d="M161.495,394.213c-0.257-14.954,6.374-26.479,17.946-35.341
		c21.999-16.799,55.888-15.798,76.512,2.192c10.023,8.724,15.527,19.64,15.292,33.149
		C234.666,394.213,198.074,394.213,161.495,394.213z M252.566,379.239c-9.409-12.693-21.923-17.491-36.393-17.422
		c-14.332,0.049-26.729,4.84-36.006,17.422C204.558,379.239,228.16,379.239,252.566,379.239z"/>
	<path fill-rule="evenodd" clip-rule="evenodd" fill="#FFFFFF" d="M346.788,203.777c0,2.046,0,3.525,0,5.005
		c0,20.727-0.049,41.439,0.062,62.165c0.021,2.926-0.843,3.831-3.713,3.658c-3.561-0.235-7.141-0.062-11.15-0.062
		c0-18.625,0-36.96,0-55.563c-36.234,0-72.024,0-108.091,0c0,18.41,0,36.661,0,55.245c-5.047,0-9.804,0-14.968,0
		c0-18.459,0-36.793,0-55.335c-36.144,0-71.831,0-108.002,0c0,18.486,0,36.813,0,55.39c-5.074,0-9.769,0-14.705,0
		c0-23.374,0-46.665,0-70.309c40.748,0,81.448,0,122.631,0c0-9.707,0-19.109,0-28.684c5.206,0,9.893,0,14.933,0
		c0,9.533,0,18.867,0,28.491C264.858,203.777,305.549,203.777,346.788,203.777z"/>
	<path fill-rule="evenodd" clip-rule="evenodd" fill="#FFFFFF" d="M285.985,162.02c-46.632,0-92.653,0-139.568,0
		c0.526-4.474,0.65-8.835,1.591-13.004c3.069-13.315,10.743-23.665,21.466-31.85c27.688-21.094,70.8-19.96,97.003,2.688
		c11.717,10.1,18.838,22.683,19.494,38.474C286.019,159.447,285.985,160.581,285.985,162.02z M164.482,147.08
		c34.753,0,69.252,0,103.846,0c-5.364-17.25-28.677-30.413-52.846-30.101C191.984,117.275,169.066,130.716,164.482,147.08z"/>
	<path fill-rule="evenodd" clip-rule="evenodd" fill="#FFFFFF" d="M216.118,98.43c-16.44-0.034-29.721-13.404-29.687-29.907
		c0.033-16.689,13.35-30.011,30.003-29.991c16.455,0.028,29.873,13.426,29.859,29.783C246.281,85.288,233.076,98.451,216.118,98.43z
		 M216.118,83.664c8.364,0.11,15.354-6.672,15.437-15.003c0.063-8.296-6.768-15.264-15.126-15.34
		c-8.116-0.09-15.113,6.711-15.271,14.85C200.985,76.515,207.787,83.545,216.118,83.664z"/>
	<path fill-rule="evenodd" clip-rule="evenodd" fill="#FFFFFF" d="M216.449,296.928c13.031,0.027,23.513,10.571,23.513,23.658
		c0.034,12.928-10.764,23.657-23.692,23.554c-13.039-0.104-23.547-10.702-23.513-23.734
		C192.778,307.374,203.363,296.9,216.449,296.928z M216.27,329.269c4.777,0.055,8.918-4.01,8.918-8.774
		c-0.027-4.618-3.935-8.634-8.565-8.794c-4.75-0.172-8.966,3.838-9.069,8.622C207.413,325.065,211.451,329.207,216.27,329.269z"/>
	<path fill-rule="evenodd" clip-rule="evenodd" fill="#FFFFFF" d="M93.724,296.928c12.961,0.104,23.436,10.813,23.29,23.879
		c-0.104,12.928-10.985,23.533-23.921,23.339c-12.997-0.193-23.422-10.909-23.298-23.955
		C69.913,307.194,80.573,296.832,93.724,296.928z M93.203,329.255c4.84,0.097,8.934-3.844,9.002-8.663
		c0.09-4.708-4.052-8.891-8.794-8.891c-4.604-0.02-8.614,3.866-8.808,8.524C84.41,324.969,88.406,329.158,93.203,329.255z"/>
	<path fill-rule="evenodd" clip-rule="evenodd" fill="#FFFFFF" d="M315.705,320.351c0.021-12.991,10.667-23.492,23.728-23.423
		c13.059,0.076,23.553,10.654,23.491,23.72c-0.048,12.949-10.785,23.561-23.763,23.492
		C326.158,344.063,315.692,333.438,315.705,320.351z M339.342,329.269c4.818-0.028,8.869-4.114,8.773-8.891
		c-0.104-4.632-4.031-8.6-8.683-8.697c-4.694-0.083-8.885,4.031-8.933,8.772C330.465,325.231,334.531,329.283,339.342,329.269z"/>
</g>
</svg>
