<?xml version="1.0" encoding="utf-8"?>
<!-- Generator: Adobe Illustrator 16.0.0, SVG Export Plug-In . SVG Version: 6.00 Build 0)  -->
<!DOCTYPE svg PUBLIC "-//W3C//DTD SVG 1.1//EN" "http://www.w3.org/Graphics/SVG/1.1/DTD/svg11.dtd">
<svg version="1.1" id="representante" xmlns="http://www.w3.org/2000/svg" xmlns:xlink="http://www.w3.org/1999/xlink" x="0px"
	 y="0px" width="432.746px" height="432.746px" viewBox="0 0 432.746 432.746" enable-background="new 0 0 432.746 432.746"
	 xml:space="preserve">
<g>
	<path fill="#FFFFFF" d="M331.342,119.113C268.553,65.997,231.74,58,219.424,56.91l-3.229-0.197
		c-6.865,0-44.667,3.003-114.779,62.341c-64.61,54.66-64.039,95.794-63.979,97.068c-0.06,1.728-0.631,42.868,63.974,97.54
		c70.003,59.29,107.794,62.365,114.653,62.365c0,0,0.018,0,0.024,0l0.506,0.006c6.859,0,44.608-3.004,114.754-62.371
		c64.611-54.713,64.022-95.818,63.963-97.039C395.369,214.895,395.958,173.756,331.342,119.113z M319.519,299.694
		c-67.793,57.371-102.581,58.033-102.926,58.033h-0.423c-0.345,0-35.192-0.662-102.932-58.039
		c-56.936-48.177-57.502-82.761-57.502-83.572c0-0.345,0.566-34.918,57.502-83.089c63.092-53.391,97.652-57.645,102.539-57.979
		h0.811c0.345,0,35.109,0.662,102.932,58.045c56.936,48.146,57.49,82.713,57.49,83.494
		C377.01,216.933,376.455,251.476,319.519,299.694z"/>
	<path fill="#FFFFFF" d="M216.373,158.44c-32.208,0-58.408,26.202-58.408,58.403c0,32.219,26.201,58.432,58.408,58.432
		c32.207,0,58.408-26.213,58.408-58.432C274.781,184.643,248.58,158.44,216.373,158.44z M216.373,256.97
		c-22.113,0-40.103-18.002-40.103-40.126c0-22.108,17.989-40.097,40.103-40.097s40.103,17.989,40.103,40.097
		C256.475,238.968,238.486,256.97,216.373,256.97z"/>
</g>
</svg>
