<?xml version="1.0" encoding="utf-8"?>
<!-- Generator: Adobe Illustrator 16.0.0, SVG Export Plug-In . SVG Version: 6.00 Build 0)  -->
<!DOCTYPE svg PUBLIC "-//W3C//DTD SVG 1.1//EN" "http://www.w3.org/Graphics/SVG/1.1/DTD/svg11.dtd">
<svg version="1.1" id="coworker" xmlns="http://www.w3.org/2000/svg" xmlns:xlink="http://www.w3.org/1999/xlink" x="0px" y="0px"
	 width="432.746px" height="432.746px" viewBox="0 0 432.746 432.746" enable-background="new 0 0 432.746 432.746"
	 xml:space="preserve">
<g>
	<path fill-rule="evenodd" clip-rule="evenodd" fill="#FFFFFF" d="M320.779,290.334c-21.787-13.864-43.425-27.634-65.405-41.617
		c-8.524,9.905-19.261,15.921-32.588,17.873c0,2.201,0,4.377,0,6.773c-4.315,0-8.223,0-12.588,0c0-2.145,0-4.309,0-6.673
		c-13.25-2.069-24.101-7.817-32.781-17.997c-21.894,13.938-43.619,27.747-65.587,41.735c4.347,11.77,3.958,23.188-2.333,34.057
		c-4.615,7.955-11.3,13.558-19.992,16.685c-17.416,6.291-36.733-0.769-45.982-16.772c-9.318-16.141-5.61-36.42,8.786-48.49
		c11.638-9.774,33.907-14.696,52.654,3.802c21.688-13.808,43.437-27.641,64.699-41.173c-1.407-6.803-3.508-13.169-3.871-19.623
		c-0.326-6.341,1.125-12.782,1.844-19.661c-0.488-0.294-1.576-0.975-3.126-1.938c1.807-3.589,3.602-7.186,5.484-10.969
		c1.376,0.525,2.589,0.951,4.152,1.551c8.686-12.238,20.687-19.486,35.72-21.775c0-17.422,0-34.601,0-52.004
		c-11.557-2.458-20.699-8.479-26.634-18.829c-4.709-8.236-6.009-17.109-4.183-26.447c3.532-18.135,20.192-31.055,39.184-30.392
		c18.373,0.639,33.975,15.171,36.077,34.02c2.033,18.416-9.593,37.058-31.38,41.686c0,17.248,0,34.532,0,51.936
		c14.926,2.352,26.884,9.461,35.683,21.856c1.338-0.556,2.526-1.038,4.077-1.682c1.845,3.684,3.652,7.273,5.546,11.044
		c-1.344,0.825-2.432,1.495-3.971,2.445c4.546,12.776,3.84,25.521-2.02,38.247c21.969,13.996,43.793,27.878,65.556,41.73
		c18.379-18.304,41.067-13.952,53.287-3.271c14.32,12.533,17.473,33.288,7.292,49.303c-10.086,15.877-30.079,22.012-47.383,14.546
		C322.204,332.19,314.613,313.717,320.779,290.334z M254.498,216.199c0-20.736-17.248-37.996-37.891-37.959
		c-21.299,0.044-38.297,17.003-38.353,38.303c-0.057,20.675,17.16,37.928,37.896,37.947
		C237.4,254.508,254.498,237.424,254.498,216.199z M101.974,305.693c0.181-14.064-11.094-25.596-25.165-25.758
		c-13.851-0.169-25.477,11.094-25.665,24.839c-0.188,14.183,11.019,25.839,24.958,25.978
		C90.261,330.888,101.792,319.72,101.974,305.693z M356.361,330.77c13.983-0.082,25.377-11.663,25.264-25.708
		c-0.131-13.827-11.525-25.121-25.408-25.139c-14.039-0.013-25.471,11.437-25.439,25.489
		C330.815,319.432,342.316,330.839,356.361,330.77z M241.802,76.521c-0.006-13.858-11.381-25.333-25.133-25.39
		c-14.302-0.044-25.777,11.401-25.689,25.64c0.063,13.964,11.631,25.289,25.727,25.202
		C230.427,101.884,241.809,90.347,241.802,76.521z"/>
	<path fill-rule="evenodd" clip-rule="evenodd" fill="#FFFFFF" d="M209.866,344.134c0.113-2.257,0.2-4.447,0.331-6.829
		c4.122,0,8.048,0,11.957,0c0.169,0.238,0.494,0.45,0.457,0.625c-0.744,4.553,1.294,6.679,5.522,8.655
		c10.85,5.09,15.934,17.572,12.732,29.128c-3.114,11.3-13.72,19.011-25.577,18.592c-11.932-0.425-21.931-9.361-24.057-21.48
		c-1.952-11.213,4.489-22.782,15.265-27.341C207.577,345.034,208.697,344.609,209.866,344.134z M229.052,368.923
		c0.025-6.935-5.615-12.683-12.544-12.732c-6.948-0.05-12.726,5.566-12.838,12.463c-0.113,7.111,5.697,13.002,12.769,12.939
		C223.424,381.536,229.027,375.902,229.052,368.923z"/>
	<path fill-rule="evenodd" clip-rule="evenodd" fill="#FFFFFF" d="M88.422,159.348c-1.938-0.882-3.577-1.645-5.428-2.495
		c-0.838,0.738-1.726,1.5-2.602,2.264c-9.199,8.054-22.062,8.58-31.793,1.313c-9.442-7.073-12.782-19.761-7.998-30.567
		c4.853-10.994,16.697-17.122,28.322-14.633c11.869,2.526,20.124,12.576,20.262,24.62c0.056,5.44,0.056,5.44,4.696,8.555
		c-0.895,1.807-1.808,3.683-2.72,5.54C90.286,155.702,89.404,157.435,88.422,159.348z M64.452,127.411
		c-6.954-0.3-12.938,5.11-13.308,11.988c-0.35,6.942,5.035,13.001,11.9,13.396c7.129,0.394,13.195-5.084,13.477-12.188
		C76.784,133.646,71.338,127.699,64.452,127.411z"/>
	<path fill-rule="evenodd" clip-rule="evenodd" fill="#FFFFFF" d="M349.657,156.872c-1.726,0.838-3.283,1.576-5.253,2.52
		c-1.875-3.652-3.721-7.235-5.715-11.131c1.776-1.001,3.471-1.951,5.096-2.876c-0.675-15.984,5.935-26.584,18.574-29.849
		c11.756-3.064,24.107,2.545,29.354,13.32c5.266,10.806,2.345,23.731-7.011,31.13C374.184,168.297,362.258,167.284,349.657,156.872z
		 M368.58,152.813c6.866,0.2,12.795-5.39,13.008-12.288c0.225-6.948-5.26-12.845-12.177-13.114
		c-7.091-0.28-13.082,5.379-13.213,12.471C356.079,146.823,361.614,152.587,368.58,152.813z"/>
	<path fill-rule="evenodd" clip-rule="evenodd" fill="#FFFFFF" d="M222.523,298.821c-4.121,0-8.042,0-12.232,0
		c0-4.046,0-8.042,0-12.307c4.021,0,8.023,0,12.232,0C222.523,290.542,222.523,294.443,222.523,298.821z"/>
	<path fill-rule="evenodd" clip-rule="evenodd" fill="#FFFFFF" d="M210.341,311.84c4.09,0,7.985,0,12.15,0c0,4.14,0,8.142,0,12.357
		c-4.008,0-7.923,0-12.15,0C210.341,320.283,210.341,316.281,210.341,311.84z"/>
	<path fill-rule="evenodd" clip-rule="evenodd" fill="#FFFFFF" d="M99.26,164.882c2.014-3.996,3.771-7.485,5.69-11.288
		c3.559,1.77,6.923,3.433,10.825,5.347c-1.851,3.739-3.614,7.316-5.635,11.387C106.552,168.535,103.099,166.796,99.26,164.882z"/>
	<path fill-rule="evenodd" clip-rule="evenodd" fill="#FFFFFF" d="M333.479,164.882c-3.783,1.889-7.154,3.564-10.843,5.416
		c-1.908-3.828-3.702-7.41-5.653-11.331c3.633-1.814,6.997-3.502,10.762-5.391C329.608,157.285,331.434,160.836,333.479,164.882z"/>
	<path fill-rule="evenodd" clip-rule="evenodd" fill="#FFFFFF" d="M148.362,175.238c3.765,1.901,7.142,3.602,10.831,5.459
		c-1.888,3.809-3.671,7.385-5.628,11.338c-3.608-1.789-6.966-3.483-10.812-5.391C144.579,182.924,146.348,179.347,148.362,175.238z"
		/>
	<path fill-rule="evenodd" clip-rule="evenodd" fill="#FFFFFF" d="M295.258,169.86c3.714-1.882,6.979-3.533,10.718-5.428
		c1.895,3.69,3.752,7.267,5.822,11.294c-3.602,1.801-7.066,3.54-10.862,5.428C299.004,177.327,297.253,173.813,295.258,169.86z"/>
	<path fill-rule="evenodd" clip-rule="evenodd" fill="#FFFFFF" d="M284.345,175.276c1.957,3.852,3.765,7.429,5.722,11.3
		c-3.734,1.869-7.085,3.564-10.787,5.435c-1.927-3.765-3.765-7.342-5.785-11.326C277.091,178.89,280.581,177.152,284.345,175.276z"
		/>
	<path fill-rule="evenodd" clip-rule="evenodd" fill="#FFFFFF" d="M131.841,181.192c-3.833-1.926-7.104-3.565-10.812-5.416
		c1.857-3.733,3.621-7.316,5.609-11.318c3.583,1.77,6.948,3.427,10.85,5.353C135.605,173.606,133.823,177.189,131.841,181.192z"/>
</g>
</svg>
