<svg xmlns="http://www.w3.org/2000/svg" viewBox="0 0 31.56 34.67"><defs><style>.cls-1{fill:#fff;fill-rule:evenodd;}</style></defs><title>Recurso 1</title><g id="Capa_2" data-name="Capa 2"><g id="Layer_1" data-name="Layer 1"><path class="cls-1" d="M9,5V6.19H2.38A1.19,1.19,0,0,0,1.13,7.55q0,7.29,0,14.58c0,.85.44,1.38,1.16,1.38H16.11a9.07,9.07,0,0,1,2-3.69H14.68V18.57h4.68a.87.87,0,0,0,.43-.11,7.18,7.18,0,0,1,5.92-.83l.22,0v-10c0-1-.43-1.46-1.34-1.46H16.92V8.63H10.19s0,0,0-.05c0-1.7,0-3.4,0-5.11A3.49,3.49,0,0,1,13.61,0,3.57,3.57,0,0,1,16.9,3.62c0,.42,0,.85,0,1.33h7.75a2.37,2.37,0,0,1,2.4,2.64q0,5.11,0,10.21a.52.52,0,0,0,.28.54,8.89,8.89,0,0,1,4.15,8.9,8.4,8.4,0,0,1-6.21,7.24c-5,1.17-9.79-3.32-9.48-8.95,0-.24,0-.48.07-.78H2.36A2.25,2.25,0,0,1,.12,23.06,2.75,2.75,0,0,1,0,22.31Q0,14.88,0,7.45A2.35,2.35,0,0,1,2.21,5c2.22,0,4.44,0,6.65,0ZM23.68,18.57c-3.77,0-6.78,3.33-6.77,7.49S20,33.43,23.7,33.42s6.75-3.36,6.74-7.46S27.38,18.56,23.68,18.57ZM15.77,7.41c0-1.33,0-2.62,0-3.9a2.31,2.31,0,0,0-2.22-2.28A2.3,2.3,0,0,0,11.3,3.45c-.06,1.3,0,2.6,0,3.9,0,0,0,0,0,.06Z"/><path class="cls-1" d="M12.4,19.79h-9c0-.94,0-1.86,0-2.78a.45.45,0,0,1,.16-.27,4.9,4.9,0,0,1,1.93-1,.44.44,0,0,1,.31.09,3.41,3.41,0,0,0,4.2,0,.38.38,0,0,1,.31-.07c.63.3,1.25.62,1.87,1a.5.5,0,0,1,.21.35C12.41,18,12.4,18.86,12.4,19.79Zm-1.13-1.24c0-.31,0-.58,0-.85a.42.42,0,0,0,0-.21A1.16,1.16,0,0,0,10,17.22a4.39,4.39,0,0,1-4.3,0,1.16,1.16,0,0,0-1.18.26.27.27,0,0,0,0,.14c0,.3,0,.61,0,.93Z"/><path class="cls-1" d="M5.64,12.36A2.37,2.37,0,0,1,7.88,9.9a2.37,2.37,0,0,1,2.26,2.47,2.37,2.37,0,0,1-2.26,2.48A2.37,2.37,0,0,1,5.64,12.36Zm1.13,0a1.2,1.2,0,0,0,1.09,1.26,1.24,1.24,0,0,0,.07-2.47A1.18,1.18,0,0,0,6.77,12.36Z"/><path class="cls-1" d="M23.65,11.17v1.19h-9V11.17Z"/><path class="cls-1" d="M14.67,16.06V14.87h9v1.19Z"/><path class="cls-1" d="M26.66,23l.68.79.06.09-4.86,5.34-2.59-2.85.8-.79,1.76,2Z"/><path class="cls-1" d="M13.53,4.64a.89.89,0,0,1-.85-.94.85.85,0,1,1,1.69,0A.89.89,0,0,1,13.53,4.64Z"/></g></g></svg>