<?xml version="1.0" encoding="utf-8"?>
<!-- Generator: Adobe Illustrator 16.0.0, SVG Export Plug-In . SVG Version: 6.00 Build 0)  -->
<!DOCTYPE svg PUBLIC "-//W3C//DTD SVG 1.1//EN" "http://www.w3.org/Graphics/SVG/1.1/DTD/svg11.dtd">
<svg version="1.1" id="premium" xmlns="http://www.w3.org/2000/svg" xmlns:xlink="http://www.w3.org/1999/xlink" x="0px" y="0px"
	 width="63.11px" height="64.488px" viewBox="0 0 63.11 64.488" enable-background="new 0 0 63.11 64.488" xml:space="preserve">
<g>
	<g>
		<path fill-rule="evenodd" clip-rule="evenodd" fill="#FFFFFF" d="M18.129,29.142c-0.157-0.096-0.391-0.184-0.555-0.142
			c-1.231,0.314-2.389,0.8-3.396,1.591c-0.131,0.104-0.283,0.288-0.286,0.436c-0.021,1.48-0.013,2.963-0.013,4.467
			c5.32,0,10.565,0,15.9,0c0-1.501,0.013-2.945-0.018-4.389c-0.004-0.195-0.195-0.477-0.375-0.566
			c-1.084-0.538-2.185-1.045-3.295-1.527c-0.143-0.063-0.401,0.021-0.554,0.118C23.068,30.682,20.605,30.688,18.129,29.142z
			 M25.625,31.37c0.532-0.254,1.733-0.018,2.081,0.435c0.066,0.085,0.078,0.226,0.082,0.342c0.008,0.433,0.001,0.864,0.001,1.357
			c-4.004,0-7.928,0-11.922,0c0-0.509-0.004-0.999,0.003-1.488c0.002-0.075,0.033-0.161,0.08-0.218
			c0.365-0.455,1.539-0.682,2.084-0.422C20.566,32.582,23.097,32.582,25.625,31.37z"/>
		<path fill-rule="evenodd" clip-rule="evenodd" fill="#FFFFFF" d="M21.805,19.614c-2.162,0.002-3.948,1.785-3.95,3.949
			c-0.005,2.211,1.765,3.996,3.962,4c2.203,0.002,3.986-1.779,3.985-3.979C25.802,21.386,24.017,19.614,21.805,19.614z
			 M21.763,25.575c-1.076-0.033-1.938-0.938-1.92-2.02c0.02-1.109,0.934-1.981,2.048-1.95c1.074,0.027,1.94,0.937,1.925,2.015
			C23.797,24.718,22.863,25.607,21.763,25.575z"/>
		<path fill-rule="evenodd" clip-rule="evenodd" fill="#FFFFFF" d="M33.803,23.558c5.296,0,10.54,0,15.814,0
			c0-0.644,0-1.254,0-1.914c-5.311,0-10.57,0-15.814,0C33.803,22.316,33.803,22.943,33.803,23.558z"/>
		<g>
			<path fill-rule="evenodd" clip-rule="evenodd" fill="#FFFFFF" d="M46.382,27.597c-4.202,0-8.395,0-12.602,0
				c0,0.646,0,1.259,0,1.91c2.541,0,5.05,0,7.572,0C42.765,28.419,44.495,27.729,46.382,27.597z"/>
		</g>
		<path fill-rule="evenodd" clip-rule="evenodd" fill="#FFFFFF" d="M31.796,8.188c-0.826-0.017-1.511,0.649-1.52,1.474
			c-0.008,0.824,0.664,1.502,1.491,1.504c0.82,0.003,1.5-0.684,1.488-1.505C33.244,8.858,32.594,8.204,31.796,8.188z"/>
		<path fill-rule="evenodd" clip-rule="evenodd" fill="#FFFFFF" d="M38.345,33.524c-1.588,0-2.867,0-3.382,0
			c-0.387,0-0.773,0-1.167,0c0,0.701,0,1.328,0,2.009c0.459,0,2.034,0,4.021,0C37.919,34.835,38.096,34.163,38.345,33.524z"/>
		<g>
			<path fill-rule="evenodd" clip-rule="evenodd" fill="#FFFFFF" d="M38.911,41.477c-2.616,0-5.348,0.001-8.025,0.001
				c-0.186,0-0.368,0-0.554,0c-6.854-0.001-14.072-0.002-18.382-0.006c-1.271-0.002-2.046-0.86-2.046-2.217
				c0-7.806,0-15.61,0.002-23.415c0-1.394,0.798-2.185,2.203-2.187c3.313-0.001,6.625,0,9.937,0c0.573,0,1.146,0,1.745,0
				c0-0.684,0-1.296,0-1.951c-0.118-0.018-0.178-0.035-0.237-0.035c-3.912-0.002-7.826-0.024-11.738,0.006
				c-2.199,0.017-3.893,1.773-3.896,4.007c-0.012,7.95-0.007,15.898,0.005,23.849c0.001,0.407,0.081,0.827,0.207,1.215
				c0.557,1.701,2.038,2.723,3.948,2.723c4.291,0.002,11.621,0.001,18.495,0c3.287,0.001,6.681,0.001,9.838,0.001
				C39.827,42.876,39.323,42.206,38.911,41.477z"/>
			<path fill-rule="evenodd" clip-rule="evenodd" fill="#FFFFFF" d="M25.873,17.572c3.946,0,7.885,0,11.875,0
				c0-1.328,0-2.604,0-3.921c0.254,0,0.457,0,0.662,0c0.432,0,0.864,0,1.295,0c0,0,0,0.001,0,0.002c0.599,0,1.172,0,1.744,0
				c3.283,0,6.566-0.001,9.849,0c0.053,0.001,0.098,0.008,0.148,0.009c1.363,0.026,2.143,0.806,2.143,2.178
				c0.001,4.804,0.001,9.608,0.001,14.412c0.854,0.841,1.545,1.843,2.024,2.959c0.007-5.396,0.004-12.757,0.002-17.308
				c-0.001-1.754-0.792-3.072-2.096-3.742c-0.128-0.07-0.254-0.142-0.391-0.196c-0.008-0.003-0.015-0.005-0.023-0.007
				c-0.253-0.102-0.521-0.172-0.8-0.217c-0.013-0.004-0.028-0.004-0.042-0.006c-0.192-0.029-0.384-0.061-0.585-0.063
				c-0.058,0-0.115,0-0.173,0c-0.042-0.001-0.078-0.01-0.12-0.01c-1.138,0.001-2.276,0-3.415,0.001
				c-2.137-0.003-4.273-0.003-6.41,0.001c-1.052,0-2.104,0-3.158,0c-0.217,0-0.436,0-0.688,0c0-0.771,0.016-1.454-0.003-2.135
				c-0.089-3.179-2.688-5.777-5.804-5.814c-3.234-0.038-5.975,2.411-6.076,5.572c-0.087,2.729-0.017,5.463-0.014,8.196
				C25.819,17.517,25.859,17.552,25.873,17.572z M27.833,9.258c0.108-2.026,1.921-3.563,3.939-3.556
				c2.045,0.01,3.813,1.568,3.921,3.654c0.105,2.061,0.022,4.131,0.022,6.262c-2.656,0-5.238,0-7.819,0
				c-0.03-0.033-0.081-0.063-0.081-0.094C27.811,13.436,27.722,11.341,27.833,9.258z"/>
		</g>
	</g>
	<path fill-rule="evenodd" clip-rule="evenodd" fill="#FFFFFF" d="M50.516,41.759c-1.125-0.814-2.249-1.627-3.413-2.47
		c-1.145,0.827-2.287,1.649-3.427,2.472c-0.043-0.025-0.086-0.047-0.128-0.07c0.064-0.241,0.116-0.488,0.192-0.727
		c0.304-0.939,0.593-1.885,0.93-2.814c0.141-0.381,0.076-0.596-0.262-0.83c-1.034-0.718-2.041-1.473-3.193-2.312
		c1.568,0,2.985,0,4.455,0c0.462-1.399,0.907-2.751,1.353-4.102c0.05-0.004,0.1-0.012,0.149-0.018
		c0.443,1.345,0.884,2.688,1.342,4.082c1.442,0,2.87,0,4.298,0c0.017,0.041,0.034,0.085,0.051,0.126
		c-0.933,0.68-1.847,1.393-2.809,2.025c-0.53,0.35-0.686,0.668-0.441,1.297c0.412,1.057,0.711,2.16,1.058,3.244
		C50.619,41.694,50.568,41.726,50.516,41.759z"/>
	<path fill="#FFFFFF" d="M57.408,36.839c0-5.718-4.65-10.369-10.368-10.369c-5.718,0-10.369,4.651-10.369,10.369
		c0,2.762,1.092,5.268,2.857,7.127c-0.026,0.092-0.058,0.184-0.058,0.285v16.73l7.574-7.129l7.638,7.109V44.251
		c0-0.125-0.032-0.24-0.071-0.352C56.34,42.046,57.408,39.567,57.408,36.839z M47.04,28.596c4.544,0,8.241,3.698,8.241,8.243
		s-3.697,8.242-8.241,8.242c-4.545,0-8.243-3.697-8.243-8.242S42.495,28.596,47.04,28.596z M47.036,50.938l-5.438,5.12V45.646
		c1.584,0.983,3.445,1.561,5.443,1.561c2.028,0,3.916-0.594,5.515-1.604v10.475L47.036,50.938z"/>
</g>
</svg>
