<?xml version="1.0" encoding="utf-8"?>
<!-- Generator: Adobe Illustrator 16.0.0, SVG Export Plug-In . SVG Version: 6.00 Build 0)  -->
<!DOCTYPE svg PUBLIC "-//W3C//DTD SVG 1.1//EN" "http://www.w3.org/Graphics/SVG/1.1/DTD/svg11.dtd">
<svg version="1.1" id="registrado" xmlns="http://www.w3.org/2000/svg" xmlns:xlink="http://www.w3.org/1999/xlink" x="0px" y="0px"
	 width="63.109px" height="64.488px" viewBox="0 0 63.109 64.488" enable-background="new 0 0 63.109 64.488" xml:space="preserve">
<g>
	<path fill="#FFFFFF" d="M32.245,13.179c6.545,0,13.087,0,19.631,0.001c2.141,0,3.542,1.391,3.542,3.524c0,10.393,0,20.787,0,31.18
		c0,1.985-1.444,3.425-3.438,3.425c-13.152,0-26.309,0-39.463,0c-2.105,0-3.515-1.403-3.515-3.5C9,37.415,9,27.023,9.003,16.627
		c0-2.024,1.428-3.446,3.459-3.448C19.056,13.178,25.653,13.179,32.245,13.179z M53.761,23.161c-14.404,0-28.74,0-43.089,0
		c-0.007,0.134-0.016,0.235-0.016,0.338c0,8.148-0.002,16.295,0.002,24.443c0,1.11,0.645,1.709,1.814,1.709
		c13.087,0,26.171,0.002,39.258,0c1.504,0,2.026-0.521,2.029-2.018c0-5.935,0-11.877,0-17.814
		C53.761,27.614,53.761,25.406,53.761,23.161z M10.664,21.434c14.394,0,28.728,0,43.096,0c0-1.586-0.002-3.136,0-4.687
		c0.002-1.346-0.568-1.91-1.923-1.91c-10.546,0.002-21.094-0.001-31.639-0.001c-2.607,0-5.213-0.002-7.82,0.004
		c-1.013,0.003-1.684,0.558-1.704,1.492C10.639,18.019,10.664,19.707,10.664,21.434z"/>
	<path fill="#FFFFFF" d="M15.666,28.113c5.491,0,10.944,0,16.532,0c-0.584,0.579-1.09,1.102-1.626,1.589
		c-0.101,0.09-0.331,0.053-0.5,0.053c-4.092,0.002-8.183,0.002-12.276,0.002c-0.152,0-0.301,0-0.479,0c0,4.423,0,8.805,0,13.222
		c4.387,0,8.778,0,13.203,0c0-2.696,0-5.394,0-8.089c-2.165,2.166-4.325,4.333-6.451,6.464c-1.73-1.737-3.373-3.383-4.99-5.007
		c0.312-0.303,0.682-0.674,1.084-1.064c1.198,1.215,2.442,2.475,3.684,3.732c4-4.001,7.936-7.94,11.867-11.871
		c0.428,0.445,0.795,0.827,1.19,1.24c-0.967,0.964-1.95,1.951-2.938,2.94c-0.478,0.475-0.976,0.93-1.417,1.438
		c-0.18,0.208-0.324,0.528-0.327,0.798c-0.021,3.677-0.013,7.356-0.013,11.076c-5.512,0-11.01,0-16.543,0
		C15.666,39.155,15.666,33.659,15.666,28.113z"/>
	<path fill="#FFFFFF" d="M48.76,34.711c-3.857,0-7.681,0-11.543,0c0-0.531,0-1.053,0-1.609c3.841,0,7.678,0,11.543,0
		C48.76,33.628,48.76,34.139,48.76,34.711z"/>
	<path fill="#FFFFFF" d="M37.205,39.668c0-0.542,0-1.054,0-1.593c3.859,0,7.697,0,11.557,0c0,0.536,0,1.046,0,1.593
		C44.922,39.668,41.086,39.668,37.205,39.668z"/>
	<path fill="#FFFFFF" d="M37.209,44.644c0-0.554,0-1.064,0-1.601c2.192,0,4.358,0,6.566,0c0,0.52,0,1.044,0,1.601
		C41.602,44.644,39.422,44.644,37.209,44.644z"/>
	<path fill="#FFFFFF" d="M15.63,18.145c0.003,0.919-0.75,1.671-1.674,1.662c-0.897-0.007-1.635-0.746-1.639-1.646
		c-0.001-0.924,0.752-1.674,1.675-1.665C14.89,16.506,15.625,17.242,15.63,18.145z"/>
	<path fill="#FFFFFF" d="M18.947,18.121c0.016-0.923,0.786-1.652,1.713-1.625c0.896,0.025,1.617,0.783,1.6,1.686
		c-0.014,0.92-0.794,1.657-1.714,1.624C19.648,19.78,18.931,19.023,18.947,18.121z"/>
	<path fill="#FFFFFF" d="M28.891,18.153c0,0.925-0.759,1.671-1.685,1.654c-0.9-0.012-1.631-0.754-1.631-1.655
		c0.001-0.924,0.763-1.67,1.686-1.658C28.161,16.507,28.894,17.252,28.891,18.153z"/>
</g>
</svg>
