<svg xmlns="http://www.w3.org/2000/svg" viewBox="0 0 847.37 483.04"><defs><style>.cls-1,.cls-3,.cls-5,.cls-6,.cls-7,.cls-8{fill:none;stroke-miterlimit:10;}.cls-1,.cls-7{stroke:#3a9bbf;}.cls-1,.cls-3,.cls-5{stroke-width:7px;}.cls-2{fill:#3a9bbf;}.cls-3,.cls-8{stroke:#a7a591;}.cls-4{fill:#a7a591;}.cls-5,.cls-6{stroke:#091f27;}.cls-6,.cls-7,.cls-8{stroke-width:5px;}</style></defs><title>Recurso 7</title><g id="Capa_2" data-name="Capa 2"><g id="Organización"><path class="cls-1" d="M423.17,396.44s-47.51,1.71-142.29-78.59C200,249.38,201.56,200,201.56,200v-.16S200,150.5,280.88,82.06C375.66,1.8,423.21,3.5,423.21,3.5l0,0s47.46-1.67,142.31,78.57c80.86,68.42,79.27,117.76,79.27,117.76V200s1.59,49.31-79.27,117.82c-94.85,80.3-142.31,78.59-142.31,78.59Z"/><path class="cls-2" d="M541.54,98.15a2.2,2.2,0,1,0,2.2,2.21A2.2,2.2,0,0,0,541.54,98.15Z"/><circle class="cls-2" cx="533.73" cy="92.54" r="2.2"/><ellipse class="cls-2" cx="525.92" cy="69.1" rx="2.2" ry="2.2"/><ellipse class="cls-2" cx="533.73" cy="69.1" rx="2.2" ry="2.2"/><circle class="cls-2" cx="525.92" cy="76.91" r="2.2"/><path class="cls-2" d="M525.92,82.53a2.2,2.2,0,1,0,2.2,2.2A2.19,2.19,0,0,0,525.92,82.53Z"/><ellipse class="cls-2" cx="525.92" cy="92.54" rx="2.2" ry="2.2"/><path class="cls-2" d="M525.92,98.15a2.2,2.2,0,1,0,2.2,2.21A2.2,2.2,0,0,0,525.92,98.15Z"/><path class="cls-2" d="M518.11,74.71a2.2,2.2,0,1,0,2.2,2.2A2.2,2.2,0,0,0,518.11,74.71Z"/><path class="cls-2" d="M518.11,82.53a2.2,2.2,0,1,0,2.2,2.2A2.2,2.2,0,0,0,518.11,82.53Z"/><path class="cls-2" d="M518.11,90.33a2.2,2.2,0,1,0,2.2,2.2A2.2,2.2,0,0,0,518.11,90.33Z"/><path class="cls-2" d="M518.11,98.15a2.2,2.2,0,1,0,2.2,2.21A2.2,2.2,0,0,0,518.11,98.15Z"/><path class="cls-2" d="M510.29,59.09a2.2,2.2,0,1,0,2.2,2.2A2.21,2.21,0,0,0,510.29,59.09Z"/><path class="cls-2" d="M510.29,82.53a2.2,2.2,0,1,0,2.2,2.2A2.2,2.2,0,0,0,510.29,82.53Z"/><circle class="cls-2" cx="510.29" cy="92.54" r="2.2"/><circle class="cls-2" cx="502.49" cy="92.54" r="2.2"/><path class="cls-2" d="M643.07,191.87a2.2,2.2,0,1,0,2.2,2.2A2.19,2.19,0,0,0,643.07,191.87Z"/><path class="cls-2" d="M643.07,199.69a2.2,2.2,0,1,0,2.2,2.19A2.18,2.18,0,0,0,643.07,199.69Z"/><circle class="cls-2" cx="635.26" cy="170.64" r="2.21"/><ellipse class="cls-2" cx="635.26" cy="178.45" rx="2.21" ry="2.2"/><path class="cls-2" d="M635.26,184.06a2.2,2.2,0,1,0,2.21,2.2A2.21,2.21,0,0,0,635.26,184.06Z"/><circle class="cls-2" cx="635.26" cy="194.07" r="2.21"/><path class="cls-2" d="M635.26,207.49a2.2,2.2,0,1,0,2.21,2.21A2.21,2.21,0,0,0,635.26,207.49Z"/><path class="cls-2" d="M635.26,215.3a2.2,2.2,0,1,0,2.21,2.21A2.22,2.22,0,0,0,635.26,215.3Z"/><path class="cls-2" d="M635.26,223.12a2.2,2.2,0,1,0,2.21,2.2A2.2,2.2,0,0,0,635.26,223.12Z"/><path class="cls-2" d="M486.87,43.47a2.2,2.2,0,1,0,2.2,2.21A2.2,2.2,0,0,0,486.87,43.47Z"/><circle class="cls-2" cx="479.05" cy="45.67" r="2.21"/><path class="cls-2" d="M479.05,51.28a2.2,2.2,0,1,0,2.2,2.2A2.21,2.21,0,0,0,479.05,51.28Z"/><circle class="cls-2" cx="471.24" cy="45.67" r="2.2"/><path class="cls-2" d="M471.24,51.28a2.2,2.2,0,1,0,2.2,2.2A2.21,2.21,0,0,0,471.24,51.28Z"/><path class="cls-2" d="M627.45,152.82a2.2,2.2,0,1,0,2.21,2.2A2.2,2.2,0,0,0,627.45,152.82Z"/><path class="cls-2" d="M627.45,160.63a2.2,2.2,0,1,0,2.21,2.21A2.2,2.2,0,0,0,627.45,160.63Z"/><path class="cls-2" d="M627.45,168.44a2.21,2.21,0,1,0,2.21,2.21A2.2,2.2,0,0,0,627.45,168.44Z"/><path class="cls-2" d="M627.45,176.25a2.2,2.2,0,1,0,2.21,2.21A2.2,2.2,0,0,0,627.45,176.25Z"/><path class="cls-2" d="M627.45,191.87a2.2,2.2,0,1,0,2.21,2.2A2.19,2.19,0,0,0,627.45,191.87Z"/><path class="cls-2" d="M627.45,199.69a2.2,2.2,0,1,0,2.21,2.19A2.19,2.19,0,0,0,627.45,199.69Z"/><path class="cls-2" d="M627.45,207.49a2.2,2.2,0,1,0,2.21,2.21A2.2,2.2,0,0,0,627.45,207.49Z"/><path class="cls-2" d="M627.45,215.3a2.2,2.2,0,1,0,2.21,2.21A2.21,2.21,0,0,0,627.45,215.3Z"/><path class="cls-2" d="M627.45,223.12a2.2,2.2,0,1,0,2.21,2.2A2.19,2.19,0,0,0,627.45,223.12Z"/><path class="cls-2" d="M627.45,230.92a2.2,2.2,0,1,0,2.21,2.21A2.2,2.2,0,0,0,627.45,230.92Z"/><path class="cls-2" d="M627.45,238.73a2.2,2.2,0,1,0,2.21,2.2A2.19,2.19,0,0,0,627.45,238.73Z"/><path class="cls-2" d="M619.64,145a2.2,2.2,0,1,0,2.2,2.21A2.21,2.21,0,0,0,619.64,145Z"/><path class="cls-2" d="M619.64,152.82a2.2,2.2,0,1,0,2.2,2.2A2.2,2.2,0,0,0,619.64,152.82Z"/><path class="cls-2" d="M619.64,168.44a2.21,2.21,0,1,0,2.2,2.21A2.21,2.21,0,0,0,619.64,168.44Z"/><path class="cls-2" d="M619.64,176.25a2.2,2.2,0,1,0,2.2,2.21A2.2,2.2,0,0,0,619.64,176.25Z"/><path class="cls-2" d="M619.64,184.06a2.2,2.2,0,1,0,2.2,2.2A2.2,2.2,0,0,0,619.64,184.06Z"/><path class="cls-2" d="M619.64,191.87a2.2,2.2,0,1,0,2.2,2.2A2.2,2.2,0,0,0,619.64,191.87Z"/><path class="cls-2" d="M619.64,199.69a2.2,2.2,0,1,0,2.2,2.19A2.19,2.19,0,0,0,619.64,199.69Z"/><path class="cls-2" d="M619.64,207.49a2.2,2.2,0,1,0,2.2,2.21A2.21,2.21,0,0,0,619.64,207.49Z"/><path class="cls-2" d="M619.64,215.3a2.2,2.2,0,1,0,2.2,2.21A2.21,2.21,0,0,0,619.64,215.3Z"/><path class="cls-2" d="M619.64,223.12a2.2,2.2,0,1,0,2.2,2.2A2.19,2.19,0,0,0,619.64,223.12Z"/><path class="cls-2" d="M619.64,230.92a2.2,2.2,0,1,0,2.2,2.21A2.21,2.21,0,0,0,619.64,230.92Z"/><path class="cls-2" d="M619.64,238.73a2.2,2.2,0,1,0,2.2,2.2A2.2,2.2,0,0,0,619.64,238.73Z"/><path class="cls-2" d="M619.64,246.54a2.2,2.2,0,1,0,2.2,2.21A2.21,2.21,0,0,0,619.64,246.54Z"/><path class="cls-2" d="M619.64,254.36a2.2,2.2,0,1,0,2.2,2.19A2.2,2.2,0,0,0,619.64,254.36Z"/><ellipse class="cls-2" cx="611.83" cy="139.4" rx="2.2" ry="2.21"/><path class="cls-2" d="M611.83,145a2.2,2.2,0,1,0,2.2,2.21A2.2,2.2,0,0,0,611.83,145Z"/><ellipse class="cls-2" cx="611.83" cy="170.64" rx="2.2" ry="2.21"/><circle class="cls-2" cx="611.83" cy="178.45" r="2.2"/><path class="cls-2" d="M611.83,184.06a2.2,2.2,0,1,0,2.2,2.2A2.2,2.2,0,0,0,611.83,184.06Z"/><circle class="cls-2" cx="611.83" cy="194.07" r="2.2"/><path class="cls-2" d="M611.83,199.69a2.2,2.2,0,1,0,2.2,2.19A2.19,2.19,0,0,0,611.83,199.69Z"/><path class="cls-2" d="M611.83,207.49a2.2,2.2,0,1,0,2.2,2.21A2.2,2.2,0,0,0,611.83,207.49Z"/><path class="cls-2" d="M611.83,215.3a2.2,2.2,0,1,0,2.2,2.21A2.21,2.21,0,0,0,611.83,215.3Z"/><path class="cls-2" d="M611.83,223.12a2.2,2.2,0,1,0,2.2,2.2A2.19,2.19,0,0,0,611.83,223.12Z"/><circle class="cls-2" cx="611.83" cy="233.13" r="2.2"/><circle class="cls-2" cx="611.83" cy="240.94" r="2.2"/><circle class="cls-2" cx="611.83" cy="248.75" r="2.2"/><path class="cls-2" d="M611.83,254.36a2.2,2.2,0,1,0,2.2,2.19A2.19,2.19,0,0,0,611.83,254.36Z"/><ellipse class="cls-2" cx="611.83" cy="264.37" rx="2.2" ry="2.2"/><path class="cls-2" d="M604,121.58a2.2,2.2,0,1,0,2.2,2.2A2.19,2.19,0,0,0,604,121.58Z"/><path class="cls-2" d="M604,129.39a2.2,2.2,0,1,0,2.2,2.2A2.2,2.2,0,0,0,604,129.39Z"/><path class="cls-2" d="M604,137.2a2.21,2.21,0,1,0,2.2,2.21A2.2,2.2,0,0,0,604,137.2Z"/><path class="cls-2" d="M604,145a2.2,2.2,0,1,0,2.2,2.21A2.21,2.21,0,0,0,604,145Z"/><path class="cls-2" d="M604,168.44a2.21,2.21,0,1,0,2.2,2.21A2.2,2.2,0,0,0,604,168.44Z"/><path class="cls-2" d="M604,176.25a2.2,2.2,0,1,0,2.2,2.21A2.2,2.2,0,0,0,604,176.25Z"/><path class="cls-2" d="M604,184.06a2.2,2.2,0,1,0,2.2,2.2A2.2,2.2,0,0,0,604,184.06Z"/><path class="cls-2" d="M604,191.87a2.2,2.2,0,1,0,2.2,2.2A2.2,2.2,0,0,0,604,191.87Z"/><path class="cls-2" d="M604,199.69a2.2,2.2,0,1,0,2.2,2.19A2.19,2.19,0,0,0,604,199.69Z"/><path class="cls-2" d="M604,207.49a2.2,2.2,0,1,0,2.2,2.21A2.2,2.2,0,0,0,604,207.49Z"/><path class="cls-2" d="M604,215.3a2.2,2.2,0,1,0,2.2,2.21A2.21,2.21,0,0,0,604,215.3Z"/><path class="cls-2" d="M604,223.12a2.2,2.2,0,1,0,2.2,2.2A2.19,2.19,0,0,0,604,223.12Z"/><path class="cls-2" d="M604,230.92a2.2,2.2,0,1,0,2.2,2.21A2.2,2.2,0,0,0,604,230.92Z"/><path class="cls-2" d="M604,238.73a2.2,2.2,0,1,0,2.2,2.2A2.2,2.2,0,0,0,604,238.73Z"/><path class="cls-2" d="M604,246.54a2.2,2.2,0,1,0,2.2,2.21A2.2,2.2,0,0,0,604,246.54Z"/><path class="cls-2" d="M604,254.36a2.2,2.2,0,1,0,2.2,2.19A2.19,2.19,0,0,0,604,254.36Z"/><path class="cls-2" d="M604,262.16a2.2,2.2,0,1,0,2.2,2.21A2.2,2.2,0,0,0,604,262.16Z"/><path class="cls-2" d="M604,270a2.2,2.2,0,1,0,2.2,2.2A2.19,2.19,0,0,0,604,270Z"/><circle class="cls-2" cx="596.21" cy="115.97" r="2.21"/><circle class="cls-2" cx="596.21" cy="123.78" r="2.21"/><path class="cls-2" d="M596.21,129.39a2.2,2.2,0,1,0,2.21,2.2A2.21,2.21,0,0,0,596.21,129.39Z"/><circle class="cls-2" cx="596.21" cy="139.4" r="2.21"/><path class="cls-2" d="M596.21,145a2.2,2.2,0,1,0,2.21,2.21A2.21,2.21,0,0,0,596.21,145Z"/><path class="cls-2" d="M596.21,160.63a2.2,2.2,0,1,0,2.21,2.21A2.21,2.21,0,0,0,596.21,160.63Z"/><circle class="cls-2" cx="596.21" cy="170.64" r="2.21"/><circle class="cls-2" cx="596.21" cy="178.45" r="2.21"/><path class="cls-2" d="M596.21,184.06a2.2,2.2,0,1,0,2.21,2.2A2.21,2.21,0,0,0,596.21,184.06Z"/><circle class="cls-2" cx="596.21" cy="194.07" r="2.21"/><path class="cls-2" d="M596.21,199.69a2.2,2.2,0,1,0,2.21,2.19A2.2,2.2,0,0,0,596.21,199.69Z"/><path class="cls-2" d="M596.21,207.49a2.2,2.2,0,1,0,2.21,2.21A2.21,2.21,0,0,0,596.21,207.49Z"/><path class="cls-2" d="M596.21,215.3a2.2,2.2,0,1,0,2.21,2.21A2.22,2.22,0,0,0,596.21,215.3Z"/><path class="cls-2" d="M596.21,223.12a2.2,2.2,0,1,0,2.21,2.2A2.2,2.2,0,0,0,596.21,223.12Z"/><circle class="cls-2" cx="596.21" cy="233.13" r="2.21"/><circle class="cls-2" cx="596.21" cy="240.94" r="2.21"/><ellipse class="cls-2" cx="596.21" cy="248.75" rx="2.21" ry="2.2"/><path class="cls-2" d="M596.21,254.36a2.2,2.2,0,1,0,2.21,2.19A2.2,2.2,0,0,0,596.21,254.36Z"/><circle class="cls-2" cx="596.21" cy="264.37" r="2.2"/><path class="cls-2" d="M596.21,270a2.2,2.2,0,1,0,2.21,2.2A2.2,2.2,0,0,0,596.21,270Z"/><path class="cls-2" d="M596.21,277.79a2.2,2.2,0,1,0,2.21,2.2A2.2,2.2,0,0,0,596.21,277.79Z"/><circle class="cls-2" cx="588.4" cy="108.16" r="2.2"/><circle class="cls-2" cx="588.4" cy="115.97" r="2.2"/><circle class="cls-2" cx="588.4" cy="123.78" r="2.2"/><path class="cls-2" d="M588.4,129.39a2.2,2.2,0,1,0,2.2,2.2A2.2,2.2,0,0,0,588.4,129.39Z"/><ellipse class="cls-2" cx="588.4" cy="139.4" rx="2.2" ry="2.21"/><path class="cls-2" d="M588.4,145a2.2,2.2,0,1,0,2.2,2.21A2.2,2.2,0,0,0,588.4,145Z"/><path class="cls-2" d="M588.4,160.63a2.2,2.2,0,1,0,2.2,2.21A2.2,2.2,0,0,0,588.4,160.63Z"/><ellipse class="cls-2" cx="588.4" cy="170.64" rx="2.2" ry="2.21"/><circle class="cls-2" cx="588.4" cy="178.45" r="2.2"/><path class="cls-2" d="M588.4,184.06a2.2,2.2,0,1,0,2.2,2.2A2.2,2.2,0,0,0,588.4,184.06Z"/><circle class="cls-2" cx="588.4" cy="194.07" r="2.2"/><path class="cls-2" d="M588.4,199.69a2.2,2.2,0,1,0,2.2,2.19A2.19,2.19,0,0,0,588.4,199.69Z"/><path class="cls-2" d="M588.4,207.49a2.2,2.2,0,1,0,2.2,2.21A2.2,2.2,0,0,0,588.4,207.49Z"/><path class="cls-2" d="M588.4,215.3a2.2,2.2,0,1,0,2.2,2.21A2.21,2.21,0,0,0,588.4,215.3Z"/><path class="cls-2" d="M588.4,223.12a2.2,2.2,0,1,0,2.2,2.2A2.19,2.19,0,0,0,588.4,223.12Z"/><circle class="cls-2" cx="588.4" cy="233.13" r="2.2"/><circle class="cls-2" cx="588.4" cy="240.94" r="2.2"/><circle class="cls-2" cx="588.4" cy="248.75" r="2.2"/><path class="cls-2" d="M588.4,254.36a2.2,2.2,0,1,0,2.2,2.19A2.19,2.19,0,0,0,588.4,254.36Z"/><circle class="cls-2" cx="588.4" cy="264.37" r="2.2"/><path class="cls-2" d="M588.4,270a2.2,2.2,0,1,0,2.2,2.2A2.19,2.19,0,0,0,588.4,270Z"/><path class="cls-2" d="M588.4,277.79a2.2,2.2,0,1,0,2.2,2.2A2.2,2.2,0,0,0,588.4,277.79Z"/><circle class="cls-2" cx="588.4" cy="287.8" r="2.2"/><path class="cls-2" d="M580.59,98.15a2.2,2.2,0,1,0,2.2,2.21A2.2,2.2,0,0,0,580.59,98.15Z"/><circle class="cls-2" cx="580.59" cy="108.16" r="2.2"/><circle class="cls-2" cx="580.59" cy="115.97" r="2.2"/><circle class="cls-2" cx="580.59" cy="123.78" r="2.2"/><path class="cls-2" d="M580.59,129.39a2.2,2.2,0,1,0,2.2,2.2A2.2,2.2,0,0,0,580.59,129.39Z"/><ellipse class="cls-2" cx="580.59" cy="170.64" rx="2.2" ry="2.21"/><circle class="cls-2" cx="580.59" cy="178.45" r="2.2"/><path class="cls-2" d="M580.59,184.06a2.2,2.2,0,1,0,2.2,2.2A2.2,2.2,0,0,0,580.59,184.06Z"/><circle class="cls-2" cx="580.59" cy="194.07" r="2.2"/><path class="cls-2" d="M580.59,199.69a2.2,2.2,0,1,0,2.2,2.19A2.19,2.19,0,0,0,580.59,199.69Z"/><path class="cls-2" d="M580.59,207.49a2.2,2.2,0,1,0,2.2,2.21A2.21,2.21,0,0,0,580.59,207.49Z"/><path class="cls-2" d="M580.59,215.3a2.2,2.2,0,1,0,2.2,2.21A2.21,2.21,0,0,0,580.59,215.3Z"/><path class="cls-2" d="M580.59,223.12a2.2,2.2,0,1,0,2.2,2.2A2.2,2.2,0,0,0,580.59,223.12Z"/><circle class="cls-2" cx="580.59" cy="233.13" r="2.2"/><circle class="cls-2" cx="580.59" cy="240.94" r="2.2"/><circle class="cls-2" cx="580.59" cy="248.75" r="2.2"/><path class="cls-2" d="M580.59,254.36a2.2,2.2,0,1,0,2.2,2.19A2.2,2.2,0,0,0,580.59,254.36Z"/><ellipse class="cls-2" cx="580.59" cy="264.37" rx="2.2" ry="2.2"/><path class="cls-2" d="M580.59,270a2.2,2.2,0,1,0,2.2,2.2A2.2,2.2,0,0,0,580.59,270Z"/><path class="cls-2" d="M580.59,277.79a2.2,2.2,0,1,0,2.2,2.2A2.2,2.2,0,0,0,580.59,277.79Z"/><circle class="cls-2" cx="580.59" cy="287.8" r="2.2"/><circle class="cls-2" cx="580.59" cy="295.61" r="2.2"/><circle class="cls-2" cx="580.59" cy="303.42" r="2.2"/><path class="cls-2" d="M572.77,90.33a2.2,2.2,0,1,0,2.21,2.2A2.2,2.2,0,0,0,572.77,90.33Z"/><path class="cls-2" d="M572.77,98.15a2.2,2.2,0,1,0,2.21,2.21A2.19,2.19,0,0,0,572.77,98.15Z"/><path class="cls-2" d="M572.77,106a2.2,2.2,0,1,0,2.21,2.2A2.2,2.2,0,0,0,572.77,106Z"/><path class="cls-2" d="M572.77,113.76A2.2,2.2,0,1,0,575,116,2.2,2.2,0,0,0,572.77,113.76Z"/><path class="cls-2" d="M572.77,121.58a2.2,2.2,0,1,0,2.21,2.2A2.19,2.19,0,0,0,572.77,121.58Z"/><path class="cls-2" d="M572.77,137.2A2.21,2.21,0,1,0,575,139.4,2.2,2.2,0,0,0,572.77,137.2Z"/><path class="cls-2" d="M572.77,145a2.2,2.2,0,1,0,2.21,2.21A2.2,2.2,0,0,0,572.77,145Z"/><path class="cls-2" d="M572.77,168.44a2.21,2.21,0,1,0,2.21,2.21A2.2,2.2,0,0,0,572.77,168.44Z"/><path class="cls-2" d="M572.77,176.25a2.2,2.2,0,1,0,2.21,2.21A2.2,2.2,0,0,0,572.77,176.25Z"/><path class="cls-2" d="M572.77,184.06a2.2,2.2,0,1,0,2.21,2.2A2.2,2.2,0,0,0,572.77,184.06Z"/><path class="cls-2" d="M572.77,191.87a2.2,2.2,0,1,0,2.21,2.2A2.19,2.19,0,0,0,572.77,191.87Z"/><path class="cls-2" d="M572.77,199.69a2.2,2.2,0,1,0,2.21,2.19A2.19,2.19,0,0,0,572.77,199.69Z"/><path class="cls-2" d="M572.77,207.49A2.2,2.2,0,1,0,575,209.7,2.2,2.2,0,0,0,572.77,207.49Z"/><path class="cls-2" d="M572.77,215.3a2.2,2.2,0,1,0,2.21,2.21A2.21,2.21,0,0,0,572.77,215.3Z"/><path class="cls-2" d="M572.77,223.12a2.2,2.2,0,1,0,2.21,2.2A2.19,2.19,0,0,0,572.77,223.12Z"/><path class="cls-2" d="M572.77,230.92a2.2,2.2,0,1,0,2.21,2.21A2.2,2.2,0,0,0,572.77,230.92Z"/><path class="cls-2" d="M572.77,238.73a2.2,2.2,0,1,0,2.21,2.2A2.19,2.19,0,0,0,572.77,238.73Z"/><path class="cls-2" d="M572.77,246.54a2.2,2.2,0,1,0,2.21,2.21A2.2,2.2,0,0,0,572.77,246.54Z"/><path class="cls-2" d="M572.77,254.36a2.2,2.2,0,1,0,2.21,2.19A2.19,2.19,0,0,0,572.77,254.36Z"/><path class="cls-2" d="M572.77,262.16a2.2,2.2,0,1,0,2.21,2.21A2.2,2.2,0,0,0,572.77,262.16Z"/><path class="cls-2" d="M572.77,270a2.2,2.2,0,1,0,2.21,2.2A2.19,2.19,0,0,0,572.77,270Z"/><path class="cls-2" d="M572.77,277.79A2.2,2.2,0,1,0,575,280,2.19,2.19,0,0,0,572.77,277.79Z"/><path class="cls-2" d="M572.77,285.6a2.2,2.2,0,1,0,2.21,2.2A2.19,2.19,0,0,0,572.77,285.6Z"/><path class="cls-2" d="M572.77,293.41a2.2,2.2,0,1,0,2.21,2.21A2.2,2.2,0,0,0,572.77,293.41Z"/><path class="cls-2" d="M572.77,301.22a2.2,2.2,0,1,0,2.21,2.2A2.19,2.19,0,0,0,572.77,301.22Z"/><circle class="cls-2" cx="564.97" cy="92.54" r="2.2"/><path class="cls-2" d="M565,98.15a2.2,2.2,0,1,0,2.2,2.21A2.2,2.2,0,0,0,565,98.15Z"/><circle class="cls-2" cx="564.97" cy="108.16" r="2.2"/><circle class="cls-2" cx="564.97" cy="115.97" r="2.2"/><circle class="cls-2" cx="564.97" cy="123.78" r="2.2"/><path class="cls-2" d="M565,129.39a2.2,2.2,0,1,0,2.2,2.2A2.2,2.2,0,0,0,565,129.39Z"/><path class="cls-2" d="M565,145a2.2,2.2,0,1,0,2.2,2.21A2.21,2.21,0,0,0,565,145Z"/><path class="cls-2" d="M565,160.63a2.2,2.2,0,1,0,2.2,2.21A2.2,2.2,0,0,0,565,160.63Z"/><ellipse class="cls-2" cx="564.97" cy="170.64" rx="2.2" ry="2.21"/><circle class="cls-2" cx="564.97" cy="178.45" r="2.2"/><path class="cls-2" d="M565,184.06a2.2,2.2,0,1,0,2.2,2.2A2.2,2.2,0,0,0,565,184.06Z"/><circle class="cls-2" cx="564.97" cy="194.07" r="2.2"/><path class="cls-2" d="M565,199.69a2.2,2.2,0,1,0,2.2,2.19A2.19,2.19,0,0,0,565,199.69Z"/><path class="cls-2" d="M565,207.49a2.2,2.2,0,1,0,2.2,2.21A2.2,2.2,0,0,0,565,207.49Z"/><path class="cls-2" d="M565,215.3a2.2,2.2,0,1,0,2.2,2.21A2.21,2.21,0,0,0,565,215.3Z"/><path class="cls-2" d="M565,223.12a2.2,2.2,0,1,0,2.2,2.2A2.19,2.19,0,0,0,565,223.12Z"/><circle class="cls-2" cx="564.97" cy="233.13" r="2.2"/><circle class="cls-2" cx="564.97" cy="240.94" r="2.2"/><circle class="cls-2" cx="564.97" cy="248.75" r="2.2"/><path class="cls-2" d="M565,254.36a2.2,2.2,0,1,0,2.2,2.19A2.19,2.19,0,0,0,565,254.36Z"/><ellipse class="cls-2" cx="564.97" cy="264.37" rx="2.2" ry="2.2"/><circle class="cls-2" cx="564.97" cy="287.8" r="2.2"/><circle class="cls-2" cx="564.97" cy="295.61" r="2.2"/><ellipse class="cls-2" cx="557.16" cy="76.91" rx="2.19" ry="2.2"/><path class="cls-2" d="M557.16,82.53a2.2,2.2,0,1,0,2.2,2.2A2.19,2.19,0,0,0,557.16,82.53Z"/><ellipse class="cls-2" cx="557.16" cy="92.54" rx="2.19" ry="2.2"/><path class="cls-2" d="M557.16,98.15a2.2,2.2,0,1,0,2.2,2.21A2.2,2.2,0,0,0,557.16,98.15Z"/><ellipse class="cls-2" cx="557.16" cy="108.16" rx="2.19" ry="2.2"/><ellipse class="cls-2" cx="557.16" cy="115.97" rx="2.19" ry="2.2"/><ellipse class="cls-2" cx="557.16" cy="123.78" rx="2.19" ry="2.2"/><path class="cls-2" d="M557.16,129.39a2.2,2.2,0,1,0,2.2,2.2A2.2,2.2,0,0,0,557.16,129.39Z"/><ellipse class="cls-2" cx="557.16" cy="139.4" rx="2.19" ry="2.21"/><ellipse class="cls-2" cx="557.16" cy="155.02" rx="2.19" ry="2.2"/><path class="cls-2" d="M557.16,160.63a2.2,2.2,0,1,0,2.2,2.21A2.2,2.2,0,0,0,557.16,160.63Z"/><ellipse class="cls-2" cx="557.16" cy="170.64" rx="2.19" ry="2.21"/><ellipse class="cls-2" cx="557.16" cy="178.45" rx="2.19" ry="2.2"/><path class="cls-2" d="M557.16,184.06a2.2,2.2,0,1,0,2.2,2.2A2.2,2.2,0,0,0,557.16,184.06Z"/><ellipse class="cls-2" cx="557.16" cy="194.07" rx="2.19" ry="2.2"/><path class="cls-2" d="M557.16,199.69a2.2,2.2,0,1,0,2.2,2.19A2.19,2.19,0,0,0,557.16,199.69Z"/><path class="cls-2" d="M557.16,207.49a2.2,2.2,0,1,0,2.2,2.21A2.2,2.2,0,0,0,557.16,207.49Z"/><path class="cls-2" d="M557.16,215.3a2.2,2.2,0,1,0,2.2,2.21A2.21,2.21,0,0,0,557.16,215.3Z"/><path class="cls-2" d="M557.16,223.12a2.2,2.2,0,1,0,2.2,2.2A2.19,2.19,0,0,0,557.16,223.12Z"/><ellipse class="cls-2" cx="557.16" cy="233.13" rx="2.19" ry="2.2"/><ellipse class="cls-2" cx="557.16" cy="240.94" rx="2.19" ry="2.2"/><ellipse class="cls-2" cx="557.16" cy="248.75" rx="2.19" ry="2.2"/><path class="cls-2" d="M557.16,254.36a2.2,2.2,0,1,0,2.2,2.19A2.19,2.19,0,0,0,557.16,254.36Z"/><circle class="cls-2" cx="549.34" cy="76.91" r="2.2"/><path class="cls-2" d="M549.34,98.15a2.2,2.2,0,1,0,2.2,2.21A2.2,2.2,0,0,0,549.34,98.15Z"/><circle class="cls-2" cx="549.34" cy="108.16" r="2.2"/><circle class="cls-2" cx="549.34" cy="115.97" r="2.2"/><circle class="cls-2" cx="549.34" cy="123.78" r="2.2"/><path class="cls-2" d="M549.34,129.39a2.2,2.2,0,1,0,2.2,2.2A2.21,2.21,0,0,0,549.34,129.39Z"/><circle class="cls-2" cx="549.34" cy="155.02" r="2.2"/><path class="cls-2" d="M549.34,160.63a2.2,2.2,0,1,0,2.2,2.21A2.21,2.21,0,0,0,549.34,160.63Z"/><circle class="cls-2" cx="549.34" cy="170.64" r="2.2"/><circle class="cls-2" cx="549.34" cy="178.45" r="2.2"/><path class="cls-2" d="M549.34,184.06a2.2,2.2,0,1,0,2.2,2.2A2.21,2.21,0,0,0,549.34,184.06Z"/><circle class="cls-2" cx="549.34" cy="194.07" r="2.2"/><path class="cls-2" d="M549.34,199.69a2.2,2.2,0,1,0,2.2,2.19A2.2,2.2,0,0,0,549.34,199.69Z"/><path class="cls-2" d="M549.34,207.49a2.2,2.2,0,1,0,2.2,2.21A2.21,2.21,0,0,0,549.34,207.49Z"/><path class="cls-2" d="M549.34,215.3a2.2,2.2,0,1,0,2.2,2.21A2.22,2.22,0,0,0,549.34,215.3Z"/><path class="cls-2" d="M549.34,223.12a2.2,2.2,0,1,0,2.2,2.2A2.2,2.2,0,0,0,549.34,223.12Z"/><circle class="cls-2" cx="549.34" cy="233.13" r="2.2"/><circle class="cls-2" cx="541.54" cy="108.16" r="2.2"/><circle class="cls-2" cx="541.54" cy="115.97" r="2.2"/><circle class="cls-2" cx="541.54" cy="123.78" r="2.2"/><path class="cls-2" d="M541.54,129.39a2.2,2.2,0,1,0,2.2,2.2A2.2,2.2,0,0,0,541.54,129.39Z"/><circle class="cls-2" cx="541.54" cy="155.02" r="2.2"/><path class="cls-2" d="M541.54,160.63a2.2,2.2,0,1,0,2.2,2.21A2.2,2.2,0,0,0,541.54,160.63Z"/><circle class="cls-2" cx="541.54" cy="170.64" r="2.2"/><circle class="cls-2" cx="541.54" cy="178.45" r="2.2"/><path class="cls-2" d="M541.54,184.06a2.2,2.2,0,1,0,2.2,2.2A2.2,2.2,0,0,0,541.54,184.06Z"/><circle class="cls-2" cx="541.54" cy="194.07" r="2.2"/><path class="cls-2" d="M541.54,199.69a2.2,2.2,0,1,0,2.2,2.19A2.19,2.19,0,0,0,541.54,199.69Z"/><path class="cls-2" d="M541.54,207.49a2.2,2.2,0,1,0,2.2,2.21A2.2,2.2,0,0,0,541.54,207.49Z"/><path class="cls-2" d="M541.54,215.3a2.2,2.2,0,1,0,2.2,2.21A2.21,2.21,0,0,0,541.54,215.3Z"/><path class="cls-2" d="M541.54,223.12a2.2,2.2,0,1,0,2.2,2.2A2.19,2.19,0,0,0,541.54,223.12Z"/><circle class="cls-2" cx="541.54" cy="233.13" r="2.2"/><circle class="cls-2" cx="533.73" cy="108.16" r="2.2"/><circle class="cls-2" cx="533.73" cy="115.97" r="2.2"/><path class="cls-2" d="M525.92,113.76a2.2,2.2,0,1,0,2.2,2.21A2.2,2.2,0,0,0,525.92,113.76Z"/><path class="cls-2" d="M518.11,113.76a2.2,2.2,0,1,0,2.2,2.21A2.2,2.2,0,0,0,518.11,113.76Z"/><circle class="cls-2" cx="533.73" cy="123.78" r="2.2"/><path class="cls-2" d="M533.73,129.39a2.2,2.2,0,1,0,2.2,2.2A2.21,2.21,0,0,0,533.73,129.39Z"/><circle class="cls-2" cx="533.73" cy="139.4" r="2.2"/><circle class="cls-2" cx="533.73" cy="155.02" r="2.2"/><path class="cls-2" d="M533.73,160.63a2.2,2.2,0,1,0,2.2,2.21A2.21,2.21,0,0,0,533.73,160.63Z"/><circle class="cls-2" cx="533.73" cy="170.64" r="2.2"/><circle class="cls-2" cx="533.73" cy="178.45" r="2.2"/><path class="cls-2" d="M533.73,184.06a2.2,2.2,0,1,0,2.2,2.2A2.21,2.21,0,0,0,533.73,184.06Z"/><circle class="cls-2" cx="533.73" cy="194.07" r="2.2"/><path class="cls-2" d="M533.73,199.69a2.2,2.2,0,1,0,2.2,2.19A2.2,2.2,0,0,0,533.73,199.69Z"/><path class="cls-2" d="M533.73,207.49a2.2,2.2,0,1,0,2.2,2.21A2.21,2.21,0,0,0,533.73,207.49Z"/><path class="cls-2" d="M533.73,215.3a2.2,2.2,0,1,0,2.2,2.21A2.22,2.22,0,0,0,533.73,215.3Z"/><path class="cls-2" d="M533.73,223.12a2.2,2.2,0,1,0,2.2,2.2A2.2,2.2,0,0,0,533.73,223.12Z"/><circle class="cls-2" cx="533.73" cy="233.13" r="2.2"/><path class="cls-2" d="M525.92,129.39a2.2,2.2,0,1,0,2.2,2.2A2.2,2.2,0,0,0,525.92,129.39Z"/><ellipse class="cls-2" cx="525.92" cy="139.4" rx="2.2" ry="2.21"/><path class="cls-2" d="M525.92,145a2.2,2.2,0,1,0,2.2,2.21A2.2,2.2,0,0,0,525.92,145Z"/><ellipse class="cls-2" cx="525.92" cy="155.02" rx="2.2" ry="2.2"/><path class="cls-2" d="M525.92,160.63a2.2,2.2,0,1,0,2.2,2.21A2.2,2.2,0,0,0,525.92,160.63Z"/><ellipse class="cls-2" cx="525.92" cy="170.64" rx="2.2" ry="2.21"/><circle class="cls-2" cx="525.92" cy="178.45" r="2.2"/><path class="cls-2" d="M525.92,184.06a2.2,2.2,0,1,0,2.2,2.2A2.2,2.2,0,0,0,525.92,184.06Z"/><ellipse class="cls-2" cx="525.92" cy="194.07" rx="2.2" ry="2.2"/><path class="cls-2" d="M525.92,199.69a2.2,2.2,0,1,0,2.2,2.19A2.19,2.19,0,0,0,525.92,199.69Z"/><path class="cls-2" d="M525.92,207.49a2.2,2.2,0,1,0,2.2,2.21A2.2,2.2,0,0,0,525.92,207.49Z"/><path class="cls-2" d="M525.92,215.3a2.2,2.2,0,1,0,2.2,2.21A2.21,2.21,0,0,0,525.92,215.3Z"/><path class="cls-2" d="M525.92,223.12a2.2,2.2,0,1,0,2.2,2.2A2.19,2.19,0,0,0,525.92,223.12Z"/><ellipse class="cls-2" cx="525.92" cy="233.13" rx="2.2" ry="2.2"/><path class="cls-2" d="M518.11,129.39a2.2,2.2,0,1,0,2.2,2.2A2.2,2.2,0,0,0,518.11,129.39Z"/><path class="cls-2" d="M518.11,137.2a2.21,2.21,0,1,0,2.2,2.21A2.2,2.2,0,0,0,518.11,137.2Z"/><path class="cls-2" d="M518.11,145a2.2,2.2,0,1,0,2.2,2.21A2.21,2.21,0,0,0,518.11,145Z"/><path class="cls-2" d="M518.11,152.82a2.2,2.2,0,1,0,2.2,2.2A2.2,2.2,0,0,0,518.11,152.82Z"/><path class="cls-2" d="M518.11,160.63a2.2,2.2,0,1,0,2.2,2.21A2.2,2.2,0,0,0,518.11,160.63Z"/><path class="cls-2" d="M518.11,168.44a2.21,2.21,0,1,0,2.2,2.21A2.2,2.2,0,0,0,518.11,168.44Z"/><path class="cls-2" d="M518.11,176.25a2.2,2.2,0,1,0,2.2,2.21A2.2,2.2,0,0,0,518.11,176.25Z"/><path class="cls-2" d="M518.11,184.06a2.2,2.2,0,1,0,2.2,2.2A2.2,2.2,0,0,0,518.11,184.06Z"/><path class="cls-2" d="M518.11,191.87a2.2,2.2,0,1,0,2.2,2.2A2.2,2.2,0,0,0,518.11,191.87Z"/><path class="cls-2" d="M518.11,199.69a2.2,2.2,0,1,0,2.2,2.19A2.19,2.19,0,0,0,518.11,199.69Z"/><path class="cls-2" d="M518.11,207.49a2.2,2.2,0,1,0,2.2,2.21A2.2,2.2,0,0,0,518.11,207.49Z"/><path class="cls-2" d="M518.11,215.3a2.2,2.2,0,1,0,2.2,2.21A2.21,2.21,0,0,0,518.11,215.3Z"/><path class="cls-2" d="M518.11,223.12a2.2,2.2,0,1,0,2.2,2.2A2.19,2.19,0,0,0,518.11,223.12Z"/><path class="cls-2" d="M518.11,230.92a2.2,2.2,0,1,0,2.2,2.21A2.2,2.2,0,0,0,518.11,230.92Z"/><path class="cls-2" d="M518.11,238.73a2.2,2.2,0,1,0,2.2,2.2A2.2,2.2,0,0,0,518.11,238.73Z"/><path class="cls-2" d="M510.29,129.39a2.2,2.2,0,1,0,2.2,2.2A2.21,2.21,0,0,0,510.29,129.39Z"/><ellipse class="cls-2" cx="510.29" cy="139.4" rx="2.2" ry="2.21"/><path class="cls-2" d="M510.29,145a2.2,2.2,0,1,0,2.2,2.21A2.21,2.21,0,0,0,510.29,145Z"/><path class="cls-2" d="M510.29,160.63a2.2,2.2,0,1,0,2.2,2.21A2.21,2.21,0,0,0,510.29,160.63Z"/><ellipse class="cls-2" cx="510.29" cy="170.64" rx="2.2" ry="2.21"/><circle class="cls-2" cx="510.29" cy="178.45" r="2.2"/><path class="cls-2" d="M510.29,184.06a2.2,2.2,0,1,0,2.2,2.2A2.21,2.21,0,0,0,510.29,184.06Z"/><circle class="cls-2" cx="510.29" cy="194.07" r="2.2"/><path class="cls-2" d="M510.29,199.69a2.2,2.2,0,1,0,2.2,2.19A2.2,2.2,0,0,0,510.29,199.69Z"/><path class="cls-2" d="M510.29,207.49a2.2,2.2,0,1,0,2.2,2.21A2.21,2.21,0,0,0,510.29,207.49Z"/><path class="cls-2" d="M510.29,215.3a2.2,2.2,0,1,0,2.2,2.21A2.22,2.22,0,0,0,510.29,215.3Z"/><path class="cls-2" d="M510.29,223.12a2.2,2.2,0,1,0,2.2,2.2A2.2,2.2,0,0,0,510.29,223.12Z"/><circle class="cls-2" cx="510.29" cy="233.13" r="2.2"/><circle class="cls-2" cx="510.29" cy="240.94" r="2.2"/><path class="cls-2" d="M502.49,176.25a2.2,2.2,0,1,0,2.2,2.21A2.2,2.2,0,0,0,502.49,176.25Z"/><path class="cls-2" d="M502.49,184.06a2.2,2.2,0,1,0,2.2,2.2A2.2,2.2,0,0,0,502.49,184.06Z"/><path class="cls-2" d="M502.49,191.87a2.2,2.2,0,1,0,2.2,2.2A2.19,2.19,0,0,0,502.49,191.87Z"/><path class="cls-2" d="M502.49,199.69a2.2,2.2,0,1,0,2.2,2.19A2.19,2.19,0,0,0,502.49,199.69Z"/><path class="cls-2" d="M502.49,207.49a2.2,2.2,0,1,0,2.2,2.21A2.2,2.2,0,0,0,502.49,207.49Z"/><path class="cls-2" d="M502.49,215.3a2.2,2.2,0,1,0,2.2,2.21A2.21,2.21,0,0,0,502.49,215.3Z"/><path class="cls-2" d="M502.49,223.12a2.2,2.2,0,1,0,2.2,2.2A2.19,2.19,0,0,0,502.49,223.12Z"/><path class="cls-2" d="M502.49,230.92a2.2,2.2,0,1,0,2.2,2.21A2.2,2.2,0,0,0,502.49,230.92Z"/><path class="cls-2" d="M494.68,184.06a2.2,2.2,0,1,0,2.2,2.2A2.2,2.2,0,0,0,494.68,184.06Z"/><path class="cls-2" d="M494.68,191.87a2.2,2.2,0,1,0,2.2,2.2A2.2,2.2,0,0,0,494.68,191.87Z"/><path class="cls-2" d="M494.68,199.69a2.2,2.2,0,1,0,2.2,2.19A2.19,2.19,0,0,0,494.68,199.69Z"/><path class="cls-2" d="M494.68,207.49a2.2,2.2,0,1,0,2.2,2.21A2.21,2.21,0,0,0,494.68,207.49Z"/><path class="cls-2" d="M494.68,215.3a2.2,2.2,0,1,0,2.2,2.21A2.21,2.21,0,0,0,494.68,215.3Z"/><path class="cls-2" d="M486.87,191.87a2.2,2.2,0,1,0,2.2,2.2A2.2,2.2,0,0,0,486.87,191.87Z"/><circle class="cls-2" cx="471.24" cy="22.24" r="2.2"/><circle class="cls-2" cx="471.24" cy="30.05" r="2.2"/><circle class="cls-2" cx="463.43" cy="22.24" r="2.2"/><circle class="cls-2" cx="463.43" cy="30.05" r="2.2"/><circle class="cls-2" cx="455.62" cy="14.43" r="2.2"/><circle class="cls-2" cx="455.62" cy="22.24" r="2.2"/><circle class="cls-2" cx="455.62" cy="30.05" r="2.2"/><path class="cls-2" d="M455.62,35.66a2.2,2.2,0,1,0,2.21,2.19A2.19,2.19,0,0,0,455.62,35.66Z"/><circle class="cls-2" cx="447.81" cy="14.43" r="2.2"/><circle class="cls-2" cx="447.81" cy="22.24" r="2.2"/><circle class="cls-2" cx="447.81" cy="30.05" r="2.2"/><path class="cls-2" d="M447.81,35.66a2.2,2.2,0,1,0,2.2,2.19A2.2,2.2,0,0,0,447.81,35.66Z"/><circle class="cls-2" cx="440" cy="14.43" r="2.2"/><circle class="cls-2" cx="440" cy="22.24" r="2.2"/><circle class="cls-2" cx="440" cy="30.05" r="2.2"/><path class="cls-2" d="M440,35.66a2.2,2.2,0,1,0,2.2,2.19A2.19,2.19,0,0,0,440,35.66Z"/><circle class="cls-2" cx="440" cy="45.67" r="2.2"/><ellipse class="cls-2" cx="440" cy="264.37" rx="2.2" ry="2.2"/><path class="cls-2" d="M440,270a2.2,2.2,0,1,0,2.2,2.2A2.19,2.19,0,0,0,440,270Z"/><path class="cls-2" d="M432.19,4.41a2.2,2.2,0,1,0,2.21,2.2A2.2,2.2,0,0,0,432.19,4.41Z"/><ellipse class="cls-2" cx="432.19" cy="14.43" rx="2.2" ry="2.2"/><circle class="cls-2" cx="432.19" cy="22.24" r="2.2"/><circle class="cls-2" cx="432.19" cy="30.05" r="2.2"/><path class="cls-2" d="M432.19,35.66a2.2,2.2,0,1,0,2.21,2.19A2.2,2.2,0,0,0,432.19,35.66Z"/><circle class="cls-2" cx="432.19" cy="45.67" r="2.2"/><circle class="cls-2" cx="432.19" cy="264.37" r="2.2"/><path class="cls-2" d="M432.19,270a2.2,2.2,0,1,0,2.21,2.2A2.2,2.2,0,0,0,432.19,270Z"/><path class="cls-2" d="M432.19,277.79a2.2,2.2,0,1,0,2.21,2.2A2.2,2.2,0,0,0,432.19,277.79Z"/><ellipse class="cls-2" cx="432.19" cy="287.8" rx="2.2" ry="2.2"/><circle class="cls-2" cx="432.19" cy="295.61" r="2.2"/><path class="cls-2" d="M424.38,4.41a2.2,2.2,0,1,0,2.2,2.2A2.2,2.2,0,0,0,424.38,4.41Z"/><circle class="cls-2" cx="424.38" cy="14.43" r="2.2"/><circle class="cls-2" cx="424.38" cy="22.24" r="2.2"/><circle class="cls-2" cx="424.38" cy="30.05" r="2.2"/><path class="cls-2" d="M424.38,35.66a2.2,2.2,0,1,0,2.2,2.19A2.2,2.2,0,0,0,424.38,35.66Z"/><circle class="cls-2" cx="424.38" cy="45.67" r="2.2"/><path class="cls-2" d="M424.38,51.28a2.2,2.2,0,1,0,2.2,2.2A2.21,2.21,0,0,0,424.38,51.28Z"/><path class="cls-2" d="M424.38,59.09a2.2,2.2,0,1,0,2.2,2.2A2.2,2.2,0,0,0,424.38,59.09Z"/><circle class="cls-2" cx="424.38" cy="264.37" r="2.2"/><path class="cls-2" d="M424.38,270a2.2,2.2,0,1,0,2.2,2.2A2.2,2.2,0,0,0,424.38,270Z"/><path class="cls-2" d="M424.38,277.79a2.2,2.2,0,1,0,2.2,2.2A2.2,2.2,0,0,0,424.38,277.79Z"/><circle class="cls-2" cx="424.38" cy="287.8" r="2.2"/><circle class="cls-2" cx="424.38" cy="295.61" r="2.2"/><circle class="cls-2" cx="424.38" cy="303.42" r="2.2"/><path class="cls-2" d="M424.38,309a2.2,2.2,0,1,0,2.2,2.2A2.2,2.2,0,0,0,424.38,309Z"/><path class="cls-2" d="M416.57,4.41a2.2,2.2,0,1,0,2.21,2.2A2.2,2.2,0,0,0,416.57,4.41Z"/><path class="cls-2" d="M416.57,12.23a2.2,2.2,0,1,0,2.21,2.2A2.2,2.2,0,0,0,416.57,12.23Z"/><path class="cls-2" d="M416.57,20a2.2,2.2,0,1,0,2.21,2.2A2.2,2.2,0,0,0,416.57,20Z"/><path class="cls-2" d="M416.57,27.85a2.2,2.2,0,1,0,2.21,2.2A2.2,2.2,0,0,0,416.57,27.85Z"/><path class="cls-2" d="M416.57,35.66a2.2,2.2,0,1,0,2.21,2.19A2.2,2.2,0,0,0,416.57,35.66Z"/><path class="cls-2" d="M416.57,43.47a2.2,2.2,0,1,0,2.21,2.21A2.2,2.2,0,0,0,416.57,43.47Z"/><path class="cls-2" d="M416.57,51.28a2.2,2.2,0,1,0,2.21,2.2A2.21,2.21,0,0,0,416.57,51.28Z"/><path class="cls-2" d="M416.57,59.09a2.2,2.2,0,1,0,2.21,2.2A2.2,2.2,0,0,0,416.57,59.09Z"/><path class="cls-2" d="M416.57,66.9a2.2,2.2,0,1,0,2.21,2.21A2.2,2.2,0,0,0,416.57,66.9Z"/><path class="cls-2" d="M416.57,254.36a2.2,2.2,0,1,0,2.21,2.19A2.2,2.2,0,0,0,416.57,254.36Z"/><path class="cls-2" d="M416.57,262.16a2.2,2.2,0,1,0,2.21,2.21A2.21,2.21,0,0,0,416.57,262.16Z"/><path class="cls-2" d="M416.57,270a2.2,2.2,0,1,0,2.21,2.2A2.2,2.2,0,0,0,416.57,270Z"/><path class="cls-2" d="M416.57,277.79a2.2,2.2,0,1,0,2.21,2.2A2.2,2.2,0,0,0,416.57,277.79Z"/><path class="cls-2" d="M416.57,285.6a2.2,2.2,0,1,0,2.21,2.2A2.2,2.2,0,0,0,416.57,285.6Z"/><path class="cls-2" d="M416.57,293.41a2.2,2.2,0,1,0,2.21,2.21A2.2,2.2,0,0,0,416.57,293.41Z"/><path class="cls-2" d="M416.57,301.22a2.2,2.2,0,1,0,2.21,2.2A2.2,2.2,0,0,0,416.57,301.22Z"/><path class="cls-2" d="M416.57,309a2.2,2.2,0,1,0,2.21,2.2A2.2,2.2,0,0,0,416.57,309Z"/><path class="cls-2" d="M408.75,4.41A2.2,2.2,0,1,0,411,6.61,2.2,2.2,0,0,0,408.75,4.41Z"/><ellipse class="cls-2" cx="408.76" cy="14.43" rx="2.2" ry="2.2"/><circle class="cls-2" cx="408.76" cy="22.24" r="2.2"/><circle class="cls-2" cx="408.76" cy="30.05" r="2.2"/><path class="cls-2" d="M408.75,35.66A2.2,2.2,0,1,0,411,37.86,2.2,2.2,0,0,0,408.75,35.66Z"/><circle class="cls-2" cx="408.76" cy="45.67" r="2.2"/><path class="cls-2" d="M408.75,51.28a2.2,2.2,0,1,0,2.21,2.2A2.21,2.21,0,0,0,408.75,51.28Z"/><path class="cls-2" d="M408.75,59.09a2.2,2.2,0,1,0,2.21,2.2A2.2,2.2,0,0,0,408.75,59.09Z"/><circle class="cls-2" cx="408.76" cy="69.1" r="2.2"/><path class="cls-2" d="M408.75,254.36a2.2,2.2,0,1,0,2.21,2.19A2.2,2.2,0,0,0,408.75,254.36Z"/><circle class="cls-2" cx="408.76" cy="264.37" r="2.2"/><path class="cls-2" d="M408.75,270a2.2,2.2,0,1,0,2.21,2.2A2.2,2.2,0,0,0,408.75,270Z"/><path class="cls-2" d="M408.75,277.79A2.2,2.2,0,1,0,411,280,2.2,2.2,0,0,0,408.75,277.79Z"/><ellipse class="cls-2" cx="408.76" cy="287.8" rx="2.2" ry="2.2"/><circle class="cls-2" cx="408.76" cy="295.61" r="2.2"/><circle class="cls-2" cx="408.76" cy="303.42" r="2.2"/><path class="cls-2" d="M408.75,309a2.2,2.2,0,1,0,2.21,2.2A2.2,2.2,0,0,0,408.75,309Z"/><ellipse class="cls-2" cx="408.76" cy="319.04" rx="2.2" ry="2.2"/><circle class="cls-2" cx="400.94" cy="14.43" r="2.2"/><ellipse class="cls-2" cx="400.94" cy="22.24" rx="2.2" ry="2.2"/><circle class="cls-2" cx="400.94" cy="30.05" r="2.2"/><path class="cls-2" d="M400.95,35.66a2.2,2.2,0,1,0,2.2,2.19A2.2,2.2,0,0,0,400.95,35.66Z"/><ellipse class="cls-2" cx="400.94" cy="45.67" rx="2.2" ry="2.2"/><path class="cls-2" d="M400.95,51.28a2.2,2.2,0,1,0,2.2,2.2A2.21,2.21,0,0,0,400.95,51.28Z"/><path class="cls-2" d="M400.95,59.09a2.2,2.2,0,1,0,2.2,2.2A2.2,2.2,0,0,0,400.95,59.09Z"/><circle class="cls-2" cx="400.94" cy="240.94" r="2.2"/><circle class="cls-2" cx="400.94" cy="248.75" r="2.2"/><path class="cls-2" d="M400.95,254.36a2.2,2.2,0,1,0,2.2,2.19A2.2,2.2,0,0,0,400.95,254.36Z"/><ellipse class="cls-2" cx="400.94" cy="264.37" rx="2.2" ry="2.2"/><path class="cls-2" d="M400.95,270a2.2,2.2,0,1,0,2.2,2.2A2.2,2.2,0,0,0,400.95,270Z"/><path class="cls-2" d="M400.95,277.79a2.2,2.2,0,1,0,2.2,2.2A2.2,2.2,0,0,0,400.95,277.79Z"/><circle class="cls-2" cx="400.94" cy="287.8" r="2.2"/><circle class="cls-2" cx="400.94" cy="295.61" r="2.2"/><circle class="cls-2" cx="400.94" cy="303.42" r="2.2"/><path class="cls-2" d="M400.95,309a2.2,2.2,0,1,0,2.2,2.2A2.2,2.2,0,0,0,400.95,309Z"/><circle class="cls-2" cx="400.94" cy="319.04" r="2.2"/><path class="cls-2" d="M400.95,324.64a2.21,2.21,0,1,0,2.2,2.22A2.21,2.21,0,0,0,400.95,324.64Z"/><circle class="cls-2" cx="400.94" cy="334.67" r="2.2"/><circle class="cls-2" cx="393.14" cy="14.43" r="2.2"/><circle class="cls-2" cx="393.14" cy="22.24" r="2.2"/><circle class="cls-2" cx="393.14" cy="30.05" r="2.2"/><path class="cls-2" d="M393.14,35.66a2.2,2.2,0,1,0,2.2,2.19A2.2,2.2,0,0,0,393.14,35.66Z"/><circle class="cls-2" cx="393.14" cy="45.67" r="2.2"/><circle class="cls-2" cx="393.14" cy="115.97" r="2.2"/><circle class="cls-2" cx="393.14" cy="240.94" r="2.2"/><circle class="cls-2" cx="393.14" cy="248.75" r="2.2"/><path class="cls-2" d="M393.14,254.36a2.2,2.2,0,1,0,2.2,2.19A2.2,2.2,0,0,0,393.14,254.36Z"/><ellipse class="cls-2" cx="393.14" cy="264.37" rx="2.2" ry="2.2"/><path class="cls-2" d="M393.14,270a2.2,2.2,0,1,0,2.2,2.2A2.2,2.2,0,0,0,393.14,270Z"/><path class="cls-2" d="M393.14,277.79a2.2,2.2,0,1,0,2.2,2.2A2.2,2.2,0,0,0,393.14,277.79Z"/><circle class="cls-2" cx="393.14" cy="287.8" r="2.2"/><circle class="cls-2" cx="393.14" cy="295.61" r="2.2"/><circle class="cls-2" cx="393.14" cy="303.42" r="2.2"/><path class="cls-2" d="M393.14,309a2.2,2.2,0,1,0,2.2,2.2A2.2,2.2,0,0,0,393.14,309Z"/><circle class="cls-2" cx="393.14" cy="319.04" r="2.2"/><path class="cls-2" d="M393.14,324.64a2.21,2.21,0,1,0,2.2,2.22A2.21,2.21,0,0,0,393.14,324.64Z"/><circle class="cls-2" cx="393.14" cy="334.67" r="2.2"/><circle class="cls-2" cx="393.14" cy="342.48" r="2.2"/><path class="cls-2" d="M385.32,98.15a2.2,2.2,0,1,0,2.2,2.21A2.2,2.2,0,0,0,385.32,98.15Z"/><circle class="cls-2" cx="385.32" cy="108.16" r="2.2"/><circle class="cls-2" cx="385.32" cy="115.97" r="2.2"/><circle class="cls-2" cx="385.32" cy="240.94" r="2.2"/><circle class="cls-2" cx="385.32" cy="248.75" r="2.2"/><path class="cls-2" d="M385.32,254.36a2.2,2.2,0,1,0,2.2,2.19A2.2,2.2,0,0,0,385.32,254.36Z"/><circle class="cls-2" cx="385.32" cy="264.37" r="2.2"/><path class="cls-2" d="M385.32,270a2.2,2.2,0,1,0,2.2,2.2A2.2,2.2,0,0,0,385.32,270Z"/><path class="cls-2" d="M385.32,277.79a2.2,2.2,0,1,0,2.2,2.2A2.2,2.2,0,0,0,385.32,277.79Z"/><circle class="cls-2" cx="385.32" cy="287.8" r="2.2"/><circle class="cls-2" cx="385.32" cy="295.61" r="2.2"/><circle class="cls-2" cx="385.32" cy="303.42" r="2.2"/><path class="cls-2" d="M385.32,309a2.2,2.2,0,1,0,2.2,2.2A2.2,2.2,0,0,0,385.32,309Z"/><circle class="cls-2" cx="385.32" cy="319.04" r="2.2"/><path class="cls-2" d="M385.32,324.64a2.21,2.21,0,1,0,2.2,2.22A2.21,2.21,0,0,0,385.32,324.64Z"/><circle class="cls-2" cx="385.32" cy="334.67" r="2.2"/><circle class="cls-2" cx="385.32" cy="342.48" r="2.2"/><circle class="cls-2" cx="385.32" cy="350.28" r="2.2"/><circle class="cls-2" cx="377.51" cy="92.54" r="2.2"/><path class="cls-2" d="M377.51,98.15a2.2,2.2,0,1,0,2.2,2.21A2.2,2.2,0,0,0,377.51,98.15Z"/><circle class="cls-2" cx="377.51" cy="115.97" r="2.2"/><circle class="cls-2" cx="377.51" cy="233.13" r="2.2"/><circle class="cls-2" cx="377.51" cy="240.94" r="2.2"/><circle class="cls-2" cx="377.51" cy="248.75" r="2.2"/><path class="cls-2" d="M377.51,254.36a2.2,2.2,0,1,0,2.2,2.19A2.19,2.19,0,0,0,377.51,254.36Z"/><ellipse class="cls-2" cx="377.51" cy="264.37" rx="2.2" ry="2.2"/><path class="cls-2" d="M377.51,270a2.2,2.2,0,1,0,2.2,2.2A2.2,2.2,0,0,0,377.51,270Z"/><path class="cls-2" d="M377.51,277.79a2.2,2.2,0,1,0,2.2,2.2A2.2,2.2,0,0,0,377.51,277.79Z"/><circle class="cls-2" cx="377.51" cy="287.8" r="2.2"/><circle class="cls-2" cx="377.51" cy="295.61" r="2.2"/><circle class="cls-2" cx="377.51" cy="303.42" r="2.2"/><path class="cls-2" d="M377.51,309a2.2,2.2,0,1,0,2.2,2.2A2.2,2.2,0,0,0,377.51,309Z"/><circle class="cls-2" cx="377.51" cy="319.04" r="2.2"/><path class="cls-2" d="M377.51,324.64a2.21,2.21,0,1,0,2.2,2.22A2.21,2.21,0,0,0,377.51,324.64Z"/><circle class="cls-2" cx="377.51" cy="334.67" r="2.2"/><circle class="cls-2" cx="377.51" cy="342.48" r="2.2"/><circle class="cls-2" cx="377.51" cy="350.28" r="2.2"/><path class="cls-2" d="M377.51,355.89a2.21,2.21,0,1,0,2.2,2.21A2.21,2.21,0,0,0,377.51,355.89Z"/><path class="cls-2" d="M369.7,43.47a2.2,2.2,0,1,0,2.21,2.21A2.21,2.21,0,0,0,369.7,43.47Z"/><path class="cls-2" d="M369.7,82.53a2.2,2.2,0,1,0,2.21,2.2A2.2,2.2,0,0,0,369.7,82.53Z"/><path class="cls-2" d="M369.7,90.33a2.2,2.2,0,1,0,2.21,2.2A2.21,2.21,0,0,0,369.7,90.33Z"/><path class="cls-2" d="M369.7,98.15a2.2,2.2,0,1,0,2.21,2.21A2.2,2.2,0,0,0,369.7,98.15Z"/><path class="cls-2" d="M369.7,121.58a2.2,2.2,0,1,0,2.21,2.2A2.2,2.2,0,0,0,369.7,121.58Z"/><path class="cls-2" d="M369.7,223.12a2.2,2.2,0,1,0,2.21,2.2A2.2,2.2,0,0,0,369.7,223.12Z"/><path class="cls-2" d="M369.7,230.92a2.2,2.2,0,1,0,2.21,2.21A2.21,2.21,0,0,0,369.7,230.92Z"/><path class="cls-2" d="M369.7,238.73a2.2,2.2,0,1,0,2.21,2.2A2.2,2.2,0,0,0,369.7,238.73Z"/><path class="cls-2" d="M369.7,246.54a2.2,2.2,0,1,0,2.21,2.21A2.21,2.21,0,0,0,369.7,246.54Z"/><path class="cls-2" d="M369.7,254.36a2.2,2.2,0,1,0,2.21,2.19A2.2,2.2,0,0,0,369.7,254.36Z"/><path class="cls-2" d="M369.7,262.16a2.2,2.2,0,1,0,2.21,2.21A2.21,2.21,0,0,0,369.7,262.16Z"/><path class="cls-2" d="M369.7,270a2.2,2.2,0,1,0,2.21,2.2A2.2,2.2,0,0,0,369.7,270Z"/><path class="cls-2" d="M369.7,277.79a2.2,2.2,0,1,0,2.21,2.2A2.2,2.2,0,0,0,369.7,277.79Z"/><path class="cls-2" d="M369.7,285.6a2.2,2.2,0,1,0,2.21,2.2A2.2,2.2,0,0,0,369.7,285.6Z"/><path class="cls-2" d="M369.7,293.41a2.2,2.2,0,1,0,2.21,2.21A2.21,2.21,0,0,0,369.7,293.41Z"/><path class="cls-2" d="M369.7,301.22a2.2,2.2,0,1,0,2.21,2.2A2.2,2.2,0,0,0,369.7,301.22Z"/><path class="cls-2" d="M369.7,309a2.2,2.2,0,1,0,2.21,2.2A2.2,2.2,0,0,0,369.7,309Z"/><path class="cls-2" d="M369.7,316.84a2.2,2.2,0,1,0,2.21,2.2A2.2,2.2,0,0,0,369.7,316.84Z"/><path class="cls-2" d="M369.7,324.64a2.21,2.21,0,1,0,2.21,2.22A2.21,2.21,0,0,0,369.7,324.64Z"/><path class="cls-2" d="M369.7,332.46a2.2,2.2,0,1,0,2.21,2.2A2.21,2.21,0,0,0,369.7,332.46Z"/><path class="cls-2" d="M369.7,340.28a2.2,2.2,0,1,0,2.21,2.2A2.2,2.2,0,0,0,369.7,340.28Z"/><path class="cls-2" d="M369.7,348.09a2.2,2.2,0,1,0,2.21,2.2A2.2,2.2,0,0,0,369.7,348.09Z"/><path class="cls-2" d="M369.7,355.89a2.21,2.21,0,1,0,2.21,2.21A2.21,2.21,0,0,0,369.7,355.89Z"/><path class="cls-2" d="M369.7,363.71a2.2,2.2,0,1,0,2.21,2.19A2.2,2.2,0,0,0,369.7,363.71Z"/><path class="cls-2" d="M361.89,35.66a2.2,2.2,0,1,0,2.21,2.19A2.19,2.19,0,0,0,361.89,35.66Z"/><circle class="cls-2" cx="361.89" cy="45.67" r="2.2"/><path class="cls-2" d="M361.89,51.28a2.2,2.2,0,1,0,2.21,2.2A2.2,2.2,0,0,0,361.89,51.28Z"/><path class="cls-2" d="M361.89,59.09a2.2,2.2,0,1,0,2.21,2.2A2.2,2.2,0,0,0,361.89,59.09Z"/><circle class="cls-2" cx="361.89" cy="76.91" r="2.2"/><path class="cls-2" d="M361.89,82.53a2.2,2.2,0,1,0,2.21,2.2A2.2,2.2,0,0,0,361.89,82.53Z"/><circle class="cls-2" cx="361.89" cy="92.54" r="2.2"/><path class="cls-2" d="M361.89,98.15a2.2,2.2,0,1,0,2.21,2.21A2.2,2.2,0,0,0,361.89,98.15Z"/><circle class="cls-2" cx="361.89" cy="115.97" r="2.2"/><circle class="cls-2" cx="361.89" cy="123.78" r="2.2"/><path class="cls-2" d="M361.89,199.69a2.2,2.2,0,1,0,2.21,2.19A2.19,2.19,0,0,0,361.89,199.69Z"/><path class="cls-2" d="M361.89,223.12a2.2,2.2,0,1,0,2.21,2.2A2.19,2.19,0,0,0,361.89,223.12Z"/><circle class="cls-2" cx="361.89" cy="233.13" r="2.2"/><circle class="cls-2" cx="361.89" cy="240.94" r="2.2"/><circle class="cls-2" cx="361.89" cy="248.75" r="2.2"/><path class="cls-2" d="M361.89,254.36a2.2,2.2,0,1,0,2.21,2.19A2.19,2.19,0,0,0,361.89,254.36Z"/><circle class="cls-2" cx="361.89" cy="264.37" r="2.2"/><path class="cls-2" d="M361.89,270a2.2,2.2,0,1,0,2.21,2.2A2.19,2.19,0,0,0,361.89,270Z"/><path class="cls-2" d="M361.89,277.79a2.2,2.2,0,1,0,2.21,2.2A2.2,2.2,0,0,0,361.89,277.79Z"/><circle class="cls-2" cx="361.89" cy="287.8" r="2.2"/><circle class="cls-2" cx="361.89" cy="295.61" r="2.2"/><circle class="cls-2" cx="361.89" cy="303.42" r="2.2"/><path class="cls-2" d="M361.89,309a2.2,2.2,0,1,0,2.21,2.2A2.2,2.2,0,0,0,361.89,309Z"/><circle class="cls-2" cx="361.89" cy="319.04" r="2.2"/><path class="cls-2" d="M361.89,324.64a2.21,2.21,0,1,0,2.21,2.22A2.21,2.21,0,0,0,361.89,324.64Z"/><circle class="cls-2" cx="361.89" cy="334.67" r="2.2"/><ellipse class="cls-2" cx="361.89" cy="342.48" rx="2.2" ry="2.2"/><ellipse class="cls-2" cx="361.89" cy="350.28" rx="2.2" ry="2.2"/><path class="cls-2" d="M361.89,355.89a2.21,2.21,0,1,0,2.21,2.21A2.21,2.21,0,0,0,361.89,355.89Z"/><path class="cls-2" d="M361.89,363.71a2.2,2.2,0,1,0,2.21,2.19A2.19,2.19,0,0,0,361.89,363.71Z"/><ellipse class="cls-2" cx="361.89" cy="373.72" rx="2.2" ry="2.21"/><path class="cls-2" d="M354.08,35.66a2.2,2.2,0,1,0,2.21,2.19A2.2,2.2,0,0,0,354.08,35.66Z"/><circle class="cls-2" cx="354.08" cy="45.67" r="2.2"/><path class="cls-2" d="M354.08,51.28a2.2,2.2,0,1,0,2.21,2.2A2.21,2.21,0,0,0,354.08,51.28Z"/><path class="cls-2" d="M354.08,59.09a2.2,2.2,0,1,0,2.21,2.2A2.2,2.2,0,0,0,354.08,59.09Z"/><circle class="cls-2" cx="354.08" cy="76.91" r="2.2"/><path class="cls-2" d="M354.08,82.53a2.2,2.2,0,1,0,2.21,2.2A2.2,2.2,0,0,0,354.08,82.53Z"/><circle class="cls-2" cx="354.08" cy="92.54" r="2.2"/><path class="cls-2" d="M354.08,98.15a2.2,2.2,0,1,0,2.21,2.21A2.2,2.2,0,0,0,354.08,98.15Z"/><circle class="cls-2" cx="354.08" cy="108.16" r="2.2"/><circle class="cls-2" cx="354.08" cy="115.97" r="2.2"/><circle class="cls-2" cx="354.08" cy="123.78" r="2.2"/><path class="cls-2" d="M354.08,199.69a2.2,2.2,0,1,0,2.21,2.19A2.19,2.19,0,0,0,354.08,199.69Z"/><path class="cls-2" d="M354.08,223.12a2.2,2.2,0,1,0,2.21,2.2A2.19,2.19,0,0,0,354.08,223.12Z"/><circle class="cls-2" cx="354.08" cy="233.13" r="2.2"/><circle class="cls-2" cx="354.08" cy="240.94" r="2.2"/><circle class="cls-2" cx="354.08" cy="248.75" r="2.2"/><path class="cls-2" d="M354.08,254.36a2.2,2.2,0,1,0,2.21,2.19A2.2,2.2,0,0,0,354.08,254.36Z"/><circle class="cls-2" cx="354.08" cy="264.37" r="2.2"/><path class="cls-2" d="M354.08,270a2.2,2.2,0,1,0,2.21,2.2A2.2,2.2,0,0,0,354.08,270Z"/><path class="cls-2" d="M354.08,277.79a2.2,2.2,0,1,0,2.21,2.2A2.2,2.2,0,0,0,354.08,277.79Z"/><circle class="cls-2" cx="354.08" cy="287.8" r="2.2"/><circle class="cls-2" cx="354.08" cy="295.61" r="2.2"/><circle class="cls-2" cx="354.08" cy="303.42" r="2.2"/><path class="cls-2" d="M354.08,309a2.2,2.2,0,1,0,2.21,2.2A2.2,2.2,0,0,0,354.08,309Z"/><circle class="cls-2" cx="354.08" cy="319.04" r="2.2"/><path class="cls-2" d="M354.08,324.64a2.21,2.21,0,1,0,2.21,2.22A2.21,2.21,0,0,0,354.08,324.64Z"/><circle class="cls-2" cx="354.08" cy="334.67" r="2.2"/><ellipse class="cls-2" cx="354.08" cy="342.48" rx="2.2" ry="2.2"/><ellipse class="cls-2" cx="354.08" cy="350.28" rx="2.2" ry="2.2"/><path class="cls-2" d="M354.08,355.89a2.21,2.21,0,1,0,2.21,2.21A2.21,2.21,0,0,0,354.08,355.89Z"/><path class="cls-2" d="M354.08,363.71a2.2,2.2,0,1,0,2.21,2.19A2.2,2.2,0,0,0,354.08,363.71Z"/><path class="cls-2" d="M346.27,35.66a2.2,2.2,0,1,0,2.19,2.19A2.2,2.2,0,0,0,346.27,35.66Z"/><path class="cls-2" d="M346.27,43.47a2.2,2.2,0,1,0,2.19,2.21A2.2,2.2,0,0,0,346.27,43.47Z"/><path class="cls-2" d="M346.27,51.28a2.2,2.2,0,1,0,2.19,2.2A2.21,2.21,0,0,0,346.27,51.28Z"/><path class="cls-2" d="M346.27,66.9a2.2,2.2,0,1,0,2.19,2.21A2.2,2.2,0,0,0,346.27,66.9Z"/><path class="cls-2" d="M346.27,74.71a2.2,2.2,0,1,0,2.19,2.2A2.2,2.2,0,0,0,346.27,74.71Z"/><path class="cls-2" d="M346.27,82.53a2.2,2.2,0,1,0,2.19,2.2A2.2,2.2,0,0,0,346.27,82.53Z"/><path class="cls-2" d="M346.27,90.33a2.2,2.2,0,1,0,2.19,2.2A2.2,2.2,0,0,0,346.27,90.33Z"/><path class="cls-2" d="M346.27,98.15a2.2,2.2,0,1,0,2.19,2.21A2.2,2.2,0,0,0,346.27,98.15Z"/><path class="cls-2" d="M346.27,106a2.2,2.2,0,1,0,2.19,2.2A2.21,2.21,0,0,0,346.27,106Z"/><path class="cls-2" d="M346.27,113.76a2.2,2.2,0,1,0,2.19,2.21A2.2,2.2,0,0,0,346.27,113.76Z"/><path class="cls-2" d="M346.27,121.58a2.2,2.2,0,1,0,2.19,2.2A2.19,2.19,0,0,0,346.27,121.58Z"/><path class="cls-2" d="M346.27,129.39a2.2,2.2,0,1,0,2.19,2.2A2.2,2.2,0,0,0,346.27,129.39Z"/><path class="cls-2" d="M346.27,191.87a2.2,2.2,0,1,0,2.19,2.2A2.2,2.2,0,0,0,346.27,191.87Z"/><path class="cls-2" d="M346.27,199.69a2.2,2.2,0,1,0,2.19,2.19A2.19,2.19,0,0,0,346.27,199.69Z"/><path class="cls-2" d="M346.27,215.3a2.2,2.2,0,1,0,2.19,2.21A2.21,2.21,0,0,0,346.27,215.3Z"/><path class="cls-2" d="M346.27,223.12a2.2,2.2,0,1,0,2.19,2.2A2.19,2.19,0,0,0,346.27,223.12Z"/><path class="cls-2" d="M346.27,230.92a2.2,2.2,0,1,0,2.19,2.21A2.21,2.21,0,0,0,346.27,230.92Z"/><path class="cls-2" d="M346.27,238.73a2.2,2.2,0,1,0,2.19,2.2A2.2,2.2,0,0,0,346.27,238.73Z"/><path class="cls-2" d="M346.27,246.54a2.2,2.2,0,1,0,2.19,2.21A2.2,2.2,0,0,0,346.27,246.54Z"/><path class="cls-2" d="M346.27,254.36a2.2,2.2,0,1,0,2.19,2.19A2.2,2.2,0,0,0,346.27,254.36Z"/><path class="cls-2" d="M346.27,262.16a2.2,2.2,0,1,0,2.19,2.21A2.21,2.21,0,0,0,346.27,262.16Z"/><path class="cls-2" d="M346.27,270a2.2,2.2,0,1,0,2.19,2.2A2.2,2.2,0,0,0,346.27,270Z"/><path class="cls-2" d="M346.27,277.79a2.2,2.2,0,1,0,2.19,2.2A2.2,2.2,0,0,0,346.27,277.79Z"/><path class="cls-2" d="M346.27,285.6a2.2,2.2,0,1,0,2.19,2.2A2.2,2.2,0,0,0,346.27,285.6Z"/><path class="cls-2" d="M346.27,293.41a2.2,2.2,0,1,0,2.19,2.21A2.2,2.2,0,0,0,346.27,293.41Z"/><path class="cls-2" d="M346.27,324.64a2.21,2.21,0,1,0,2.19,2.22A2.21,2.21,0,0,0,346.27,324.64Z"/><path class="cls-2" d="M346.27,332.46a2.2,2.2,0,1,0,2.19,2.2A2.2,2.2,0,0,0,346.27,332.46Z"/><path class="cls-2" d="M346.27,340.28a2.2,2.2,0,1,0,2.19,2.2A2.2,2.2,0,0,0,346.27,340.28Z"/><path class="cls-2" d="M346.27,348.09a2.2,2.2,0,1,0,2.19,2.2A2.2,2.2,0,0,0,346.27,348.09Z"/><path class="cls-2" d="M346.27,355.89a2.21,2.21,0,1,0,2.19,2.21A2.21,2.21,0,0,0,346.27,355.89Z"/><path class="cls-2" d="M338.46,51.28a2.2,2.2,0,1,0,2.21,2.2A2.21,2.21,0,0,0,338.46,51.28Z"/><path class="cls-2" d="M338.46,59.09a2.2,2.2,0,1,0,2.21,2.2A2.2,2.2,0,0,0,338.46,59.09Z"/><circle class="cls-2" cx="338.46" cy="69.1" r="2.2"/><circle class="cls-2" cx="338.46" cy="76.91" r="2.2"/><path class="cls-2" d="M338.46,82.53a2.2,2.2,0,1,0,2.21,2.2A2.2,2.2,0,0,0,338.46,82.53Z"/><circle class="cls-2" cx="338.46" cy="92.54" r="2.2"/><path class="cls-2" d="M338.46,98.15a2.2,2.2,0,1,0,2.21,2.21A2.2,2.2,0,0,0,338.46,98.15Z"/><circle class="cls-2" cx="338.46" cy="108.16" r="2.2"/><circle class="cls-2" cx="338.46" cy="115.97" r="2.2"/><circle class="cls-2" cx="338.46" cy="123.78" r="2.2"/><path class="cls-2" d="M338.46,129.39a2.2,2.2,0,1,0,2.21,2.2A2.2,2.2,0,0,0,338.46,129.39Z"/><circle class="cls-2" cx="338.46" cy="139.4" r="2.2"/><circle class="cls-2" cx="338.46" cy="194.07" r="2.2"/><path class="cls-2" d="M338.46,199.69a2.2,2.2,0,1,0,2.21,2.19A2.2,2.2,0,0,0,338.46,199.69Z"/><path class="cls-2" d="M338.46,223.12a2.2,2.2,0,1,0,2.21,2.2A2.2,2.2,0,0,0,338.46,223.12Z"/><circle class="cls-2" cx="338.46" cy="233.13" r="2.2"/><circle class="cls-2" cx="338.46" cy="240.94" r="2.2"/><circle class="cls-2" cx="338.46" cy="248.75" r="2.2"/><path class="cls-2" d="M338.46,254.36a2.2,2.2,0,1,0,2.21,2.19A2.2,2.2,0,0,0,338.46,254.36Z"/><circle class="cls-2" cx="338.46" cy="264.37" r="2.2"/><path class="cls-2" d="M338.46,270a2.2,2.2,0,1,0,2.21,2.2A2.2,2.2,0,0,0,338.46,270Z"/><path class="cls-2" d="M338.46,277.79a2.2,2.2,0,1,0,2.21,2.2A2.2,2.2,0,0,0,338.46,277.79Z"/><ellipse class="cls-2" cx="338.46" cy="287.8" rx="2.2" ry="2.2"/><path class="cls-2" d="M330.65,51.28a2.2,2.2,0,1,0,2.2,2.2A2.2,2.2,0,0,0,330.65,51.28Z"/><path class="cls-2" d="M330.65,59.09a2.2,2.2,0,1,0,2.2,2.2A2.2,2.2,0,0,0,330.65,59.09Z"/><circle class="cls-2" cx="330.65" cy="69.1" r="2.2"/><circle class="cls-2" cx="330.65" cy="76.91" r="2.2"/><circle class="cls-2" cx="330.65" cy="92.54" r="2.2"/><path class="cls-2" d="M330.65,98.15a2.2,2.2,0,1,0,2.2,2.21A2.2,2.2,0,0,0,330.65,98.15Z"/><circle class="cls-2" cx="330.65" cy="108.16" r="2.2"/><circle class="cls-2" cx="330.65" cy="115.97" r="2.2"/><circle class="cls-2" cx="330.65" cy="123.78" r="2.2"/><path class="cls-2" d="M330.65,129.39a2.2,2.2,0,1,0,2.2,2.2A2.2,2.2,0,0,0,330.65,129.39Z"/><ellipse class="cls-2" cx="330.65" cy="139.4" rx="2.2" ry="2.21"/><path class="cls-2" d="M330.65,145a2.2,2.2,0,1,0,2.2,2.21A2.21,2.21,0,0,0,330.65,145Z"/><circle class="cls-2" cx="330.65" cy="155.02" r="2.2"/><circle class="cls-2" cx="330.65" cy="194.07" r="2.2"/><path class="cls-2" d="M330.65,199.69a2.2,2.2,0,1,0,2.2,2.19A2.19,2.19,0,0,0,330.65,199.69Z"/><path class="cls-2" d="M330.65,223.12a2.2,2.2,0,1,0,2.2,2.2A2.19,2.19,0,0,0,330.65,223.12Z"/><circle class="cls-2" cx="330.65" cy="233.13" r="2.2"/><circle class="cls-2" cx="330.65" cy="240.94" r="2.2"/><circle class="cls-2" cx="330.65" cy="248.75" r="2.2"/><path class="cls-2" d="M330.65,254.36a2.2,2.2,0,1,0,2.2,2.19A2.2,2.2,0,0,0,330.65,254.36Z"/><circle class="cls-2" cx="330.65" cy="264.37" r="2.2"/><path class="cls-2" d="M330.65,270a2.2,2.2,0,1,0,2.2,2.2A2.2,2.2,0,0,0,330.65,270Z"/><path class="cls-2" d="M330.65,277.79a2.2,2.2,0,1,0,2.2,2.2A2.2,2.2,0,0,0,330.65,277.79Z"/><circle class="cls-2" cx="322.84" cy="108.16" r="2.2"/><circle class="cls-2" cx="322.84" cy="115.97" r="2.2"/><circle class="cls-2" cx="322.84" cy="123.78" r="2.2"/><path class="cls-2" d="M322.84,129.39a2.2,2.2,0,1,0,2.2,2.2A2.2,2.2,0,0,0,322.84,129.39Z"/><circle class="cls-2" cx="322.84" cy="139.4" r="2.2"/><path class="cls-2" d="M322.84,145a2.2,2.2,0,1,0,2.2,2.21A2.21,2.21,0,0,0,322.84,145Z"/><circle class="cls-2" cx="322.84" cy="155.02" r="2.2"/><path class="cls-2" d="M322.84,160.63a2.2,2.2,0,1,0,2.2,2.21A2.2,2.2,0,0,0,322.84,160.63Z"/><circle class="cls-2" cx="322.84" cy="170.64" r="2.2"/><circle class="cls-2" cx="322.84" cy="178.45" r="2.2"/><circle class="cls-2" cx="322.84" cy="194.07" r="2.2"/><path class="cls-2" d="M322.84,223.12a2.2,2.2,0,1,0,2.2,2.2A2.19,2.19,0,0,0,322.84,223.12Z"/><circle class="cls-2" cx="322.84" cy="233.13" r="2.2"/><circle class="cls-2" cx="322.84" cy="248.75" r="2.2"/><path class="cls-2" d="M322.84,254.36a2.2,2.2,0,1,0,2.2,2.19A2.2,2.2,0,0,0,322.84,254.36Z"/><circle class="cls-2" cx="322.84" cy="264.37" r="2.2"/><path class="cls-2" d="M315,59.09a2.2,2.2,0,1,0,2.2,2.2A2.2,2.2,0,0,0,315,59.09Z"/><circle class="cls-2" cx="315.03" cy="92.54" r="2.2"/><path class="cls-2" d="M315,98.15a2.2,2.2,0,1,0,2.2,2.21A2.2,2.2,0,0,0,315,98.15Z"/><circle class="cls-2" cx="315.03" cy="108.16" r="2.2"/><circle class="cls-2" cx="315.03" cy="115.97" r="2.2"/><circle class="cls-2" cx="315.03" cy="123.78" r="2.2"/><path class="cls-2" d="M315,129.39a2.2,2.2,0,1,0,2.2,2.2A2.2,2.2,0,0,0,315,129.39Z"/><ellipse class="cls-2" cx="315.03" cy="139.4" rx="2.2" ry="2.21"/><path class="cls-2" d="M315,145a2.2,2.2,0,1,0,2.2,2.21A2.21,2.21,0,0,0,315,145Z"/><circle class="cls-2" cx="315.03" cy="155.02" r="2.2"/><path class="cls-2" d="M315,160.63a2.2,2.2,0,1,0,2.2,2.21A2.2,2.2,0,0,0,315,160.63Z"/><ellipse class="cls-2" cx="315.03" cy="170.64" rx="2.2" ry="2.21"/><path class="cls-2" d="M315,207.49a2.2,2.2,0,1,0,2.2,2.21A2.2,2.2,0,0,0,315,207.49Z"/><path class="cls-2" d="M315,215.3a2.2,2.2,0,1,0,2.2,2.21A2.21,2.21,0,0,0,315,215.3Z"/><path class="cls-2" d="M315,223.12a2.2,2.2,0,1,0,2.2,2.2A2.19,2.19,0,0,0,315,223.12Z"/><circle class="cls-2" cx="307.22" cy="92.54" r="2.2"/><path class="cls-2" d="M307.21,98.15a2.2,2.2,0,1,0,2.21,2.21A2.2,2.2,0,0,0,307.21,98.15Z"/><circle class="cls-2" cx="307.22" cy="108.16" r="2.2"/><circle class="cls-2" cx="307.22" cy="115.97" r="2.2"/><circle class="cls-2" cx="307.22" cy="123.78" r="2.2"/><path class="cls-2" d="M307.21,129.39a2.2,2.2,0,1,0,2.21,2.2A2.2,2.2,0,0,0,307.21,129.39Z"/><circle class="cls-2" cx="307.22" cy="139.4" r="2.2"/><path class="cls-2" d="M307.21,145a2.2,2.2,0,1,0,2.21,2.21A2.2,2.2,0,0,0,307.21,145Z"/><circle class="cls-2" cx="307.22" cy="155.02" r="2.2"/><path class="cls-2" d="M307.21,160.63a2.2,2.2,0,1,0,2.21,2.21A2.2,2.2,0,0,0,307.21,160.63Z"/><ellipse class="cls-2" cx="307.22" cy="170.64" rx="2.2" ry="2.21"/><circle class="cls-2" cx="307.22" cy="194.07" r="2.2"/><path class="cls-2" d="M307.21,207.49a2.2,2.2,0,1,0,2.21,2.21A2.2,2.2,0,0,0,307.21,207.49Z"/><path class="cls-2" d="M307.21,215.3a2.2,2.2,0,1,0,2.21,2.21A2.21,2.21,0,0,0,307.21,215.3Z"/><path class="cls-2" d="M307.21,223.12a2.2,2.2,0,1,0,2.21,2.2A2.19,2.19,0,0,0,307.21,223.12Z"/><path class="cls-2" d="M299.41,82.53a2.2,2.2,0,1,0,2.21,2.2A2.2,2.2,0,0,0,299.41,82.53Z"/><circle class="cls-2" cx="299.41" cy="92.54" r="2.2"/><path class="cls-2" d="M299.41,98.15a2.2,2.2,0,1,0,2.21,2.21A2.2,2.2,0,0,0,299.41,98.15Z"/><circle class="cls-2" cx="299.41" cy="108.16" r="2.2"/><circle class="cls-2" cx="299.41" cy="115.97" r="2.2"/><circle class="cls-2" cx="299.41" cy="123.78" r="2.2"/><path class="cls-2" d="M299.41,129.39a2.2,2.2,0,1,0,2.21,2.2A2.21,2.21,0,0,0,299.41,129.39Z"/><circle class="cls-2" cx="299.41" cy="139.4" r="2.2"/><path class="cls-2" d="M299.41,145a2.2,2.2,0,1,0,2.21,2.21A2.21,2.21,0,0,0,299.41,145Z"/><circle class="cls-2" cx="299.41" cy="155.02" r="2.2"/><path class="cls-2" d="M299.41,160.63a2.2,2.2,0,1,0,2.21,2.21A2.21,2.21,0,0,0,299.41,160.63Z"/><circle class="cls-2" cx="299.41" cy="170.64" r="2.2"/><circle class="cls-2" cx="299.41" cy="194.07" r="2.2"/><path class="cls-2" d="M299.41,199.69a2.2,2.2,0,1,0,2.21,2.19A2.2,2.2,0,0,0,299.41,199.69Z"/><path class="cls-2" d="M299.41,207.49a2.2,2.2,0,1,0,2.21,2.21A2.21,2.21,0,0,0,299.41,207.49Z"/><path class="cls-2" d="M299.41,215.3a2.2,2.2,0,1,0,2.21,2.21A2.22,2.22,0,0,0,299.41,215.3Z"/><path class="cls-2" d="M291.59,74.71a2.2,2.2,0,1,0,2.2,2.2A2.2,2.2,0,0,0,291.59,74.71Z"/><path class="cls-2" d="M291.59,82.53a2.2,2.2,0,1,0,2.2,2.2A2.2,2.2,0,0,0,291.59,82.53Z"/><path class="cls-2" d="M291.59,90.33a2.2,2.2,0,1,0,2.2,2.2A2.2,2.2,0,0,0,291.59,90.33Z"/><path class="cls-2" d="M291.59,98.15a2.2,2.2,0,1,0,2.2,2.21A2.2,2.2,0,0,0,291.59,98.15Z"/><path class="cls-2" d="M291.59,106a2.2,2.2,0,1,0,2.2,2.2A2.2,2.2,0,0,0,291.59,106Z"/><path class="cls-2" d="M291.59,113.76a2.2,2.2,0,1,0,2.2,2.21A2.2,2.2,0,0,0,291.59,113.76Z"/><path class="cls-2" d="M291.59,121.58a2.2,2.2,0,1,0,2.2,2.2A2.19,2.19,0,0,0,291.59,121.58Z"/><path class="cls-2" d="M291.59,129.39a2.2,2.2,0,1,0,2.2,2.2A2.2,2.2,0,0,0,291.59,129.39Z"/><path class="cls-2" d="M291.59,137.2a2.21,2.21,0,1,0,2.2,2.21A2.2,2.2,0,0,0,291.59,137.2Z"/><path class="cls-2" d="M291.59,145a2.2,2.2,0,1,0,2.2,2.21A2.21,2.21,0,0,0,291.59,145Z"/><path class="cls-2" d="M291.59,152.82a2.2,2.2,0,1,0,2.2,2.2A2.2,2.2,0,0,0,291.59,152.82Z"/><path class="cls-2" d="M291.59,160.63a2.2,2.2,0,1,0,2.2,2.21A2.2,2.2,0,0,0,291.59,160.63Z"/><path class="cls-2" d="M291.59,168.44a2.21,2.21,0,1,0,2.2,2.21A2.2,2.2,0,0,0,291.59,168.44Z"/><path class="cls-2" d="M291.59,199.69a2.2,2.2,0,1,0,2.2,2.19A2.19,2.19,0,0,0,291.59,199.69Z"/><path class="cls-2" d="M291.59,207.49a2.2,2.2,0,1,0,2.2,2.21A2.2,2.2,0,0,0,291.59,207.49Z"/><path class="cls-2" d="M283.79,82.53a2.2,2.2,0,1,0,2.2,2.2A2.2,2.2,0,0,0,283.79,82.53Z"/><path class="cls-2" d="M283.79,90.33a2.2,2.2,0,1,0,2.2,2.2A2.21,2.21,0,0,0,283.79,90.33Z"/><path class="cls-2" d="M283.79,98.15a2.2,2.2,0,1,0,2.2,2.21A2.21,2.21,0,0,0,283.79,98.15Z"/><path class="cls-2" d="M283.79,106a2.2,2.2,0,1,0,2.2,2.2A2.21,2.21,0,0,0,283.79,106Z"/><path class="cls-2" d="M283.79,113.76A2.2,2.2,0,1,0,286,116,2.21,2.21,0,0,0,283.79,113.76Z"/><path class="cls-2" d="M283.79,121.58a2.2,2.2,0,1,0,2.2,2.2A2.2,2.2,0,0,0,283.79,121.58Z"/><path class="cls-2" d="M283.79,129.39a2.2,2.2,0,1,0,2.2,2.2A2.21,2.21,0,0,0,283.79,129.39Z"/><path class="cls-2" d="M283.79,137.2a2.21,2.21,0,1,0,2.2,2.21A2.21,2.21,0,0,0,283.79,137.2Z"/><path class="cls-2" d="M283.79,145a2.2,2.2,0,1,0,0,4.41,2.2,2.2,0,0,0,0-4.41Z"/><path class="cls-2" d="M283.79,152.82A2.2,2.2,0,1,0,286,155,2.21,2.21,0,0,0,283.79,152.82Z"/><path class="cls-2" d="M283.79,160.63a2.2,2.2,0,1,0,2.2,2.21A2.21,2.21,0,0,0,283.79,160.63Z"/><path class="cls-2" d="M283.79,168.44a2.21,2.21,0,1,0,2.2,2.21A2.21,2.21,0,0,0,283.79,168.44Z"/><path class="cls-2" d="M283.79,199.69a2.2,2.2,0,1,0,2.2,2.19A2.2,2.2,0,0,0,283.79,199.69Z"/><path class="cls-2" d="M283.79,207.49a2.2,2.2,0,1,0,2.2,2.21A2.21,2.21,0,0,0,283.79,207.49Z"/><circle class="cls-2" cx="275.98" cy="92.54" r="2.2"/><path class="cls-2" d="M276,98.15a2.2,2.2,0,1,0,2.2,2.21A2.2,2.2,0,0,0,276,98.15Z"/><circle class="cls-2" cx="275.98" cy="108.16" r="2.2"/><circle class="cls-2" cx="275.98" cy="115.97" r="2.2"/><circle class="cls-2" cx="275.98" cy="123.78" r="2.2"/><path class="cls-2" d="M276,129.39a2.2,2.2,0,1,0,2.2,2.2A2.2,2.2,0,0,0,276,129.39Z"/><ellipse class="cls-2" cx="275.98" cy="139.4" rx="2.2" ry="2.21"/><path class="cls-2" d="M276,145a2.2,2.2,0,1,0,2.2,2.21A2.21,2.21,0,0,0,276,145Z"/><circle class="cls-2" cx="275.98" cy="155.02" r="2.2"/><path class="cls-2" d="M276,160.63a2.2,2.2,0,1,0,2.2,2.21A2.2,2.2,0,0,0,276,160.63Z"/><ellipse class="cls-2" cx="275.98" cy="170.64" rx="2.2" ry="2.21"/><circle class="cls-2" cx="275.98" cy="178.45" r="2.2"/><path class="cls-2" d="M276,184.06a2.2,2.2,0,1,0,2.2,2.2A2.2,2.2,0,0,0,276,184.06Z"/><circle class="cls-2" cx="275.98" cy="194.07" r="2.2"/><path class="cls-2" d="M276,199.69a2.2,2.2,0,1,0,2.2,2.19A2.19,2.19,0,0,0,276,199.69Z"/><path class="cls-2" d="M276,207.49a2.2,2.2,0,1,0,2.2,2.21A2.2,2.2,0,0,0,276,207.49Z"/><path class="cls-2" d="M268.16,98.15a2.2,2.2,0,1,0,2.2,2.21A2.2,2.2,0,0,0,268.16,98.15Z"/><circle class="cls-2" cx="268.16" cy="108.16" r="2.2"/><circle class="cls-2" cx="268.16" cy="115.97" r="2.2"/><circle class="cls-2" cx="268.16" cy="123.78" r="2.2"/><path class="cls-2" d="M268.16,129.39a2.2,2.2,0,1,0,2.2,2.2A2.2,2.2,0,0,0,268.16,129.39Z"/><ellipse class="cls-2" cx="268.16" cy="139.4" rx="2.2" ry="2.21"/><path class="cls-2" d="M268.16,145a2.2,2.2,0,1,0,2.2,2.21A2.21,2.21,0,0,0,268.16,145Z"/><circle class="cls-2" cx="268.16" cy="155.02" r="2.2"/><path class="cls-2" d="M268.16,160.63a2.2,2.2,0,1,0,2.2,2.21A2.2,2.2,0,0,0,268.16,160.63Z"/><ellipse class="cls-2" cx="268.16" cy="170.64" rx="2.2" ry="2.21"/><circle class="cls-2" cx="268.16" cy="178.45" r="2.2"/><path class="cls-2" d="M268.16,184.06a2.2,2.2,0,1,0,2.2,2.2A2.2,2.2,0,0,0,268.16,184.06Z"/><circle class="cls-2" cx="268.16" cy="194.07" r="2.2"/><path class="cls-2" d="M268.16,199.69a2.2,2.2,0,1,0,2.2,2.19A2.19,2.19,0,0,0,268.16,199.69Z"/><path class="cls-2" d="M260.35,106a2.2,2.2,0,1,0,2.21,2.2A2.2,2.2,0,0,0,260.35,106Z"/><path class="cls-2" d="M260.35,113.76a2.2,2.2,0,1,0,2.21,2.21A2.2,2.2,0,0,0,260.35,113.76Z"/><path class="cls-2" d="M260.35,121.58a2.2,2.2,0,1,0,2.21,2.2A2.19,2.19,0,0,0,260.35,121.58Z"/><path class="cls-2" d="M260.35,129.39a2.2,2.2,0,1,0,2.21,2.2A2.2,2.2,0,0,0,260.35,129.39Z"/><path class="cls-2" d="M260.35,137.2a2.21,2.21,0,1,0,2.21,2.21A2.2,2.2,0,0,0,260.35,137.2Z"/><path class="cls-2" d="M260.35,145a2.2,2.2,0,1,0,2.21,2.21A2.21,2.21,0,0,0,260.35,145Z"/><path class="cls-2" d="M260.35,152.82a2.2,2.2,0,1,0,2.21,2.2A2.2,2.2,0,0,0,260.35,152.82Z"/><path class="cls-2" d="M260.35,160.63a2.2,2.2,0,1,0,2.21,2.21A2.2,2.2,0,0,0,260.35,160.63Z"/><path class="cls-2" d="M260.35,168.44a2.21,2.21,0,1,0,2.21,2.21A2.2,2.2,0,0,0,260.35,168.44Z"/><path class="cls-2" d="M260.35,176.25a2.2,2.2,0,1,0,2.21,2.21A2.2,2.2,0,0,0,260.35,176.25Z"/><path class="cls-2" d="M260.35,184.06a2.2,2.2,0,1,0,2.21,2.2A2.2,2.2,0,0,0,260.35,184.06Z"/><path class="cls-2" d="M260.35,191.87a2.2,2.2,0,1,0,2.21,2.2A2.2,2.2,0,0,0,260.35,191.87Z"/><path class="cls-2" d="M260.35,199.69a2.2,2.2,0,1,0,2.21,2.19A2.19,2.19,0,0,0,260.35,199.69Z"/><circle class="cls-2" cx="252.54" cy="115.97" r="2.2"/><circle class="cls-2" cx="252.54" cy="123.78" r="2.2"/><path class="cls-2" d="M252.54,129.39a2.2,2.2,0,1,0,2.2,2.2A2.2,2.2,0,0,0,252.54,129.39Z"/><ellipse class="cls-2" cx="252.54" cy="139.4" rx="2.2" ry="2.21"/><path class="cls-2" d="M252.54,145a2.2,2.2,0,1,0,2.2,2.21A2.21,2.21,0,0,0,252.54,145Z"/><circle class="cls-2" cx="252.54" cy="155.02" r="2.2"/><path class="cls-2" d="M252.54,160.63a2.2,2.2,0,1,0,2.2,2.21A2.2,2.2,0,0,0,252.54,160.63Z"/><ellipse class="cls-2" cx="252.54" cy="170.64" rx="2.2" ry="2.21"/><circle class="cls-2" cx="252.54" cy="178.45" r="2.2"/><path class="cls-2" d="M252.54,184.06a2.2,2.2,0,1,0,2.2,2.2A2.2,2.2,0,0,0,252.54,184.06Z"/><circle class="cls-2" cx="244.73" cy="123.78" r="2.2"/><path class="cls-2" d="M244.73,129.39a2.2,2.2,0,1,0,2.21,2.2A2.2,2.2,0,0,0,244.73,129.39Z"/><circle class="cls-2" cx="244.73" cy="139.4" r="2.2"/><path class="cls-2" d="M244.73,145a2.2,2.2,0,1,0,2.21,2.21A2.21,2.21,0,0,0,244.73,145Z"/><circle class="cls-2" cx="244.73" cy="155.02" r="2.2"/><path class="cls-2" d="M244.73,160.63a2.2,2.2,0,1,0,2.21,2.21A2.2,2.2,0,0,0,244.73,160.63Z"/><circle class="cls-2" cx="244.73" cy="170.64" r="2.2"/><circle class="cls-2" cx="244.73" cy="178.45" r="2.2"/><path class="cls-2" d="M244.73,184.06a2.2,2.2,0,1,0,2.21,2.2A2.2,2.2,0,0,0,244.73,184.06Z"/><path class="cls-2" d="M236.92,129.39a2.2,2.2,0,1,0,2.2,2.2A2.2,2.2,0,0,0,236.92,129.39Z"/><circle class="cls-2" cx="236.92" cy="139.4" r="2.2"/><path class="cls-2" d="M236.92,145a2.2,2.2,0,1,0,2.2,2.21A2.21,2.21,0,0,0,236.92,145Z"/><circle class="cls-2" cx="236.92" cy="155.02" r="2.2"/><path class="cls-2" d="M236.92,160.63a2.2,2.2,0,1,0,2.2,2.21A2.2,2.2,0,0,0,236.92,160.63Z"/><circle class="cls-2" cx="236.92" cy="170.64" r="2.2"/><circle class="cls-2" cx="236.92" cy="178.45" r="2.2"/><circle class="cls-2" cx="229.11" cy="139.4" r="2.2"/><path class="cls-2" d="M229.11,145a2.2,2.2,0,1,0,2.2,2.21A2.21,2.21,0,0,0,229.11,145Z"/><circle class="cls-2" cx="229.11" cy="155.02" r="2.2"/><path class="cls-2" d="M229.11,160.63a2.2,2.2,0,1,0,2.2,2.21A2.2,2.2,0,0,0,229.11,160.63Z"/><path class="cls-2" d="M221.3,152.82a2.2,2.2,0,1,0,2.2,2.2A2.2,2.2,0,0,0,221.3,152.82Z"/><path class="cls-3" d="M486.13,136.19A89.93,89.93,0,0,1,385.87,282.33"/><circle class="cls-4" cx="386.45" cy="282.59" r="12.9" transform="translate(-45.8 488.4) rotate(-61.64)"/><path class="cls-3" d="M356.89,261.15A90,90,0,0,1,458.92,118"/><circle class="cls-4" cx="458.32" cy="117.72" r="12.9" transform="translate(145.39 472.67) rotate(-63.01)"/><path class="cls-5" d="M456.16,202a32.75,32.75,0,1,1-32.75-32.8A32.65,32.65,0,0,1,456.16,202Z"/><line class="cls-6" x1="388.7" y1="201.84" y2="201.84"/><line class="cls-7" x1="423.24" y1="396.44" x2="423.24" y2="483.04"/><line class="cls-8" x1="847.37" y1="201.84" x2="512.49" y2="201.84"/></g></g></svg>