<?xml version="1.0" encoding="utf-8"?>
<!-- Generator: Adobe Illustrator 16.0.0, SVG Export Plug-In . SVG Version: 6.00 Build 0)  -->
<!DOCTYPE svg PUBLIC "-//W3C//DTD SVG 1.1//EN" "http://www.w3.org/Graphics/SVG/1.1/DTD/svg11.dtd">
<svg version="1.1" id="registrado" xmlns="http://www.w3.org/2000/svg" xmlns:xlink="http://www.w3.org/1999/xlink" x="0px" y="0px"
	 width="500px" height="730.5px" viewBox="0 0 500 730.5" enable-background="new 0 0 500 730.5" xml:space="preserve">
<g>
	<g>
		<g>
			<path fill="#BB8039" d="M205.96,43.91c14.65-8.03,29.36-15.97,44.04-23.96c15.561,8.32,30.92,17.05,46.59,25.14
				c17.561-0.67,35.12-1.77,52.68-2.6c9.95,13.86,19.92,27.71,29.851,41.58c0.62,0.97,1.55,1.67,2.649,2.03
				c15.711,6.53,31.391,13.11,47.08,19.7c3.101,17.27,5.92,34.62,9.261,51.84c11.439,13.35,23.34,26.33,34.93,39.56
				c-4.74,16.91-9.771,33.76-14.33,50.73c4.56,16.96,9.601,33.81,14.33,50.73c-11.601,13.21-23.49,26.189-34.92,39.54
				c-3.37,17.21-6.15,34.58-9.28,51.85c-14.021,5.881-28.04,11.78-42.08,17.601c-2.92,1.239-6.29,2.13-8.19,4.88
				c-9.89,13.53-19.3,27.43-29.479,40.739c-14.71-0.569-29.4-1.45-44.1-2.22c-3.66-0.09-7.61-0.939-10.98,0.931
				c-14.71,7.859-29.21,16.13-44.03,23.77c-14.79-7.67-29.29-15.9-43.98-23.77c-1.81-1-3.88-1.311-5.92-1.181
				c-16.38,0.82-32.76,1.83-49.16,2.47c-10.19-13.3-19.59-27.2-29.48-40.72c-1.9-2.76-5.29-3.649-8.2-4.899
				c-14.04-5.811-28.05-11.72-42.07-17.59c-2.97-16.871-5.95-33.741-8.92-50.61c-0.13-1.2-0.93-2.11-1.69-2.97
				c-11.23-12.58-22.4-25.211-33.6-37.82c4.41-15.47,8.78-30.94,13.23-46.4c0.51-2.05,1.6-4.18,0.68-6.27
				c-4.66-16.26-9.27-32.53-13.92-48.79c11.6-13.23,23.5-26.21,34.95-39.56c3.34-17.23,6.14-34.58,9.26-51.86
				c14.95-6.26,29.88-12.53,44.84-18.75c1.73-0.79,3.83-1.21,4.88-2.96c9.93-13.87,19.89-27.72,29.85-41.58
				c17.17,0.88,34.34,1.76,51.52,2.64C203.62,45.35,204.78,44.46,205.96,43.91z M170.99,94.97c-31.11,15.94-57.15,41.56-73.52,72.44
				c-14.62,27.29-21.46,58.62-19.8,89.52c1.55,31.47,12.09,62.419,30.03,88.32c17.79,25.88,42.8,46.71,71.45,59.55
				c32.09,14.46,68.68,18.7,103.24,12.04c28.25-5.29,55.13-17.85,77.29-36.159c29.96-24.48,51.37-59.351,59.17-97.271
				c7.141-33.32,3.961-68.78-8.96-100.32c-11.43-28.08-30.51-52.98-54.56-71.43C330.45,92.48,300.24,80.29,269,76.97
				C235.5,73.25,200.94,79.49,170.99,94.97z"/>
		</g>
	</g>
	<g>
		<path fill="#E19A47" d="M170.99,94.97c29.95-15.48,64.51-21.72,98.01-18c31.24,3.32,61.45,15.51,86.33,34.69
			c24.05,18.45,43.13,43.35,54.56,71.43c12.921,31.54,16.101,67,8.96,100.32c-16.189-15.9-32.16-32.02-48.26-48.01
			c-13.72-13.07-26.95-26.64-40.42-39.96c-0.92-2.69-2.06-5.53-4.59-7.1c-3.061-2.22-7-2.13-10.6-2.12
			c-43.62,0.09-87.23-0.05-130.851,0.07c-6.21-0.17-11.57,5.41-11.22,11.61c-0.07,35.04-0.04,70.08-0.02,105.12
			c-0.34,5.181,2.99,9.851,7.75,11.67c5.5,6.38,11.72,12.051,17.61,18.051c28.01,28.07,56.24,55.92,84.14,84.1
			c-34.56,6.66-71.149,2.42-103.24-12.04c-28.65-12.84-53.66-33.67-71.45-59.55c-17.94-25.9-28.48-56.85-30.03-88.32
			c-1.66-30.9,5.18-62.23,19.8-89.52C113.84,136.53,139.88,110.91,170.99,94.97z"/>
		<g>
			<path fill="#E19A47" d="M178.77,196.02c0.3-2.95,3.51-4.31,6.14-4.08c44.39-0.08,88.771,0.04,133.15,0.01
				c2.829-0.28,6.159,1.26,6.34,4.42c0.39,5.9,0.05,11.83,0.149,17.74c-48.66,0.02-97.32,0.01-145.98,0
				C178.64,208.08,178.38,202.03,178.77,196.02z M187.17,198.08c-3.89,1.79-4.02,7.94-0.2,9.88c3.53,2.22,8.69-0.75,8.44-4.94
				C195.56,198.97,190.67,196.06,187.17,198.08z M209.33,198.26c-3.56,1.9-3.58,7.59-0.09,9.58c3.53,2.43,8.93-0.55,8.65-4.86
				C218.02,198.8,212.81,195.93,209.33,198.26z M231.46,198.48c-3.63,2.32-2.89,8.46,1.2,9.83c3.9,1.75,8.66-2.15,7.59-6.34
				C239.65,198.09,234.56,196.06,231.46,198.48z"/>
		</g>
		<g>
			<path fill="#E19A47" d="M178.59,220.01c48.66-0.02,97.32-0.02,145.979,0.01c-0.009,27.35-0.02,54.71,0,82.07
				c-0.05,2-0.04,4.29-1.509,5.86c-1.63,1.48-4,1.41-6.061,1.489c-43.681-0.009-87.36-0.02-131.04,0.011
				c-2.02-0.05-4.33-0.03-5.86-1.561c-1.6-1.51-1.5-3.859-1.55-5.87C178.6,274.68,178.52,247.35,178.59,220.01z M223.25,273.45
				c-4.21-4.15-8.32-8.41-12.51-12.58c-1.24,1.22-2.49,2.44-3.73,3.66c5.64,5.66,11.29,11.32,16.96,16.96
				c7.35-7.17,14.52-14.53,21.84-21.74c0,9.04,0,18.08,0,27.12c-14.89,0.01-29.79,0-44.68,0c0-14.85-0.01-29.7,0-44.55
				c14.92-0.02,29.83,0.02,44.75-0.02c1.95-1.83,3.87-3.7,5.76-5.6c-18.709-0.04-37.419-0.01-56.13-0.01
				c-0.02,18.62-0.01,37.24-0.01,55.86c18.71,0.03,37.41,0.01,56.12,0.01c0.04-12.2-0.04-24.41,0.029-36.61
				c-0.26-2.26,1.42-3.93,2.881-5.39c4.38-4.28,8.7-8.61,13.01-12.96c-1.37-1.41-2.729-2.81-4.09-4.2
				C250.05,246.75,236.66,260.11,223.25,273.45z M268.5,259.05c13.061,0.03,26.13,0.02,39.189,0c-0.009-1.83-0.009-3.66-0.009-5.49
				c-13.061,0.01-26.12-0.01-39.171,0C268.51,255.39,268.5,257.22,268.5,259.05z M268.51,270.31c0,1.83-0.01,3.66-0.01,5.5
				c13.061,0,26.13,0.01,39.189,0c-0.009-1.84-0.009-3.67,0-5.49C294.63,270.3,281.569,270.31,268.51,270.31z M268.49,287.13
				c0.01,1.81,0.01,3.62,0.01,5.43c7.439,0.01,14.87,0,22.311,0c-0.011-1.81,0-3.62,0.009-5.43
				C283.38,287.12,275.931,287.11,268.49,287.13z"/>
		</g>
		<path fill="#E19A47" d="M113.24,407.65c2.91,1.25,6.3,2.14,8.2,4.899c9.89,13.52,19.29,27.42,29.48,40.72
			c16.4-0.64,32.78-1.649,49.16-2.47c2.04-0.13,4.11,0.181,5.92,1.181c14.69,7.869,29.19,16.1,43.98,23.77
			c14.82-7.64,29.32-15.91,44.03-23.77c3.37-1.87,7.32-1.021,10.98-0.931c14.699,0.77,29.39,1.65,44.1,2.22
			c10.18-13.31,19.59-27.209,29.479-40.739c1.9-2.75,5.271-3.641,8.19-4.88c-0.02,57.13,0,114.27-0.01,171.399
			c-45.59-18.569-91.16-37.18-136.74-55.76c-45.59,18.58-91.17,37.19-136.76,55.76C113.24,521.92,113.26,464.78,113.24,407.65z"/>
	</g>
	<g>
		<g>
			<path fill="#FFFFFF" d="M172.91,197.9c-0.35-6.2,5.01-11.78,11.22-11.61c43.62-0.12,87.23,0.02,130.851-0.07
				c3.6-0.01,7.539-0.1,10.6,2.12c2.53,1.57,3.67,4.41,4.59,7.1c0.19,35.85,0.03,71.71,0.08,107.57
				c0.16,3.971-1.569,8.09-5.02,10.221c-3.28,2.24-7.431,1.869-11.201,1.92c-39.68-0.061-79.359-0.011-119.039-0.03
				c-4.79-0.01-9.59,0.21-14.35-0.431c-4.76-1.819-8.09-6.489-7.75-11.67C172.87,267.98,172.84,232.94,172.91,197.9z M178.77,196.02
				c-0.39,6.01-0.13,12.06-0.2,18.09c48.66,0.01,97.32,0.02,145.98,0c-0.1-5.91,0.24-11.84-0.149-17.74
				c-0.181-3.16-3.511-4.7-6.34-4.42c-44.38,0.03-88.761-0.09-133.15-0.01C182.28,191.71,179.07,193.07,178.77,196.02z
				 M178.59,220.01c-0.07,27.34,0.01,54.67-0.04,82.01c0.05,2.011-0.05,4.36,1.55,5.87c1.53,1.53,3.84,1.511,5.86,1.561
				c43.68-0.03,87.359-0.02,131.04-0.011c2.061-0.079,4.431-0.009,6.061-1.489c1.469-1.57,1.459-3.86,1.509-5.86
				c-0.02-27.36-0.009-54.72,0-82.07C275.91,219.99,227.25,219.99,178.59,220.01z"/>
		</g>
		<path fill="#FFFFFF" d="M187.17,198.08c3.5-2.02,8.39,0.89,8.24,4.94c0.25,4.19-4.91,7.16-8.44,4.94
			C183.15,206.02,183.28,199.87,187.17,198.08z"/>
		<path fill="#FFFFFF" d="M209.33,198.26c3.48-2.33,8.69,0.54,8.56,4.72c0.28,4.31-5.12,7.29-8.65,4.86
			C205.75,205.85,205.77,200.16,209.33,198.26z"/>
		<path fill="#FFFFFF" d="M231.46,198.48c3.1-2.42,8.19-0.39,8.79,3.49c1.07,4.19-3.69,8.09-7.59,6.34
			C228.57,206.94,227.83,200.8,231.46,198.48z"/>
		<path fill="#FFFFFF" d="M223.25,273.45c13.41-13.34,26.8-26.7,40.2-40.05c1.36,1.39,2.72,2.79,4.09,4.2
			c-4.31,4.35-8.63,8.68-13.01,12.96c-1.461,1.46-3.141,3.13-2.881,5.39c-0.069,12.2,0.011,24.41-0.029,36.61
			c-18.71,0-37.41,0.02-56.12-0.01c0-18.62-0.01-37.24,0.01-55.86c18.71,0,37.42-0.03,56.13,0.01c-1.89,1.9-3.81,3.77-5.76,5.6
			c-14.92,0.04-29.83,0-44.75,0.02c-0.01,14.85,0,29.7,0,44.55c14.89,0,29.79,0.01,44.68,0c0-9.04,0-18.08,0-27.12
			c-7.32,7.21-14.49,14.57-21.84,21.74c-5.67-5.64-11.32-11.3-16.96-16.96c1.24-1.22,2.49-2.44,3.73-3.66
			C214.93,265.04,219.04,269.3,223.25,273.45z"/>
		<path fill="#FFFFFF" d="M268.5,259.05c0-1.83,0.01-3.66,0.01-5.49c13.051-0.01,26.11,0.01,39.171,0c0,1.83,0,3.66,0.009,5.49
			C294.63,259.07,281.561,259.08,268.5,259.05z"/>
		<path fill="#FFFFFF" d="M268.51,270.31c13.06,0,26.12-0.01,39.18,0.01c-0.009,1.82-0.009,3.65,0,5.49
			c-13.06,0.01-26.129,0-39.189,0C268.5,273.97,268.51,272.14,268.51,270.31z"/>
		<path fill="#FFFFFF" d="M268.49,287.13c7.44-0.02,14.89-0.01,22.329,0c-0.009,1.81-0.02,3.62-0.009,5.43
			c-7.44,0-14.871,0.01-22.311,0C268.5,290.75,268.5,288.94,268.49,287.13z"/>
	</g>
	<g>
		<path fill="#CE8D40" d="M330.17,195.44c13.47,13.32,26.7,26.89,40.42,39.96c16.1,15.99,32.07,32.11,48.26,48.01
			c-7.8,37.92-29.21,72.79-59.17,97.271c-22.16,18.31-49.04,30.869-77.29,36.159c-27.899-28.18-56.13-56.029-84.14-84.1
			c-5.89-6-12.11-11.671-17.61-18.051c4.76,0.641,9.56,0.421,14.35,0.431c39.68,0.02,79.359-0.03,119.039,0.03
			c3.771-0.051,7.921,0.32,11.201-1.92c3.45-2.131,5.18-6.25,5.02-10.221C330.2,267.15,330.36,231.29,330.17,195.44z"/>
	</g>
</g>
<g>
	<g>
		<path fill="#A8A8A8" d="M76.249,670.93v15.552h-6.257v-37.49h12.9c4.171,0,7.398,0.944,9.682,2.833
			c2.283,1.888,3.425,4.583,3.425,8.085c0,1.939-0.502,3.609-1.506,5.008c-1.004,1.399-2.468,2.52-4.39,3.36
			c2.111,0.669,3.634,1.76,4.57,3.27c0.936,1.511,1.403,3.382,1.403,5.613v3.116c0,1.099,0.137,2.172,0.412,3.218
			c0.274,1.048,0.729,1.846,1.364,2.396v0.592h-6.437c-0.687-0.566-1.125-1.45-1.313-2.652c-0.189-1.201-0.283-2.402-0.283-3.604
			v-3.013c0-1.922-0.554-3.45-1.661-4.583c-1.107-1.133-2.613-1.699-4.519-1.699H76.249z M76.249,665.908h6.309
			c2.506,0,4.334-0.48,5.484-1.441c1.15-0.962,1.725-2.43,1.725-4.403c0-1.888-0.566-3.369-1.699-4.441
			c-1.133-1.073-2.858-1.609-5.176-1.609h-6.643V665.908z"/>
		<path fill="#A8A8A8" d="M129.749,669.616h-14.677v11.87h17.303v4.995h-23.56v-37.49h23.38v5.021h-17.123v10.582h14.677V669.616z"
			/>
		<path fill="#A8A8A8" d="M171.07,681.409c-1.03,1.459-2.674,2.76-4.931,3.9c-2.257,1.143-5.171,1.713-8.742,1.713
			c-4.429,0-8.072-1.43-10.93-4.287c-2.858-2.858-4.287-6.554-4.287-11.085v-7.828c0-4.531,1.381-8.227,4.146-11.084
			c2.763-2.858,6.317-4.287,10.66-4.287c4.36,0,7.759,1.099,10.196,3.296s3.622,5.063,3.554,8.6l-0.078,0.154h-5.948
			c0-2.111-0.657-3.811-1.97-5.098c-1.313-1.288-3.197-1.932-5.652-1.932c-2.592,0-4.682,0.97-6.27,2.91
			c-1.588,1.939-2.382,4.402-2.382,7.39v7.879c0,3.021,0.828,5.506,2.485,7.454c1.656,1.948,3.814,2.923,6.476,2.923
			c2.008,0,3.596-0.228,4.764-0.683c1.167-0.455,2.051-1.009,2.652-1.661v-7.75h-7.854v-4.687h14.11V681.409z"/>
		<path fill="#A8A8A8" d="M190.763,686.481h-6.257v-37.49h6.257V686.481z"/>
		<path fill="#A8A8A8" d="M224.179,676.852c0-1.562-0.553-2.841-1.661-3.837c-1.107-0.995-3.068-1.888-5.883-2.678
			c-4.034-1.115-7.146-2.579-9.334-4.39c-2.188-1.812-3.283-4.176-3.283-7.094c0-3.021,1.202-5.511,3.605-7.468
			c2.403-1.956,5.493-2.935,9.27-2.935c4.051,0,7.291,1.086,9.72,3.257c2.429,2.172,3.6,4.854,3.515,8.047l-0.052,0.154h-6.025
			c0-1.974-0.657-3.545-1.97-4.712c-1.313-1.168-3.06-1.751-5.24-1.751c-2.112,0-3.738,0.498-4.879,1.493
			c-1.142,0.996-1.712,2.283-1.712,3.862c0,1.441,0.626,2.631,1.879,3.566s3.33,1.824,6.231,2.665
			c3.931,1.099,6.926,2.597,8.986,4.493c2.06,1.896,3.09,4.321,3.09,7.273c0,3.107-1.219,5.588-3.657,7.441
			c-2.438,1.854-5.639,2.781-9.604,2.781c-3.811,0-7.132-1.013-9.965-3.039c-2.832-2.024-4.206-4.883-4.12-8.574l0.052-0.154h6.025
			c0,2.249,0.776,3.944,2.33,5.086s3.446,1.712,5.678,1.712c2.214,0,3.935-0.468,5.163-1.403
			C223.565,679.714,224.179,678.448,224.179,676.852z"/>
		<path fill="#A8A8A8" d="M268.308,654.013h-11.587v32.469h-6.257v-32.469h-11.407v-5.021h29.25V654.013z"/>
		<path fill="#A8A8A8" d="M284.601,670.93v15.552h-6.257v-37.49h12.9c4.171,0,7.398,0.944,9.682,2.833
			c2.282,1.888,3.424,4.583,3.424,8.085c0,1.939-0.502,3.609-1.506,5.008c-1.004,1.399-2.468,2.52-4.391,3.36
			c2.111,0.669,3.635,1.76,4.57,3.27c0.936,1.511,1.403,3.382,1.403,5.613v3.116c0,1.099,0.138,2.172,0.412,3.218
			c0.274,1.048,0.729,1.846,1.365,2.396v0.592h-6.438c-0.687-0.566-1.124-1.45-1.313-2.652c-0.188-1.201-0.283-2.402-0.283-3.604
			v-3.013c0-1.922-0.554-3.45-1.66-4.583c-1.107-1.133-2.614-1.699-4.52-1.699H284.601z M284.601,665.908h6.309
			c2.506,0,4.334-0.48,5.484-1.441c1.149-0.962,1.726-2.43,1.726-4.403c0-1.888-0.566-3.369-1.7-4.441
			c-1.133-1.073-2.857-1.609-5.175-1.609h-6.644V665.908z"/>
		<path fill="#A8A8A8" d="M336.686,677.727h-13.286l-2.884,8.755h-6.463l13.08-37.49h5.948l12.926,37.49h-6.463L336.686,677.727z
			 M325.124,672.5h9.862l-4.815-14.779h-0.154L325.124,672.5z"/>
		<path fill="#A8A8A8" d="M355.914,686.481v-37.49h12.385c4.755,0,8.622,1.485,11.601,4.455c2.978,2.97,4.467,6.789,4.467,11.458
			v5.69c0,4.687-1.489,8.506-4.467,11.458c-2.979,2.952-6.846,4.429-11.601,4.429H355.914z M362.171,654.013v27.474h6.128
			c3.004,0,5.391-1.018,7.158-3.052c1.769-2.034,2.652-4.647,2.652-7.84v-5.742c0-3.158-0.884-5.755-2.652-7.789
			c-1.768-2.034-4.154-3.051-7.158-3.051H362.171z"/>
		<path fill="#A8A8A8" d="M425.971,671.109c0,4.583-1.438,8.381-4.313,11.394s-6.613,4.52-11.214,4.52
			c-4.479,0-8.128-1.507-10.942-4.52c-2.815-3.013-4.224-6.811-4.224-11.394v-6.746c0-4.565,1.403-8.359,4.21-11.381
			c2.807-3.021,6.459-4.531,10.956-4.531c4.584,0,8.317,1.511,11.201,4.531c2.884,3.021,4.325,6.815,4.325,11.381V671.109z
			 M419.714,664.312c0-3.124-0.832-5.69-2.497-7.698c-1.665-2.009-3.923-3.013-6.772-3.013c-2.764,0-4.939,1.004-6.527,3.013
			c-1.588,2.008-2.381,4.574-2.381,7.698v6.798c0,3.159,0.798,5.746,2.395,7.764c1.596,2.017,3.768,3.025,6.514,3.025
			c2.867,0,5.128-1.005,6.785-3.013c1.656-2.009,2.484-4.601,2.484-7.776V664.312z"/>
	</g>
</g>
</svg>
