<?xml version="1.0" encoding="utf-8"?>
<!-- Generator: Adobe Illustrator 16.0.0, SVG Export Plug-In . SVG Version: 6.00 Build 0)  -->
<!DOCTYPE svg PUBLIC "-//W3C//DTD SVG 1.1//EN" "http://www.w3.org/Graphics/SVG/1.1/DTD/svg11.dtd">
<svg version="1.1" id="registrado_gris" xmlns="http://www.w3.org/2000/svg" xmlns:xlink="http://www.w3.org/1999/xlink" x="0px"
	 y="0px" width="500px" height="730.5px" viewBox="0 0 500 730.5" enable-background="new 0 0 500 730.5" xml:space="preserve">
<g>
	<g>
		<path fill="#A8A8A8" d="M76.249,670.93v15.552h-6.257v-37.49h12.9c4.171,0,7.398,0.944,9.682,2.833
			c2.283,1.888,3.425,4.583,3.425,8.085c0,1.939-0.502,3.609-1.506,5.008c-1.004,1.399-2.468,2.52-4.39,3.36
			c2.111,0.669,3.634,1.76,4.57,3.27c0.936,1.511,1.403,3.382,1.403,5.613v3.116c0,1.099,0.137,2.172,0.412,3.218
			c0.274,1.048,0.729,1.846,1.364,2.396v0.592h-6.437c-0.687-0.566-1.125-1.45-1.313-2.652c-0.189-1.201-0.283-2.402-0.283-3.604
			v-3.013c0-1.922-0.554-3.45-1.661-4.583c-1.107-1.133-2.613-1.699-4.519-1.699H76.249z M76.249,665.908h6.309
			c2.506,0,4.334-0.48,5.484-1.441c1.15-0.962,1.725-2.43,1.725-4.403c0-1.888-0.566-3.369-1.699-4.441
			c-1.133-1.073-2.858-1.609-5.176-1.609h-6.643V665.908z"/>
		<path fill="#A8A8A8" d="M129.749,669.616h-14.677v11.87h17.303v4.995h-23.56v-37.49h23.38v5.021h-17.123v10.582h14.677V669.616z"
			/>
		<path fill="#A8A8A8" d="M171.07,681.409c-1.03,1.459-2.674,2.76-4.931,3.9c-2.257,1.143-5.171,1.713-8.742,1.713
			c-4.429,0-8.072-1.43-10.93-4.287c-2.858-2.858-4.287-6.554-4.287-11.085v-7.828c0-4.531,1.381-8.227,4.146-11.084
			c2.763-2.858,6.317-4.287,10.66-4.287c4.36,0,7.759,1.099,10.196,3.296s3.622,5.063,3.554,8.6l-0.078,0.154h-5.948
			c0-2.111-0.657-3.811-1.97-5.098c-1.313-1.288-3.197-1.932-5.652-1.932c-2.592,0-4.682,0.97-6.27,2.91
			c-1.588,1.939-2.382,4.402-2.382,7.39v7.879c0,3.021,0.828,5.506,2.485,7.454c1.656,1.948,3.814,2.923,6.476,2.923
			c2.008,0,3.596-0.228,4.764-0.683c1.167-0.455,2.051-1.009,2.652-1.661v-7.75h-7.854v-4.687h14.11V681.409z"/>
		<path fill="#A8A8A8" d="M190.763,686.481h-6.257v-37.49h6.257V686.481z"/>
		<path fill="#A8A8A8" d="M224.179,676.852c0-1.562-0.553-2.841-1.661-3.837c-1.107-0.995-3.068-1.888-5.883-2.678
			c-4.034-1.115-7.146-2.579-9.334-4.39c-2.188-1.812-3.283-4.176-3.283-7.094c0-3.021,1.202-5.511,3.605-7.468
			c2.403-1.956,5.493-2.935,9.27-2.935c4.051,0,7.291,1.086,9.72,3.257c2.429,2.172,3.6,4.854,3.515,8.047l-0.052,0.154h-6.025
			c0-1.974-0.657-3.545-1.97-4.712c-1.313-1.168-3.06-1.751-5.24-1.751c-2.112,0-3.738,0.498-4.879,1.493
			c-1.142,0.996-1.712,2.283-1.712,3.862c0,1.441,0.626,2.631,1.879,3.566s3.33,1.824,6.231,2.665
			c3.931,1.099,6.926,2.597,8.986,4.493c2.06,1.896,3.09,4.321,3.09,7.273c0,3.107-1.219,5.588-3.657,7.441
			c-2.438,1.854-5.639,2.781-9.604,2.781c-3.811,0-7.132-1.013-9.965-3.039c-2.832-2.024-4.206-4.883-4.12-8.574l0.052-0.154h6.025
			c0,2.249,0.776,3.944,2.33,5.086s3.446,1.712,5.678,1.712c2.214,0,3.935-0.468,5.163-1.403
			C223.565,679.714,224.179,678.448,224.179,676.852z"/>
		<path fill="#A8A8A8" d="M268.308,654.013h-11.587v32.469h-6.257v-32.469h-11.407v-5.021h29.25V654.013z"/>
		<path fill="#A8A8A8" d="M284.601,670.93v15.552h-6.257v-37.49h12.9c4.171,0,7.398,0.944,9.682,2.833
			c2.282,1.888,3.424,4.583,3.424,8.085c0,1.939-0.502,3.609-1.506,5.008c-1.004,1.399-2.468,2.52-4.391,3.36
			c2.111,0.669,3.635,1.76,4.57,3.27c0.936,1.511,1.403,3.382,1.403,5.613v3.116c0,1.099,0.138,2.172,0.412,3.218
			c0.274,1.048,0.729,1.846,1.365,2.396v0.592h-6.438c-0.687-0.566-1.124-1.45-1.313-2.652c-0.188-1.201-0.283-2.402-0.283-3.604
			v-3.013c0-1.922-0.554-3.45-1.66-4.583c-1.107-1.133-2.614-1.699-4.52-1.699H284.601z M284.601,665.908h6.309
			c2.506,0,4.334-0.48,5.484-1.441c1.149-0.962,1.726-2.43,1.726-4.403c0-1.888-0.566-3.369-1.7-4.441
			c-1.133-1.073-2.857-1.609-5.175-1.609h-6.644V665.908z"/>
		<path fill="#A8A8A8" d="M336.686,677.727h-13.286l-2.884,8.755h-6.463l13.08-37.49h5.948l12.926,37.49h-6.463L336.686,677.727z
			 M325.124,672.5h9.862l-4.815-14.779h-0.154L325.124,672.5z"/>
		<path fill="#A8A8A8" d="M355.914,686.481v-37.49h12.385c4.755,0,8.622,1.485,11.601,4.455c2.978,2.97,4.467,6.789,4.467,11.458
			v5.69c0,4.687-1.489,8.506-4.467,11.458c-2.979,2.952-6.846,4.429-11.601,4.429H355.914z M362.171,654.013v27.474h6.128
			c3.004,0,5.391-1.018,7.158-3.052c1.769-2.034,2.652-4.647,2.652-7.84v-5.742c0-3.158-0.884-5.755-2.652-7.789
			c-1.768-2.034-4.154-3.051-7.158-3.051H362.171z"/>
		<path fill="#A8A8A8" d="M425.971,671.109c0,4.583-1.438,8.381-4.313,11.394s-6.613,4.52-11.214,4.52
			c-4.479,0-8.128-1.507-10.942-4.52c-2.815-3.013-4.224-6.811-4.224-11.394v-6.746c0-4.565,1.403-8.359,4.21-11.381
			c2.807-3.021,6.459-4.531,10.956-4.531c4.584,0,8.317,1.511,11.201,4.531c2.884,3.021,4.325,6.815,4.325,11.381V671.109z
			 M419.714,664.312c0-3.124-0.832-5.69-2.497-7.698c-1.665-2.009-3.923-3.013-6.772-3.013c-2.764,0-4.939,1.004-6.527,3.013
			c-1.588,2.008-2.381,4.574-2.381,7.698v6.798c0,3.159,0.798,5.746,2.395,7.764c1.596,2.017,3.768,3.025,6.514,3.025
			c2.867,0,5.128-1.005,6.785-3.013c1.656-2.009,2.484-4.601,2.484-7.776V664.312z"/>
	</g>
</g>
<g>
	<g>
		<g>
			<path fill="#DBDBDB" d="M204.63,44.6c15.13-8.2,30.24-16.44,45.37-24.65c15.51,8.33,30.87,16.96,46.46,25.11
				c17.609-0.59,35.21-1.76,52.819-2.57c10.41,14.26,20.391,28.89,31.081,42.92c16.09,6.92,32.329,13.55,48.47,20.37
				c3.13,17.27,5.939,34.61,9.27,51.84c11.44,13.36,23.34,26.35,34.95,39.57c-4.75,16.92-9.78,33.78-14.34,50.74
				c4.569,16.96,9.59,33.81,14.33,50.73c-11.601,13.22-23.5,26.189-34.92,39.55c-3.37,17.221-6.15,34.57-9.29,51.851
				c-14.02,5.859-28.02,11.77-42.07,17.579c-4.48,1.46-8.37,4.33-10.81,8.4c-7.29,10.61-15.061,20.88-22.32,31.51
				c-1.43,1.87-2.72,4.02-4.819,5.2c-2.551,0.66-5.221,0.4-7.811,0.311c-12.65-0.91-25.33-1.32-37.98-2.16
				c-4.3-0.42-8.609,0.53-12.31,2.75c-11.771,6.71-23.8,12.939-35.58,19.619c-1.64,0.82-3.28,1.791-5.11,2.05
				c-2.1-0.31-3.95-1.459-5.8-2.419c-10.49-6-21.26-11.48-31.75-17.49c-4.13-2.37-8.54-4.891-13.49-4.55
				c-13.99,0.72-27.98,1.45-41.96,2.29c-2.13-0.051-4.45,0.239-6.42-0.73c-1.91-1.46-3.22-3.52-4.61-5.43
				c-6.87-10.051-14.23-19.76-21.13-29.801c-2.64-4.459-6.59-8.029-11.62-9.539c-14.04-5.811-28.05-11.72-42.07-17.59
				c-2.92-16.63-5.89-33.261-8.78-49.9c-0.18-1.15-0.5-2.311-1.37-3.13c-11.35-12.79-22.71-25.58-34.06-38.37
				c4.74-16.92,9.77-33.77,14.33-50.73c-4.56-16.97-9.59-33.82-14.34-50.74c10.72-12.07,21.42-24.16,32.17-36.21
				c1.28-1.55,3.1-2.93,3.23-5.11c2.92-16.7,5.88-33.39,8.81-50.09c15.72-6.58,31.43-13.17,47.16-19.72
				c1.89-0.54,2.79-2.39,3.9-3.84c9.46-13.27,19.01-26.48,28.5-39.73c16.42,0.86,32.84,1.65,49.25,2.54
				C201.52,45,203.22,45.48,204.63,44.6z M236.39,76.45c-30.77,2.32-60.81,13.18-85.99,31.01c-26.93,18.99-48.37,45.77-60.59,76.41
				c-12.51,30.91-15.57,65.51-8.95,98.17c7.02,35.7,26.11,68.74,53.03,93.141c23.74,21.509,53.52,36.31,85.08,41.959
				c20.87,3.69,42.5,3.9,63.29-0.38c30.68-5.55,59.48-20.13,82.81-40.72c27.12-24.15,46.351-57.2,53.73-92.78
				c8.64-39.59,2.27-82.21-17.25-117.7c-16.189-29.63-41.34-54.28-71.271-69.91C301.65,80.49,268.65,73.9,236.39,76.45z"/>
		</g>
	</g>
	<g>
		<path fill="#E7E7E7" d="M236.39,76.45c32.26-2.55,65.26,4.04,93.889,19.2c29.931,15.63,55.081,40.28,71.271,69.91
			c19.52,35.49,25.89,78.11,17.25,117.7c-18.26-18.06-36.35-36.3-54.55-54.43c-11.03-10.88-21.7-22.13-33.01-32.73
			c-0.43,27.3-0.04,54.62-0.2,81.93c-0.229,9.1,0.891,18.31-0.89,27.32c-0.121-35.45-0.061-70.899-0.04-106.35
			c-0.041-3.24-0.41-6.82-2.851-9.22c-2.56-2.89-6.6-3.54-10.26-3.54c-43.02,0-86.03,0.07-129.05-0.04
			c-4.23-0.03-9.1,0.21-12.1,3.65c-2.89,2.94-2.98,7.31-3.02,11.17c0.13,34.01-0.05,68.03,0.09,102.041
			c-0.43,5.34,3.23,9.59,7.78,11.789c8.21,8.92,17.02,17.261,25.55,25.881c25.28,25.399,50.74,50.619,76.01,76.029
			c-20.79,4.28-42.42,4.07-63.29,0.38c-31.56-5.649-61.34-20.45-85.08-41.959c-26.92-24.4-46.01-57.44-53.03-93.141
			c-6.62-32.66-3.56-67.26,8.95-98.17c12.22-30.64,33.66-57.42,60.59-76.41C175.58,89.63,205.62,78.77,236.39,76.45z"/>
		<g>
			<path fill="#E7E7E7" d="M178.83,196.01c0.2-3.02,3.48-4.2,6.09-4.04c44.03-0.16,88.07,0.08,132.109-0.03
				c2.82-0.11,6.811,0.4,7.221,3.91c0.67,5.99,0.17,12.06,0.25,18.08c-27.17,0.47-54.37,0.06-81.55,0.2
				c-21.43-0.06-42.87,0.12-64.3-0.08C178.61,208.04,178.29,202,178.83,196.01z M189.33,197.46c-4.04,0.16-6.65,5.22-4.35,8.57
				c2.05,3.64,8.03,3.46,9.8-0.34C196.95,201.97,193.55,196.95,189.33,197.46z M211.41,197.51c-4.02,0.43-6.26,5.59-3.79,8.8
				c2.24,3.52,8.18,2.97,9.77-0.87C219.39,201.61,215.61,196.66,211.41,197.51z M234.33,197.45c-4.09,0.09-6.71,5.22-4.39,8.59
				c2.05,3.64,8.05,3.45,9.8-0.39C241.89,201.98,238.49,196.99,234.33,197.45z"/>
		</g>
		<g>
			<path fill="#E7E7E7" d="M178.65,220.05c48.62-0.05,97.24-0.16,145.86,0.06c0.08,26.63-0.05,53.27,0.06,79.91
				c-0.119,2.47,0.2,5.19-1.069,7.43c-1.46,2.03-4.28,1.81-6.48,1.989c-43.67-0.029-87.339-0.02-131.01,0
				c-2.03-0.129-4.37-0.029-5.92-1.569c-1.81-1.79-1.4-4.58-1.55-6.89C178.69,274,178.44,247.02,178.65,220.05z M223.17,273.3
				c-4.31-3.95-8.1-8.44-12.45-12.36c-1.22,1.14-2.44,2.27-3.66,3.41c5.46,5.84,11.13,11.49,16.95,16.97
				c7.47-6.93,14.33-14.49,21.76-21.47c0.02,8.99,0.08,17.98-0.03,26.97c-14.85,0.1-29.7,0.1-44.55,0
				c-0.1-14.81-0.14-29.63,0.02-44.44c13.94-0.13,27.89,0,41.84-0.03c3.86,0.5,5.98-3.26,8.37-5.59
				c-18.62-0.12-37.25-0.26-55.86,0.06c-0.06,18.56-0.11,37.11,0.02,55.67c18.65,0.15,37.3,0.14,55.95,0.01
				c0.45-12.8-0.42-25.64,0.39-38.41c4.12-6.3,10.609-10.7,15.511-16.41c-1.28-1.46-2.631-2.86-4.03-4.2
				C249.89,246.65,236.83,260.29,223.17,273.3z M268.5,253.6c0,1.8,0,3.61,0,5.43c13.061,0.1,26.13,0.09,39.189,0.01
				c0-1.83,0.011-3.66,0.021-5.47C294.64,253.52,281.569,253.46,268.5,253.6z M268.51,270.41c-0.02,1.77-0.04,3.54-0.06,5.31
				c13.09,0.19,26.189,0.19,39.28,0.01c-0.021-1.79-0.041-3.57-0.05-5.34C294.63,270.24,281.561,270.2,268.51,270.41z
				 M268.529,287.15c-0.029,1.79-0.06,3.58-0.079,5.38c7.48,0.11,14.97,0.2,22.45-0.06c-0.03-1.76-0.061-3.51-0.081-5.26
				C283.39,287.03,275.96,287.12,268.529,287.15z"/>
		</g>
		<path fill="#E7E7E7" d="M113.24,407.65c5.03,1.51,8.98,5.08,11.62,9.539c6.9,10.041,14.26,19.75,21.13,29.801
			c1.39,1.91,2.7,3.97,4.61,5.43c1.97,0.97,4.29,0.68,6.42,0.73c13.98-0.84,27.97-1.57,41.96-2.29c4.95-0.341,9.36,2.18,13.49,4.55
			c10.49,6.01,21.26,11.49,31.75,17.49c1.85,0.96,3.7,2.109,5.8,2.419c1.83-0.259,3.47-1.229,5.11-2.05
			c11.78-6.68,23.81-12.909,35.58-19.619c3.7-2.22,8.01-3.17,12.31-2.75c12.65,0.84,25.33,1.25,37.98,2.16
			c2.59,0.09,5.26,0.35,7.811-0.311c2.1-1.181,3.39-3.33,4.819-5.2c7.26-10.63,15.03-20.899,22.32-31.51
			c2.439-4.07,6.329-6.94,10.81-8.4c-0.02,57.141,0,114.28-0.01,171.41c-45.59-18.569-91.16-37.17-136.74-55.76
			c-45.59,18.58-91.17,37.19-136.76,55.76C113.25,521.92,113.26,464.78,113.24,407.65z"/>
	</g>
	<g>
		<g>
			<path fill="#FFFFFF" d="M175.85,189.85c3-3.44,7.87-3.68,12.1-3.65c43.02,0.11,86.03,0.04,129.05,0.04
				c3.66,0,7.7,0.65,10.26,3.54c2.44,2.4,2.81,5.98,2.851,9.22c-0.021,35.45-0.081,70.9,0.04,106.35
				c-0.59,4.391-3.871,8.391-8.28,9.311c-4.25,0.811-8.591,0.43-12.88,0.479c-36.68-0.02-73.36,0-110.04-0.01
				c-6.08-0.02-12.18,0.17-18.25-0.28c-4.55-2.199-8.21-6.449-7.78-11.789c-0.14-34.011,0.04-68.031-0.09-102.041
				C172.87,197.16,172.96,192.79,175.85,189.85z M178.83,196.01c-0.54,5.99-0.22,12.03-0.18,18.04c21.43,0.2,42.87,0.02,64.3,0.08
				c27.18-0.14,54.38,0.27,81.55-0.2c-0.08-6.02,0.42-12.09-0.25-18.08c-0.41-3.51-4.4-4.02-7.221-3.91
				c-44.039,0.11-88.079-0.13-132.109,0.03C182.31,191.81,179.03,192.99,178.83,196.01z M178.65,220.05
				c-0.21,26.97,0.04,53.95-0.11,80.931c0.15,2.31-0.26,5.1,1.55,6.89c1.55,1.54,3.89,1.44,5.92,1.569
				c43.67-0.02,87.34-0.029,131.01,0c2.2-0.18,5.021,0.041,6.48-1.989c1.27-2.24,0.95-4.96,1.069-7.43
				c-0.109-26.64,0.021-53.28-0.06-79.91C275.89,219.89,227.27,220,178.65,220.05z"/>
		</g>
		<path fill="#FFFFFF" d="M189.33,197.46c4.22-0.51,7.62,4.51,5.45,8.23c-1.77,3.8-7.75,3.98-9.8,0.34
			C182.68,202.68,185.29,197.62,189.33,197.46z"/>
		<path fill="#FFFFFF" d="M211.41,197.51c4.2-0.85,7.98,4.1,5.98,7.93c-1.59,3.84-7.53,4.39-9.77,0.87
			C205.15,203.1,207.39,197.94,211.41,197.51z"/>
		<path fill="#FFFFFF" d="M234.33,197.45c4.16-0.46,7.56,4.53,5.41,8.2c-1.75,3.84-7.75,4.03-9.8,0.39
			C227.62,202.67,230.24,197.54,234.33,197.45z"/>
		<path fill="#FFFFFF" d="M223.17,273.3c13.66-13.01,26.72-26.65,40.23-39.82c1.399,1.34,2.75,2.74,4.03,4.2
			c-4.901,5.71-11.391,10.11-15.511,16.41c-0.81,12.77,0.061,25.61-0.39,38.41c-18.65,0.13-37.3,0.14-55.95-0.01
			c-0.13-18.56-0.08-37.11-0.02-55.67c18.61-0.32,37.24-0.18,55.86-0.06c-2.39,2.33-4.51,6.09-8.37,5.59
			c-13.95,0.03-27.9-0.1-41.84,0.03c-0.16,14.81-0.12,29.63-0.02,44.44c14.85,0.1,29.7,0.1,44.55,0c0.11-8.99,0.05-17.98,0.03-26.97
			c-7.43,6.98-14.29,14.54-21.76,21.47c-5.82-5.48-11.49-11.13-16.95-16.97c1.22-1.14,2.44-2.27,3.66-3.41
			C215.07,264.86,218.86,269.35,223.17,273.3z"/>
		<path fill="#FFFFFF" d="M268.5,253.6c13.069-0.14,26.14-0.08,39.21-0.03c-0.01,1.81-0.021,3.64-0.021,5.47
			c-13.06,0.08-26.129,0.09-39.189-0.01C268.5,257.21,268.5,255.4,268.5,253.6z"/>
		<path fill="#FFFFFF" d="M268.51,270.41c13.051-0.21,26.12-0.17,39.171-0.02c0.009,1.77,0.029,3.55,0.05,5.34
			c-13.091,0.18-26.19,0.18-39.28-0.01C268.47,273.95,268.49,272.18,268.51,270.41z"/>
		<path fill="#FFFFFF" d="M268.529,287.15c7.431-0.03,14.86-0.12,22.29,0.06c0.021,1.75,0.051,3.5,0.081,5.26
			c-7.48,0.26-14.97,0.17-22.45,0.06C268.47,290.73,268.5,288.94,268.529,287.15z"/>
	</g>
	<g>
		<path fill="#E1E1E1" d="M331.24,196.1c11.31,10.6,21.979,21.85,33.01,32.73c18.2,18.13,36.29,36.37,54.55,54.43
			c-7.38,35.58-26.61,68.63-53.73,92.78c-23.329,20.59-52.13,35.17-82.81,40.72c-25.27-25.41-50.73-50.63-76.01-76.029
			c-8.53-8.62-17.34-16.961-25.55-25.881c6.07,0.45,12.17,0.261,18.25,0.28c36.68,0.01,73.36-0.01,110.04,0.01
			c4.289-0.05,8.63,0.331,12.88-0.479c4.409-0.92,7.69-4.92,8.28-9.311c1.78-9.01,0.66-18.22,0.89-27.32
			C331.2,250.72,330.811,223.4,331.24,196.1z"/>
	</g>
</g>
</svg>
