<?xml version="1.0" encoding="utf-8"?>
<!-- Generator: Adobe Illustrator 16.0.0, SVG Export Plug-In . SVG Version: 6.00 Build 0)  -->
<!DOCTYPE svg PUBLIC "-//W3C//DTD SVG 1.1//EN" "http://www.w3.org/Graphics/SVG/1.1/DTD/svg11.dtd">
<svg version="1.1" id="acreditado_gris" xmlns="http://www.w3.org/2000/svg" xmlns:xlink="http://www.w3.org/1999/xlink" x="0px"
	 y="0px" width="500px" height="730.5px" viewBox="0 0 500 730.5" enable-background="new 0 0 500 730.5" xml:space="preserve">
<g>
	<g>
		<g>
			<path fill="#DBDBDB" d="M205.98,43.9c14.65-8.02,29.35-15.96,44.02-23.95c15.189,8.229,30.35,16.51,45.54,24.729
				c1.34,0.82,2.979,0.3,4.45,0.351c16.43-0.89,32.85-1.68,49.279-2.54c9.94,13.83,19.881,27.67,29.8,41.52
				c0.631,0.99,1.551,1.72,2.681,2.09c15.72,6.52,31.4,13.11,47.09,19.69c2.92,16.69,5.9,33.38,8.811,50.07
				c0.109,1.22,0.59,2.25,1.46,3.11c11.319,12.73,22.63,25.48,33.939,38.22c-4.76,16.92-9.771,33.78-14.35,50.74
				c4.579,16.96,9.59,33.81,14.34,50.73c-11.601,13.21-23.49,26.21-34.93,39.55c-3.351,17.221-6.15,34.57-9.271,51.851
				c-14.029,5.87-28.04,11.759-42.08,17.59c-3.14,1.3-6.59,2.539-8.59,5.47c-7.66,10.68-15.37,21.33-22.93,32.069
				c-1.82,2.511-3.391,5.271-5.73,7.341c-3.38,1.1-7.04,0.47-10.52,0.409c-10.99-0.89-22.021-0.979-33.01-1.859
				c-4.461-0.24-9.291-0.79-13.33,1.55c-14.16,7.79-28.25,15.75-42.641,23.11c-14.64-7.45-28.89-15.66-43.35-23.421
				c-3.93-2-8.48-1.459-12.71-1.27c-10.63,0.89-21.31,1-31.95,1.83c-3.82,0.11-7.78,0.75-11.51-0.311
				c-1.11-0.919-1.98-2.1-2.84-3.239c-8.47-12.16-17.19-24.141-25.83-36.18c-2-2.94-5.44-4.19-8.58-5.49
				c-14.04-5.83-28.05-11.729-42.07-17.6c-2.81-16.07-5.69-32.121-8.48-48.19c-0.35-1.67-0.33-3.601-1.67-4.851
				C49.66,324.24,38.3,311.45,26.96,298.66c4.75-16.92,9.76-33.77,14.34-50.73c-4.58-16.96-9.59-33.82-14.35-50.73
				c10.71-12.07,21.41-24.15,32.15-36.2c1.3-1.57,3.16-2.96,3.26-5.17c2.89-16.67,5.91-33.33,8.77-50.01
				c15.9-6.73,31.87-13.34,47.79-20.03c1.14-0.39,1.75-1.48,2.44-2.37c9.75-13.67,19.58-27.29,29.37-40.93
				c17.17,0.88,34.34,1.76,51.5,2.63C203.63,45.39,204.79,44.44,205.98,43.9z M215.37,79.36c-47.15,9.38-89.56,39.66-113.96,81.06
				c-17.74,29.73-26.08,65.02-23.48,99.55c3.08,51.4,31.35,100.39,73.86,129.31c37.14,25.97,84.99,36.359,129.489,27.62
				c49.101-8.59,93.641-40.021,118.281-83.351c6.75-12.439,13.02-25.36,16.39-39.17c3.14-8.95,4.31-18.44,5.63-27.78
				c2.28-22.29,0.51-45-5.801-66.52c-14.159-50.15-52.789-92.43-101.14-111.67C283.39,75.71,248.41,72.71,215.37,79.36z"/>
		</g>
	</g>
	<g>
		<g>
			<path fill="#E7E7E7" d="M215.37,79.36c33.04-6.65,68.02-3.65,99.27,9.05c48.351,19.24,86.98,61.52,101.14,111.67
				c6.311,21.52,8.081,44.23,5.801,66.52c-1.32,9.34-2.49,18.83-5.63,27.78c-17.98-17.8-35.771-35.77-53.71-53.6
				c-12.851-12.6-25.211-25.71-38.4-37.96c-1.37-2.73-2.63-5.71-5.17-7.57c-2.72-2.15-6.25-2.82-9.641-2.88
				c-15.89-0.2-31.789,0.33-47.669-0.22c-0.13-3.68-0.07-7.38-0.671-11.02c-1.6-8.47-9.1-15.47-17.689-16.39
				c-8.46-1.13-17.36,3.38-21.35,10.95c-2.22,4.06-2.31,8.82-2.35,13.33c-0.02,7.95-0.06,15.91,0.12,23.87
				c13.91,0.44,27.86,0.28,41.78,0.08c0.14-4.51,0.13-9.03,0.22-13.54c14.85-0.19,29.71,0.03,44.57-0.11
				c3.14,0.14,6.94-0.15,9.289,2.38c2.051,2.62,1.621,6.19,1.771,9.31c-0.21,17.56,0.16,35.14-0.18,52.71
				c-10.14-2.41-21.07-2.72-30.851,1.32c-3.609,1.35-6.99,3.69-10.97,3.74c-9.239,0.23-18.5-0.26-27.72,0.36
				c0.01,2.22,0.01,4.44,0.01,6.66c6.94,0.44,13.9-0.03,20.85,0.23c-5.06,6.14-9.41,12.85-12.05,20.4
				c-2.04,0.15-4.079,0.27-6.12,0.29c-25.68-0.11-51.37-0.02-77.06-0.05c-2.6-0.06-5.64-0.07-7.49-2.21
				c-2.06-2.29-1.79-5.6-1.93-8.46c0.11-24,0.13-48,0.06-72c0.06-3.55-0.33-7.21,0.73-10.64c1.16-3.05,4.67-4.02,7.63-3.98
				c13.45-0.17,26.91,0.22,40.36-0.15c-0.03-2.27-0.08-4.55-0.19-6.82c-13.05-0.14-26.11,0.03-39.17-0.07
				c-4.44-0.14-9.29,0.73-12.42,4.17c-3.11,2.96-4.05,7.37-4,11.52c0,26.31,0.06,52.63-0.02,78.95c0,3.97,0.38,8.28,3.05,11.45
				c2.38,3.24,6.37,4.63,10.17,5.31c5.02,5.81,9.92,11.76,15.55,17.01c31.98,32.069,64.11,63.99,95.989,96.15
				c-44.5,8.739-92.349-1.65-129.489-27.62c-42.51-28.92-70.78-77.91-73.86-129.31c-2.6-34.53,5.74-69.82,23.48-99.55
				C125.81,119.02,168.22,88.74,215.37,79.36z M202.35,220.51c-6.94,1.37-11.95,8.62-10.74,15.59c0.83,6.91,7.44,12.47,14.42,11.93
				c7.67-0.06,14.16-7.38,13.31-15.01C219.01,224.79,210.26,218.54,202.35,220.51z M247.41,227.37c-0.04,2.16-0.06,4.32-0.05,6.49
				c18.541,0.44,37.1,0.22,55.64,0.11c0.029-2.23,0-4.45-0.09-6.68C284.41,227.33,265.91,227.17,247.41,227.37z M247.33,248.26
				c-0.01,2.16-0.01,4.33,0.03,6.5c18.52,0.25,37.06,0.09,55.59,0.08c0.06-2.23,0.06-4.45,0.02-6.68
				C284.42,248.15,265.87,247.96,247.33,248.26z M178.02,259.19c-1.18,5.35-0.33,10.94-0.51,16.4c18.53,0.56,37.1,0.15,55.65,0.2
				c0.19-5.5,0.71-11.13-0.32-16.56c-3.9-2.79-8.5-4.42-12.9-6.25c-5.1,2.36-10.41,5.22-16.25,4.5c-4.66-0.18-8.56-2.88-12.81-4.38
				C186.19,253.89,181.56,256,178.02,259.19z"/>
		</g>
		<g>
			<path fill="#E7E7E7" d="M226.53,184.07c0.25-5.46,4.41-10.31,9.57-11.85c7.55-2.57,16.799,2.67,17.74,10.74
				c0.7,7.66,0.391,15.39,0.18,23.07c-9.189,0.15-18.399,0.41-27.569-0.15C226.41,198.61,226.17,191.33,226.53,184.07z
				 M239.33,180.32c-4.12,0.52-5.82,6.36-2.6,8.97c2.58,2.62,7.53,1.37,8.55-2.16C246.68,183.54,243.09,179.4,239.33,180.32z"/>
		</g>
		<path fill="#E7E7E7" d="M204.35,227.32c4.66-0.89,9.25,4.03,7.71,8.62c-1.1,4.8-7.73,6.77-11.25,3.32
			C196.49,235.78,198.77,227.84,204.35,227.32z"/>
		<path fill="#E7E7E7" d="M186.65,261.66c3.48-1.6,6.95,0.54,10.24,1.54c6.55,2.25,13.8,1.6,20.12-1.09
			c2.73-1.28,6.03-1.46,8.63,0.27c1.09,1.96,0.56,4.26,0.46,6.38c-13.76,0.1-27.52,0-41.27,0.05
			C184.63,266.45,183.55,262.52,186.65,261.66z"/>
		<g>
			<path fill="#E7E7E7" d="M296.35,269.49c9.32-1.54,19.141,0.18,27.351,4.87c10.29,5.77,17.869,16.11,20.3,27.65
				c1.84,8.461,0.86,17.48-2.66,25.38c-4.779,10.971-14.561,19.561-25.979,23.061c-9.721,3.03-20.55,2.28-29.771-2.03
				c-11.55-5.28-20.51-16.05-23.271-28.47c-2.619-11.3-0.189-23.66,6.5-33.13C275.12,277.61,285.34,271.26,296.35,269.49z
				 M321.42,294.07c-8.53,8.39-16.78,17.07-25.51,25.26c-3.881-3.311-7.04-7.37-10.95-10.649c-1.75,1.3-3.399,2.729-4.94,4.29
				c5.131,5.549,10.7,10.68,16.15,15.899c10.061-9.899,20.13-19.801,29.95-29.93C324.74,297.14,323.17,295.5,321.42,294.07z"/>
		</g>
		<path fill="#E7E7E7" d="M113.24,407.66c3.14,1.3,6.58,2.55,8.58,5.49c8.64,12.039,17.36,24.02,25.83,36.18
			c0.86,1.14,1.73,2.32,2.84,3.239c3.73,1.061,7.69,0.421,11.51,0.311c10.64-0.83,21.32-0.94,31.95-1.83
			c4.23-0.189,8.78-0.73,12.71,1.27c14.46,7.761,28.71,15.971,43.35,23.421c14.391-7.36,28.48-15.32,42.641-23.11
			c4.039-2.34,8.869-1.79,13.33-1.55c10.989,0.88,22.02,0.97,33.01,1.859c3.479,0.061,7.14,0.69,10.52-0.409
			c2.34-2.07,3.91-4.83,5.73-7.341c7.56-10.739,15.27-21.39,22.93-32.069c2-2.931,5.45-4.17,8.59-5.47
			c-0.02,57.13-0.01,114.27-0.01,171.399c-45.59-18.569-91.16-37.18-136.75-55.76c-45.59,18.58-91.16,37.19-136.75,55.76
			C113.25,521.92,113.26,464.79,113.24,407.66z"/>
	</g>
	<g>
		<g>
			<path fill="#FFFFFF" d="M221.65,175.69c3.99-7.57,12.89-12.08,21.35-10.95c8.59,0.92,16.09,7.92,17.689,16.39
				c0.601,3.64,0.541,7.34,0.671,11.02c15.88,0.55,31.779,0.02,47.669,0.22c3.391,0.06,6.921,0.73,9.641,2.88
				c2.54,1.86,3.8,4.84,5.17,7.57c0.689,21.22-0.25,42.47,0.471,63.68c4.219,2.78,8.68,5.29,12.359,8.81
				c9.54,8.86,15.19,21.72,15.25,34.75c0.24,11.209-3.62,22.43-10.76,31.09c-9.979,12.39-26.24,19.46-42.12,18.05
				c-14.64-1.17-28.479-9.4-36.63-21.61c-6.85-9.779-9.12-22.04-7.95-33.779c-28.24-0.181-56.48-0.021-84.72-0.07
				c-3.8-0.68-7.79-2.07-10.17-5.31c-2.67-3.17-3.05-7.48-3.05-11.45c0.08-26.32,0.02-52.64,0.02-78.95
				c-0.05-4.15,0.89-8.56,4-11.52c3.13-3.44,7.98-4.31,12.42-4.17c13.06,0.1,26.12-0.07,39.17,0.07c0.11,2.27,0.16,4.55,0.19,6.82
				c-13.45,0.37-26.91-0.02-40.36,0.15c-2.96-0.04-6.47,0.93-7.63,3.98c-1.06,3.43-0.67,7.09-0.73,10.64c0.07,24,0.05,48-0.06,72
				c0.14,2.86-0.13,6.17,1.93,8.46c1.85,2.14,4.89,2.15,7.49,2.21c25.69,0.03,51.38-0.06,77.06,0.05c2.041-0.02,4.08-0.14,6.12-0.29
				c2.64-7.55,6.99-14.26,12.05-20.4c-6.949-0.26-13.909,0.21-20.85-0.23c0-2.22,0-4.44-0.01-6.66c9.22-0.62,18.48-0.13,27.72-0.36
				c3.979-0.05,7.36-2.39,10.97-3.74c9.78-4.04,20.711-3.73,30.851-1.32c0.34-17.57-0.03-35.15,0.18-52.71
				c-0.149-3.12,0.28-6.69-1.771-9.31c-2.349-2.53-6.149-2.24-9.289-2.38c-14.86,0.14-29.721-0.08-44.57,0.11
				c-0.09,4.51-0.08,9.03-0.22,13.54c-13.92,0.2-27.87,0.36-41.78-0.08c-0.18-7.96-0.14-15.92-0.12-23.87
				C219.34,184.51,219.43,179.75,221.65,175.69z M226.53,184.07c-0.36,7.26-0.12,14.54-0.08,21.81c9.17,0.56,18.38,0.3,27.569,0.15
				c0.211-7.68,0.521-15.41-0.18-23.07c-0.94-8.07-10.19-13.31-17.74-10.74C230.94,173.76,226.78,178.61,226.53,184.07z
				 M296.35,269.49c-11.01,1.77-21.229,8.12-27.53,17.33c-6.689,9.47-9.119,21.831-6.5,33.13
				c2.761,12.42,11.721,23.189,23.271,28.47c9.221,4.311,20.05,5.061,29.771,2.03c11.419-3.5,21.2-12.09,25.979-23.061
				c3.521-7.899,4.5-16.919,2.66-25.38c-2.431-11.54-10.01-21.88-20.3-27.65C315.49,269.67,305.67,267.95,296.35,269.49z"/>
		</g>
		<path fill="#FFFFFF" d="M239.33,180.32c3.76-0.92,7.35,3.22,5.95,6.81c-1.02,3.53-5.97,4.78-8.55,2.16
			C233.51,186.68,235.21,180.84,239.33,180.32z"/>
		<g>
			<path fill="#FFFFFF" d="M202.35,220.51c7.91-1.97,16.66,4.28,16.99,12.51c0.85,7.63-5.64,14.95-13.31,15.01
				c-6.98,0.54-13.59-5.02-14.42-11.93C190.4,229.13,195.41,221.88,202.35,220.51z M204.35,227.32c-5.58,0.52-7.86,8.46-3.54,11.94
				c3.52,3.45,10.15,1.48,11.25-3.32C213.6,231.35,209.01,226.43,204.35,227.32z"/>
		</g>
		<path fill="#FFFFFF" d="M247.41,227.37c18.5-0.2,37-0.04,55.5-0.08c0.09,2.23,0.119,4.45,0.09,6.68
			c-18.54,0.11-37.1,0.33-55.64-0.11C247.35,231.69,247.37,229.53,247.41,227.37z"/>
		<path fill="#FFFFFF" d="M247.33,248.26c18.54-0.3,37.09-0.11,55.64-0.1c0.04,2.23,0.04,4.45-0.02,6.68
			c-18.53,0.01-37.07,0.17-55.59-0.08C247.32,252.59,247.32,250.42,247.33,248.26z"/>
		<g>
			<path fill="#FFFFFF" d="M178.02,259.19c3.54-3.19,8.17-5.3,12.86-6.09c4.25,1.5,8.15,4.2,12.81,4.38
				c5.84,0.72,11.15-2.14,16.25-4.5c4.4,1.83,9,3.46,12.9,6.25c1.03,5.43,0.51,11.06,0.32,16.56c-18.55-0.05-37.12,0.36-55.65-0.2
				C177.69,270.13,176.84,264.54,178.02,259.19z M186.65,261.66c-3.1,0.86-2.02,4.79-1.82,7.15c13.75-0.05,27.51,0.05,41.27-0.05
				c0.1-2.12,0.63-4.42-0.46-6.38c-2.6-1.73-5.9-1.55-8.63-0.27c-6.32,2.69-13.57,3.34-20.12,1.09
				C193.6,262.2,190.13,260.06,186.65,261.66z"/>
		</g>
		<path fill="#FFFFFF" d="M321.42,294.07c1.75,1.43,3.32,3.07,4.7,4.87c-9.82,10.129-19.89,20.031-29.95,29.93
			c-5.45-5.22-11.02-10.351-16.15-15.899c1.541-1.561,3.19-2.99,4.94-4.29c3.91,3.279,7.069,7.339,10.95,10.649
			C304.64,311.14,312.89,302.46,321.42,294.07z"/>
	</g>
	<g>
		<path fill="#E1E1E1" d="M323.84,202.82c13.189,12.25,25.55,25.36,38.4,37.96c17.939,17.83,35.729,35.8,53.71,53.6
			c-3.37,13.81-9.64,26.73-16.39,39.17c-24.641,43.33-69.181,74.761-118.281,83.351c-31.879-32.16-64.009-64.081-95.989-96.15
			c-5.63-5.25-10.53-11.2-15.55-17.01c28.24,0.05,56.48-0.11,84.72,0.07c-1.17,11.739,1.101,24,7.95,33.779
			c8.15,12.21,21.99,20.44,36.63,21.61c15.88,1.41,32.141-5.66,42.12-18.05c7.14-8.66,11-19.881,10.76-31.09
			c-0.06-13.031-5.71-25.891-15.25-34.75c-3.68-3.52-8.141-6.03-12.359-8.81C323.59,245.29,324.529,224.04,323.84,202.82z"/>
	</g>
</g>
<g>
	<g>
		<path fill="#A8A8A8" d="M90.99,677.727H77.704l-2.884,8.755h-6.463l13.081-37.49h5.948l12.926,37.49h-6.463L90.99,677.727z
			 M79.429,672.5h9.861l-4.815-14.779h-0.154L79.429,672.5z"/>
		<path fill="#A8A8A8" d="M137.332,674.226l0.052,0.154c0.068,3.776-1.159,6.827-3.682,9.153s-5.931,3.489-10.222,3.489
			c-4.36,0-7.896-1.472-10.608-4.416c-2.712-2.944-4.068-6.708-4.068-11.291v-7.132c0-4.566,1.339-8.33,4.017-11.291
			c2.678-2.961,6.171-4.441,10.48-4.441c4.411,0,7.883,1.124,10.415,3.373c2.532,2.249,3.763,5.329,3.695,9.243l-0.051,0.154h-6.051
			c0-2.506-0.679-4.424-2.034-5.755c-1.356-1.33-3.348-1.995-5.974-1.995c-2.541,0-4.554,1.009-6.038,3.025
			c-1.485,2.018-2.228,4.563-2.228,7.635v7.184c0,3.107,0.755,5.669,2.266,7.687c1.51,2.017,3.57,3.025,6.18,3.025
			c2.558,0,4.501-0.67,5.832-2.009c1.33-1.339,1.996-3.271,1.996-5.793H137.332z"/>
		<path fill="#A8A8A8" d="M154.938,670.93v15.552h-6.257v-37.49h12.9c4.171,0,7.398,0.944,9.682,2.833
			c2.283,1.888,3.425,4.583,3.425,8.085c0,1.939-0.502,3.609-1.506,5.008c-1.004,1.399-2.468,2.52-4.39,3.36
			c2.111,0.669,3.634,1.76,4.57,3.27c0.936,1.511,1.403,3.382,1.403,5.613v3.116c0,1.099,0.137,2.172,0.412,3.218
			c0.274,1.048,0.729,1.846,1.364,2.396v0.592h-6.437c-0.687-0.566-1.125-1.45-1.313-2.652c-0.189-1.201-0.283-2.402-0.283-3.604
			v-3.013c0-1.922-0.554-3.45-1.661-4.583c-1.107-1.133-2.613-1.699-4.519-1.699H154.938z M154.938,665.908h6.309
			c2.506,0,4.334-0.48,5.484-1.441c1.15-0.962,1.725-2.43,1.725-4.403c0-1.888-0.566-3.369-1.699-4.441
			c-1.133-1.073-2.858-1.609-5.176-1.609h-6.643V665.908z"/>
		<path fill="#A8A8A8" d="M208.439,669.616h-14.677v11.87h17.303v4.995h-23.56v-37.49h23.38v5.021h-17.123v10.582h14.677V669.616z"
			/>
		<path fill="#A8A8A8" d="M221.978,686.481v-37.49h12.385c4.754,0,8.621,1.485,11.6,4.455c2.978,2.97,4.467,6.789,4.467,11.458v5.69
			c0,4.687-1.489,8.506-4.467,11.458c-2.979,2.952-6.845,4.429-11.6,4.429H221.978z M228.235,654.013v27.474h6.128
			c3.003,0,5.39-1.018,7.158-3.052c1.768-2.034,2.652-4.647,2.652-7.84v-5.742c0-3.158-0.884-5.755-2.652-7.789
			c-1.769-2.034-4.155-3.051-7.158-3.051H228.235z"/>
		<path fill="#A8A8A8" d="M269.35,686.481h-6.257v-37.49h6.257V686.481z"/>
		<path fill="#A8A8A8" d="M308.457,654.013H296.87v32.469h-6.257v-32.469h-11.407v-5.021h29.251V654.013z"/>
		<path fill="#A8A8A8" d="M335.205,677.727h-13.286l-2.884,8.755h-6.463l13.08-37.49h5.948l12.926,37.49h-6.463L335.205,677.727z
			 M323.644,672.5h9.862l-4.815-14.779h-0.154L323.644,672.5z"/>
		<path fill="#A8A8A8" d="M354.434,686.481v-37.49h12.385c4.755,0,8.622,1.485,11.601,4.455c2.978,2.97,4.467,6.789,4.467,11.458
			v5.69c0,4.687-1.489,8.506-4.467,11.458c-2.979,2.952-6.846,4.429-11.601,4.429H354.434z M360.69,654.013v27.474h6.128
			c3.004,0,5.391-1.018,7.158-3.052c1.769-2.034,2.652-4.647,2.652-7.84v-5.742c0-3.158-0.884-5.755-2.652-7.789
			c-1.768-2.034-4.154-3.051-7.158-3.051H360.69z"/>
		<path fill="#A8A8A8" d="M424.49,671.109c0,4.583-1.438,8.381-4.313,11.394s-6.613,4.52-11.214,4.52
			c-4.479,0-8.128-1.507-10.942-4.52c-2.815-3.013-4.224-6.811-4.224-11.394v-6.746c0-4.565,1.403-8.359,4.21-11.381
			c2.807-3.021,6.459-4.531,10.956-4.531c4.584,0,8.317,1.511,11.201,4.531c2.884,3.021,4.325,6.815,4.325,11.381V671.109z
			 M418.233,664.312c0-3.124-0.832-5.69-2.497-7.698c-1.665-2.009-3.923-3.013-6.772-3.013c-2.764,0-4.939,1.004-6.527,3.013
			c-1.588,2.008-2.381,4.574-2.381,7.698v6.798c0,3.159,0.798,5.746,2.395,7.764c1.596,2.017,3.768,3.025,6.514,3.025
			c2.867,0,5.128-1.005,6.785-3.013c1.656-2.009,2.484-4.601,2.484-7.776V664.312z"/>
	</g>
</g>
</svg>
