<?xml version="1.0" encoding="utf-8"?>
<!-- Generator: Adobe Illustrator 16.0.0, SVG Export Plug-In . SVG Version: 6.00 Build 0)  -->
<!DOCTYPE svg PUBLIC "-//W3C//DTD SVG 1.1//EN" "http://www.w3.org/Graphics/SVG/1.1/DTD/svg11.dtd">
<svg version="1.1" id="premium" xmlns="http://www.w3.org/2000/svg" xmlns:xlink="http://www.w3.org/1999/xlink" x="0px" y="0px"
	 width="500px" height="730.5px" viewBox="0 0 500 730.5" enable-background="new 0 0 500 730.5" xml:space="preserve">
<g>
	<g>
		<g>
			<path fill="#B89E2D" d="M206,43.88c14.65-8.01,29.33-15.96,44.01-23.92c15.101,8.19,30.19,16.43,45.31,24.6
				c1.391,0.9,3.081,0.48,4.631,0.48c16.439-0.91,32.88-1.68,49.31-2.55c9.971,13.85,19.92,27.71,29.86,41.58
				c0.63,1,1.6,1.68,2.72,2.06c15.689,6.54,31.391,13.07,47.04,19.71c3.06,17.29,5.88,34.66,9.271,51.88
				c11.46,13.29,23.3,26.28,34.89,39.47c-4.74,16.93-9.79,33.78-14.34,50.76c4.569,16.96,9.61,33.8,14.34,50.72
				c-11.61,13.19-23.471,26.17-34.9,39.49c-3.409,17.22-6.17,34.59-9.3,51.88c-14.01,5.899-28.04,11.779-42.08,17.61
				c-2.899,1.25-6.31,2.08-8.18,4.84c-9.03,12.68-18.16,25.29-27.17,37.979c-1.091,1.42-2.3,3.28-4.381,2.761
				c-15.689-0.851-31.39-1.49-47.069-2.44c-4.45-0.57-8.07,2.46-11.79,4.36c-12.76,6.85-25.38,13.939-38.19,20.68
				c-12.96-6.91-25.83-14-38.74-21c-3.24-1.62-6.34-4.25-10.17-4.05c-16.05,0.81-32.1,1.739-48.16,2.43
				c-2.07,0.51-3.23-1.34-4.31-2.72c-9.02-12.69-18.15-25.32-27.18-37.99c-1.87-2.79-5.28-3.61-8.18-4.85
				c-14.04-5.82-28.05-11.72-42.07-17.59c-2.92-16.681-5.91-33.351-8.81-50.041c-0.17-1.14-0.55-2.239-1.39-3.06
				c-11.35-12.75-22.68-25.529-34.01-38.3c4.42-15.5,8.81-31.02,13.26-46.51c0.52-2.05,1.57-4.18,0.61-6.27
				c-4.64-16.22-9.24-32.46-13.87-48.68c10.71-12.08,21.41-24.16,32.15-36.22c1.28-1.55,3.1-2.92,3.23-5.09
				c2.9-16.69,5.94-33.35,8.77-50.04c16.13-6.92,32.42-13.48,48.53-20.44c10.69-14.03,20.66-28.67,31.1-42.92
				c17.11,0.88,34.23,1.76,51.35,2.63C203.54,45.4,204.76,44.46,206,43.88z M184.7,88.66c-30.74,12.49-57.69,34.09-76.61,61.35
				c-19.69,28.22-30.61,62.5-30.62,96.93c-0.3,30.27,7.71,60.58,22.91,86.75c16.46,28.57,41.33,52.181,70.66,67.221
				c29.17,14.96,62.71,21.479,95.34,18.14c51.33-4.36,99.83-33.54,127.82-76.76c15.52-22.9,24.51-49.82,27.72-77.21
				c0.95-14.55,0.96-29.23-1.38-43.66c-5.351-34.7-21.71-67.59-46.2-92.75c-23.439-24.42-54.26-41.64-87.35-48.78
				C253.05,72.49,216.88,75.5,184.7,88.66z"/>
		</g>
	</g>
	<g>
		<g>
			<path fill="#E4C43C" d="M184.7,88.66c32.18-13.16,68.35-16.17,102.29-8.77c33.09,7.14,63.91,24.36,87.35,48.78
				c24.49,25.16,40.85,58.05,46.2,92.75c2.34,14.43,2.33,29.11,1.38,43.66c-0.56,0.6-1.12,1.21-1.67,1.82
				c-5.88-5.82-11.75-11.66-17.55-17.55c-15.131-13.89-29.271-28.83-43.94-43.2c-3.32-3.31-6.49-6.8-10.34-9.51
				c-1.21-7.87-8.51-13.95-16.45-13.82c-19.34-0.18-38.68-0.01-58.02-0.08c-0.061-5.94,0.54-12.18-1.97-17.75
				c-3.92-9.7-14.42-16.33-24.9-15.18c-11.41,0.74-21.9,10.16-22.71,21.76c-0.6,11.93-0.17,23.89-0.16,35.83
				c16.61,0.08,33.229,0.04,49.84,0.03c0.02-5.44,0-10.87,0.02-16.3c17.641-0.03,35.28,0.03,52.921-0.03
				c3.6,0.08,7.789-0.34,10.649,2.32c2.14,1.91,2.471,4.94,2.49,7.64c0.07,17.64,0.051,35.28,0.06,52.92
				c-11.47-9.17-27.62-12.22-41.5-7.19c-2.509,0.86-4.93,2.28-7.66,2.26c-11.189,0.05-22.399-0.04-33.59,0.03
				c-0.009,2.64-0.009,5.28-0.009,7.93c8.229,0.1,16.459,0.07,24.699,0.01c-4.601,4.78-8.14,10.49-10.43,16.71
				c-4.71,0.03-9.41,0.03-14.11-0.02c-0.07,2.79-0.13,5.58-0.15,8.37c4.101,0.14,8.2,0.15,12.311,0.09
				c-0.88,8.45,0.561,17.07,4.27,24.73c-35.979-0.061-71.959-0.07-107.939-0.131c-4.77,0.25-8.52-4.14-8.21-8.77
				c-0.15-31.99,0.01-64-0.07-95.99c0.04-3.03,0.14-6.52,2.59-8.68c2.3-2.17,5.65-2.21,8.62-2.23c15.6,0.04,31.2,0.03,46.8,0.01
				c0-2.75,0-5.5,0-8.25c-15.93-0.26-31.86-0.05-47.78-0.07c-3.47-0.04-7.08,0.24-10.13,2.05c-5.41,2.89-8.61,9.02-8.45,15.09
				c-0.06,33.02,0.07,66.04,0.07,99.06c-0.07,8.199,6.71,15.37,14.82,16.109c3.24,4.54,7.48,8.19,11.35,12.16
				c12.65,12.721,25.32,25.421,37.99,38.11c6.13,6.149,12.42,12.17,18.16,18.69c11.38,11.8,23.35,23.009,34.54,34.989
				c-32.63,3.34-66.17-3.18-95.34-18.14c-29.33-15.04-54.2-38.65-70.66-67.221c-15.2-26.17-23.21-56.479-22.91-86.75
				c0.01-34.43,10.93-68.71,30.62-96.93C127.01,122.75,153.96,101.15,184.7,88.66z M202.4,216.67
				c-7.58,2.33-12.71,10.59-11.23,18.43c1.2,8.75,10.28,15.33,18.99,13.69c9.13-1.16,15.89-10.9,13.66-19.88
				C222.07,219.56,211.34,213.49,202.4,216.67z M257.529,224.36c0.021,2.65,0.031,5.29,0.04,7.94
				c21.991,0.05,43.991-0.04,65.98,0.05c0.08-2.68,0.101-5.36,0.07-8.04C301.59,224.34,279.561,224.24,257.529,224.36z
				 M174.59,262.68c-0.52,6.4-0.15,12.87-0.22,19.29c22.15,0.06,44.3,0.03,66.45,0.02c-0.04-5.98,0.07-11.95-0.12-17.92
				c0.15-2.29-2.29-3.07-3.93-3.92c-3.93-1.75-7.73-3.81-11.79-5.23c-4.16,1.2-7.74,4.22-12.16,4.83
				c-7.64,1.9-15.28-0.96-21.83-4.73C185.01,255.67,178.89,258.42,174.59,262.68z"/>
		</g>
		<g>
			<path fill="#E4C43C" d="M232.78,172.04c0.75-8.73,9.89-15.15,18.36-13.86c7.44,0.82,13.94,7.27,14.24,14.85
				c0.399,8.75,0.33,17.53,0.01,26.28c-10.92-0.16-21.85,0.02-32.78-0.1C232.58,190.16,232.13,181.08,232.78,172.04z M247.42,168.53
				c-4.6,1.01-6.2,7.54-2.59,10.57c3.2,3.23,9.39,1.41,10.3-3.06C256.45,171.64,251.77,167.13,247.42,168.53z"/>
		</g>
		<path fill="#E4C43C" d="M205.42,224.51c5.82-1.86,11.99,4.28,10.09,10.09c-1.39,5.86-9.64,8.12-13.75,3.65
			C197.26,234.17,199.46,225.8,205.42,224.51z"/>
		<g>
			<path fill="#E4C43C" d="M308.47,253.6c16.211-2.39,33.03,8.54,37.341,24.36c4.85,15.37-3.061,33.33-17.601,40.221
				c-14.141,7.43-33.021,3.079-42.57-9.7c-7.31-9.291-9.22-22.49-4.76-33.46C285.279,263.56,296.3,255.07,308.47,253.6z
				 M307.09,279.93c-6.159,0.05-12.311-0.07-18.46,0.07c4.67,3.86,10.03,6.84,14.51,10.9c-0.86,5.96-3.899,11.411-4.97,17.37
				c5.22-3.08,9.891-6.989,14.891-10.419c5.109,3.371,9.759,7.419,15.069,10.48c-1.22-5-3.02-9.83-4.63-14.71
				c-0.63-1.39-0.37-3.13,0.931-4.01c4.279-3.32,9.039-6.04,13.02-9.74c-6.131-0.25-12.261-0.07-18.4-0.12
				c-1.95-5.67-3.71-11.4-5.7-17.06C310.311,267.96,309.33,274.25,307.09,279.93z"/>
		</g>
		<path fill="#E4C43C" d="M182.88,266.98c2.46-3.04,7.25-3.12,10.53-1.38c8.59,3.86,18.76,4.06,27.44,0.34
			c3.04-1.57,6.67-2.15,9.78-0.4c3.04,1.42,1.38,5.47,1.85,8.08c-16.56,0.19-33.12-0.05-49.68,0.13
			C182.74,271.49,182.56,269.22,182.88,266.98z"/>
		<path fill="#E4C43C" d="M290.11,324.34c13.72,8.53,32.06,8.49,45.709-0.159c-0.029,14.43,0,28.869-0.009,43.3
			c-7.7-7.05-15.301-14.211-22.991-21.28c-7.579,7.069-15.089,14.21-22.689,21.26C290.1,353.08,290.15,338.71,290.11,324.34z"/>
		<path fill="#E4C43C" d="M113.24,407.65c2.9,1.239,6.31,2.06,8.18,4.85c9.03,12.67,18.16,25.3,27.18,37.99
			c1.08,1.38,2.24,3.229,4.31,2.72c16.06-0.69,32.11-1.62,48.16-2.43c3.83-0.2,6.93,2.43,10.17,4.05c12.91,7,25.78,14.09,38.74,21
			c12.81-6.74,25.43-13.83,38.19-20.68c3.72-1.9,7.34-4.931,11.79-4.36c15.68,0.95,31.38,1.59,47.069,2.44
			c2.081,0.52,3.29-1.341,4.381-2.761c9.01-12.689,18.14-25.3,27.17-37.979c1.87-2.76,5.28-3.59,8.18-4.84
			c-0.01,57.13-0.01,114.27-0.01,171.399c-45.59-18.569-91.17-37.18-136.75-55.76c-45.59,18.58-91.16,37.19-136.75,55.76
			C113.25,521.92,113.26,464.78,113.24,407.65z"/>
	</g>
	<g>
		<g>
			<path fill="#FFFFFF" d="M224.37,171.57c0.81-11.6,11.3-21.02,22.71-21.76c10.48-1.15,20.98,5.48,24.9,15.18
				c2.51,5.57,1.909,11.81,1.97,17.75c19.34,0.07,38.68-0.1,58.02,0.08c7.94-0.13,15.24,5.95,16.45,13.82
				c0.62,18.77,0.1,37.56,0.27,56.34c0.2,4.52-0.979,9.54,1.88,13.48c9.391,15.76,6.561,37.12-5.859,50.45
				c0.25,23.71,0.05,47.43,0.101,71.15c-10.681-9.841-21.271-19.761-31.95-29.591c-10.581,9.86-21.101,19.79-31.66,29.67
				c0.01-23.689-0.11-47.37,0.06-71.06c-0.41-0.46-1.23-1.37-1.64-1.83c-38.42-0.17-76.86,0.1-115.28-0.15
				c-8.11-0.739-14.89-7.91-14.82-16.109c0-33.02-0.13-66.04-0.07-99.06c-0.16-6.07,3.04-12.2,8.45-15.09
				c3.05-1.81,6.66-2.09,10.13-2.05c15.92,0.02,31.85-0.19,47.78,0.07c0,2.75,0,5.5,0,8.25c-15.6,0.02-31.2,0.03-46.8-0.01
				c-2.97,0.02-6.32,0.06-8.62,2.23c-2.45,2.16-2.55,5.65-2.59,8.68c0.08,31.99-0.08,64,0.07,95.99c-0.31,4.63,3.44,9.02,8.21,8.77
				c35.98,0.061,71.96,0.07,107.939,0.131c-3.709-7.66-5.149-16.28-4.27-24.73c-4.11,0.06-8.21,0.05-12.311-0.09
				c0.021-2.79,0.08-5.58,0.15-8.37c4.7,0.05,9.4,0.05,14.11,0.02c2.29-6.22,5.829-11.93,10.43-16.71
				c-8.24,0.06-16.47,0.09-24.699-0.01c0-2.65,0-5.29,0.009-7.93c11.19-0.07,22.4,0.02,33.59-0.03c2.73,0.02,5.151-1.4,7.66-2.26
				c13.88-5.03,30.03-1.98,41.5,7.19c-0.009-17.64,0.011-35.28-0.06-52.92c-0.02-2.7-0.351-5.73-2.49-7.64
				c-2.86-2.66-7.05-2.24-10.649-2.32c-17.641,0.06-35.28,0-52.921,0.03c-0.02,5.43,0,10.86-0.02,16.3
				c-16.61,0.01-33.23,0.05-49.84-0.03C224.2,195.46,223.77,183.5,224.37,171.57z M232.78,172.04c-0.65,9.04-0.2,18.12-0.17,27.17
				c10.93,0.12,21.86-0.06,32.78,0.1c0.32-8.75,0.39-17.53-0.01-26.28c-0.3-7.58-6.8-14.03-14.24-14.85
				C242.67,156.89,233.53,163.31,232.78,172.04z M308.47,253.6c-12.17,1.47-23.19,9.96-27.59,21.42
				c-4.46,10.97-2.55,24.17,4.76,33.46c9.55,12.779,28.43,17.13,42.57,9.7c14.54-6.891,22.45-24.851,17.601-40.221
				C341.5,262.14,324.681,251.21,308.47,253.6z M290.11,324.34c0.04,14.37-0.011,28.74,0.02,43.12
				c7.601-7.05,15.11-14.19,22.689-21.26c7.69,7.069,15.291,14.23,22.991,21.28c0.009-14.431-0.021-28.87,0.009-43.3
				C322.17,332.83,303.83,332.87,290.11,324.34z"/>
		</g>
		<path fill="#FFFFFF" d="M247.42,168.53c4.35-1.4,9.03,3.11,7.71,7.51c-0.91,4.47-7.1,6.29-10.3,3.06
			C241.22,176.07,242.82,169.54,247.42,168.53z"/>
		<g>
			<path fill="#FFFFFF" d="M202.4,216.67c8.94-3.18,19.67,2.89,21.42,12.24c2.23,8.98-4.53,18.72-13.66,19.88
				c-8.71,1.64-17.79-4.94-18.99-13.69C189.69,227.26,194.82,219,202.4,216.67z M205.42,224.51c-5.96,1.29-8.16,9.66-3.66,13.74
				c4.11,4.47,12.36,2.21,13.75-3.65C217.41,228.79,211.24,222.65,205.42,224.51z"/>
		</g>
		<path fill="#FFFFFF" d="M257.529,224.36c22.031-0.12,44.061-0.02,66.091-0.05c0.03,2.68,0.01,5.36-0.07,8.04
			c-21.989-0.09-43.989,0-65.98-0.05C257.561,229.65,257.55,227.01,257.529,224.36z"/>
		<g>
			<path fill="#FFFFFF" d="M174.59,262.68c4.3-4.26,10.42-7.01,16.4-7.66c6.55,3.77,14.19,6.63,21.83,4.73
				c4.42-0.61,8-3.63,12.16-4.83c4.06,1.42,7.86,3.48,11.79,5.23c1.64,0.85,4.08,1.63,3.93,3.92c0.19,5.97,0.08,11.94,0.12,17.92
				c-22.15,0.01-44.3,0.04-66.45-0.02C174.44,275.55,174.07,269.08,174.59,262.68z M182.88,266.98c-0.32,2.24-0.14,4.51-0.08,6.77
				c16.56-0.18,33.12,0.06,49.68-0.13c-0.47-2.61,1.19-6.66-1.85-8.08c-3.11-1.75-6.74-1.17-9.78,0.4
				c-8.68,3.72-18.85,3.52-27.44-0.34C190.13,263.86,185.34,263.94,182.88,266.98z"/>
		</g>
		<path fill="#FFFFFF" d="M307.09,279.93c2.24-5.68,3.221-11.97,6.26-17.24c1.99,5.66,3.75,11.39,5.7,17.06
			c6.14,0.05,12.27-0.13,18.4,0.12c-3.98,3.7-8.74,6.42-13.02,9.74c-1.301,0.88-1.561,2.62-0.931,4.01
			c1.61,4.88,3.41,9.71,4.63,14.71c-5.311-3.061-9.96-7.109-15.069-10.48c-5,3.43-9.671,7.339-14.891,10.419
			c1.07-5.959,4.109-11.41,4.97-17.37c-4.479-4.06-9.84-7.04-14.51-10.9C294.779,279.86,300.931,279.98,307.09,279.93z"/>
	</g>
	<g>
		<path fill="#CEB134" d="M348.42,196.64c3.85,2.71,7.02,6.2,10.34,9.51c14.67,14.37,28.81,29.31,43.94,43.2
			c5.8,5.89,11.67,11.73,17.55,17.55c0.55-0.61,1.11-1.22,1.67-1.82c-3.21,27.39-12.2,54.31-27.72,77.21
			c-27.99,43.22-76.49,72.399-127.82,76.76c-11.19-11.98-23.16-23.189-34.54-34.989c-5.74-6.521-12.03-12.541-18.16-18.69
			c-12.67-12.689-25.34-25.39-37.99-38.11c-3.87-3.97-8.11-7.62-11.35-12.16c38.42,0.25,76.86-0.02,115.28,0.15
			c0.409,0.46,1.229,1.37,1.64,1.83c-0.17,23.689-0.05,47.37-0.06,71.06c10.56-9.88,21.079-19.81,31.66-29.67
			c10.68,9.83,21.27,19.75,31.95,29.591c-0.051-23.721,0.149-47.44-0.101-71.15c12.42-13.33,15.25-34.69,5.859-50.45
			c-2.859-3.94-1.68-8.96-1.88-13.48C348.52,234.2,349.04,215.41,348.42,196.64z"/>
	</g>
</g>
<g>
	<g>
		<path fill="#A8A8A8" d="M122.163,672.269v14.213h-6.257v-37.49h14.368c4.137,0,7.377,1.069,9.72,3.206s3.515,4.948,3.515,8.433
			c0,3.52-1.171,6.339-3.515,8.458c-2.343,2.121-5.583,3.181-9.72,3.181H122.163z M122.163,667.247h8.111
			c2.317,0,4.06-0.618,5.227-1.854c1.167-1.236,1.751-2.807,1.751-4.712s-0.584-3.493-1.751-4.764
			c-1.167-1.271-2.91-1.905-5.227-1.905h-8.111V667.247z"/>
		<path fill="#A8A8A8" d="M161.013,670.93v15.552h-6.257v-37.49h12.9c4.171,0,7.398,0.944,9.682,2.833
			c2.283,1.888,3.425,4.583,3.425,8.085c0,1.939-0.502,3.609-1.506,5.008c-1.004,1.399-2.468,2.52-4.39,3.36
			c2.111,0.669,3.634,1.76,4.57,3.27c0.936,1.511,1.403,3.382,1.403,5.613v3.116c0,1.099,0.137,2.172,0.412,3.218
			c0.274,1.048,0.729,1.846,1.364,2.396v0.592h-6.437c-0.687-0.566-1.125-1.45-1.313-2.652c-0.189-1.201-0.283-2.402-0.283-3.604
			v-3.013c0-1.922-0.554-3.45-1.661-4.583c-1.107-1.133-2.613-1.699-4.519-1.699H161.013z M161.013,665.908h6.309
			c2.506,0,4.334-0.48,5.484-1.441c1.15-0.962,1.725-2.43,1.725-4.403c0-1.888-0.566-3.369-1.699-4.441
			c-1.133-1.073-2.858-1.609-5.176-1.609h-6.643V665.908z"/>
		<path fill="#A8A8A8" d="M214.513,669.616h-14.677v11.87h17.303v4.995h-23.56v-37.49h23.38v5.021h-17.123v10.582h14.677V669.616z"
			/>
		<path fill="#A8A8A8" d="M247.028,677.83h0.155l10.84-28.839h7.981v37.49h-6.257v-26.933l-0.154-0.026l-10.325,26.959h-4.3
			l-10.505-27.474l-0.155,0.052v27.422h-6.257v-37.49h8.214L247.028,677.83z"/>
		<path fill="#A8A8A8" d="M285.955,686.481h-6.257v-37.49h6.257V686.481z"/>
		<path fill="#A8A8A8" d="M328.255,648.991v24.693c0,4.171-1.369,7.438-4.107,9.797c-2.738,2.36-6.27,3.541-10.596,3.541
			c-4.257,0-7.725-1.181-10.402-3.541c-2.678-2.359-4.017-5.626-4.017-9.797v-24.693h6.257v24.693c0,2.661,0.747,4.716,2.24,6.167
			c1.493,1.45,3.467,2.176,5.922,2.176c2.541,0,4.584-0.726,6.129-2.176c1.545-1.451,2.317-3.506,2.317-6.167v-24.693H328.255z"/>
		<path fill="#A8A8A8" d="M359.817,677.83h0.154l10.841-28.839h7.981v37.49h-6.257v-26.933l-0.154-0.026l-10.325,26.959h-4.3
			l-10.506-27.474l-0.154,0.052v27.422h-6.257v-37.49h8.214L359.817,677.83z"/>
	</g>
</g>
</svg>
