<?xml version="1.0" encoding="utf-8"?>
<!-- Generator: Adobe Illustrator 16.0.0, SVG Export Plug-In . SVG Version: 6.00 Build 0)  -->
<!DOCTYPE svg PUBLIC "-//W3C//DTD SVG 1.1//EN" "http://www.w3.org/Graphics/SVG/1.1/DTD/svg11.dtd">
<svg version="1.1" id="premium_gris" xmlns="http://www.w3.org/2000/svg" xmlns:xlink="http://www.w3.org/1999/xlink" x="0px"
	 y="0px" width="500px" height="730.5px" viewBox="0 0 500 730.5" enable-background="new 0 0 500 730.5" xml:space="preserve">
<g>
	<g>
		<path fill="#A8A8A8" d="M122.163,672.269v14.213h-6.257v-37.49h14.368c4.137,0,7.377,1.069,9.72,3.206s3.515,4.948,3.515,8.433
			c0,3.52-1.171,6.339-3.515,8.458c-2.343,2.121-5.583,3.181-9.72,3.181H122.163z M122.163,667.247h8.111
			c2.317,0,4.06-0.618,5.227-1.854c1.167-1.236,1.751-2.807,1.751-4.712s-0.584-3.493-1.751-4.764
			c-1.167-1.271-2.91-1.905-5.227-1.905h-8.111V667.247z"/>
		<path fill="#A8A8A8" d="M161.013,670.93v15.552h-6.257v-37.49h12.9c4.171,0,7.398,0.944,9.682,2.833
			c2.283,1.888,3.425,4.583,3.425,8.085c0,1.939-0.502,3.609-1.506,5.008c-1.004,1.399-2.468,2.52-4.39,3.36
			c2.111,0.669,3.634,1.76,4.57,3.27c0.936,1.511,1.403,3.382,1.403,5.613v3.116c0,1.099,0.137,2.172,0.412,3.218
			c0.274,1.048,0.729,1.846,1.364,2.396v0.592h-6.437c-0.687-0.566-1.125-1.45-1.313-2.652c-0.189-1.201-0.283-2.402-0.283-3.604
			v-3.013c0-1.922-0.554-3.45-1.661-4.583c-1.107-1.133-2.613-1.699-4.519-1.699H161.013z M161.013,665.908h6.309
			c2.506,0,4.334-0.48,5.484-1.441c1.15-0.962,1.725-2.43,1.725-4.403c0-1.888-0.566-3.369-1.699-4.441
			c-1.133-1.073-2.858-1.609-5.176-1.609h-6.643V665.908z"/>
		<path fill="#A8A8A8" d="M214.513,669.616h-14.677v11.87h17.303v4.995h-23.56v-37.49h23.38v5.021h-17.123v10.582h14.677V669.616z"
			/>
		<path fill="#A8A8A8" d="M247.028,677.83h0.155l10.84-28.839h7.981v37.49h-6.257v-26.933l-0.154-0.026l-10.325,26.959h-4.3
			l-10.505-27.474l-0.155,0.052v27.422h-6.257v-37.49h8.214L247.028,677.83z"/>
		<path fill="#A8A8A8" d="M285.955,686.481h-6.257v-37.49h6.257V686.481z"/>
		<path fill="#A8A8A8" d="M328.255,648.991v24.693c0,4.171-1.369,7.438-4.107,9.797c-2.738,2.36-6.27,3.541-10.596,3.541
			c-4.257,0-7.725-1.181-10.402-3.541c-2.678-2.359-4.017-5.626-4.017-9.797v-24.693h6.257v24.693c0,2.661,0.747,4.716,2.24,6.167
			c1.493,1.45,3.467,2.176,5.922,2.176c2.541,0,4.584-0.726,6.129-2.176c1.545-1.451,2.317-3.506,2.317-6.167v-24.693H328.255z"/>
		<path fill="#A8A8A8" d="M359.817,677.83h0.154l10.841-28.839h7.981v37.49h-6.257v-26.933l-0.154-0.026l-10.325,26.959h-4.3
			l-10.506-27.474l-0.154,0.052v27.422h-6.257v-37.49h8.214L359.817,677.83z"/>
	</g>
</g>
<g>
	<g>
		<g>
			<path fill="#DBDBDB" d="M205.92,43.93C220.59,35.9,235.31,27.94,250,19.95c14.681,7.99,29.38,15.93,44.04,23.96
				c1.17,0.57,2.33,1.45,3.72,1.21c17.171-0.86,34.34-1.76,51.51-2.63c9.94,13.84,19.891,27.68,29.82,41.53
				c0.62,0.99,1.54,1.7,2.66,2.07c15.71,6.53,31.39,13.12,47.08,19.69c3.12,17.28,5.939,34.62,9.26,51.86
				c11.46,13.34,23.34,26.33,34.95,39.55c-4.71,16.58-9.479,33.15-14.15,49.75c-0.54,1.55,0.421,3.08,0.71,4.6
				c4.521,15.69,8.95,31.41,13.44,47.12c-11.601,13.21-23.5,26.2-34.93,39.55c-3.36,17.221-6.15,34.57-9.28,51.851
				c-14.02,5.859-28.02,11.779-42.07,17.579c-3.42,1.3-6.98,2.891-9.05,6.08c-8.271,11.7-16.78,23.24-24.95,35.011
				c-1.35,1.589-2.47,3.97-4.79,4.189c-3.67,0.49-7.37,0.09-11.039-0.12c-10.291-0.76-20.62-0.92-30.911-1.72
				c-4.72-0.35-9.8-0.7-14,1.88c-10.95,6.15-22.029,12.08-33.05,18.09c-2.94,1.551-5.72,3.561-8.97,4.41
				c-1.59-0.34-3.03-1.16-4.47-1.891c-10.74-6.02-21.69-11.689-32.41-17.759c-3.02-1.65-5.95-3.61-9.31-4.5
				c-3.56-0.78-7.22-0.391-10.82-0.181c-10.99,0.84-22.01,1.01-33,1.86c-3.13,0.079-6.4,0.54-9.44-0.43
				c-1.32-1.061-2.31-2.461-3.3-3.811c-8.14-11.79-16.69-23.29-24.93-35.01c-2.06-3.221-5.65-4.78-9.08-6.101
				c-14.05-5.8-28.05-11.72-42.07-17.579c-2.92-16.641-5.89-33.271-8.78-49.921c-0.18-1.149-0.51-2.31-1.38-3.13
				c-11.36-12.779-22.71-25.57-34.05-38.35c4.74-16.92,9.75-33.77,14.34-50.73c-4.58-16.96-9.59-33.82-14.35-50.73
				c10.86-12.24,21.71-24.49,32.6-36.7c1.16-1.38,2.71-2.66,2.79-4.6c2.96-16.73,5.84-33.47,8.89-50.18
				c15.71-6.49,31.36-13.15,47.07-19.65c1.91-0.54,2.81-2.4,3.92-3.86c9.47-13.26,19.01-26.48,28.51-39.72
				c17.17,0.87,34.34,1.77,51.52,2.62C203.62,45.38,204.75,44.46,205.92,43.93z M200.19,83.21
				c-49.78,14.63-91.82,53.14-110.69,101.47c-17.9,44.69-15.74,96.92,5.98,139.9c14.24,28.4,36.4,52.81,63.49,69.439
				c20.28,12.75,43.39,20.851,67.07,24.261c13.34,1.58,26.92,2.609,40.279,0.609c41.391-3.3,80.9-23.17,109.421-53.17
				c26-27.7,42.539-64.09,46.16-101.91c3.699-41.06-7.561-83.45-32.09-116.7c-21.681-29.87-53.13-52.58-88.44-63.43
				C268.689,73.48,232.96,73.34,200.19,83.21z"/>
		</g>
	</g>
	<g>
		<g>
			<path fill="#E7E7E7" d="M200.19,83.21c32.77-9.87,68.5-9.73,101.18,0.47c35.311,10.85,66.76,33.56,88.44,63.43
				c24.529,33.25,35.789,75.64,32.09,116.7c-0.471,0.96-0.95,1.93-1.44,2.89c-13.79-12.91-26.6-26.83-40.34-39.8
				c-11.181-9.31-20.28-20.87-31.58-30.04c-1.101-4.11-2.92-8.34-6.59-10.78c-3.65-2.84-8.421-3.35-12.89-3.36
				c-18.311,0.01-36.61,0.1-54.91-0.01c-0.34-5.69,0.25-11.62-1.881-17.04c-3.3-8.73-11.839-15.36-21.229-15.9
				c-9.94-0.8-20.16,4.78-24.48,13.84c-2.71,5.38-2.37,11.56-2.49,17.41c-0.01,8.74-0.01,17.5,0.17,26.24
				c16.57,0.38,33.17,0.27,49.74,0.06c0.18-5.38,0.039-10.76,0.18-16.13c17.939-0.18,35.9,0.03,53.85-0.11
				c3.43,0.12,7.53-0.05,10.03,2.76c2.45,2.75,1.979,6.72,2.141,10.13c-0.101,16.59,0.099,33.18-0.07,49.77
				c-6.86-4.72-14.581-8.54-23.011-9.15c-6.97-0.74-14.05,0.41-20.52,3.03c-5.261,2.16-11.04,1.32-16.57,1.43
				c-7.54,0.07-15.079-0.26-22.609,0.15c-0.021,2.55-0.03,5.1-0.021,7.65c8.16,0.54,16.33,0.06,24.5,0.25
				c-4.351,4.91-7.699,10.55-10.34,16.53c-4.69,0.1-9.39,0.08-14.07,0.43c-0.02,2.62-0.02,5.24,0,7.86
				c4.04,0.24,8.08,0.36,12.13,0.37c-0.56,8.42,0.851,16.83,4.22,24.57c-34.929,0.1-69.859-0.2-104.79-0.03
				c-2.95-0.1-6.35,0.04-8.63-2.18c-2.39-2.18-2.48-5.65-2.59-8.65c0.04-31.34,0.04-62.69,0-94.03c0.12-2.99,0.14-6.49,2.57-8.65
				c2.6-2.37,6.38-2.12,9.66-2.24c15.26-0.04,30.54,0.29,45.8-0.14c0.02-2.65,0.01-5.31-0.02-7.96
				c-14.92-0.57-29.86-0.05-44.79-0.24c-5.36-0.05-11.33-0.01-15.58,3.76c-4.01,3.22-6.01,8.38-6,13.45
				c-0.17,31.67,0.21,63.35,0,95.02c-0.07,4.39,0.19,9.099,2.78,12.849c2.91,4.611,8.32,7.291,13.74,7.181
				c32.68,0.01,65.37-0.01,98.059,0c5.54-0.069,11.091-0.181,16.601,0.49c-10.83,1.029-21.72,0.38-32.58,0.55
				c-27.68,0.12-55.37-0.24-83.05,0.141c17.18,18.399,36.06,35.18,52.73,54.06c16.22,16.18,32.49,32.329,48.589,48.649
				c-13.359,2-26.939,0.971-40.279-0.609c-23.68-3.41-46.79-11.511-67.07-24.261c-27.09-16.63-49.25-41.039-63.49-69.439
				c-21.72-42.98-23.88-95.21-5.98-139.9C108.37,136.35,150.41,97.84,200.19,83.21z M203.29,216.4c-7.3,1.83-12.81,9.1-12.32,16.66
				c0.1,8.81,8.25,16.44,17.05,15.93c9.23,0.05,17.18-8.78,16.11-17.97C223.62,221.04,212.84,213.59,203.29,216.4z M257.8,224.31
				c-0.31,2.63-0.35,5.29-0.18,7.94c19.449,0.24,38.92-0.03,58.37,0.13c2.56,0.04,5.109-0.12,7.66-0.34
				c0.03-2.56,0.01-5.12-0.07-7.68C301.66,224.21,279.73,224.31,257.8,224.31z M174.7,262.65c-0.75,6.36-0.27,12.82-0.32,19.22
				c22.13,0.26,44.28,0.15,66.41,0.06c0.05-5.94,0.2-11.89-0.15-17.82c0.2-2.28-2.28-3.04-3.87-3.96c-3.9-1.77-7.68-3.89-11.8-5.13
				c-5.04,1.5-9.49,5.03-14.97,5.15c-6.88,1.06-13.13-2.23-19.13-5.02C184.95,255.55,178.9,258.45,174.7,262.65z"/>
		</g>
		<g>
			<path fill="#E7E7E7" d="M241.68,159.74c6.9-3.56,16.11-1.35,20.65,4.95c2.28,2.9,3.09,6.63,3.17,10.26
				c0.26,8,0.069,16.01,0.029,24.01c-10.919,0.61-21.889,0.25-32.829,0.19c-0.24-8.71-0.48-17.45,0.01-26.16
				C232.87,167.31,236.63,162.15,241.68,159.74z M248.42,168.34c-4.88,0.28-7.43,6.78-4.06,10.3c3,3.76,9.83,2.16,10.76-2.58
				C256.319,172.01,252.54,167.77,248.42,168.34z"/>
		</g>
		<path fill="#E7E7E7" d="M205.37,224.53c5.85-1.92,12.07,4.28,10.12,10.13c-1.43,5.86-9.7,8.03-13.79,3.55
			C197.29,234.1,199.48,225.85,205.37,224.53z"/>
		<g>
			<path fill="#E7E7E7" d="M309.34,253.5c16.92-2.09,33.99,10.34,37.141,27.1c3.72,16.11-6.211,33.73-21.791,39.11
				c-15.319,5.979-34.199-1.029-41.899-15.55c-7.81-13.48-4.64-32.02,7.2-42.14C295.34,257.25,302.21,254.23,309.34,253.5z
				 M306.939,279.88c-6.039,0.16-12.09-0.14-18.129,0.2c4.209,3.57,9.02,6.32,13.259,9.83c1.69,1.01,0.73,2.99,0.391,4.47
				c-1.51,4.61-3.29,9.13-4.26,13.9c5.189-3.091,9.77-7.06,14.86-10.31c5.17,3.16,9.689,7.28,14.959,10.299
				c-0.99-5.83-4.039-11.1-4.819-16.939c3.76-4.77,9.88-7.04,14.14-11.39c-6.05-0.4-12.109-0.06-18.159-0.23
				c-2.301-5.55-3.681-11.41-5.841-17.01C310.311,268.07,309.439,274.29,306.939,279.88z"/>
		</g>
		<path fill="#E7E7E7" d="M185.24,265.19c3.73-1.85,7.58,0.24,11.1,1.5c8.16,3,17.37,2.4,25.29-1.07c3.19-1.55,7.27-1.67,10.11,0.69
			c1.4,2.16,0.51,4.95,0.38,7.36c-16.4-0.01-32.79,0.01-49.19-0.02C182.87,270.77,181.48,266.26,185.24,265.19z"/>
		<path fill="#E7E7E7" d="M313.97,330.73c7.72-0.041,15.11-2.74,21.81-6.42c0.021,14.3,0.04,28.6-0.01,42.899
			c-7.939-6.63-15.08-14.141-22.939-20.85c-7.811,6.68-14.811,14.24-22.69,20.829c-0.01-14.159-0.07-28.319,0.03-42.479
			C297.6,328.26,305.59,331.2,313.97,330.73z"/>
		<path fill="#E7E7E7" d="M113.24,407.64c3.43,1.32,7.02,2.88,9.08,6.101c8.24,11.72,16.79,23.22,24.93,35.01
			c0.99,1.35,1.98,2.75,3.3,3.811c3.04,0.97,6.31,0.509,9.44,0.43c10.99-0.851,22.01-1.021,33-1.86c3.6-0.21,7.26-0.6,10.82,0.181
			c3.36,0.89,6.29,2.85,9.31,4.5c10.72,6.069,21.67,11.739,32.41,17.759c1.44,0.73,2.88,1.551,4.47,1.891
			c3.25-0.85,6.029-2.859,8.97-4.41c11.021-6.01,22.1-11.939,33.05-18.09c4.2-2.58,9.28-2.229,14-1.88
			c10.291,0.8,20.62,0.96,30.911,1.72c3.669,0.21,7.369,0.61,11.039,0.12c2.32-0.22,3.44-2.601,4.79-4.189
			c8.17-11.771,16.68-23.311,24.95-35.011c2.069-3.189,5.63-4.78,9.05-6.08c-0.02,57.141-0.01,114.28,0,171.41
			c-45.6-18.569-91.18-37.18-136.77-55.76c-45.58,18.59-91.15,37.19-136.74,55.76C113.25,521.92,113.26,464.78,113.24,407.64z"/>
	</g>
	<g>
		<g>
			<path fill="#FFFFFF" d="M226.56,163.61c4.32-9.06,14.54-14.64,24.48-13.84c9.391,0.54,17.93,7.17,21.229,15.9
				c2.131,5.42,1.541,11.35,1.881,17.04c18.3,0.11,36.6,0.02,54.91,0.01c4.469,0.01,9.239,0.52,12.89,3.36
				c3.67,2.44,5.489,6.67,6.59,10.78c0.37,18.04,0.06,36.1,0.16,54.15c0.189,5.16-1.02,10.81,1.869,15.47
				c8.061,13.77,7.381,32.18-1.93,45.19c-1.689,2.53-4.279,4.92-3.89,8.25c0.08,22.68,0.069,45.36,0.029,68.04
				c-10.76-9.63-21.069-19.75-31.879-29.32c-10.82,9.511-20.98,19.75-31.681,29.391c-0.06-19.021,0.011-38.04-0.02-57.06
				c-0.061-5.171,0.43-10.381-0.57-15.48c-5.51-0.671-11.061-0.56-16.601-0.49c-32.689-0.01-65.379,0.01-98.059,0
				c-5.42,0.11-10.83-2.569-13.74-7.181c-2.59-3.75-2.85-8.459-2.78-12.849c0.21-31.67-0.17-63.35,0-95.02
				c-0.01-5.07,1.99-10.23,6-13.45c4.25-3.77,10.22-3.81,15.58-3.76c14.93,0.19,29.87-0.33,44.79,0.24
				c0.03,2.65,0.04,5.31,0.02,7.96c-15.26,0.43-30.54,0.1-45.8,0.14c-3.28,0.12-7.06-0.13-9.66,2.24c-2.43,2.16-2.45,5.66-2.57,8.65
				c0.04,31.34,0.04,62.69,0,94.03c0.11,3,0.2,6.471,2.59,8.65c2.28,2.22,5.68,2.08,8.63,2.18c34.93-0.17,69.86,0.13,104.79,0.03
				c-3.369-7.74-4.779-16.15-4.22-24.57c-4.05-0.01-8.09-0.13-12.13-0.37c-0.02-2.62-0.02-5.24,0-7.86
				c4.681-0.35,9.38-0.33,14.07-0.43c2.641-5.98,5.989-11.62,10.34-16.53c-8.17-0.19-16.34,0.29-24.5-0.25
				c-0.01-2.55,0-5.1,0.021-7.65c7.53-0.41,15.069-0.08,22.609-0.15c5.53-0.11,11.31,0.73,16.57-1.43
				c6.47-2.62,13.55-3.77,20.52-3.03c8.43,0.61,16.15,4.43,23.011,9.15c0.169-16.59-0.03-33.18,0.07-49.77
				c-0.161-3.41,0.31-7.38-2.141-10.13c-2.5-2.81-6.601-2.64-10.03-2.76c-17.949,0.14-35.91-0.07-53.85,0.11
				c-0.141,5.37,0,10.75-0.18,16.13c-16.57,0.21-33.17,0.32-49.74-0.06c-0.18-8.74-0.18-17.5-0.17-26.24
				C224.19,175.17,223.85,168.99,226.56,163.61z M241.68,159.74c-5.05,2.41-8.81,7.57-8.97,13.25c-0.49,8.71-0.25,17.45-0.01,26.16
				c10.94,0.06,21.91,0.42,32.829-0.19c0.04-8,0.23-16.01-0.029-24.01c-0.08-3.63-0.89-7.36-3.17-10.26
				C257.79,158.39,248.58,156.18,241.68,159.74z M309.34,253.5c-7.13,0.73-14,3.75-19.35,8.52c-11.84,10.12-15.01,28.66-7.2,42.14
				c7.7,14.521,26.58,21.529,41.899,15.55c15.58-5.38,25.511-23,21.791-39.11C343.33,263.84,326.26,251.41,309.34,253.5z
				 M313.97,330.73c-8.38,0.47-16.37-2.471-23.8-6.021c-0.101,14.16-0.04,28.32-0.03,42.479c7.88-6.589,14.88-14.149,22.69-20.829
				c7.859,6.709,15,14.22,22.939,20.85c0.05-14.3,0.03-28.6,0.01-42.899C329.08,327.99,321.689,330.689,313.97,330.73z"/>
		</g>
		<path fill="#FFFFFF" d="M248.42,168.34c4.12-0.57,7.899,3.67,6.7,7.72c-0.931,4.74-7.76,6.34-10.76,2.58
			C240.99,175.12,243.54,168.62,248.42,168.34z"/>
		<g>
			<path fill="#FFFFFF" d="M203.29,216.4c9.55-2.81,20.33,4.64,20.84,14.62c1.07,9.19-6.88,18.02-16.11,17.97
				c-8.8,0.51-16.95-7.12-17.05-15.93C190.48,225.5,195.99,218.23,203.29,216.4z M205.37,224.53c-5.89,1.32-8.08,9.57-3.67,13.68
				c4.09,4.48,12.36,2.31,13.79-3.55C217.44,228.81,211.22,222.61,205.37,224.53z"/>
		</g>
		<path fill="#FFFFFF" d="M257.8,224.31c21.931,0,43.86-0.1,65.78,0.05c0.08,2.56,0.101,5.12,0.07,7.68
			c-2.551,0.22-5.101,0.38-7.66,0.34c-19.45-0.16-38.921,0.11-58.37-0.13C257.45,229.6,257.49,226.94,257.8,224.31z"/>
		<g>
			<path fill="#FFFFFF" d="M174.7,262.65c4.2-4.2,10.25-7.1,16.17-7.5c6,2.79,12.25,6.08,19.13,5.02c5.48-0.12,9.93-3.65,14.97-5.15
				c4.12,1.24,7.9,3.36,11.8,5.13c1.59,0.92,4.07,1.68,3.87,3.96c0.35,5.93,0.2,11.88,0.15,17.82c-22.13,0.09-44.28,0.2-66.41-0.06
				C174.43,275.47,173.95,269.01,174.7,262.65z M185.24,265.19c-3.76,1.07-2.37,5.58-2.31,8.46c16.4,0.03,32.79,0.01,49.19,0.02
				c0.13-2.41,1.02-5.2-0.38-7.36c-2.84-2.36-6.92-2.24-10.11-0.69c-7.92,3.47-17.13,4.07-25.29,1.07
				C192.82,265.43,188.97,263.34,185.24,265.19z"/>
		</g>
		<path fill="#FFFFFF" d="M306.939,279.88c2.5-5.59,3.371-11.81,6.4-17.18c2.16,5.6,3.54,11.46,5.841,17.01
			c6.05,0.17,12.109-0.17,18.159,0.23c-4.26,4.35-10.38,6.62-14.14,11.39c0.78,5.84,3.829,11.109,4.819,16.939
			c-5.27-3.02-9.789-7.14-14.959-10.299c-5.091,3.25-9.671,7.219-14.86,10.31c0.97-4.771,2.75-9.29,4.26-13.9
			c0.34-1.48,1.3-3.46-0.391-4.47c-4.239-3.51-9.05-6.26-13.259-9.83C294.85,279.74,300.9,280.04,306.939,279.88z"/>
	</g>
	<g>
		<path fill="#E1E1E1" d="M348.54,196.86c11.3,9.17,20.399,20.73,31.58,30.04c13.74,12.97,26.55,26.89,40.34,39.8
			c0.49-0.96,0.97-1.93,1.44-2.89c-3.621,37.82-20.16,74.209-46.16,101.91c-28.521,30-68.03,49.87-109.421,53.17
			c-16.099-16.32-32.369-32.47-48.589-48.649c-16.67-18.88-35.55-35.66-52.73-54.06c27.68-0.381,55.37-0.021,83.05-0.141
			c10.86-0.17,21.75,0.479,32.58-0.55c1,5.1,0.51,10.31,0.57,15.48c0.03,19.02-0.04,38.039,0.02,57.06
			c10.7-9.641,20.86-19.88,31.681-29.391c10.81,9.57,21.119,19.69,31.879,29.32c0.04-22.68,0.051-45.36-0.029-68.04
			c-0.39-3.33,2.2-5.72,3.89-8.25c9.311-13.01,9.99-31.42,1.93-45.19c-2.889-4.66-1.68-10.31-1.869-15.47
			C348.6,232.96,348.91,214.9,348.54,196.86z"/>
	</g>
</g>
</svg>
