<?xml version="1.0" encoding="utf-8"?>
<!-- Generator: Adobe Illustrator 16.0.0, SVG Export Plug-In . SVG Version: 6.00 Build 0)  -->
<!DOCTYPE svg PUBLIC "-//W3C//DTD SVG 1.1//EN" "http://www.w3.org/Graphics/SVG/1.1/DTD/svg11.dtd">
<svg version="1.1" xmlns="http://www.w3.org/2000/svg" xmlns:xlink="http://www.w3.org/1999/xlink" x="0px" y="0px" width="63.11px"
	 height="64.488px" viewBox="0 0 63.11 64.488" enable-background="new 0 0 63.11 64.488" xml:space="preserve">
<g id="registrado">
	<g>
		<path fill-rule="evenodd" clip-rule="evenodd" fill="#262262" d="M32.691,16.875c5.311,0,10.622,0,15.933,0.001
			c1.738,0,2.874,1.129,2.874,2.86c0,8.436,0,16.871,0,25.307c0,1.611-1.172,2.78-2.789,2.78c-10.676,0-21.354,0-32.031,0
			c-1.709,0-2.853-1.14-2.853-2.841c-0.002-8.437-0.002-16.871,0-25.308c0-1.643,1.16-2.797,2.808-2.799
			C21.986,16.874,27.339,16.875,32.691,16.875z M50.154,24.977c-11.692,0-23.328,0-34.974,0c-0.006,0.109-0.013,0.191-0.013,0.275
			c0,6.613-0.002,13.225,0.002,19.839c0,0.901,0.524,1.386,1.473,1.386c10.622,0,21.242,0.002,31.863,0
			c1.221,0,1.646-0.422,1.648-1.636c0-4.818,0-9.64,0-14.459C50.154,28.591,50.154,26.799,50.154,24.977z M15.174,23.575
			c11.683,0,23.316,0,34.979,0c0-1.287-0.001-2.545,0-3.804c0.002-1.093-0.461-1.551-1.561-1.551
			c-8.56,0.002-17.121-0.001-25.68-0.001c-2.116,0-4.231-0.001-6.347,0.004c-0.823,0.003-1.367,0.453-1.383,1.211
			C15.154,20.803,15.174,22.174,15.174,23.575z"/>
		<path fill-rule="evenodd" clip-rule="evenodd" fill="#262262" d="M19.234,28.996c4.457,0,8.882,0,13.419,0
			c-0.475,0.47-0.885,0.894-1.321,1.29c-0.082,0.073-0.268,0.043-0.406,0.043c-3.321,0.002-6.642,0.002-9.964,0.002
			c-0.124,0-0.244,0-0.389,0c0,3.59,0,7.145,0,10.73c3.561,0,7.125,0,10.716,0c0-2.188,0-4.377,0-6.564
			c-1.757,1.758-3.509,3.516-5.236,5.246c-1.404-1.41-2.737-2.746-4.05-4.064c0.253-0.246,0.554-0.546,0.88-0.864
			c0.973,0.986,1.982,2.009,2.99,3.029c3.246-3.247,6.442-6.444,9.632-9.634c0.347,0.361,0.646,0.671,0.966,1.006
			c-0.784,0.783-1.583,1.584-2.385,2.386c-0.388,0.386-0.792,0.755-1.15,1.167c-0.146,0.169-0.263,0.429-0.266,0.648
			c-0.016,2.984-0.01,5.971-0.01,8.99c-4.473,0-8.936,0-13.427,0C19.234,37.958,19.234,33.497,19.234,28.996z"/>
		<path fill-rule="evenodd" clip-rule="evenodd" fill="#262262" d="M46.094,34.35c-3.13,0-6.233,0-9.368,0c0-0.43,0-0.854,0-1.305
			c3.117,0,6.231,0,9.368,0C46.094,33.471,46.094,33.887,46.094,34.35z"/>
		<path fill-rule="evenodd" clip-rule="evenodd" fill="#262262" d="M36.716,38.375c0-0.442,0-0.856,0-1.294c3.133,0,6.248,0,9.38,0
			c0,0.435,0,0.849,0,1.294C42.98,38.375,39.866,38.375,36.716,38.375z"/>
		<path fill-rule="evenodd" clip-rule="evenodd" fill="#262262" d="M36.719,42.413c0-0.449,0-0.864,0-1.299c1.779,0,3.538,0,5.33,0
			c0,0.422,0,0.847,0,1.299C40.284,42.413,38.516,42.413,36.719,42.413z"/>
		<path fill-rule="evenodd" clip-rule="evenodd" fill="#262262" d="M19.204,20.905c0.002,0.746-0.609,1.356-1.359,1.35
			c-0.729-0.006-1.327-0.606-1.33-1.336c-0.001-0.75,0.61-1.359,1.359-1.352C18.604,19.575,19.2,20.173,19.204,20.905z"/>
		<path fill-rule="evenodd" clip-rule="evenodd" fill="#262262" d="M21.897,20.885c0.012-0.749,0.637-1.34,1.39-1.318
			c0.728,0.021,1.313,0.636,1.299,1.368c-0.012,0.747-0.644,1.345-1.391,1.319C22.466,22.232,21.884,21.618,21.897,20.885z"/>
		<path fill-rule="evenodd" clip-rule="evenodd" fill="#262262" d="M29.968,20.912c0,0.751-0.616,1.356-1.367,1.343
			c-0.731-0.01-1.324-0.613-1.324-1.344c0.001-0.75,0.619-1.356,1.368-1.346C29.375,19.576,29.97,20.18,29.968,20.912z"/>
	</g>
</g>
<g id="acreditado" display="none">
	<g display="inline">
		<g>
			<path fill-rule="evenodd" clip-rule="evenodd" fill="#BE1E2D" d="M22.617,15.665c0,0.551,0,1.066,0,1.64
				c-0.503,0-0.985,0-1.466,0c-2.784,0-5.569,0-8.354,0c-1.18,0.002-1.852,0.667-1.852,1.839
				c-0.002,6.561-0.002,13.121-0.002,19.684c0,1.141,0.652,1.861,1.72,1.863c6.736,0.006,13.472,0.004,20.206,0.004
				c0.086,0,0.172-0.011,0.284-0.018c0.58-1.872,1.552-3.512,3.004-4.979c-1.771,0-3.431,0-5.128,0c0-0.571,0-1.099,0-1.688
				c0.331,0,0.655,0,0.98,0c1.984,0,3.97,0.006,5.953-0.006c0.216,0,0.457-0.042,0.644-0.145c2.78-1.528,5.7-1.917,8.775-1.115
				c0.082,0.022,0.169,0.026,0.321,0.048c0-0.188,0-0.355,0-0.52c0-4.334,0-8.667,0-13c0-1.344-0.631-1.968-1.988-1.969
				c-3.601-0.002-7.204,0-10.807,0c-0.172,0-0.343,0-0.556,0c0,1.106,0,2.18,0,3.296c-3.354,0-6.665,0-9.982,0
				c-0.012-0.017-0.045-0.046-0.045-0.074c-0.003-2.298-0.063-4.595,0.011-6.89c0.085-2.658,2.39-4.717,5.108-4.685
				c2.619,0.031,4.804,2.216,4.878,4.888c0.017,0.572,0.003,1.146,0.003,1.795c0.213,0,0.396,0,0.579,0
				c3.639-0.002,7.275,0,10.914-0.002c2.147-0.002,3.554,1.402,3.555,3.564c0.002,4.596,0.005,9.189-0.004,13.785
				c0,0.346,0.082,0.545,0.417,0.722c4.432,2.339,6.833,7.044,6.154,12.016c-0.654,4.8-4.372,8.748-9.203,9.774
				c-7.45,1.584-14.512-4.484-14.058-12.079c0.02-0.327,0.065-0.655,0.106-1.048c-0.27,0-0.508,0-0.747,0
				c-6.422,0-12.844,0.004-19.266,0c-1.604,0-2.85-0.857-3.318-2.288c-0.105-0.325-0.172-0.679-0.174-1.021
				c-0.01-6.684-0.014-13.366-0.004-20.049c0.002-1.878,1.426-3.355,3.275-3.368c3.289-0.026,6.579-0.007,9.868-0.005
				C22.468,15.636,22.518,15.65,22.617,15.665z M44.374,34.014c-5.589,0.011-10.046,4.5-10.038,10.111
				c0.01,5.463,4.551,9.95,10.06,9.937c5.511-0.013,10.005-4.539,9.988-10.063C54.368,38.502,49.856,34.003,44.374,34.014z
				 M32.642,18.957c0-1.792,0.069-3.532-0.02-5.265c-0.09-1.753-1.577-3.064-3.296-3.071c-1.697-0.007-3.22,1.285-3.312,2.989
				c-0.092,1.752-0.019,3.512-0.014,5.268c0,0.025,0.042,0.051,0.068,0.079C28.238,18.957,30.409,18.957,32.642,18.957z"/>
			<path fill-rule="evenodd" clip-rule="evenodd" fill="#BE1E2D" d="M27.652,35.664c-4.484,0-8.894,0-13.366,0
				c0-1.264-0.007-2.511,0.011-3.754c0.001-0.124,0.129-0.279,0.24-0.366c0.845-0.666,1.819-1.073,2.854-1.338
				c0.138-0.035,0.334,0.039,0.467,0.119c2.081,1.301,4.151,1.295,6.228-0.011c0.128-0.081,0.345-0.151,0.465-0.1
				c0.932,0.405,1.858,0.832,2.77,1.285c0.151,0.075,0.312,0.312,0.316,0.476C27.663,33.188,27.652,34.403,27.652,35.664z
				 M25.979,33.993c0-0.415,0.006-0.778-0.002-1.143c-0.003-0.096-0.013-0.216-0.068-0.286c-0.292-0.38-1.302-0.579-1.75-0.366
				c-2.125,1.02-4.252,1.02-6.38,0.006c-0.459-0.219-1.445-0.028-1.752,0.354c-0.04,0.046-0.065,0.12-0.067,0.183
				c-0.006,0.411-0.002,0.823-0.002,1.252C19.315,33.993,22.612,33.993,25.979,33.993z"/>
			<path fill-rule="evenodd" clip-rule="evenodd" fill="#BE1E2D" d="M17.627,25.636c0.002-1.818,1.503-3.318,3.321-3.32
				c1.859,0,3.359,1.49,3.359,3.338c0.002,1.85-1.498,3.348-3.35,3.346C19.111,28.995,17.623,27.494,17.627,25.636z M19.299,25.63
				c-0.015,0.908,0.709,1.67,1.614,1.697c0.925,0.027,1.709-0.721,1.725-1.643c0.014-0.907-0.715-1.672-1.618-1.694
				C20.083,23.964,19.315,24.697,19.299,25.63z"/>
			<path fill-rule="evenodd" clip-rule="evenodd" fill="#BE1E2D" d="M44.328,24.022c0,0.554,0,1.067,0,1.609
				c-4.433,0-8.841,0-13.294,0c0-0.518,0-1.044,0-1.609C35.443,24.022,39.864,24.022,44.328,24.022z"/>
			<path fill-rule="evenodd" clip-rule="evenodd" fill="#BE1E2D" d="M31.016,30.633c0-0.549,0-1.063,0-1.606
				c4.444,0,8.863,0,13.312,0c0,0.539,0,1.054,0,1.606C39.901,30.633,35.481,30.633,31.016,30.633z"/>
			<path fill-rule="evenodd" clip-rule="evenodd" fill="#BE1E2D" d="M48.783,40.043c0.392,0.416,0.701,0.743,1.01,1.072
				c0.045,0.048,0.08,0.108,0.089,0.122c-2.42,2.42-4.822,4.824-7.208,7.213c-1.255-1.258-2.54-2.545-3.844-3.85
				c0.366-0.331,0.758-0.686,1.186-1.074c0.83,0.849,1.714,1.752,2.615,2.672C44.698,44.131,46.707,42.12,48.783,40.043z"/>
			<path fill-rule="evenodd" clip-rule="evenodd" fill="#BE1E2D" d="M29.323,15.214c-0.695-0.002-1.26-0.571-1.253-1.266
				c0.008-0.692,0.584-1.252,1.277-1.238c0.671,0.014,1.217,0.564,1.228,1.238C30.584,14.638,30.012,15.216,29.323,15.214z"/>
		</g>
	</g>
</g>
<g id="premium" display="none">
	<g display="inline">
		<g>
			<path fill-rule="evenodd" clip-rule="evenodd" fill="#231F20" d="M18.129,29.142c-0.157-0.096-0.391-0.184-0.555-0.142
				c-1.231,0.314-2.389,0.8-3.396,1.591c-0.131,0.104-0.283,0.288-0.286,0.436c-0.021,1.48-0.013,2.963-0.013,4.467
				c5.32,0,10.565,0,15.9,0c0-1.501,0.013-2.945-0.018-4.389c-0.004-0.195-0.195-0.477-0.375-0.566
				c-1.084-0.538-2.185-1.045-3.295-1.527c-0.143-0.063-0.401,0.021-0.554,0.118C23.068,30.682,20.605,30.688,18.129,29.142z
				 M25.625,31.37c0.532-0.254,1.733-0.018,2.081,0.435c0.066,0.085,0.078,0.226,0.082,0.342c0.008,0.433,0.001,0.864,0.001,1.357
				c-4.004,0-7.928,0-11.922,0c0-0.509-0.004-0.999,0.003-1.488c0.002-0.075,0.033-0.161,0.08-0.218
				c0.365-0.455,1.539-0.682,2.084-0.422C20.566,32.582,23.097,32.582,25.625,31.37z"/>
			<path fill-rule="evenodd" clip-rule="evenodd" fill="#231F20" d="M21.805,19.614c-2.162,0.002-3.948,1.785-3.95,3.949
				c-0.005,2.211,1.765,3.996,3.962,4c2.203,0.002,3.986-1.779,3.985-3.979C25.802,21.386,24.017,19.614,21.805,19.614z
				 M21.763,25.575c-1.076-0.033-1.938-0.938-1.92-2.02c0.02-1.109,0.934-1.981,2.048-1.95c1.074,0.027,1.94,0.937,1.925,2.015
				C23.797,24.718,22.863,25.607,21.763,25.575z"/>
			<path fill-rule="evenodd" clip-rule="evenodd" fill="#231F20" d="M33.803,23.558c5.296,0,10.54,0,15.814,0
				c0-0.644,0-1.254,0-1.914c-5.311,0-10.57,0-15.814,0C33.803,22.316,33.803,22.943,33.803,23.558z"/>
			<g>
				<path fill-rule="evenodd" clip-rule="evenodd" fill="#231F20" d="M46.382,27.597c-4.202,0-8.395,0-12.602,0
					c0,0.646,0,1.259,0,1.91c2.541,0,5.05,0,7.572,0C42.765,28.419,44.495,27.729,46.382,27.597z"/>
			</g>
			<path fill-rule="evenodd" clip-rule="evenodd" fill="#231F20" d="M31.796,8.188c-0.826-0.017-1.511,0.649-1.52,1.474
				c-0.008,0.824,0.664,1.502,1.491,1.504c0.82,0.003,1.5-0.684,1.488-1.505C33.244,8.858,32.594,8.204,31.796,8.188z"/>
			<path fill-rule="evenodd" clip-rule="evenodd" fill="#231F20" d="M38.345,33.524c-1.588,0-2.867,0-3.382,0
				c-0.387,0-0.773,0-1.167,0c0,0.701,0,1.328,0,2.009c0.459,0,2.034,0,4.021,0C37.919,34.835,38.096,34.163,38.345,33.524z"/>
			<g>
				<path fill-rule="evenodd" clip-rule="evenodd" fill="#231F20" d="M38.911,41.477c-2.616,0-5.348,0.001-8.025,0.001
					c-0.186,0-0.368,0-0.554,0c-6.854-0.001-14.072-0.002-18.382-0.006c-1.271-0.002-2.046-0.86-2.046-2.217
					c0-7.806,0-15.61,0.002-23.415c0-1.394,0.798-2.185,2.203-2.187c3.313-0.001,6.625,0,9.937,0c0.573,0,1.146,0,1.745,0
					c0-0.684,0-1.296,0-1.951c-0.118-0.018-0.178-0.035-0.237-0.035c-3.912-0.002-7.826-0.024-11.738,0.006
					c-2.199,0.017-3.893,1.773-3.896,4.007c-0.012,7.95-0.007,15.898,0.005,23.849c0.001,0.407,0.081,0.827,0.207,1.215
					c0.557,1.701,2.038,2.723,3.948,2.723c4.291,0.002,11.621,0.001,18.495,0c3.287,0.001,6.681,0.001,9.838,0.001
					C39.827,42.876,39.323,42.206,38.911,41.477z"/>
				<path fill-rule="evenodd" clip-rule="evenodd" fill="#231F20" d="M25.873,17.572c3.946,0,7.885,0,11.875,0
					c0-1.328,0-2.604,0-3.921c0.254,0,0.457,0,0.662,0c0.432,0,0.864,0,1.295,0c0,0,0,0.001,0,0.002c0.599,0,1.172,0,1.744,0
					c3.283,0,6.566-0.001,9.849,0c0.053,0.001,0.098,0.008,0.148,0.009c1.363,0.026,2.143,0.806,2.143,2.178
					c0.001,4.804,0.001,9.608,0.001,14.412c0.854,0.841,1.545,1.843,2.024,2.959c0.007-5.396,0.004-12.757,0.002-17.308
					c-0.001-1.754-0.792-3.072-2.096-3.742c-0.128-0.07-0.254-0.142-0.391-0.196c-0.008-0.003-0.015-0.005-0.023-0.007
					c-0.253-0.102-0.521-0.172-0.8-0.217c-0.013-0.004-0.028-0.004-0.042-0.006c-0.192-0.029-0.384-0.061-0.585-0.063
					c-0.058,0-0.115,0-0.173,0c-0.042-0.001-0.078-0.01-0.12-0.01c-1.138,0.001-2.276,0-3.415,0.001
					c-2.137-0.003-4.273-0.003-6.41,0.001c-1.052,0-2.104,0-3.158,0c-0.217,0-0.436,0-0.688,0c0-0.771,0.016-1.454-0.003-2.135
					c-0.089-3.179-2.688-5.777-5.804-5.814c-3.234-0.038-5.975,2.411-6.076,5.572c-0.087,2.729-0.017,5.463-0.014,8.196
					C25.819,17.517,25.859,17.552,25.873,17.572z M27.833,9.258c0.108-2.026,1.921-3.563,3.939-3.556
					c2.045,0.01,3.813,1.568,3.921,3.654c0.105,2.061,0.022,4.131,0.022,6.262c-2.656,0-5.238,0-7.819,0
					c-0.03-0.033-0.081-0.063-0.081-0.094C27.811,13.436,27.722,11.341,27.833,9.258z"/>
			</g>
		</g>
		<path fill-rule="evenodd" clip-rule="evenodd" fill="#231F20" d="M50.516,41.759c-1.125-0.814-2.249-1.627-3.413-2.47
			c-1.145,0.827-2.287,1.649-3.427,2.472c-0.043-0.025-0.086-0.047-0.128-0.07c0.064-0.241,0.116-0.488,0.192-0.727
			c0.304-0.939,0.593-1.885,0.93-2.814c0.141-0.381,0.076-0.596-0.262-0.83c-1.034-0.718-2.041-1.473-3.193-2.312
			c1.568,0,2.985,0,4.455,0c0.462-1.399,0.907-2.751,1.353-4.102c0.05-0.004,0.1-0.012,0.149-0.018
			c0.443,1.345,0.884,2.688,1.342,4.082c1.442,0,2.87,0,4.298,0c0.017,0.041,0.034,0.085,0.051,0.126
			c-0.933,0.68-1.847,1.393-2.809,2.025c-0.53,0.35-0.686,0.668-0.441,1.297c0.412,1.057,0.711,2.16,1.058,3.244
			C50.619,41.694,50.568,41.726,50.516,41.759z"/>
		<path fill="#231F20" d="M57.408,36.839c0-5.718-4.65-10.369-10.368-10.369c-5.718,0-10.369,4.651-10.369,10.369
			c0,2.762,1.092,5.268,2.857,7.127c-0.026,0.092-0.058,0.184-0.058,0.285v16.73l7.574-7.129l7.638,7.109V44.251
			c0-0.125-0.032-0.24-0.071-0.352C56.34,42.046,57.408,39.567,57.408,36.839z M47.04,28.596c4.544,0,8.241,3.698,8.241,8.243
			s-3.697,8.242-8.241,8.242c-4.545,0-8.243-3.697-8.243-8.242S42.495,28.596,47.04,28.596z M47.036,50.938l-5.438,5.12V45.646
			c1.584,0.983,3.445,1.561,5.443,1.561c2.028,0,3.916-0.594,5.515-1.604v10.475L47.036,50.938z"/>
	</g>
</g>
</svg>
