<?xml version="1.0" encoding="utf-8"?>
<!-- Generator: Adobe Illustrator 16.0.0, SVG Export Plug-In . SVG Version: 6.00 Build 0)  -->
<!DOCTYPE svg PUBLIC "-//W3C//DTD SVG 1.1//EN" "http://www.w3.org/Graphics/SVG/1.1/DTD/svg11.dtd">
<svg version="1.1" id="acreditado" xmlns="http://www.w3.org/2000/svg" xmlns:xlink="http://www.w3.org/1999/xlink" x="0px" y="0px"
	 width="500px" height="730.5px" viewBox="0 0 500 730.5" enable-background="new 0 0 500 730.5" xml:space="preserve">
<g>
	<g>
		<g>
			<path fill="#7E91A7" d="M206.63,44.54c14.44-7.89,28.91-15.73,43.36-23.58c15.62,8.31,31.01,17.13,46.74,25.16
				c17.52-0.76,35.029-1.77,52.539-2.63c10.101,14.02,20.141,28.08,30.25,42.09c0.69,1.08,1.99,1.36,3.08,1.87
				c15.391,6.32,30.65,12.94,46.07,19.16c3.33,17.05,6.04,34.22,9.2,51.3c0.19,1.3,1.38,2.09,2.12,3.08
				c11.039,12.38,22.039,24.79,33.05,37.2c-4.761,16.93-9.75,33.79-14.36,50.75c4.62,16.95,9.61,33.81,14.36,50.73
				c-11.63,13.2-23.479,26.22-34.96,39.54c-3.29,17.229-6.141,34.57-9.24,51.84c-14.021,5.881-28.04,11.77-42.08,17.601
				c-3.16,1.289-6.76,2.359-8.649,5.46c-7.041,9.939-14.16,19.82-21.271,29.709c-2.561,3.521-4.859,7.25-7.85,10.44
				c-14.65-0.55-29.29-1.44-43.93-2.199c-3.671-0.08-7.641-0.961-11.021,0.909c-14.721,7.841-29.19,16.15-44.03,23.75
				c-14.84-7.58-29.3-15.9-44.01-23.739c-1.81-0.99-3.88-1.3-5.91-1.17c-16.38,0.789-32.75,1.859-49.14,2.43
				c-2.92-3.221-5.25-6.91-7.79-10.421c-7.1-9.899-14.24-19.77-21.27-29.709c-1.9-3.091-5.49-4.18-8.65-5.46
				c-14.04-5.831-28.05-11.711-42.07-17.601c-2.82-16.09-5.7-32.17-8.49-48.26c-0.36-1.65-0.31-3.569-1.67-4.78
				c-11.36-12.77-22.7-25.56-34.05-38.35c4.75-16.92,9.74-33.78,14.35-50.73c-4.6-16.95-9.59-33.81-14.35-50.73
				c11.61-13.21,23.45-26.24,34.96-39.54c3.28-17.24,6.14-34.59,9.24-51.87c14.93-6.27,29.88-12.52,44.82-18.76
				c1.74-0.81,3.91-1.19,4.93-3c9.92-13.86,19.88-27.7,29.82-41.54c17.12,0.88,34.25,1.75,51.37,2.63
				C203.81,46.43,205.19,45.24,206.63,44.54z M166.38,98.43c-30.61,16.87-55.87,43.27-71.3,74.63
				c-13.9,28.02-19.75,59.89-16.98,91.03c2.86,33.61,16.05,66.229,37.27,92.44c17.78,22.14,41.12,39.76,67.28,50.8
				c30.9,13.04,65.69,16.939,98.65,10.64c22.311-3.87,43.8-12.52,62.78-24.859c34.699-22.43,61.13-57.73,71.98-97.67
				c11.189-38.56,7.81-81.09-8.86-117.59c-12.98-28.58-34.011-53.42-59.97-71.05c-25.961-17.74-56.86-28.11-88.261-29.64
				C226.93,75.46,194.44,82.83,166.38,98.43z"/>
		</g>
	</g>
	<g>
		<g>
			<path fill="#94AAC4" d="M166.38,98.43c28.06-15.6,60.55-22.97,92.59-21.27c31.4,1.53,62.3,11.9,88.261,29.64
				c25.959,17.63,46.989,42.47,59.97,71.05c16.67,36.5,20.05,79.03,8.86,117.59c-15.241-14.92-30.241-30.1-45.391-45.13
				c-15.5-15.37-30.71-31.06-46.891-45.72c-1.199-6.44-7.159-11.29-13.699-11.17c-16.261-0.12-32.52-0.01-48.79-0.05
				c-0.109-5.25,0.391-10.81-2.03-15.67c-3.579-7.97-12.51-13.19-21.24-11.98c-9.44,0.88-17.96,8.84-18.5,18.49
				c-0.43,9.95-0.14,19.91-0.11,29.87c13.96,0.08,27.92,0.05,41.89,0.02c0.05-4.57-0.01-9.14,0.04-13.71
				c15.221-0.05,30.45,0.01,45.68-0.03c2.661,0.06,5.681,0.01,7.811,1.89c2.17,1.94,2.14,5.08,2.189,7.75
				c-0.05,18.26,0.01,36.53-0.029,54.79c-10.41-2.72-21.69-2.65-31.721,1.51c-3.38,1.18-6.399,3.77-10.17,3.53
				c-9.239-0.04-18.47,0.05-27.709,0.08c-0.02,2.33-0.02,4.67-0.02,7.01c7.09,0.07,14.18-0.01,21.27,0.03
				c-5.64,5.85-9.959,12.91-12.439,20.66c-28.4,0.14-56.81,0.09-85.22,0c-4.25,0.43-7.72-3.47-7.33-7.62
				c-0.08-26.67,0.03-53.35-0.05-80.03c0.03-2.57-0.02-5.52,1.94-7.48c1.89-1.98,4.81-2.09,7.36-2.12c13.14,0,26.28,0.05,39.41-0.01
				c0.06-2.34,0.01-4.68-0.17-7.02c-14.05,0.14-28.1-0.06-42.15,0.1c-7.2-0.07-13.46,6.39-13.38,13.55c-0.08,28-0.08,56.02,0,84.02
				c-0.09,7.11,5.89,13.2,12.91,13.66c5.28,6.279,11.35,11.811,17.09,17.659c17.33,18.361,35.46,35.921,53.18,53.891
				c13.85,13.91,27.75,27.771,41.51,41.76c-32.96,6.3-67.75,2.4-98.65-10.64c-26.16-11.04-49.5-28.66-67.28-50.8
				c-21.22-26.211-34.41-58.83-37.27-92.44c-2.77-31.14,3.08-63.01,16.98-91.03C110.51,141.7,135.77,115.3,166.38,98.43z
				 M202.36,221.51c-6.85,1.38-11.92,8.5-10.79,15.44c0.78,7.4,8.25,13.14,15.6,12c7.55-0.74,13.44-8.44,12.07-15.94
				C218.28,225.24,209.93,219.63,202.36,221.51z M247.45,228.32c-0.02,2.24-0.02,4.48,0,6.72c18.51,0.05,37.02,0.02,55.54,0.01
				c0.02-2.25,0.02-4.5-0.01-6.74C284.47,228.32,265.96,228.28,247.45,228.32z M247.31,249.14c-0.02,2.24-0.01,4.48,0,6.72
				c18.56,0.04,37.121,0.01,55.68,0.02c0.02-2.26,0.02-4.51,0-6.76C284.431,249.13,265.87,249.1,247.31,249.14z M180.33,258.3
				c-1.26,0.9-3.1,1.77-2.81,3.64c-0.09,4.95-0.01,9.91-0.01,14.87c18.62,0.01,37.23,0.01,55.84,0c-0.01-5.26,0.15-10.53-0.15-15.79
				c-0.21-0.32-0.64-0.98-0.86-1.31c-4-2.28-8.29-4.01-12.49-5.87c-5.14,2.82-10.8,5.48-16.83,4.57c-4.41-0.28-8.12-2.77-12.07-4.44
				C187.19,254.75,183.57,256.25,180.33,258.3z"/>
		</g>
		<g>
			<path fill="#94AAC4" d="M226.54,185.13c0.19-6.93,6.69-12.53,13.46-12.54c6.91-0.28,13.63,5.36,13.99,12.37
				c0.449,7.39,0.199,14.81,0.1,22.21c-9.2,0.03-18.39,0.03-27.59,0C226.37,199.82,226.23,192.47,226.54,185.13z M238.46,181.54
				c-3.85,1.22-4.62,6.97-1.23,9.17c3.02,2.36,8.01,0.21,8.3-3.64C246.14,183.32,241.94,180.07,238.46,181.54z"/>
		</g>
		<path fill="#94AAC4" d="M203.42,228.53c4.92-1.76,10.36,3.5,8.65,8.48c-1.2,4.73-7.78,6.71-11.27,3.22
			C196.77,236.97,198.42,229.78,203.42,228.53z"/>
		<path fill="#94AAC4" d="M184.58,263.91c2.86-2.41,6.87-2.25,10-0.48c7.42,3.12,16.05,2.7,23.32-0.66c2.72-1.43,6-0.62,8.35,1.14
			c0.03,1.96,0.06,3.92,0.06,5.89c-13.93,0.03-27.86,0.01-41.79,0.01C184.54,267.84,184.57,265.87,184.58,263.91z"/>
		<g>
			<path fill="#94AAC4" d="M295.46,270.65c9.819-1.85,20.28-0.06,28.859,5.09c9.641,5.65,16.851,15.3,19.44,26.18
				c2.5,10.21,0.88,21.35-4.44,30.43c-5.449,9.47-14.729,16.67-25.3,19.49c-10.56,2.92-22.229,1.37-31.7-4.109
				c-9.339-5.33-16.55-14.341-19.479-24.7c-3.5-12.091-1.021-25.7,6.42-35.84C275.439,278.58,285.04,272.54,295.46,270.65z
				 M295.86,320.51c-3.66-3.66-7.24-7.41-10.9-11.06c-1.69,1.48-3.36,2.98-5,4.51c5.31,5.41,10.74,10.7,16.101,16.05
				c10.06-10.029,20.17-20.01,30.159-30.1c-1.52-1.69-3.069-3.35-4.659-4.97C312.96,303.431,304.5,312.05,295.86,320.51z"/>
		</g>
		<path fill="#94AAC4" d="M113.24,408.65c3.16,1.28,6.75,2.369,8.65,5.46c7.03,9.939,14.17,19.81,21.27,29.709
			c2.54,3.511,4.87,7.2,7.79,10.421c16.39-0.57,32.76-1.641,49.14-2.43c2.03-0.13,4.1,0.18,5.91,1.17
			c14.71,7.839,29.17,16.159,44.01,23.739c14.84-7.6,29.31-15.909,44.03-23.75c3.38-1.87,7.35-0.989,11.021-0.909
			c14.64,0.759,29.279,1.649,43.93,2.199c2.99-3.19,5.289-6.92,7.85-10.44c7.11-9.889,14.229-19.77,21.271-29.709
			c1.89-3.101,5.489-4.171,8.649-5.46c-0.02,57.13,0,114.27-0.01,171.399c-45.59-18.56-91.16-37.18-136.75-55.76
			c-45.59,18.58-91.16,37.19-136.75,55.76C113.24,522.92,113.26,465.78,113.24,408.65z"/>
	</g>
	<g>
		<g>
			<path fill="#FFFFFF" d="M219.52,184.21c0.54-9.65,9.06-17.61,18.5-18.49c8.73-1.21,17.661,4.01,21.24,11.98
				c2.421,4.86,1.921,10.42,2.03,15.67c16.271,0.04,32.529-0.07,48.79,0.05c6.54-0.12,12.5,4.73,13.699,11.17
				c0.641,17.79,0.101,35.61,0.281,53.42c0.189,3.17-0.521,6.54,0.479,9.58c2.62,2.07,5.729,3.41,8.33,5.53
				c11.47,8.57,18.64,22.52,19.03,36.83c0.46,11.1-3.04,22.33-9.881,31.11c-9.49,12.52-25.26,19.97-40.97,19.27
				c-13.46-0.5-26.48-6.99-35.189-17.22c-9.091-10.38-13.18-24.74-11.2-38.38c-28.38-0.07-56.76,0.08-85.14-0.07
				c-7.02-0.46-13-6.55-12.91-13.66c-0.08-28-0.08-56.02,0-84.02c-0.08-7.16,6.18-13.62,13.38-13.55c14.05-0.16,28.1,0.04,42.15-0.1
				c0.18,2.34,0.23,4.68,0.17,7.02c-13.13,0.06-26.27,0.01-39.41,0.01c-2.55,0.03-5.47,0.14-7.36,2.12
				c-1.96,1.96-1.91,4.91-1.94,7.48c0.08,26.68-0.03,53.36,0.05,80.03c-0.39,4.15,3.08,8.05,7.33,7.62
				c28.41,0.09,56.82,0.14,85.22,0c2.48-7.75,6.8-14.81,12.439-20.66c-7.09-0.04-14.18,0.04-21.27-0.03c0-2.34,0-4.68,0.02-7.01
				c9.24-0.03,18.47-0.12,27.709-0.08c3.771,0.24,6.79-2.35,10.17-3.53c10.03-4.16,21.311-4.23,31.721-1.51
				c0.039-18.26-0.021-36.53,0.029-54.79c-0.05-2.67-0.02-5.81-2.189-7.75c-2.13-1.88-5.149-1.83-7.811-1.89
				c-15.229,0.04-30.459-0.02-45.68,0.03c-0.05,4.57,0.01,9.14-0.04,13.71c-13.97,0.03-27.93,0.06-41.89-0.02
				C219.38,204.12,219.09,194.16,219.52,184.21z M226.54,185.13c-0.31,7.34-0.17,14.69-0.04,22.04c9.2,0.03,18.39,0.03,27.59,0
				c0.1-7.4,0.35-14.82-0.1-22.21c-0.36-7.01-7.08-12.65-13.99-12.37C233.23,172.6,226.73,178.2,226.54,185.13z M295.46,270.65
				c-10.42,1.89-20.021,7.93-26.2,16.54c-7.44,10.14-9.92,23.75-6.42,35.84c2.93,10.359,10.141,19.37,19.479,24.7
				c9.471,5.479,21.141,7.029,31.7,4.109c10.57-2.82,19.851-10.021,25.3-19.49c5.32-9.08,6.94-20.22,4.44-30.43
				c-2.59-10.88-9.8-20.53-19.44-26.18C315.74,270.59,305.279,268.8,295.46,270.65z"/>
		</g>
		<path fill="#FFFFFF" d="M238.46,181.54c3.48-1.47,7.68,1.78,7.07,5.53c-0.29,3.85-5.28,6-8.3,3.64
			C233.84,188.51,234.61,182.76,238.46,181.54z"/>
		<g>
			<path fill="#FFFFFF" d="M202.36,221.51c7.57-1.88,15.92,3.73,16.88,11.5c1.37,7.5-4.52,15.2-12.07,15.94
				c-7.35,1.14-14.82-4.6-15.6-12C190.44,230.01,195.51,222.89,202.36,221.51z M203.42,228.53c-5,1.25-6.65,8.44-2.62,11.7
				c3.49,3.49,10.07,1.51,11.27-3.22C213.78,232.03,208.34,226.77,203.42,228.53z"/>
		</g>
		<path fill="#FFFFFF" d="M247.45,228.32c18.51-0.04,37.02,0,55.53-0.01c0.029,2.24,0.029,4.49,0.01,6.74
			c-18.521,0.01-37.03,0.04-55.54-0.01C247.43,232.8,247.43,230.56,247.45,228.32z"/>
		<path fill="#FFFFFF" d="M247.31,249.14c18.56-0.04,37.121-0.01,55.68-0.02c0.02,2.25,0.02,4.5,0,6.76
			c-18.56-0.01-37.12,0.02-55.68-0.02C247.3,253.62,247.29,251.38,247.31,249.14z"/>
		<g>
			<path fill="#FFFFFF" d="M180.33,258.3c3.24-2.05,6.86-3.55,10.62-4.33c3.95,1.67,7.66,4.16,12.07,4.44
				c6.03,0.91,11.69-1.75,16.83-4.57c4.2,1.86,8.49,3.59,12.49,5.87c0.22,0.33,0.65,0.99,0.86,1.31c0.3,5.26,0.14,10.53,0.15,15.79
				c-18.61,0.01-37.22,0.01-55.84,0c0-4.96-0.08-9.92,0.01-14.87C177.23,260.07,179.07,259.2,180.33,258.3z M184.58,263.91
				c-0.01,1.96-0.04,3.93-0.06,5.9c13.93,0,27.86,0.02,41.79-0.01c0-1.97-0.03-3.93-0.06-5.89c-2.35-1.76-5.63-2.57-8.35-1.14
				c-7.27,3.36-15.9,3.78-23.32,0.66C191.45,261.66,187.44,261.5,184.58,263.91z"/>
		</g>
		<path fill="#FFFFFF" d="M295.86,320.51c8.64-8.46,17.1-17.079,25.7-25.57c1.59,1.62,3.14,3.28,4.659,4.97
			c-9.989,10.09-20.1,20.07-30.159,30.1c-5.36-5.35-10.791-10.64-16.101-16.05c1.64-1.529,3.31-3.029,5-4.51
			C288.62,313.1,292.2,316.85,295.86,320.51z"/>
	</g>
	<g>
		<path fill="#899DB5" d="M323.779,204.59c16.181,14.66,31.391,30.35,46.891,45.72c15.149,15.03,30.149,30.21,45.391,45.13
			c-10.851,39.94-37.281,75.241-71.98,97.67c-18.98,12.34-40.47,20.989-62.78,24.859c-13.76-13.989-27.66-27.85-41.51-41.76
			c-17.72-17.97-35.85-35.529-53.18-53.891c-5.74-5.849-11.81-11.38-17.09-17.659c28.38,0.15,56.76,0,85.14,0.07
			c-1.979,13.64,2.109,28,11.2,38.38c8.709,10.229,21.729,16.72,35.189,17.22c15.71,0.7,31.479-6.75,40.97-19.27
			c6.841-8.78,10.341-20.011,9.881-31.11c-0.391-14.31-7.561-28.26-19.03-36.83c-2.601-2.12-5.71-3.46-8.33-5.53
			c-1-3.04-0.29-6.41-0.479-9.58C323.88,240.2,324.42,222.38,323.779,204.59z"/>
	</g>
</g>
<g>
	<g>
		<path fill="#A8A8A8" d="M90.99,677.727H77.704l-2.884,8.755h-6.463l13.081-37.49h5.948l12.926,37.49h-6.463L90.99,677.727z
			 M79.429,672.5h9.861l-4.815-14.779h-0.154L79.429,672.5z"/>
		<path fill="#A8A8A8" d="M137.332,674.226l0.052,0.154c0.068,3.776-1.159,6.827-3.682,9.153s-5.931,3.489-10.222,3.489
			c-4.36,0-7.896-1.472-10.608-4.416c-2.712-2.944-4.068-6.708-4.068-11.291v-7.132c0-4.566,1.339-8.33,4.017-11.291
			c2.678-2.961,6.171-4.441,10.48-4.441c4.411,0,7.883,1.124,10.415,3.373c2.532,2.249,3.763,5.329,3.695,9.243l-0.051,0.154h-6.051
			c0-2.506-0.679-4.424-2.034-5.755c-1.356-1.33-3.348-1.995-5.974-1.995c-2.541,0-4.554,1.009-6.038,3.025
			c-1.485,2.018-2.228,4.563-2.228,7.635v7.184c0,3.107,0.755,5.669,2.266,7.687c1.51,2.017,3.57,3.025,6.18,3.025
			c2.558,0,4.501-0.67,5.832-2.009c1.33-1.339,1.996-3.271,1.996-5.793H137.332z"/>
		<path fill="#A8A8A8" d="M154.938,670.93v15.552h-6.257v-37.49h12.9c4.171,0,7.398,0.944,9.682,2.833
			c2.283,1.888,3.425,4.583,3.425,8.085c0,1.939-0.502,3.609-1.506,5.008c-1.004,1.399-2.468,2.52-4.39,3.36
			c2.111,0.669,3.634,1.76,4.57,3.27c0.936,1.511,1.403,3.382,1.403,5.613v3.116c0,1.099,0.137,2.172,0.412,3.218
			c0.274,1.048,0.729,1.846,1.364,2.396v0.592h-6.437c-0.687-0.566-1.125-1.45-1.313-2.652c-0.189-1.201-0.283-2.402-0.283-3.604
			v-3.013c0-1.922-0.554-3.45-1.661-4.583c-1.107-1.133-2.613-1.699-4.519-1.699H154.938z M154.938,665.908h6.309
			c2.506,0,4.334-0.48,5.484-1.441c1.15-0.962,1.725-2.43,1.725-4.403c0-1.888-0.566-3.369-1.699-4.441
			c-1.133-1.073-2.858-1.609-5.176-1.609h-6.643V665.908z"/>
		<path fill="#A8A8A8" d="M208.439,669.616h-14.677v11.87h17.303v4.995h-23.56v-37.49h23.38v5.021h-17.123v10.582h14.677V669.616z"
			/>
		<path fill="#A8A8A8" d="M221.978,686.481v-37.49h12.385c4.754,0,8.621,1.485,11.6,4.455c2.978,2.97,4.467,6.789,4.467,11.458v5.69
			c0,4.687-1.489,8.506-4.467,11.458c-2.979,2.952-6.845,4.429-11.6,4.429H221.978z M228.235,654.013v27.474h6.128
			c3.003,0,5.39-1.018,7.158-3.052c1.768-2.034,2.652-4.647,2.652-7.84v-5.742c0-3.158-0.884-5.755-2.652-7.789
			c-1.769-2.034-4.155-3.051-7.158-3.051H228.235z"/>
		<path fill="#A8A8A8" d="M269.35,686.481h-6.257v-37.49h6.257V686.481z"/>
		<path fill="#A8A8A8" d="M308.457,654.013H296.87v32.469h-6.257v-32.469h-11.407v-5.021h29.251V654.013z"/>
		<path fill="#A8A8A8" d="M335.205,677.727h-13.286l-2.884,8.755h-6.463l13.08-37.49h5.948l12.926,37.49h-6.463L335.205,677.727z
			 M323.644,672.5h9.862l-4.815-14.779h-0.154L323.644,672.5z"/>
		<path fill="#A8A8A8" d="M354.434,686.481v-37.49h12.385c4.755,0,8.622,1.485,11.601,4.455c2.978,2.97,4.467,6.789,4.467,11.458
			v5.69c0,4.687-1.489,8.506-4.467,11.458c-2.979,2.952-6.846,4.429-11.601,4.429H354.434z M360.69,654.013v27.474h6.128
			c3.004,0,5.391-1.018,7.158-3.052c1.769-2.034,2.652-4.647,2.652-7.84v-5.742c0-3.158-0.884-5.755-2.652-7.789
			c-1.768-2.034-4.154-3.051-7.158-3.051H360.69z"/>
		<path fill="#A8A8A8" d="M424.49,671.109c0,4.583-1.438,8.381-4.313,11.394s-6.613,4.52-11.214,4.52
			c-4.479,0-8.128-1.507-10.942-4.52c-2.815-3.013-4.224-6.811-4.224-11.394v-6.746c0-4.565,1.403-8.359,4.21-11.381
			c2.807-3.021,6.459-4.531,10.956-4.531c4.584,0,8.317,1.511,11.201,4.531c2.884,3.021,4.325,6.815,4.325,11.381V671.109z
			 M418.233,664.312c0-3.124-0.832-5.69-2.497-7.698c-1.665-2.009-3.923-3.013-6.772-3.013c-2.764,0-4.939,1.004-6.527,3.013
			c-1.588,2.008-2.381,4.574-2.381,7.698v6.798c0,3.159,0.798,5.746,2.395,7.764c1.596,2.017,3.768,3.025,6.514,3.025
			c2.867,0,5.128-1.005,6.785-3.013c1.656-2.009,2.484-4.601,2.484-7.776V664.312z"/>
	</g>
</g>
</svg>
