<svg xmlns="http://www.w3.org/2000/svg" width="48.296" height="48.3" viewBox="0 0 48.296 48.3">
  <path id="Trazado_2668" data-name="Trazado 2668" d="M1471.215,5726.564a24.15,24.15,0,1,0,24.144,24.15,24.154,24.154,0,0,0-24.144-24.15m-16.015,24.809v4.22h-1.56v-4.22a25.816,25.816,0,0,0-.955-3.295c-.325-.971-.673-1.94-1-2.907h1.647l1.1,4.091,1.069-4.091h1.575Zm6.046,1.707a3.037,3.037,0,0,1-.433,1.825,2.089,2.089,0,0,1-3.279,0,2.982,2.982,0,0,1-.443-1.825v-2.72a2.977,2.977,0,0,1,.443-1.828,2.075,2.075,0,0,1,3.279,0,3.032,3.032,0,0,1,.433,1.828Zm5.209,2.513h-1.409v-.847a2.25,2.25,0,0,1-1.609.953.865.865,0,0,1-.906-.576,4.081,4.081,0,0,1-.123-1.149v-6.149h1.4v5.723a3.321,3.321,0,0,0,.017.547c.035.214.142.326.337.326.277,0,.573-.213.883-.658v-5.938h1.409Zm21.39,2.729a117.85,117.85,0,0,1-17.26,0,2.917,2.917,0,0,1-2.493-2.263,25.033,25.033,0,0,1-.4-5.446,24.626,24.626,0,0,1,.406-5.448,2.908,2.908,0,0,1,2.492-2.269,115.459,115.459,0,0,1,17.254,0,2.91,2.91,0,0,1,2.493,2.269,37.2,37.2,0,0,1,0,10.894,2.908,2.908,0,0,1-2.492,2.263" transform="translate(-1447.063 -5726.564)" fill="#a7a689"/>
</svg>
