<?xml version="1.0" encoding="utf-8"?>
<!-- Generator: Adobe Illustrator 16.0.0, SVG Export Plug-In . SVG Version: 6.00 Build 0)  -->
<!DOCTYPE svg PUBLIC "-//W3C//DTD SVG 1.1//EN" "http://www.w3.org/Graphics/SVG/1.1/DTD/svg11.dtd">
<svg version="1.1" id="Layer_1" xmlns="http://www.w3.org/2000/svg" xmlns:xlink="http://www.w3.org/1999/xlink" x="0px" y="0px"
	 width="145.109px" height="166.921px" viewBox="0 0 145.109 166.921" enable-background="new 0 0 145.109 166.921"
	 xml:space="preserve">
<g>
	<path fill="#131F12" d="M26.976,55.496c2.827-3.016,32.971-34.639,32.971-34.639c6.318-6.762,14.054-12.68,20.857-16.119
		C87.574,1.23,94.767,0,101.879,0c7.167,0,13.021,1.594,17.364,4.738c4.398,3.107,6.549,7.246,6.549,12.312
		c0,4.496-1.486,8.33-4.668,11.533c-3.074,3.182-6.684,4.793-10.612,4.793c-4.032,0-8.937-2.326-14.817-6.986
		c-5.955-4.625-11.295-6.994-16.182-6.994c-8.302,0-15.339,5.365-21.157,16.076c-5.821,10.707-8.771,24.936-8.771,42.66v61.425
		c0,6.979,0.725,11.781,2.121,14.371c1.432,2.541,4.206,4.418,8.271,5.818c4.586,0.932,9.824,1.51,15.752,1.727
		c5.865,0.232,8.806,1.318,8.806,3.102c0,0.883-0.437,1.459-1.427,1.805c-0.968,0.322-2.893,0.541-5.89,0.541
		c-1.666,0-7.088-0.34-16.196-1.176c-9.168-0.656-17.297-0.287-24.465-0.287c-4.583,0-10.204-0.369-16.807,0.287
		c-6.603,0.836-10.908,1.176-12.857,1.176c-3.273,0-5.261-0.219-5.864-0.58C0.295,165.992,0,165.332,0,164.402
		c0-1.768,1.994-2.928,6.045-3.285c3.304-0.326,6.125-0.83,8.547-1.369c3.576-0.939,5.982-2.771,7.273-5.498
		c1.227-2.646,1.927-7.566,1.927-14.691V62.191C23.792,62.191,23.823,58.783,26.976,55.496"/>
	<g>
		<defs>
			<path id="SVGID_1_" d="M95.787,57.477c0,0-4.988-0.166-14.91,7.688c-8.451,6.711-8.29,11.562-8.29,11.562v0.006
				c0,0-0.162,4.84,8.29,11.552c9.922,7.855,14.893,7.695,14.893,7.695h0.018c0,0,4.94,0.16,14.872-7.695
				c8.454-6.712,8.286-11.552,8.286-11.552v-0.006c0,0,0.168-4.834-8.286-11.557c-9.528-7.541-14.464-7.695-14.849-7.695
				C95.794,57.475,95.787,57.477,95.787,57.477"/>
		</defs>
		<clipPath id="SVGID_2_">
			<use xlink:href="#SVGID_1_"  overflow="visible"/>
		</clipPath>
		
			<radialGradient id="SVGID_3_" cx="-225.8086" cy="517.7251" r="0.9881" gradientTransform="matrix(22.1651 0 0 -20.7679 5100.8384 10828.791)" gradientUnits="userSpaceOnUse">
			<stop  offset="0" style="stop-color:#FFFFFF"/>
			<stop  offset="0.2209" style="stop-color:#FFFFFF"/>
			<stop  offset="0.2612" style="stop-color:#DCEDF2"/>
			<stop  offset="0.3284" style="stop-color:#ADD7E5"/>
			<stop  offset="0.4" style="stop-color:#83C7DB"/>
			<stop  offset="0.4749" style="stop-color:#5ABBD3"/>
			<stop  offset="0.5541" style="stop-color:#26B2CD"/>
			<stop  offset="0.639" style="stop-color:#00ABC9"/>
			<stop  offset="0.7325" style="stop-color:#00A7C6"/>
			<stop  offset="0.841" style="stop-color:#00A5C4"/>
			<stop  offset="1" style="stop-color:#00A4C4"/>
		</radialGradient>
		<rect x="72.425" y="57.311" clip-path="url(#SVGID_2_)" fill="url(#SVGID_3_)" width="46.688" height="38.83"/>
	</g>
	<path fill="#FFFFFF" d="M102.485,76.779c0,3.674-2.995,6.672-6.698,6.672c-3.736,0-6.75-2.998-6.75-6.672s3.014-6.639,6.75-6.639
		C99.49,70.141,102.485,73.105,102.485,76.779"/>
	<path fill="#152917" d="M97.289,76.793c0,0.787-0.688,1.436-1.502,1.436c-0.865,0-1.543-0.648-1.543-1.436
		c0-0.775,0.678-1.434,1.543-1.434C96.6,75.359,97.289,76.018,97.289,76.793"/>
	<polygon fill="#131F12" points="139.5,70.539 139.5,76.018 145.109,76.018 145.109,77.406 139.5,77.406 139.5,82.912 
		137.916,82.912 137.916,77.406 132.295,77.406 132.295,76.018 137.916,76.018 137.916,70.539 	"/>
</g>
</svg>
